<svg xmlns="http://www.w3.org/2000/svg" xmlns:xlink="http://www.w3.org/1999/xlink" width="515" height="355" viewBox="0 0 515 355"><defs><style>.a,.c,.f,.t{fill:#00e6bf;}.a,.g,.u{opacity:0.1;}.b{fill:#dddde1;}.d{fill:#3f2a93;}.e{fill:#4b4660;}.f,.i{opacity:0.2;}.h{fill:#afc0e0;}.i{fill:#fff;}.j{fill:none;stroke:#76e2dc;stroke-miterlimit:10;stroke-width:2px;}.k{opacity:0.25;}.l{fill:url(#a);}.m{fill:#424242;}.n,.t{opacity:0.05;}.o{fill:#363d3d;}.p{fill:#ee8e9e;}.q{fill:#30374e;}.r{fill:#434175;}.s{fill:#565387;}</style><linearGradient id="a" x1="0.5" y1="1" x2="0.5" gradientUnits="objectBoundingBox"><stop offset="0" stop-color="gray" stop-opacity="0.251"/><stop offset="0.54" stop-color="gray" stop-opacity="0.122"/><stop offset="1" stop-color="gray" stop-opacity="0.102"/></linearGradient></defs><path class="a" d="M33.675,296.8c9.1-14.872,29.688-12.279,44.285-4.516s29.164,19.352,45.229,17.125c13.546-1.879,24.653-13.693,30.654-27.323s7.762-29,9.45-44.05q3.183-28.366,6.362-56.768c.777-6.923,1.693-14.23,5.585-19.708,5.143-7.226,14.571-9.448,22.635-7.275s14.941,8,20.824,14.5c18.847,20.81,29.525,48.941,46,72.1,3.355,4.715,7.143,9.375,12.155,11.652,7.224,3.274,15.519.957,22.576-2.687,23.028-11.873,38.5-36.1,53.7-58.71,7.4-10.988,16.413-22.739,28.717-23.935,12.945-1.287,24.184,9.746,31.792,21.429,24.418,37.592,29.651,88.913,59.149,121.7a47.953,47.953,0,0,0,12.358,10.346,31.9,31.9,0,0,0,4.786,2.1c25.737,8.91,34.316,44.678,15.28,65.886q-.616.677-1.255,1.355c-2.827,2.985-6.028,5.808-9.848,6.7-3.554.822-7.224-.126-10.746-1.152-22.513-6.571-44.755-16.615-68.031-16.127-22.648.452-44.132,10.915-66.527,14.682-15.058,2.534-30.378,2.028-45.6,1.481q-76.064-2.737-152.1-6.368c-25.159-1.156-50.327-2.258-75.481-3.545-19.379-1.007-31.724-3.225-33.973-25.719C39.685,340.266,22,315.874,33.675,296.8Z" transform="translate(-29.719 -109.623)"/><ellipse class="b" cx="121.931" cy="17.039" rx="121.931" ry="17.039" transform="translate(234.702 320.921)"/><path class="c" d="M178.46,642.862s5.961-1.355,9.868,2.651c0,0-2.511,2.258-8.418-.244Z" transform="translate(-111.287 -378.277)"/><path class="c" d="M174.528,643s-3.532,5-1.292,10.139c0,0,3.053-1.468,2.967-7.881Z" transform="translate(-108.014 -378.481)"/><path class="c" d="M168.2,624.138s2.118-4.584,12.194.957c0,0-1.084,3.062-5.365,3.107S169.465,626.391,168.2,624.138Z" transform="translate(-105.66 -367.141)"/><path class="c" d="M160.986,625.68s-5.045-.235-4.76,11.254c0,0,3.22.452,5.23-3.333S162.4,627.861,160.986,625.68Z" transform="translate(-99.088 -368.971)"/><path class="c" d="M159,600.191s2.258-7.984,12.857-3.107c0,0-1.852,7.312-11.652,5.708Z" transform="translate(-100.615 -352.399)"/><path class="c" d="M150.29,575.478s4.778-8.237,14.673-1.554c0,0-2.8,7.619-13.679,4.313Z" transform="translate(-95.839 -339.113)"/><path class="c" d="M146.15,551.606s5.7-7.655,15.517-1.043c0,0-5.446,6.747-15.4,2.89Z" transform="translate(-93.568 -326.244)"/><path class="c" d="M142.41,527.554s5.763-7.975,15.17-1.423c0,0-6.63,7.149-15.052,3.193Z" transform="translate(-91.517 -312.887)"/><path class="c" d="M142.23,503.81s5.939-10.175,14.745-4.141c0,0-6.512,8.838-14.619,5.988Z" transform="translate(-91.419 -298.727)"/><path class="c" d="M144,479.336s6.323-10.116,14.944-3.243c0,0-7.723,8.919-14.844,5.035Z" transform="translate(-92.389 -285.518)"/><path class="c" d="M147.383,455.078s7.677-9.624,15.152-6.49c0,0-7.985,10.206-15.355,8.924Z" transform="translate(-94.133 -271.385)"/><path class="c" d="M151.966,431.386s8.824-11.742,14.619-8.409c0,0-6.463,9.073-15.165,10.545Z" transform="translate(-96.458 -257.341)"/><path class="c" d="M159.1,407.641s7.754-9.628,14-7.786c0,0-6.526,9.886-14.948,10.694Z" transform="translate(-100.149 -244.843)"/><path class="c" d="M166.765,384.156s8.662-9.3,12.785-8.048c0,0-6.029,10.1-13.061,10Z" transform="translate(-104.723 -231.868)"/><path class="c" d="M173.87,359.875s7.266-10.906,11.661-10.387c0,0-4.2,9.57-11.588,11.439Z" transform="translate(-108.77 -217.306)"/><path class="c" d="M180.717,333.082s6.5-8.427,10.3-8.662c0,0-4.837,10.992-10.419,11.29Z" transform="translate(-112.46 -203.551)"/><path class="c" d="M184.081,303.721l5.681-17.021s1.355,14.948-6.323,20.151Z" transform="translate(-114.018 -182.843)"/><path class="c" d="M187.521,265.34s.2-13.905-.6-14.98c0,0,5.632,11.173.966,21.095Z" transform="translate(-115.926 -162.889)"/><path class="c" d="M144.776,604.7s-7.343-3.893-11.186,7.1c0,0,6.548,3.739,12.194-4.43Z" transform="translate(-86.681 -357.08)"/><path class="c" d="M134.722,579.03s-8.906-3.365-12.352,8.075c0,0,6.986,4.132,13.327-5.311Z" transform="translate(-80.528 -343.101)"/><path class="c" d="M126.517,554.339s-6.679-6.824-15.517,1.052c0,0,6.3,5.957,15.639.808Z" transform="translate(-74.293 -328.287)"/><path class="c" d="M123.454,528.819s-6.774-7.14-15.224.614c0,0,7.524,6.2,15.355,1.152Z" transform="translate(-72.774 -314.135)"/><path class="c" d="M124.815,503.541s-5.13-10.6-14.375-5.27c0,0,5.808,9.317,14.108,7.108Z" transform="translate(-73.985 -298.187)"/><path class="c" d="M127.589,477.854s-5.117-10.794-14.479-5c0,0,6.621,9.759,14.154,6.743Z" transform="translate(-75.45 -284.115)"/><path class="c" d="M136.785,448.416s-2.547-12.035-10.635-12.586c0,0,2.565,12.7,9.714,14.849Z" transform="translate(-82.601 -264.729)"/><path class="c" d="M142.967,424.539s-1.657-14.592-8.337-14.659c0,0,.971,11.1,7.727,16.777Z" transform="translate(-87.251 -250.481)"/><path class="c" d="M150.495,400.447s-2.8-12.04-9.245-13.1c0,0,1.581,11.742,8.82,16.132Z" transform="translate(-90.881 -238.109)"/><path class="c" d="M162.531,376.81s-.9-12.677-4.923-14.28c0,0-1.63,11.643,3.906,15.978Z" transform="translate(-99.729 -224.48)"/><path class="c" d="M167.729,354.436s-1.423-13.029-5.559-14.6c0,0-.677,10.428,5.013,15.49Z" transform="translate(-102.34 -212.021)"/><path class="c" d="M177.1,330.131s-.741-10.617-3.771-12.921c0,0-2.068,11.828,2.416,15.156Z" transform="translate(-108.213 -199.594)"/><path class="c" d="M178.51,302.035l-3.974-17.5s-2.814,14.741,4.322,20.675Z" transform="translate(-108.835 -181.657)"/><path class="c" d="M173.038,268.8s-7.962-11.417-7.9-12.744c0,0,1.6,12.41,11.024,18.015Z" transform="translate(-103.982 -166.018)"/><path class="c" d="M170.6,255s-7.885-16.434-11.033-17.613c0,0,9.976,4.259,11.566,17.071Z" transform="translate(-100.928 -155.766)"/><path class="c" d="M179.992,308.135l-.452-.113c4.448-18.968,5.076-30.926,1.761-33.672l.307-.37C185.1,276.888,184.553,288.7,179.992,308.135Z" transform="translate(-111.879 -175.865)"/><path class="c" d="M151.41,392.455l-.7-.194c.492-1.743,1.025-3.518,1.594-5.266,4.968-15.228,9.1-29.355,11.629-40.166l.574-.339c-2.538,10.839-6.553,25.484-11.512,40.726C152.431,388.96,151.9,390.721,151.41,392.455Z" transform="translate(-96.069 -215.693)"/><path class="c" d="M167.118,547.687c-.1-.095-10.035-9.877-17.667-27.205a104.941,104.941,0,0,1-8.4-31.961c-1.355-13.788.5-29.413,4.516-43.761l.578.6c-9.032,32.2-2.8,58.863,4.168,74.7,7.555,17.161,17.378,26.848,17.477,26.943Z" transform="translate(-90.528 -269.729)"/><path class="d" d="M223.53,558.3s3.613-.827,5.97,1.6c0,0-1.522,1.355-5.09-.149Z" transform="translate(-136.003 -331.888)"/><path class="d" d="M221.169,558.39s-2.132,3.026-.777,6.128c0,0,1.843-.9,1.806-4.764Z" transform="translate(-134.035 -332.018)"/><path class="d" d="M217.34,546.975s1.278-2.768,7.361.583a3.277,3.277,0,0,1-3.243,1.874A3.956,3.956,0,0,1,217.34,546.975Z" transform="translate(-132.608 -325.158)"/><path class="c" d="M212.973,547.91s-3.053-.14-2.881,6.8a3.278,3.278,0,0,0,3.161-2.014A3.961,3.961,0,0,0,212.973,547.91Z" transform="translate(-128.629 -326.264)"/><path class="c" d="M211.75,532.5s1.386-4.828,7.781-1.888c0,0-1.115,4.421-7.041,3.45Z" transform="translate(-129.543 -316.24)"/><path class="c" d="M206.51,517.566s2.886-4.968,8.87-.939c0,0-1.694,4.606-8.269,2.606Z" transform="translate(-126.669 -308.22)"/><path class="c" d="M204,503.128s3.45-4.629,9.38-.632c0,0-3.288,4.065-9.3,1.748Z" transform="translate(-125.293 -300.432)"/><path class="c" d="M201.74,488.589s3.486-4.823,9.172-.858c0,0-4.006,4.322-9.1,1.928Z" transform="translate(-124.053 -292.359)"/><path class="c" d="M201.64,474.23s3.613-6.146,8.91-2.5c0,0-3.938,5.343-8.838,3.613Z" transform="translate(-123.998 -283.798)"/><path class="c" d="M202.68,459.432s3.834-6.119,9.032-1.978c0,0-4.67,5.392-8.978,3.044Z" transform="translate(-124.569 -275.805)"/><path class="c" d="M204.763,444.778s4.638-5.817,9.159-3.92c0,0-4.828,6.169-9.272,5.392Z" transform="translate(-125.649 -267.274)"/><path class="c" d="M207.52,430.45s5.334-7.095,8.838-5.085c0,0-3.906,5.487-9.168,6.377Z" transform="translate(-127.042 -258.779)"/><path class="c" d="M211.85,416.113s4.688-5.821,8.472-4.706c0,0-3.943,5.975-9.032,6.462Z" transform="translate(-129.29 -251.234)"/><path class="c" d="M216.467,401.9s5.234-5.623,7.727-4.864c0,0-3.64,6.1-7.894,6.047Z" transform="translate(-132.038 -243.381)"/><path class="c" d="M220.76,387.214s4.394-6.594,7.05-6.286c0,0-2.538,5.785-7,6.919Z" transform="translate(-134.484 -234.57)"/><path class="c" d="M224.912,371.019s3.929-5.094,6.228-5.239c0,0-2.926,6.648-6.3,6.815Z" transform="translate(-136.721 -226.259)"/><path class="c" d="M226.916,353.279,230.344,343s.813,9.032-3.834,12.193Z" transform="translate(-137.637 -213.754)"/><path class="c" d="M229.016,330.065s.117-8.4-.366-9.055c0,0,3.405,6.752.583,12.754Z" transform="translate(-138.81 -201.679)"/><path class="c" d="M203.154,535.227s-4.435-2.357-6.774,4.29c0,0,3.961,2.258,7.375-2.674Z" transform="translate(-121.114 -319.076)"/><path class="c" d="M197.1,519.662s-5.388-2.032-7.47,4.882c0,0,4.223,2.5,8.057-3.206Z" transform="translate(-117.412 -310.599)"/><path class="c" d="M192.13,504.776s-4.033-4.123-9.38.632c0,0,3.807,3.613,9.457.488Z" transform="translate(-113.639 -301.667)"/><path class="c" d="M190.284,489.352s-4.1-4.313-9.2.375c0,0,4.548,3.744,9.276.7Z" transform="translate(-112.724 -293.114)"/><path class="c" d="M191.1,474.03s-3.1-6.408-8.694-3.188c0,0,3.514,5.632,8.531,4.3Z" transform="translate(-113.453 -283.449)"/><path class="c" d="M192.766,458.525S189.672,452,184,455.5c0,0,4,5.9,8.558,4.065Z" transform="translate(-114.325 -274.956)"/><path class="c" d="M198.341,440.76s-1.54-7.28-6.431-7.61c0,0,1.549,7.677,5.871,8.974Z" transform="translate(-118.663 -263.252)"/><path class="c" d="M202.058,426.305s-.994-8.82-5.058-8.865c0,0,.587,6.711,4.67,10.148Z" transform="translate(-121.454 -254.627)"/><path class="c" d="M206.626,411.741s-1.694-7.28-5.586-7.921c0,0,.957,7.095,5.334,9.75Z" transform="translate(-123.669 -247.148)"/><path class="c" d="M213.906,397.455s-.555-7.677-2.972-8.635c0,0-.989,7.041,2.357,9.66Z" transform="translate(-129.02 -238.912)"/><path class="c" d="M217.051,383.925s-.858-7.876-3.36-8.825c0,0-.411,6.323,3.03,9.366Z" transform="translate(-130.599 -231.378)"/><path class="c" d="M222.738,369.233s-.452-6.417-2.258-7.813c0,0-1.251,7.154,1.459,9.163Z" transform="translate(-134.172 -223.866)"/><path class="c" d="M223.59,352.247l-2.4-10.577s-1.7,8.915,2.61,12.5Z" transform="translate(-134.536 -213.024)"/><path class="c" d="M220.263,332.164s-4.81-6.9-4.774-7.7c0,0,.962,7.5,6.661,10.888Z" transform="translate(-131.593 -203.573)"/><path class="c" d="M218.76,323.825s-4.769-9.935-6.67-10.635a12.965,12.965,0,0,1,6.991,10.324Z" transform="translate(-129.729 -197.384)"/><path class="c" d="M224.445,355.928l-.285-.068c2.71-11.466,3.071-18.7,1.066-20.354l.185-.226C227.538,337.041,227.2,344.186,224.445,355.928Z" transform="translate(-136.348 -209.52)"/><path class="c" d="M207.184,406.934l-.424-.122c.3-1.052.623-2.123.966-3.161,2.994-9.208,5.5-17.748,7.027-24.283l.348-.208c-1.535,6.548-3.961,15.409-6.959,24.626C207.8,404.83,207.478,405.882,207.184,406.934Z" transform="translate(-126.806 -233.62)"/><path class="c" d="M216.675,500.758a56.967,56.967,0,0,1-10.681-16.448,63.551,63.551,0,0,1-5.081-19.32,74.091,74.091,0,0,1,2.737-26.46l.348.361c-5.46,19.469-1.689,35.587,2.52,45.161a56.136,56.136,0,0,0,10.568,16.285Z" transform="translate(-123.453 -266.256)"/><path class="e" d="M207.941,546.864a17.272,17.272,0,0,0-3.387.966c-24.36,9.728-23.954,73.4-23.954,73.4h-7.172s-2.258-27.327-12.1-66.315c-8.865-35.077,27.494-66.513,34.878-72.475.831-.664,1.292-1.016,1.292-1.016C234.121,494.888,207.941,546.864,207.941,546.864Z" transform="translate(-101.135 -290.004)"/><path class="f" d="M200.192,482.547c-.845-.388-1.716-.759-2.642-1.1,0,0-.452.352-1.292,1.016-7.384,5.961-43.743,37.4-34.878,72.475,9.841,38.988,12.076,66.306,12.076,66.306h4.033s-2.235-27.327-12.1-66.315C156.562,520.018,192.569,488.7,200.192,482.547Z" transform="translate(-101.162 -290.015)"/><path class="e" d="M466.146,554.93c-9.863,38.988-12.085,66.306-12.085,66.306h-7.185s.452-66.549-25.62-73.979a14.242,14.242,0,0,0-1.721-.4s-26.194-51.976,10.441-65.425c0,0,.37.276,1.039.813C437.8,487.676,475.111,519.447,466.146,554.93Z" transform="translate(-238.551 -290.004)"/><path class="g" d="M251.973,546.875a17.276,17.276,0,0,0-3.387.967,442.224,442.224,0,0,1-8.346-65.375c.831-.664,1.292-1.016,1.292-1.016C278.153,494.9,251.973,546.875,251.973,546.875Z" transform="translate(-145.185 -289.833)"/><path class="g" d="M431.045,482.284a406.9,406.9,0,0,1-9.759,65.032,14.255,14.255,0,0,0-1.721-.4s-26.194-51.976,10.441-65.425C429.993,481.471,430.363,481.746,431.045,482.284Z" transform="translate(-238.565 -289.853)"/><path class="b" d="M325.255,323.142q-3.794,14.94-8.892,30.655s-16.132,16.775-55.1,0a294.618,294.618,0,0,1-8.174-29.578c-9.425-40.947-20.729-118.979,3.355-199.129A298.056,298.056,0,0,1,286.787,56.36s20.576,23.582,35.677,68.717S347.177,236.911,325.255,323.142Z" transform="translate(-146.172 -56.36)"/><circle class="h" cx="32.349" cy="32.349" r="32.349" transform="translate(111.538 100.058)"/><path class="c" d="M343.469,322.147a22.942,22.942,0,0,1-37.484,17.744,23.181,23.181,0,0,1-4.3-4.665,22.57,22.57,0,0,1-1.481-2.434,22.9,22.9,0,0,1-2.615-10.645V321.6A22.969,22.969,0,0,1,314.3,300.05a23.726,23.726,0,0,1,5.528-.84h.686A22.942,22.942,0,0,1,343.469,322.147Z" transform="translate(-176.641 -189.728)"/><path class="e" d="M339.935,125.2c-36.7,17.572-66.035,0-66.035,0A298.853,298.853,0,0,1,304.262,56.36S324.837,79.984,339.935,125.2Z" transform="translate(-163.649 -56.36)"/><path class="e" d="M338.661,648.14q-2.574,10.134-5.736,20.616-1.5,5-3.161,10.08s-16.132,16.8-55.1,0c0,0-1.264-3.563-3.161-10.08-1.418-4.923-3.184-11.521-5.026-19.55,0,0,14.506,6.192,35.095,6.192A96.692,96.692,0,0,0,338.661,648.14Z" transform="translate(-159.579 -381.425)"/><path class="b" d="M339.029,693.79q-1.5,5-3.161,10.08s-16.132,16.8-55.1,0c0,0-1.264-3.563-3.161-10.08C277.605,693.79,317.32,705.216,339.029,693.79Z" transform="translate(-165.683 -406.459)"/><path class="i" d="M314.324,299.98l-.05.036L297.61,321.531v.546a22.9,22.9,0,0,0,2.615,10.645l19.636-33.582Z" transform="translate(-176.651 -189.682)"/><path class="i" d="M324.607,341.96,310.959,362.4a23.184,23.184,0,0,1-4.3-4.665l16.258-17.45Z" transform="translate(-181.614 -212.266)"/><path class="i" d="M269.955,353.794a295.088,295.088,0,0,1-8.174-29.578c-9.425-40.952-20.729-118.983,3.355-199.133A299.141,299.141,0,0,1,291.714,62.83c-3.057-4.278-4.968-6.46-4.968-6.46A298.026,298.026,0,0,0,256.4,125.083c-24.085,80.15-12.781,158.181-3.356,199.133a295.088,295.088,0,0,0,8.174,29.578c15.4,6.622,27.223,8.011,35.9,7.272C289.7,360.5,280.7,358.415,269.955,353.794Z" transform="translate(-146.143 -56.366)"/><path class="j" d="M966.7,668.774s21.108-26.266,19.708-52.572a51.055,51.055,0,0,1,8.373-31.188,85.894,85.894,0,0,1,9.936-12.193" transform="translate(-543.644 -340.121)"/><path class="c" d="M1048.48,530.744c-1.509,3.663.75,17.017.75,17.017s11.006-7.894,12.514-11.557a7.172,7.172,0,1,0-13.264-5.46Z" transform="translate(-588.207 -314.413)"/><path class="c" d="M1006.181,560.772c.727,3.893,9.881,13.874,9.881,13.874s4.968-12.6,4.222-16.5a7.173,7.173,0,1,0-14.1,2.628Z" transform="translate(-565.228 -328.682)"/><path class="d" d="M973.673,633.891c2.592,2.994,15.536,6.991,15.536,6.991s-2.1-13.381-4.688-16.38a7.171,7.171,0,1,0-10.84,9.39Z" transform="translate(-546.512 -366.974)"/><path class="d" d="M964.583,698.713c2.046,3.392,14.127,9.516,14.127,9.516s.2-13.548-1.847-16.935a7.174,7.174,0,0,0-12.279,7.42Z" transform="translate(-541.916 -403.19)"/><path class="c" d="M1037.748,599.268c-3.676,1.468-17.008-.926-17.008-.926s8-10.925,11.683-12.4a7.174,7.174,0,0,1,5.324,13.323Z" transform="translate(-573.279 -346.875)"/><path class="c" d="M1026.451,672.941c-3.947.3-15.951-5.97-15.951-5.97s10.9-8.034,14.854-8.337a7.175,7.175,0,1,1,1.1,14.309Z" transform="translate(-567.664 -387.059)"/><path class="d" d="M1003.372,743.684c-3.843.967-16.732-3.188-16.732-3.188s9.389-9.759,13.232-10.721a7.172,7.172,0,1,1,3.5,13.91Z" transform="translate(-554.579 -426.073)"/><path class="k" d="M973.673,633.891c2.592,2.994,15.536,6.991,15.536,6.991s-2.1-13.381-4.688-16.38a7.171,7.171,0,1,0-10.84,9.39Z" transform="translate(-546.512 -366.974)"/><path class="k" d="M964.583,698.713c2.046,3.392,14.127,9.516,14.127,9.516s.2-13.548-1.847-16.935a7.174,7.174,0,0,0-12.279,7.42Z" transform="translate(-541.916 -403.19)"/><path class="k" d="M1003.372,743.684c-3.843.967-16.732-3.188-16.732-3.188s9.389-9.759,13.232-10.721a7.172,7.172,0,1,1,3.5,13.91Z" transform="translate(-554.579 -426.073)"/><path class="j" d="M967.12,695.047s29.942-15.463,39.322-40.076a51.031,51.031,0,0,1,20.3-25.123,85.77,85.77,0,0,1,14-7.117" transform="translate(-543.875 -367.491)"/><path class="c" d="M1135.88,586.027c-2.863,2.741-6.21,15.865-6.21,15.865s13.259-2.759,16.122-5.5a7.179,7.179,0,1,0-9.913-10.387Z" transform="translate(-633.015 -346.106)"/><path class="c" d="M1090.009,596.372c-.9,3.857,3.41,16.71,3.41,16.71s9.615-9.516,10.545-13.395a7.172,7.172,0,1,0-13.955-3.315Z" transform="translate(-611.197 -349.863)"/><path class="c" d="M1030.559,650.038c1.156,3.789,11.372,12.686,11.372,12.686s3.509-13.1,2.353-16.868a7.174,7.174,0,1,0-13.724,4.182Z" transform="translate(-578.492 -377.272)"/><path class="d" d="M995.99,705.623c.5,3.933,9.059,14.424,9.059,14.424s5.672-12.3,5.171-16.231a7.172,7.172,0,0,0-14.23,1.806Z" transform="translate(-559.675 -408.52)"/><path class="c" d="M1101.1,647.891c-3.961-.144-15.174-7.736-15.174-7.736s11.742-6.743,15.7-6.6a7.172,7.172,0,1,1-.528,14.334Z" transform="translate(-609.029 -373.3)"/><path class="c" d="M1063.156,711.264c-3.735-1.323-12.166-11.923-12.166-11.923s13.228-2.922,16.958-1.6a7.173,7.173,0,0,1-4.792,13.521Z" transform="translate(-589.868 -408.438)"/><path class="d" d="M1012.12,766.351c-3.9-.673-14-9.7-14-9.7s12.541-5.112,16.443-4.439a7.172,7.172,0,1,1-2.439,14.135Z" transform="translate(-560.875 -438.466)"/><path class="l" d="M832.163,524.577l-23.208-33.659S808.5,482.586,807,480.64s-.325-6.277-.325-6.277,1.626-2.38.217-2.6-.217-5.523-.217-5.523l-.108-8.441s1.3-8.129.217-10.062a3.193,3.193,0,0,1,.108-3.464s1.3-4.656,0-5.844-.975-8.445-.65-14.181-2.281-8.983-2.281-9.85-8.581-9.308-8.581-10.062-5.419-3.9-8.676-4.764-4.882-1.513-4.773-1.946-5.1-2.163-5.1-2.163-4.557-.325-6.3-2.6-7.041-2.926-7.194-2.949c-.032-.149-.068-.3-.1-.452s-.068-.325-.1-.488c.411-.691.79-1.4,1.133-2.123.1-.221.2-.452.3-.659a9.265,9.265,0,0,0,5.343-1.657,7.275,7.275,0,0,0,2.6-5.189,11.378,11.378,0,0,0-1.269-5.767c-.949-1.951-2.344-3.97-1.865-6.083.212-.9.759-1.716,1.039-2.61a6.875,6.875,0,0,0-.781-5.126c-.822-1.572-1.964-2.954-2.877-4.475a17.476,17.476,0,0,1-2.29-6.323,9.885,9.885,0,0,0-.849-3.446,6.418,6.418,0,0,0-1.9-1.919,19,19,0,0,0-11.661-3.536c-2.954.1-5.9.9-8.829.537a31.769,31.769,0,0,1-5.157-1.355c-3.64-1.075-7.836-1.517-11.006.565s-4.43,6.178-6.576,9.38c-1.9,2.836-4.679,5.212-6.124,8.21a.645.645,0,0,1,.045-.172,9.822,9.822,0,0,0-.808,2.186,15.573,15.573,0,0,0,.483,7.176,4.979,4.979,0,0,0,1.752,3.206c1.052.673,2.542.524,3.789.745-.045.2-.1.411-.145.619a24.794,24.794,0,0,0,17.2,28.9v.659a16.4,16.4,0,0,1-.113,1.861h0s-10.906-2.258-13.837-.723-8.68,2.71-9.547,3.568-3.035.217-4.968,5.306-2.168,10.279-4.665,12.645-3.794,4.006-3.9,5.74.325,2.163-.655,2.71-2.385,2.814-1.951,3.681a3.077,3.077,0,0,1-1.192,3.243A3.625,3.625,0,0,0,692.339,442s-.65,2.385-2.168,2.922-2.5,4.114-2.5,4.114l-4.936,5.668-9.75-10.794a4.109,4.109,0,0,0-5.8-.3L662.4,447.93a9.457,9.457,0,0,0-4.792,2.854,12.347,12.347,0,0,0-2.479,3.694l-2.624,2.357a6.661,6.661,0,0,0-.673,7.352l6.246,6.905.041.059a11.031,11.031,0,0,0-6.043,2.461c-9.326,8.224-9.439,15.806-8.025,19.261s13.232,16.777,13.232,16.777,6.869,8.928,16.786,13.679h0l-.077.077c-.194.208-.388.452-.578.677l-.162.208-.149.208-.176.262c-.05.068-.095.14-.14.212s-.127.2-.185.312l-.122.208c-.072.135-.149.275-.221.42l-.072.14c-.09.19-.181.384-.267.587-.032.072-.059.149-.09.221-.054.14-.113.285-.167.452s-.068.185-.1.28-.095.28-.14.425-.063.2-.09.3-.09.316-.131.479-.05.19-.077.294c-.059.248-.117.506-.167.777a1.914,1.914,0,0,1-.054.307q-.054.271-.095.555c-.023.131-.036.262-.054.393s-.045.357-.068.537l-.041.415c0,.2-.036.406-.05.614a2.129,2.129,0,0,1-.023.379c0,.343-.036.686-.04,1.048-.217,12.645.524,14.5.524,14.5s1.531,4.033,5.758,4.322a7.359,7.359,0,0,0,1.856-.1c5.64-.976,18.873-3.247,23.538-2.38,2.8.519,8-.248,11.7-.948l.971-.185.677,2.15,2.145-.587,1.806,1.052,1.152.659c2.141,7.262,10.839,4.787,10.839,4.787l2.041,1.183,20.937.542a42.89,42.89,0,0,0,7.411,3.559,6.868,6.868,0,0,0,1.052.23,47.532,47.532,0,0,0,5.835.108c1.6-.041,2.845-.108,2.845-.108s-.212-5.686-.519-12.049a171.559,171.559,0,0,0,19.392-1.59c11.182-1.965,15.847-12.13,17.563-17.563a51.1,51.1,0,0,1,1.1,6.743,48.25,48.25,0,0,0,1.739,5.844,19.751,19.751,0,0,0,2.384,4.326c8.246-2.813,3.256-7.031,1.517-8.874s1.2-3.356,1.2-3.356,2.258-1.513,2.059-2.922-.325-2.922,7.049-2.813S832.163,524.577,832.163,524.577Zm-114.556-69.1c.095.619,1.125,7.289,2.055,9.032a11.928,11.928,0,0,1,.244,3.563c-4.372-.348-8.924-.533-8.924-.533a1.047,1.047,0,0,1,.235.556l-.686-.154-1-.244,8.052-12.248Zm-15.951,25.381,7.565,1.2.637.1a24.922,24.922,0,0,0-.393,3.572c0,.113.172.248.416.406a9.734,9.734,0,0,0-.149,1.806c.122.6,3.658,1.892,7.714,2.967-.054.217-.108.425-.163.619h0c-3.581-1.883-9.227-2.764-9.877-4.164s-19.871-8.129-19.871-8.129-.7-.37-1.91-.957l5.058.957,1.391-.14a75.824,75.824,0,0,0,9.583,1.752Z" transform="translate(-366.344 -211.536)"/><path class="m" d="M840.749,711.785s-3.008,18.168-18.277,20.855-66.233,2.15-66.233,2.15S727.1,730.6,716.564,705.978s-17.31-34.408-8.278-34.837S766.025,687.593,768.8,687.8,843.436,650.389,840.749,711.785Z" transform="translate(-399.624 -394.034)"/><path class="n" d="M840.749,711.785s-3.008,18.168-18.277,20.855-66.233,2.15-66.233,2.15S727.1,730.6,716.564,705.978s-17.31-34.408-8.278-34.837S766.025,687.593,768.8,687.8,843.436,650.389,840.749,711.785Z" transform="translate(-399.624 -395.072)"/><path class="d" d="M703.389,772.47s1.522,4.01,5.708,4.295a7.416,7.416,0,0,0,1.838-.1c5.591-.966,18.71-3.224,23.33-2.366,2.782.519,7.926-.248,11.588-.939,2.439-.452,4.218-.9,4.218-.9s-4.3-14.3-4.841-14.727-19.352-11.719-19.352-11.719l-14.9-1.07h-.045a7.834,7.834,0,0,0-5.049,2.967c-1.576,1.9-2.926,5.026-3.017,10.148C702.657,770.641,703.389,772.47,703.389,772.47Z" transform="translate(-398.906 -434.509)"/><path class="n" d="M703.391,772.487s1.522,4.01,5.708,4.295a61.2,61.2,0,0,1-4.065-5.907l.077-10.428a18.33,18.33,0,0,1,5.871-15.477h-.045s-7.849.533-8.066,13.1S703.391,772.487,703.391,772.487Z" transform="translate(-398.904 -434.526)"/><path class="g" d="M836.66,715.831l13.869-10.839,21.826-21.506s-2.357-.113-5.912-.266c-.9.565-3.365,2.339-3.455,4.516-.108,2.628-5.9.181-8.91,1.685s-17.739,20.359-20.323,20.237-4.62-1.31-5.7.519c0,.041-.05.077-.077.117Z" transform="translate(-467.549 -400.663)"/><path class="g" d="M709.6,747.916c.492.239.989.452,1.5.686,10.541,4.516,23.547,14,24.518,15.7.587,1.048,8.129,5.627,13.95,9.059,2.439-.452,4.218-.9,4.218-.9s-4.3-14.3-4.841-14.727-19.352-11.719-19.352-11.719l-14.9-1.07h-.045A7.868,7.868,0,0,0,709.6,747.916Z" transform="translate(-402.62 -434.509)"/><path class="o" d="M644.037,656.949c1.4,3.441,13.1,16.669,13.1,16.669s7.415,9.673,17.956,14.19,23.547,14,24.513,15.7c.623,1.107,9.032,6.165,14.939,9.642l1.323.772,2.935,1.7,1.554.9s3.613-2.89,7.185-5.8,7.059-5.758,7.117-5.921c.1-.321,1.5-3.979,1.179-4.191-.167-.113-.9-1.6-2.258-3.328a15.273,15.273,0,0,0-5.478-4.516,15.432,15.432,0,0,1-7.095-7.4s-.452-.343-1.188-.795a14.383,14.383,0,0,0-4.832-2.154c-2.371-.3-6.774-5.135-6.774-5.135a13.28,13.28,0,0,1-4.2-4.408c-1.129-2.357-17.8-13.81-19.347-14.867l40.424,25.959,9.674,6.219,13.869-10.839,21.831-21.506s-2.935-.145-7.226-.325c-10.608-.452-29.45-1.179-31.83-.641a18.143,18.143,0,0,1-5.916.384s-5.365.244-8.915-1.63-9.145-2.75-9.791-4.137-19.677-8.061-19.677-8.061-25.909-13.761-35.158-5.586S642.637,653.513,644.037,656.949Z" transform="translate(-366.309 -374.361)"/><path class="p" d="M829.82,469.816l3.333,11.073,4.3,24.943,15.806,1.075,4.575-7.587,4.584-7.574s2.845-10.08,4.891-19.83c1.806-8.626,2.99-17,1.021-17.906-1.743-.808-2.89-3.712-3.613-6.837-.095-.384-.181-.777-.262-1.17a60.814,60.814,0,0,1-1.048-8.016s-33.117-1.716-28.492,11.936a21.763,21.763,0,0,1,1.246,7.262,17.28,17.28,0,0,1-.113,1.847A15.49,15.49,0,0,1,829.82,469.816Z" transform="translate(-468.558 -265.926)"/><path class="d" d="M814.58,493.587l1.183,18.814,2.687,16.019,3.012,7.42,2.687,40.591s25.927,3,32.232-.054a2.774,2.774,0,0,0,1.143-.9c7.614-11.484,5.117-44.8,5.117-44.8l2.9-21.51L863.607,498l-4.674-.5-3.613-.384s-.813,1-1.987,2.552c-3.188,4.209-9.032,12.487-8.657,15.942.533,4.733-.646,9.57-2.475,10.324s-3.333,2.041-3.654.754a5.847,5.847,0,0,1-.325-3.441c.321-1.829-1.4-7.42-1.4-7.42s-2.9-6.557-2.71-9.353-.321-6.025-1.183-6.774-2.041-1.508-1.075-4.968-4.241-10.139-4.241-10.139Z" transform="translate(-460.201 -291.6)"/><path class="g" d="M890.354,525.946l1.075,32.15,6.21,3.441a2.779,2.779,0,0,0,1.142-.9c7.619-11.5,5.121-44.809,5.121-44.809l2.9-21.506-1.937-11.159-4.679-.5c1.806-8.626,2.99-17,1.025-17.906-1.748-.808-2.895-3.712-3.64-6.837h0l-3.342,22.761s.28,2.05.38,4.164a11.938,11.938,0,0,1-.271,4.006c-.754,1.937-.217,5.379-.217,5.379-1.937,3.414-2.9,9.741-3.378,15.852C890.11,518.206,890.354,525.946,890.354,525.946Z" transform="translate(-501.731 -276.96)"/><path class="d" d="M898.4,456.82s5.419.673,7.135,2.931,6.237,2.57,6.237,2.57,5.162,1.721,5.054,2.15,1.5,1.079,4.733,1.937,8.581,3.979,8.581,4.733,8.495,9.136,8.495,10,2.583,4.064,2.258,9.782-.646,12.9.646,14.086,0,5.808,0,5.808a3.161,3.161,0,0,0-.068,3.441c1.075,1.937-.212,10-.212,10l.1,8.386s-1.183,5.266.217,5.483-.217,2.579-.217,2.579-1.183,4.3.325,6.237,1.933,10.215,1.933,10.215l23.032,33.419s.325,6.128-6.986,6.02-7.226,1.4-6.991,2.8-2.041,2.9-2.041,2.9-2.9,1.5-1.183,3.333,6.666,6.02-1.5,8.815a19.5,19.5,0,0,1-2.366-4.3,48.665,48.665,0,0,1-1.721-5.8s-.754-8.174-2.258-9.249-1.292-6.237-1.292-6.237,2.15-4.191-.858-5.912-46.71-25.891-46.71-25.891l-1.075-32.15s-.754-23.759,3.762-31.717c0,0-.537-3.441.217-5.374s-.109-8.174-.109-8.174Z" transform="translate(-502.469 -276.508)"/><path class="g" d="M796.511,483.869s-10.807-2.226-13.711-.723-8.581,2.71-9.484,3.55-3.012.217-4.945,5.27-2.154,10.211-4.625,12.577-3.762,3.979-3.87,5.7.321,2.15-.646,2.71-2.366,2.8-1.937,3.658,22.4,19.758,22.4,19.758,1.079,7.226,2.046,9.032-1.075,26.988-3.224,28.709,14.515,1.563,14.515,1.563.75-16.506,1.4-17.369-.452-18.516-.452-18.516-.108-15.052,1.292-19.031,1.242-17.188,1.242-17.188,1.237-7.935,2.741-9.786S796.511,483.869,796.511,483.869Z" transform="translate(-428.735 -290.515)"/><path class="d" d="M795.8,483.159s-10.812-2.226-13.716-.723-8.581,2.687-9.461,3.55-3.008.212-4.968,5.266-2.15,10.215-4.624,12.582-3.762,3.979-3.87,5.7.325,2.15-.641,2.687-2.366,2.8-1.937,3.654,22.364,19.785,22.364,19.785,1.075,7.226,2.041,9.032-1.075,26.984-3.224,28.7,14.515,1.563,14.515,1.563.754-16.506,1.4-17.364-.452-18.516-.452-18.516-.1-15.052,1.291-19.031,1.242-17.206,1.242-17.206,1.238-7.935,2.737-9.782S795.8,483.159,795.8,483.159Z" transform="translate(-428.346 -290.125)"/><path class="g" d="M840.463,449.922a21.758,21.758,0,0,1,1.246,7.262A24.672,24.672,0,0,0,870,446a60.8,60.8,0,0,1-1.048-8.016S835.843,436.27,840.463,449.922Z" transform="translate(-474.151 -265.879)"/><path class="p" d="M804.82,396.952a24.622,24.622,0,1,0,.533-5.117,24.622,24.622,0,0,0-.533,5.117Z" transform="translate(-454.847 -229.872)"/><path class="d" d="M743.58,553.06l-5.912,1.829a3.065,3.065,0,0,1-1.183,3.224,3.6,3.6,0,0,0-1.5,3.229s-.646,2.362-2.15,2.9-2.475,4.064-2.475,4.064l-4.945,5.7s-1.829,1.5-1.5,2.258-1.937.966-1.937.966l1.183,19.157,10.216,1.937,6.323-.646,5.162-1.937,4.516-2.71,2.059-5.225,9.032-13.761Z" transform="translate(-409.404 -329.135)"/><path class="p" d="M693.283,595.747s-13.1-18.927-22.9-8.711,3.979,26.772,7.2,26.234,18.6-1.4,18.6-1.4Z" transform="translate(-379.208 -346.112)"/><rect class="q" width="27.738" height="31.523" rx="12.62" transform="translate(282.722 251.201) rotate(-42.05)"/><rect class="g" width="27.738" height="31.523" rx="12.62" transform="translate(282.722 251.201) rotate(-42.05)"/><rect class="q" width="27.738" height="31.523" rx="12.62" transform="translate(283.091 249.646) rotate(-42.05)"/><circle class="d" cx="6.128" cy="6.128" r="6.128" transform="translate(297.474 246.719)"/><circle class="g" cx="6.128" cy="6.128" r="6.128" transform="translate(297.474 246.719)"/><circle class="d" cx="6.128" cy="6.128" r="6.128" transform="translate(297.818 245.944)"/><path class="p" d="M706.5,610.684c-.108,14.194,29.246,17.2,29.246,17.2l7.5,1.192,3.36.533,1.4-13.855s-1.54-.23-3.464-.677c-2.841-.664-6.521-1.807-7.294-3.41C735.958,608.981,706.6,596.494,706.5,610.684Z" transform="translate(-400.919 -357.098)"/><path class="g" d="M806,391.959a2.922,2.922,0,0,1,1.806.8c.831.881.876,2.443,1.955,2.985a2.222,2.222,0,0,0,1.283.149c2.859-.406,4.516-3.613,7.257-4.516a7.317,7.317,0,0,1,4.81.411,3.581,3.581,0,0,1,1.594,1.025c.9,1.188.276,2.936.7,4.376.592,2,2.976,2.791,5.04,3.053s4.39.406,5.767,1.964a5.234,5.234,0,0,1,1.025,4.159,3.29,3.29,0,0,0,0,1.54c.569,1.612,3.36,1.355,4.087.1.533-.926.37-1.694,1.626-1.951a5.355,5.355,0,0,1,2.633.452,19.288,19.288,0,0,0,6.81,1.048A24.626,24.626,0,1,0,806,391.959Z" transform="translate(-455.495 -229.986)"/><path class="r" d="M829.879,391.241a3.294,3.294,0,0,1,0-1.54,5.238,5.238,0,0,0-1.025-4.159c-1.355-1.558-3.7-1.707-5.767-1.965s-4.448-1.052-5.04-3.048c-.425-1.441.217-3.193-.7-4.381a3.522,3.522,0,0,0-1.59-1.021,7.42,7.42,0,0,0-4.814-.415c-2.741.9-4.4,4.119-7.257,4.516a2.222,2.222,0,0,1-1.283-.149c-1.079-.542-1.125-2.1-1.956-2.981-1.305-1.382-3.785-.492-5.383-1.517a4.947,4.947,0,0,1-1.734-3.184,15.506,15.506,0,0,1-.479-7.131c.935-4,4.516-6.743,6.774-10.157,2.127-3.184,3.319-7.226,6.517-9.321s7.3-1.63,10.906-.56a33.645,33.645,0,0,0,5.108,1.355c2.908.357,5.826-.452,8.752-.533a18.8,18.8,0,0,1,11.557,3.509,6.4,6.4,0,0,1,1.888,1.91,9.775,9.775,0,0,1,.835,3.423,17.5,17.5,0,0,0,2.258,6.291c.9,1.513,2.037,2.886,2.854,4.448a6.824,6.824,0,0,1,.772,5.09c-.275.9-.822,1.685-1.025,2.592-.479,2.1.9,4.105,1.847,6.043a11.335,11.335,0,0,1,1.256,5.731,7.226,7.226,0,0,1-2.574,5.153,9.249,9.249,0,0,1-5.451,1.653,19.322,19.322,0,0,1-6.946-1.043,5.407,5.407,0,0,0-2.633-.452c-1.256.258-1.093,1.025-1.626,1.951C833.235,392.614,830.448,392.853,829.879,391.241Z" transform="translate(-448.15 -213.954)"/><path class="g" d="M834,717.19l13.869-10.839L869.7,684.845s-2.935-.145-7.226-.325a4.665,4.665,0,0,0-1.522,2.935c-.108,2.628-5.9.185-8.91,1.689S834.3,709.5,831.716,709.377s-4.62-1.31-5.7.519a1.147,1.147,0,0,1-.077.122,3.058,3.058,0,0,1-1.639.971Z" transform="translate(-465.531 -401.376)"/><path class="o" d="M783.87,707.356l6.968,22.246,1.093,3.5,3.319-.9,7.316-2.01,32.588-8.951A28.392,28.392,0,0,0,846.9,718.1a35.523,35.523,0,0,1,20.25-4.417c4.308.4,9.1-1.454,13.1-8.8,0,0,9.032-26.645-13.765-34.323s-23.881,4.064-23.881,4.064-.117.063-.307.19c-.9.564-3.365,2.339-3.455,4.516-.108,2.628-5.9.181-8.91,1.684s-17.739,20.359-20.323,20.237-4.62-1.31-5.7.52c0,.041-.05.077-.077.117-.795,1.1-3.188,1.355-4.773,1.4-.863.027-1.49,0-1.49,0l-.2.063-1.689.47Z" transform="translate(-443.383 -392.296)"/><path class="g" d="M787.86,642.5l3.36.533,1.4-13.855s-1.54-.23-3.464-.677C789.666,630.419,788.51,637.9,787.86,642.5Z" transform="translate(-445.539 -370.524)"/><path class="g" d="M876.38,515.6s10-2.9,7.524,25.484S862.94,587.4,862.94,587.4s-21.289,9.353-30.859,7.849a163.98,163.98,0,0,0-16.556-1.806,24.292,24.292,0,0,0-9.678-2.579c-5.379-.217-16.664-3.55-16.881-4.625s2.8-16.881,1.5-18.064c0,0,15.052.619,16.561,1.707s3.654.307,5.266,0,6.562-4.611,16.344-.844c0,0,3.333.321,4.625-.537s3.36-.217,3.36-.217a8.811,8.811,0,0,0,2.339-1.206c.312-.452,2.9,0,2.9,0a1.147,1.147,0,0,0,1.617-.754,7.028,7.028,0,0,1,1.5-2.362s2.9-16.344,8.386-22.472a3.511,3.511,0,0,0,1.183-3.121C854.125,536.651,863.491,512.151,876.38,515.6Z" transform="translate(-446.171 -308.425)"/><path class="d" d="M875.813,510.759s10-2.9,7.528,25.484-20.991,46.34-20.991,46.34-21.289,9.353-30.859,7.849-16.556-1.829-16.556-1.829a24.26,24.26,0,0,0-9.678-2.579c-5.374-.217-16.665-3.55-16.881-4.625s2.8-16.881,1.508-18.064c0,0,15.052.619,16.556,1.707s3.658.307,5.27,0,6.557-4.607,16.344-.844c0,0,3.333.321,4.62-.537s3.365-.217,3.365-.217a9.473,9.473,0,0,0,2.335-1.183c.32-.429,2.9,0,2.9,0a1.142,1.142,0,0,0,1.612-.75,7.017,7.017,0,0,1,1.5-2.367s2.9-16.344,8.386-22.472a3.507,3.507,0,0,0,1.183-3.116C853.535,531.84,862.888,507.317,875.813,510.759Z" transform="translate(-445.848 -305.768)"/><path class="g" d="M810,746.745l14.2,17.161c.054-.05.09-.086.09-.1.108-.325,1.5-3.979,1.183-4.2s-2.8-5.591-7.741-7.849a14.552,14.552,0,0,1-6.079-5.532Z" transform="translate(-457.684 -435.217)"/><path class="g" d="M810.063,790.163l1.554.9s3.613-2.89,7.185-5.8,7.059-5.758,7.117-5.921c.1-.321,1.5-3.979,1.179-4.191-.167-.113-.9-1.6-2.258-3.328-9.628-2.71-3.5,3.988-2.683,4.295,0,0-11.742-2.71-12.365,10.075A15.065,15.065,0,0,0,810.063,790.163Z" transform="translate(-457.553 -448.901)"/><path class="d" d="M823.144,795.59l2.046,1.183,20.774.537a40.122,40.122,0,0,0,7.343,3.532,6.279,6.279,0,0,0,1.043.23,46.644,46.644,0,0,0,5.781.108c1.59-.041,2.823-.108,2.823-.108s-.984-26.194-1.725-28.9c-.352-1.319-2.091-1.03-3.807-.37a24.933,24.933,0,0,0-3.717,1.883s-8.815.854-10.216,1.612-5.374-.452-7.849,0-6.878-2.913-6.878-2.913c-12.044-3.974-5.27,3.441-4.412,3.766,0,0-11.715-2.71-12.361,10.076S823.144,795.59,823.144,795.59Z" transform="translate(-458.766 -448.918)"/><path class="s" d="M903.138,785.518c.226,5.419,4.448,12.144,6.964,15.7,1.59-.041,2.823-.108,2.823-.108s-.985-26.194-1.725-28.9c-.352-1.319-2.091-1.03-3.807-.37C905.328,775.718,902.958,781.151,903.138,785.518Z" transform="translate(-508.761 -448.952)"/><path class="a" d="M903.138,785.518c.226,5.419,4.448,12.144,6.964,15.7,1.59-.041,2.823-.108,2.823-.108s-.985-26.194-1.725-28.9c-.352-1.319-2.091-1.03-3.807-.37C905.328,775.718,902.958,781.151,903.138,785.518Z" transform="translate(-508.761 -448.952)"/><path class="t" d="M894.866,786.236c1.427,5.23,1.414,11.1,3.69,14.641a6.3,6.3,0,0,0,1.043.23,46.633,46.633,0,0,0,5.781.108c1.59-.041,2.823-.108,2.823-.108s-.984-26.194-1.725-28.9c-.352-1.319-2.091-1.03-3.807-.37a24.925,24.925,0,0,0-3.717,1.883S893.041,779.543,894.866,786.236Z" transform="translate(-503 -447.914)"/><path class="g" d="M736.77,686.94s10.306,3.346,19.04,15.233Z" transform="translate(-417.519 -402.703)"/><g class="u" transform="translate(344.435 148.126)"><path d="M921.72,401.26a2.1,2.1,0,0,1-.063.226,7.3,7.3,0,0,1-.357.9A6.74,6.74,0,0,1,921.72,401.26Z" transform="translate(-863.159 -393.872)"/><path d="M792.807,387.072a9.7,9.7,0,0,1,.8-2.172c-.054.185-.113.37-.158.56a15.507,15.507,0,0,0,.479,7.131,4.968,4.968,0,0,0,1.734,3.184c1.6,1.025,4.065.131,5.383,1.513.831.881.876,2.443,1.96,2.985a2.218,2.218,0,0,0,1.283.149c2.854-.407,4.516-3.613,7.258-4.516a7.292,7.292,0,0,1,4.81.415,3.523,3.523,0,0,1,1.59,1.021c.9,1.188.276,2.94.7,4.376.592,2,2.976,2.791,5.04,3.048s4.39.406,5.767,1.969a5.23,5.23,0,0,1,1.025,4.159,3.349,3.349,0,0,0,0,1.54c.569,1.612,3.36,1.355,4.064.1.533-.926.375-1.694,1.63-1.951a5.346,5.346,0,0,1,2.628.452,19.319,19.319,0,0,0,6.946,1.043,9.208,9.208,0,0,0,5.451-1.653,6.322,6.322,0,0,0,1.671-2.032,6.837,6.837,0,0,1-2.3,3.649,9.229,9.229,0,0,1-5.451,1.653,19.278,19.278,0,0,1-6.941-1.043,5.409,5.409,0,0,0-2.633-.452c-1.255.257-1.1,1.025-1.626,1.951-.732,1.274-3.518,1.513-4.092-.1a3.351,3.351,0,0,1,0-1.54,5.218,5.218,0,0,0-1.021-4.159c-1.382-1.558-3.708-1.707-5.772-1.965s-4.448-1.052-5.036-3.048c-.429-1.441.217-3.193-.7-4.381a3.559,3.559,0,0,0-1.594-1.021,7.408,7.408,0,0,0-4.81-.416c-2.746.9-4.4,4.119-7.258,4.516a2.217,2.217,0,0,1-1.283-.149c-1.084-.542-1.129-2.1-1.96-2.981-1.305-1.382-3.78-.492-5.379-1.517a4.952,4.952,0,0,1-1.739-3.184A15.584,15.584,0,0,1,792.807,387.072Z" transform="translate(-792.558 -384.9)"/></g><path class="g" d="M915.433,574c-1.969,2.66-4.218,5.121-5.961,7.935s-2.976,6.1-2.61,9.385c1.806-1.852,2.628-4.408,3.766-6.729,1.924-3.929,4.805-7.262,7.226-10.875.452-.691,3.437-4.674,1.933-4.864C918.549,568.7,916.106,573.1,915.433,574Z" transform="translate(-510.774 -337.779)"/></svg>