<svg xmlns="http://www.w3.org/2000/svg" xmlns:xlink="http://www.w3.org/1999/xlink" width="1920" height="1831" viewBox="0 0 1920 1831"><defs><style>.a{fill:#fff;stroke:#707070;}.b{fill:#30216d;}.c{clip-path:url(#a);}.d{clip-path:url(#b);}.e{fill:#00e6bf;}.f{opacity:0.5;}.g{fill:#dddde1;}</style><clipPath id="a"><rect class="a" width="1920" height="1831" transform="translate(0 958)"/></clipPath><clipPath id="b"><path class="b" d="M11382.718,1218.468c-8.668-471.868,222.271-291.223,498.791,238.109,436.837,836.226,377.812,154.409,689.5,427.205s449.73,338.942,293.582,598.964-449.342,51.136-727.628-55.9-734.942,619.012-742.214,240.065C11384.658,2141,11391.386,1690.337,11382.718,1218.468Z" transform="translate(-11382.481 -945.984)"/></clipPath></defs><g class="c" transform="translate(0 -958)"><g transform="translate(-19.729 957.518)"><path class="b" d="M11382.718,1218.468c-8.668-471.868,222.271-291.223,498.791,238.109,436.837,836.226,377.812,154.409,689.5,427.205s449.73,338.942,293.582,598.964-449.342,51.136-727.628-55.9-734.942,619.012-742.214,240.065C11384.658,2141,11391.386,1690.337,11382.718,1218.468Z" transform="translate(-11382.481 -945.984)"/><g class="d"><g transform="translate(78.929 164.44)"><g transform="translate(1024.708 774.367) rotate(43)"><path class="e" d="M6.192.017c1.778-.2,3.065,1.313,2.875,3.37L6.456,31.7a4.485,4.485,0,0,1-3.562,4.079c-1.778.2-3.065-1.313-2.875-3.37L2.629,4.1A4.485,4.485,0,0,1,6.192.017Z" transform="translate(30.996 4.859) rotate(60)"/><path class="e" d="M6.849.022C8.679-.2,9.98,1.27,9.755,3.3l-3.1,27.931A4.663,4.663,0,0,1,2.932,35.3C1.1,35.522-.2,34.055.025,32.025l3.1-27.931A4.663,4.663,0,0,1,6.849.022Z" transform="translate(4.703 4.89) rotate(-30)"/></g><g transform="translate(111.52 34.332) rotate(-135)"><path class="e" d="M2.544,0A2.621,2.621,0,0,1,5.115,2.633l.1,19.908a2.557,2.557,0,0,1-2.544,2.606A2.621,2.621,0,0,1,.1,22.514L0,2.606A2.557,2.557,0,0,1,2.544,0Z" transform="translate(21.778 3.537) rotate(60)"/><path class="e" d="M3.006,0A2.472,2.472,0,0,1,5.553,2.526L5.19,22.078A2.7,2.7,0,0,1,2.547,24.7,2.472,2.472,0,0,1,0,22.172L.364,2.62A2.7,2.7,0,0,1,3.006,0Z" transform="translate(3.613 2.777) rotate(-30)"/></g><g transform="translate(557.994 1069.598) rotate(162)"><path class="e" d="M3.208.009A3.939,3.939,0,0,1,6.9,3.356L8.748,26.973a2.76,2.76,0,0,1-3.2,2.869A3.939,3.939,0,0,1,1.861,26.5L.009,2.878A2.76,2.76,0,0,1,3.208.009Z" transform="translate(25.852 3.946) rotate(60)"/><path class="e" d="M3.121.012a4,4,0,0,1,3.651,3.4L8.828,27.141a2.672,2.672,0,0,1-3.11,2.848,4,4,0,0,1-3.651-3.4L.011,2.86A2.672,2.672,0,0,1,3.121.012Z" transform="translate(3.787 4.419) rotate(-30)"/></g><g transform="translate(1003.439 1306.598) rotate(162)"><path class="e" d="M3.208.009A3.939,3.939,0,0,1,6.9,3.356L8.748,26.973a2.76,2.76,0,0,1-3.2,2.869A3.939,3.939,0,0,1,1.861,26.5L.009,2.878A2.76,2.76,0,0,1,3.208.009Z" transform="translate(25.852 3.946) rotate(60)"/><path class="e" d="M3.121.012a4,4,0,0,1,3.651,3.4L8.828,27.141a2.672,2.672,0,0,1-3.11,2.848,4,4,0,0,1-3.651-3.4L.011,2.86A2.672,2.672,0,0,1,3.121.012Z" transform="translate(3.787 4.419) rotate(-30)"/></g><g transform="translate(67.628 599.196) rotate(162)"><path class="e" d="M4.932.025c2.983.266,5.622,2.609,5.893,5.232l3.738,36.1c.272,2.623-1.926,4.534-4.91,4.268s-5.622-2.609-5.893-5.232L.023,4.293C-.249,1.669,1.949-.242,4.932.025Z" transform="translate(39.535 6.031) rotate(60)"/><path class="e" d="M4.833.035c2.967.32,5.628,2.727,5.943,5.377L15.11,41.876c.315,2.65-1.835,4.539-4.8,4.219S4.68,43.368,4.365,40.718L.031,4.254C-.284,1.6,1.866-.285,4.833.035Z" transform="translate(5.325 7.57) rotate(-30)"/></g><g transform="translate(323.041 1307.65) rotate(-152)"><path class="e" d="M4.818.032c2.944.306,5.573,2.714,5.872,5.379L14.8,42.077c.3,2.664-1.846,4.576-4.791,4.27s-5.573-2.714-5.872-5.379L.028,4.3C-.271,1.638,1.874-.274,4.818.032Z" transform="translate(40.165 5.368) rotate(60)"/><path class="e" d="M4.948.028c3.006.281,5.676,2.623,5.963,5.232l3.956,35.9c.287,2.609-1.916,4.5-4.922,4.216s-5.676-2.623-5.963-5.232L.025,4.244C-.262,1.635,1.942-.253,4.948.028Z" transform="translate(5.99 7.446) rotate(-30)"/></g><circle class="e" cx="4.928" cy="4.928" r="4.928" transform="translate(0 1209.574)"/><circle class="e" cx="14.784" cy="14.784" r="14.784" transform="translate(573.536 744.575)"/><circle class="e" cx="32.526" cy="32.526" r="32.526" transform="translate(1205.702 1282.575)"/><circle class="e" cx="32.526" cy="32.526" r="32.526" transform="translate(392.69 333.574)"/><circle class="e" cx="9.856" cy="9.856" r="9.856" transform="translate(6.874 366.574)"/><circle class="e" cx="16.758" cy="16.758" r="16.758" transform="translate(111.262 1532.947) rotate(177)"/><circle class="e" cx="9.858" cy="9.858" r="9.858" transform="translate(64.355 1037.947) rotate(177)"/><circle class="e" cx="15.772" cy="15.772" r="15.772" transform="translate(1304.266 1016.215) rotate(177)"/><g class="f" transform="translate(26.586 95.26)"><circle class="g" cx="6.597" cy="6.597" r="6.597" transform="translate(0)"/><circle class="g" cx="6.597" cy="6.597" r="6.597" transform="translate(0.687 18.74)"/><circle class="g" cx="6.597" cy="6.597" r="6.597" transform="translate(0 38.149)"/><circle class="g" cx="6.597" cy="6.597" r="6.597" transform="translate(40.519)"/><circle class="g" cx="6.597" cy="6.597" r="6.597" transform="translate(41.206 18.74)"/><circle class="g" cx="6.597" cy="6.597" r="6.597" transform="translate(40.519 38.149)"/><circle class="g" cx="6.597" cy="6.597" r="6.597" transform="translate(61.122)"/><circle class="g" cx="6.597" cy="6.597" r="6.597" transform="translate(61.808 18.74)"/><circle class="g" cx="6.597" cy="6.597" r="6.597" transform="translate(61.122 38.149)"/><circle class="g" cx="6.597" cy="6.597" r="6.597" transform="translate(101.641)"/><circle class="g" cx="6.597" cy="6.597" r="6.597" transform="translate(102.327 18.74)"/><circle class="g" cx="6.597" cy="6.597" r="6.597" transform="translate(101.641 38.149)"/><circle class="g" cx="6.597" cy="6.597" r="6.597" transform="translate(20.603)"/><circle class="g" cx="6.597" cy="6.597" r="6.597" transform="translate(21.29 18.74)"/><circle class="g" cx="6.597" cy="6.597" r="6.597" transform="translate(20.603 38.149)"/><circle class="g" cx="6.597" cy="6.597" r="6.597" transform="translate(81.038)"/><circle class="g" cx="6.597" cy="6.597" r="6.597" transform="translate(81.724 18.74)"/><circle class="g" cx="6.597" cy="6.597" r="6.597" transform="translate(81.038 38.149)"/><circle class="g" cx="6.597" cy="6.597" r="6.597" transform="translate(121.557)"/><circle class="g" cx="6.597" cy="6.597" r="6.597" transform="translate(122.243 18.74)"/><circle class="g" cx="6.597" cy="6.597" r="6.597" transform="translate(121.557 38.149)"/></g><g class="f" transform="translate(1155.545 1093.574)"><circle class="g" cx="9.856" cy="9.856" r="9.856" transform="translate(0)"/><circle class="g" cx="9.856" cy="9.856" r="9.856" transform="translate(1.026 28)"/><circle class="g" cx="9.856" cy="9.856" r="9.856" transform="translate(0 57)"/><circle class="g" cx="9.856" cy="9.856" r="9.856" transform="translate(60.54)"/><circle class="g" cx="9.856" cy="9.856" r="9.856" transform="translate(61.566 28)"/><circle class="g" cx="9.856" cy="9.856" r="9.856" transform="translate(60.54 57)"/><circle class="g" cx="9.856" cy="9.856" r="9.856" transform="translate(91.323)"/><circle class="g" cx="9.856" cy="9.856" r="9.856" transform="translate(92.35 28)"/><circle class="g" cx="9.856" cy="9.856" r="9.856" transform="translate(91.323 57)"/><circle class="g" cx="9.856" cy="9.856" r="9.856" transform="translate(151.864)"/><circle class="g" cx="9.856" cy="9.856" r="9.856" transform="translate(152.89 28)"/><circle class="g" cx="9.856" cy="9.856" r="9.856" transform="translate(151.864 57)"/><circle class="g" cx="9.856" cy="9.856" r="9.856" transform="translate(30.783)"/><circle class="g" cx="9.856" cy="9.856" r="9.856" transform="translate(31.809 28)"/><circle class="g" cx="9.856" cy="9.856" r="9.856" transform="translate(30.783 57)"/><circle class="g" cx="9.856" cy="9.856" r="9.856" transform="translate(121.081)"/><circle class="g" cx="9.856" cy="9.856" r="9.856" transform="translate(122.107 28)"/><circle class="g" cx="9.856" cy="9.856" r="9.856" transform="translate(121.081 57)"/><circle class="g" cx="9.856" cy="9.856" r="9.856" transform="translate(181.621)"/><circle class="g" cx="9.856" cy="9.856" r="9.856" transform="translate(182.647 28)"/><circle class="g" cx="9.856" cy="9.856" r="9.856" transform="translate(181.621 57)"/></g><g class="f" transform="translate(208.143 774.144) rotate(90)"><circle class="g" cx="9.949" cy="9.949" r="9.949" transform="translate(0 0)"/><circle class="g" cx="9.949" cy="9.949" r="9.949" transform="translate(1.009 29.001)"/><circle class="g" cx="9.949" cy="9.949" r="9.949" transform="translate(0 59.039)"/><circle class="g" cx="9.949" cy="9.949" r="9.949" transform="translate(59.555 0)"/><circle class="g" cx="9.949" cy="9.949" r="9.949" transform="translate(60.565 29.001)"/><circle class="g" cx="9.949" cy="9.949" r="9.949" transform="translate(59.555 59.039)"/><circle class="g" cx="9.949" cy="9.949" r="9.949" transform="translate(89.838 0)"/><circle class="g" cx="9.949" cy="9.949" r="9.949" transform="translate(90.847 29.001)"/><circle class="g" cx="9.949" cy="9.949" r="9.949" transform="translate(89.838 59.039)"/><circle class="g" cx="9.949" cy="9.949" r="9.949" transform="translate(149.393 0)"/><circle class="g" cx="9.949" cy="9.949" r="9.949" transform="translate(150.403 29.001)"/><circle class="g" cx="9.949" cy="9.949" r="9.949" transform="translate(149.393 59.039)"/><circle class="g" cx="9.949" cy="9.949" r="9.949" transform="translate(30.282 0)"/><circle class="g" cx="9.949" cy="9.949" r="9.949" transform="translate(31.292 29.001)"/><circle class="g" cx="9.949" cy="9.949" r="9.949" transform="translate(30.282 59.039)"/><circle class="g" cx="9.949" cy="9.949" r="9.949" transform="translate(119.111 0)"/><circle class="g" cx="9.949" cy="9.949" r="9.949" transform="translate(120.12 29.001)"/><circle class="g" cx="9.949" cy="9.949" r="9.949" transform="translate(119.111 59.039)"/><circle class="g" cx="9.949" cy="9.949" r="9.949" transform="translate(178.666 0)"/><circle class="g" cx="9.949" cy="9.949" r="9.949" transform="translate(179.676 29.001)"/><circle class="g" cx="9.949" cy="9.949" r="9.949" transform="translate(178.666 59.039)"/></g><g class="f" transform="translate(847.964 1231.91) rotate(90)"><circle class="g" cx="4.389" cy="4.389" r="4.389" transform="translate(0 0)"/><circle class="g" cx="4.389" cy="4.389" r="4.389" transform="translate(0.445 12.794)"/><circle class="g" cx="4.389" cy="4.389" r="4.389" transform="translate(0 26.045)"/><circle class="g" cx="4.389" cy="4.389" r="4.389" transform="translate(26.273 0)"/><circle class="g" cx="4.389" cy="4.389" r="4.389" transform="translate(26.718 12.794)"/><circle class="g" cx="4.389" cy="4.389" r="4.389" transform="translate(26.273 26.045)"/><circle class="g" cx="4.389" cy="4.389" r="4.389" transform="translate(39.632 0)"/><circle class="g" cx="4.389" cy="4.389" r="4.389" transform="translate(40.077 12.794)"/><circle class="g" cx="4.389" cy="4.389" r="4.389" transform="translate(39.632 26.045)"/><circle class="g" cx="4.389" cy="4.389" r="4.389" transform="translate(65.904 0)"/><circle class="g" cx="4.389" cy="4.389" r="4.389" transform="translate(66.35 12.794)"/><circle class="g" cx="4.389" cy="4.389" r="4.389" transform="translate(65.904 26.045)"/><circle class="g" cx="4.389" cy="4.389" r="4.389" transform="translate(13.359 0)"/><circle class="g" cx="4.389" cy="4.389" r="4.389" transform="translate(13.804 12.794)"/><circle class="g" cx="4.389" cy="4.389" r="4.389" transform="translate(13.359 26.045)"/><circle class="g" cx="4.389" cy="4.389" r="4.389" transform="translate(52.545 0)"/><circle class="g" cx="4.389" cy="4.389" r="4.389" transform="translate(52.991 12.794)"/><circle class="g" cx="4.389" cy="4.389" r="4.389" transform="translate(52.545 26.045)"/><circle class="g" cx="4.389" cy="4.389" r="4.389" transform="translate(78.818 0)"/><circle class="g" cx="4.389" cy="4.389" r="4.389" transform="translate(79.263 12.794)"/><circle class="g" cx="4.389" cy="4.389" r="4.389" transform="translate(78.818 26.045)"/></g></g></g></g></g></svg>