<svg xmlns="http://www.w3.org/2000/svg" width="1920" height="969" viewBox="0 0 1920 969"><defs><style>.a{fill:#30216d;}.b{opacity:0.4;}.c{fill:#00e6bf;}.d{opacity:0.5;}.e{fill:#dddde1;}</style></defs><rect class="a" width="1920" height="969"/><g class="b" transform="translate(-81 -2121.683)"><g transform="translate(1070.75 2483.268) rotate(43)"><path class="c" d="M6.367.018c1.776-.2,3.054,1.264,2.853,3.273L6.454,30.93a4.479,4.479,0,0,1-3.58,4C1.1,35.131-.18,33.666.021,31.658L2.786,4.019A4.479,4.479,0,0,1,6.367.018Z" transform="translate(30.267 4.872) rotate(60)"/><path class="c" d="M6.5.02C8.287-.189,9.565,1.284,9.357,3.31L6.486,31.188a4.548,4.548,0,0,1-3.61,4.046c-1.785.209-3.063-1.265-2.854-3.291L2.892,4.065A4.548,4.548,0,0,1,6.5.02Z" transform="translate(4.568 4.689) rotate(-30)"/></g><g transform="translate(212.847 2155.5) rotate(-135)"><path class="c" d="M2.583,0a2.547,2.547,0,0,1,2.55,2.554L5.106,21.988A2.553,2.553,0,1,1,0,22L.026,2.561A2.563,2.563,0,0,1,2.583,0Z" transform="translate(21.26 3.639) rotate(60)"/><path class="c" d="M2.794,0A2.479,2.479,0,0,1,5.3,2.538l-.23,19.516a2.625,2.625,0,0,1-2.563,2.6A2.479,2.479,0,0,1,0,22.114L.23,2.6A2.625,2.625,0,0,1,2.794,0Z" transform="translate(3.456 2.648) rotate(-30)"/></g><g transform="translate(1195.395 2872.97) rotate(162)"><path class="c" d="M3.13.013A4.017,4.017,0,0,1,6.808,3.368L8.932,26.739a2.647,2.647,0,0,1-3.118,2.8A4.017,4.017,0,0,1,2.136,26.18L.012,2.809A2.647,2.647,0,0,1,3.13.013Z" transform="translate(25.589 3.638) rotate(60)"/><path class="c" d="M3.118.009a3.826,3.826,0,0,1,3.566,3.3L8.417,26.684a2.715,2.715,0,0,1-3.111,2.847,3.826,3.826,0,0,1-3.566-3.3L.008,2.856A2.715,2.715,0,0,1,3.118.009Z" transform="translate(3.997 4.212) rotate(-30)"/></g><g transform="translate(1683.607 2802.443) rotate(162)"><path class="c" d="M3.13.013A4.017,4.017,0,0,1,6.808,3.368L8.932,26.739a2.647,2.647,0,0,1-3.118,2.8A4.017,4.017,0,0,1,2.136,26.18L.012,2.809A2.647,2.647,0,0,1,3.13.013Z" transform="translate(25.589 3.638) rotate(60)"/><path class="c" d="M3.118.009a3.826,3.826,0,0,1,3.566,3.3L8.417,26.684a2.715,2.715,0,0,1-3.111,2.847,3.826,3.826,0,0,1-3.566-3.3L.008,2.856A2.715,2.715,0,0,1,3.118.009Z" transform="translate(3.997 4.212) rotate(-30)"/></g><g transform="translate(555.602 3076.289) rotate(162)"><path class="c" d="M4.815.032c2.945.3,5.576,2.65,5.877,5.247l4.142,35.738c.3,2.6-1.842,4.458-4.787,4.157s-5.576-2.65-5.877-5.247L.028,4.189C-.273,1.592,1.87-.269,4.815.032Z" transform="translate(39.15 5.541) rotate(60)"/><path class="c" d="M4.825.027C7.755.3,10.355,2.645,10.633,5.253l3.824,35.9c.278,2.609-1.872,4.5-4.8,4.22s-5.529-2.618-5.807-5.226L.024,4.247C-.254,1.639,1.9-.251,4.825.027Z" transform="translate(5.671 7.24) rotate(-30)"/></g><g transform="translate(1844.128 2337.883) rotate(-152)"><path class="c" d="M4.815.032c2.945.3,5.576,2.65,5.877,5.247l4.142,35.738c.3,2.6-1.842,4.458-4.787,4.157s-5.576-2.65-5.877-5.247L.028,4.189C-.273,1.592,1.87-.269,4.815.032Z" transform="translate(39.15 5.541) rotate(60)"/><path class="c" d="M4.825.027C7.755.3,10.355,2.645,10.633,5.253l3.824,35.9c.278,2.609-1.872,4.5-4.8,4.22s-5.529-2.618-5.807-5.226L.024,4.247C-.254,1.639,1.9-.251,4.825.027Z" transform="translate(5.671 7.24) rotate(-30)"/></g><circle class="c" cx="5" cy="5" r="5" transform="translate(745.234 2355.707)"/><circle class="c" cx="15" cy="15" r="15" transform="translate(1803 2871.366)"/><circle class="c" cx="33" cy="33" r="33" transform="translate(1659 2274.975)"/><circle class="c" cx="33" cy="33" r="33" transform="translate(167.588 2143.311)"/><circle class="c" cx="10" cy="10" r="10" transform="translate(81 2199.694)"/><circle class="c" cx="10" cy="10" r="10" transform="translate(167.019 2624.653) rotate(177)"/><circle class="c" cx="16" cy="16" r="16" transform="translate(522.748 2525.904) rotate(177)"/><g class="d" transform="translate(1803 2954.805)"><circle class="e" cx="10" cy="10" r="10"/><circle class="e" cx="10" cy="10" r="10" transform="translate(1 28)"/><circle class="e" cx="10" cy="10" r="10" transform="translate(0 57)"/><circle class="e" cx="10" cy="10" r="10" transform="translate(59)"/><circle class="e" cx="10" cy="10" r="10" transform="translate(60 28)"/><circle class="e" cx="10" cy="10" r="10" transform="translate(59 57)"/><circle class="e" cx="10" cy="10" r="10" transform="translate(89)"/><circle class="e" cx="10" cy="10" r="10" transform="translate(90 28)"/><circle class="e" cx="10" cy="10" r="10" transform="translate(89 57)"/><circle class="e" cx="10" cy="10" r="10" transform="translate(148)"/><circle class="e" cx="10" cy="10" r="10" transform="translate(149 28)"/><circle class="e" cx="10" cy="10" r="10" transform="translate(148 57)"/><circle class="e" cx="10" cy="10" r="10" transform="translate(30)"/><circle class="e" cx="10" cy="10" r="10" transform="translate(31 28)"/><circle class="e" cx="10" cy="10" r="10" transform="translate(30 57)"/><circle class="e" cx="10" cy="10" r="10" transform="translate(118)"/><circle class="e" cx="10" cy="10" r="10" transform="translate(119 28)"/><circle class="e" cx="10" cy="10" r="10" transform="translate(118 57)"/><circle class="e" cx="10" cy="10" r="10" transform="translate(177)"/><circle class="e" cx="10" cy="10" r="10" transform="translate(178 28)"/><circle class="e" cx="10" cy="10" r="10" transform="translate(177 57)"/></g><g class="d" transform="translate(167.588 2709.691) rotate(90)"><circle class="e" cx="10" cy="10" r="10" transform="translate(0 0)"/><circle class="e" cx="10" cy="10" r="10" transform="translate(1 28)"/><circle class="e" cx="10" cy="10" r="10" transform="translate(0 57)"/><circle class="e" cx="10" cy="10" r="10" transform="translate(59 0)"/><circle class="e" cx="10" cy="10" r="10" transform="translate(60 28)"/><circle class="e" cx="10" cy="10" r="10" transform="translate(59 57)"/><circle class="e" cx="10" cy="10" r="10" transform="translate(89 0)"/><circle class="e" cx="10" cy="10" r="10" transform="translate(90 28)"/><circle class="e" cx="10" cy="10" r="10" transform="translate(89 57)"/><circle class="e" cx="10" cy="10" r="10" transform="translate(148 0)"/><circle class="e" cx="10" cy="10" r="10" transform="translate(149 28)"/><circle class="e" cx="10" cy="10" r="10" transform="translate(148 57)"/><circle class="e" cx="10" cy="10" r="10" transform="translate(30 0)"/><circle class="e" cx="10" cy="10" r="10" transform="translate(31 28)"/><circle class="e" cx="10" cy="10" r="10" transform="translate(30 57)"/><circle class="e" cx="10" cy="10" r="10" transform="translate(118 0)"/><circle class="e" cx="10" cy="10" r="10" transform="translate(119 28)"/><circle class="e" cx="10" cy="10" r="10" transform="translate(118 57)"/><circle class="e" cx="10" cy="10" r="10" transform="translate(177 0)"/><circle class="e" cx="10" cy="10" r="10" transform="translate(178 28)"/><circle class="e" cx="10" cy="10" r="10" transform="translate(177 57)"/></g></g></svg>