<svg xmlns="http://www.w3.org/2000/svg" xmlns:xlink="http://www.w3.org/1999/xlink" width="1920" height="748.427" viewBox="0 0 1920 748.427"><defs><style>.a{fill:#fff;opacity:0;}.b{fill:#00e7c3;}.b,.c,.h,.p,.s{opacity:0.1;}.c,.d{fill:#3f2a93;}.e{fill:#00e6bf;}.f{opacity:0.05;}.g{fill:#efc6cd;}.i{fill:#d3dae1;}.j{fill:url(#a);}.k{fill:#585b8a;}.l{opacity:0.2;}.m,.p{fill:#363d3d;}.n{fill:#ffd6d6;}.o{fill:#dce6f2;}.q{fill:#d28690;}.r,.s{fill:#334848;}.t{fill:#575989;}.u{fill:#353045;}.v{fill:#f0f3f7;}.w{fill:#663d5c;}.x{opacity:0.3;}.y{opacity:0.15;}.z{fill:#ffd037;}.aa{fill:#65617d;}.ab{fill:#9d9cb5;}.ac{fill:#4b4770;}.ad{fill:#d4dfec;}</style><linearGradient id="a" x1="0.5" y1="1" x2="0.5" gradientUnits="objectBoundingBox"><stop offset="0" stop-color="gray" stop-opacity="0.251"/><stop offset="0.54" stop-color="gray" stop-opacity="0.122"/><stop offset="1" stop-color="gray" stop-opacity="0.102"/></linearGradient></defs><g transform="translate(0 -264)"><rect class="a" width="1920" height="748" transform="translate(0 264)"/><g transform="translate(831 264.153)"><path class="b" d="M1026.313,252.217c-.17.8-.331,1.607-.519,2.4-5.873,27.318-15.47,53.643-29.74,77.818-.474.8-.949,1.607-1.432,2.411a223.329,223.329,0,0,1-33.527,42.689c-7.108,7.08-14.861,13.808-24.082,18.658-12.918,6.809-28.021,9.573-42.864,11.83-15.416,2.357-31.047,4.326-46.633,6.448q-8.308,1.111-16.517,2.357c-15.058,2.249-30.009,4.85-44.6,8.3-18.039,4.253-35.523,9.826-52.041,17.664q-1.978.9-3.912,1.915c-1.289.65-2.587,1.309-3.859,1.978s-2.525,1.337-3.769,2.023c-.644.352-1.289.7-1.925,1.075s-1.262.7-1.88,1.057c-1.862,1.048-3.688,2.122-5.515,3.206l-.072.045c-1.209.713-2.4,1.445-3.581,2.176-6.75,4.136-13.357,8.453-19.964,12.8l-4.154,2.709-6.437,4.2c-1.253.822-2.534,1.644-3.8,2.456-.9.6-1.79,1.192-2.766,1.806-4.691,2.98-9.445,5.906-14.324,8.7-1.155.668-2.319,1.336-3.492,1.987A197.585,197.585,0,0,1,624.1,504.935l-.143.054a139.611,139.611,0,0,1-16.365,4.66c-3.2.7-6.4,1.282-9.642,1.725a102.484,102.484,0,0,1-26.141.37c-17.072-2-33.07-8.606-50.134-10.837-35.129-4.515-69.247,10.033-102.282,21.43q-12.184,4.2-24.548,7.866c-5.479,1.635-10.976,3.179-16.517,4.669A616.633,616.633,0,0,1,274.744,553.2a289.206,289.206,0,0,1-44,.984,160.238,160.238,0,0,1-16.508-1.806c-18.532-2.89-35.81-8.95-49.758-20.048-11.423-9.112-19.6-20.988-25.819-33.414a146.693,146.693,0,0,1-13.348-40.223c-.34-1.906-.645-3.82-.9-5.735q-.671-4.913-1-9.88a142.579,142.579,0,0,1,6.159-52.243c5.909-18.892,15.756-37.026,20.089-56.063q.269-1.21.51-2.411a84.144,84.144,0,0,0,1.316-8.751c2.211-23.39-6.267-46.193-12.918-69.068-.233-.795-.466-1.6-.689-2.4q-1.074-3.811-2.059-7.613c-6.159-24.184-7.869-50.076-2.381-74.215.17-.8.376-1.607.573-2.4a109.049,109.049,0,0,1,20.251-41.84c10.277-13,23.769-23.832,38.182-33.342q10.537-6.954,21.79-13,8.057-4.335,16.508-8.209A322.669,322.669,0,0,1,378.378,42.847c2.686.117,5.372.262,8.057.461s5.622.433,8.433.7c32.82,3.215,64.753,10.972,96.463,19.452,10.627,2.845,21.235,5.762,31.835,8.624,4.718,1.264,9.427,2.529,14.145,3.757,23.106,6.024,46.553,11.478,70.295,15.551q8.245,1.436,16.508,2.619a468.877,468.877,0,0,0,57.734,4.94q11.271.226,22.551-.2,5.694-.208,11.4-.623C755.053,95.334,792.994,86,831,77.273q8.245-1.9,16.517-3.739c7.234-1.607,14.467-3.161,21.737-4.6,45.237-8.968,85.559-3.811,127.617,14.693,9.561,4.2,19.114,9.275,24.968,17.159s7.323,17.565,8.415,26.912c1.549,13.311,2.56,26.794,2.945,40.35,0,.795,0,1.6.054,2.4A365.252,365.252,0,0,1,1026.313,252.217Z" transform="translate(-60.795 -36.372)"/><path class="c" d="M727.4,332.479h-2.954v2.411h3.348Zm-33.506,0a.155.155,0,0,0,0,.063c-.081.659-.17,1.318-.259,1.987v.361h25.6v-.145l1.79-2.267Zm-68.614,0V254.661h29.451c-.313-.208-.636-.424-.967-.623l-.43-.28-.555-.343c-.322-.19-.644-.379-.985-.56s-.546-.307-.833-.461l-.2-.108H625.276V248l-.689.271-.725.343h-.054l-.152.081-.457.244-.457.244c-.448.244-.9.515-1.343.795l-.43.289-.9.578c-1.155.777-2.292,1.589-3.464,2.348-.3.19-.591.379-.9.551-.636.379-1.289.741-1.96,1.066a7.442,7.442,0,0,1-.9.388l-.483.19-.448.154h0a20.816,20.816,0,0,1-3.223.849v76.075H564.549c0,.09.063.163.089.253.242.722.483,1.436.716,2.158h43.415v83.409h.671l.779.045,1.405.081,2.247.271,1.029.1,1.119.117h.17l1.978.244.421.054.958.135,1.37.2h0l3.285-.145h0l.448.081a3.085,3.085,0,0,1,.555.09V334.891h68.336v-.361c.089-.668.179-1.328.26-1.987a.16.16,0,0,1,0-.063Zm102.119,0h-2.954v2.411h3.348Zm-35.35,0c-.107.8-.206,1.608-.313,2.411h28.547l1.943-2.411Zm-66.77,0V254.661h29.451c-.313-.208-.636-.424-.967-.623l-.43-.28-.555-.343c-.322-.19-.644-.379-.985-.56s-.546-.307-.833-.461l-.2-.108H625.276V248l-.689.271-.725.343h-.054l-.152.081-.457.244-.457.244c-.448.244-.9.515-1.343.795l-.43.289-.9.578c-1.155.777-2.292,1.589-3.464,2.348-.3.19-.591.379-.9.551-.636.379-1.289.741-1.96,1.066a7.442,7.442,0,0,1-.9.388l-.483.19-.448.154h0a20.818,20.818,0,0,1-3.223.849v76.075H564.549c0,.09.063.163.089.253.242.713.492,1.436.725,2.158h43.406v83.4h.671l.779.045,1.405.081,2.247.28,1.029.1,1.119.117h.17l1.978.244.421.054.958.135,1.37.2h0l3.285-.145h0l.448.081a3.085,3.085,0,0,1,.555.09V334.891H691.75c.107-.8.206-1.608.313-2.411ZM848.653,170.431h185.718c0-.8,0-1.607-.054-2.4H848.653V73.548q-8.271,1.806-16.516,3.739v90.742H630.155l-.51-.461.77-.686h0l75.13-68.11q-11.279.433-22.549.2l-57.729,52.324V94.048Q617,92.865,608.76,91.429v57.228l-84.4-76.536c-10.6-2.863-21.206-5.78-31.832-8.624L607.31,167.568l-.51.461H396.08V44.126q-4.216-.4-8.432-.7c-2.685-.2-5.371-.343-8.056-.461V168.029H231.945V71.643q-8.361,3.865-16.507,8.209v88.177H135.223c-.2.795-.4,1.6-.573,2.4h80.788v81.828H139.09c.224.8.457,1.607.689,2.4h75.659v77.818H151.38q-.242,1.2-.51,2.411h64.568V552.47c5.371.84,10.93,1.427,16.507,1.806V334.891h147.62V534.95c5.541-1.49,11.037-3.034,16.516-4.669V334.891H608.769V509.682a139.572,139.572,0,0,0,16.363-4.66l.143-.054V334.891H832.138v81.982q8.236-1.219,16.516-2.339V334.891H995.745c.483-.8.958-1.608,1.432-2.411H848.653V254.661h178.261c.188-.795.349-1.6.519-2.4H848.653Zm-616.709,0h147.62v81.828H231.945Zm0,162.049V254.661h147.62v77.818ZM396.08,170.431H608.769v81.828H396.08Zm0,162.049V254.661H608.769v77.818Zm436.057,0H625.276V254.661H832.138Zm0-80.221H625.276V172.625l2.9-2.194H832.138ZM693.89,332.479a.155.155,0,0,0,0,.063c-.081.659-.17,1.318-.259,1.987v.361h25.6v-.145l1.79-2.267Zm33.506,0h-2.954v2.411h3.348Zm-102.119,0V254.661h29.451c-.313-.208-.636-.424-.967-.623l-.43-.28-.555-.343c-.322-.19-.644-.379-.985-.56s-.546-.307-.833-.461l-.2-.108H625.276V248l-.689.271-.725.343h-.054l-.152.081-.457.244-.457.244c-.448.244-.9.515-1.343.795l-.43.289-.9.578c-1.155.777-2.292,1.589-3.464,2.348-.3.19-.591.379-.9.551-.636.379-1.289.741-1.96,1.066a7.442,7.442,0,0,1-.9.388l-.483.19-.448.154h0a20.816,20.816,0,0,1-3.223.849v76.075H564.549c0,.09.063.163.089.253.242.722.483,1.436.716,2.158h43.415v83.409h.671l.779.045,1.405.081,2.247.271,1.029.1,1.119.117h.17l1.978.244.421.054.958.135,1.37.2h0l3.285-.145h0l.448.081a3.085,3.085,0,0,1,.555.09V334.891h68.336v-.361c.089-.668.179-1.328.26-1.987a.16.16,0,0,1,0-.063Z" transform="translate(-61.916 -36.414)"/><path class="c" d="M322.039,121.18h1.291a2.619,2.619,0,0,1-1.58-2.1h0c0-1.662,2.483-3.016,5.518-3.016h38.616c3.034,0,5.509,1.355,5.509,3.016h0c0,1.653-2.474,3.016-5.509,3.016h-1.291a2.592,2.592,0,0,1,1.58,2.1c0,1.418-1.806,2.61-4.217,2.926h11.117c3.025,0,5.509,1.355,5.509,3.016s-2.483,3.016-5.509,3.016H334.447c-3.025,0-5.509-1.364-5.509-3.016,0-1.418,1.806-2.6,4.217-2.926H322.039c-3.034,0-5.509-1.355-5.509-3.016S319,121.18,322.039,121.18Z" transform="translate(-81.587 -43.497)"/><path class="c" d="M785.479,152.95h1.291a2.619,2.619,0,0,1-1.571-2.1h0c0-1.662,2.474-3.016,5.509-3.016h38.616c3.034,0,5.518,1.355,5.518,3.016h0c0,1.653-2.484,3.007-5.518,3.007h-1.282a2.619,2.619,0,0,1,1.571,2.1c0,1.418-1.806,2.61-4.217,2.926h11.117c3.034,0,5.509,1.355,5.509,3.016s-2.474,3.016-5.509,3.016H797.9c-3.034,0-5.518-1.364-5.518-3.016,0-1.418,1.806-2.61,4.217-2.926H785.479c-3.025,0-5.509-1.355-5.509-3.016S782.453,152.95,785.479,152.95Z" transform="translate(-130.111 -46.577)"/><path class="c" d="M256.408,288.91h1.282a2.61,2.61,0,0,1-1.571-2.1h0c0-1.653,2.483-3.016,5.509-3.016h38.625c3.025,0,5.509,1.364,5.509,3.016h0c0,1.662-2.483,3.016-5.509,3.016h-1.291a2.583,2.583,0,0,1,1.571,2.1c0,1.418-1.806,2.61-4.217,2.926h11.117c3.034,0,5.518,1.364,5.518,3.016s-2.483,3.016-5.518,3.016h-38.58c-3.034,0-5.509-1.355-5.509-3.016,0-1.409,1.806-2.6,4.217-2.926H256.408c-3.034,0-5.518-1.355-5.518-3.016S253.41,288.91,256.408,288.91Z" transform="translate(-74.714 -59.754)"/><ellipse class="c" cx="58.664" cy="193.052" rx="58.664" ry="193.052" transform="translate(512.346 531.142) rotate(-78.45)"/><path class="d" d="M828.56,415.649s10.268-50.4,49.471-45.732c0,0,27.092,1.86,32.664,19.6v39.2Z" transform="translate(-135.333 -68.072)"/><path class="e" d="M969.906,402.454,620.8,373.51,576,382.848l2.8,62.538,3.052.37,3.477,93.911,342.565,61.6,36.412-30.8v-101.8l4.66-2.736Z" transform="translate(-63.79 -36.2)"/><path class="f" d="M1008.492,405.56l-.939,63.469-37.8,17.737-.47-66.277Z" transform="translate(-101.907 -39.307)"/><path class="f" d="M1002.123,478.94l.461,99.881-36.4,30.8,2.339-115.748Z" transform="translate(-101.606 -46.419)"/><path class="f" d="M582.972,457.309l348.661,42.544.181-8.073L582.71,454.13Z" transform="translate(-64.441 -44.014)"/><path class="f" d="M1002.273,482.607V478.94L967.73,494.184v8.092Z" transform="translate(-101.757 -46.419)"/><path class="g" d="M575.48,382.848l44.8-9.338,349.1,28.944-39.2,14.928Z" transform="translate(-63.74 -36.2)"/><path class="h" d="M967.72,407.55l17.131,1.12-28.393,8.5L942,416.129Z" transform="translate(-99.263 -39.5)"/><path class="d" d="M967.72,406.72l17.131,1.12-28.393,8.507L942,415.3Z" transform="translate(-99.263 -39.419)"/><path class="i" d="M1022.32,444.551c.677-.289,1.391.262,2.113.4.415.081.84,0,1.255.081.84.108,1.671.668,2.474.388" transform="translate(-155.913 -75.327)"/><path class="i" d="M1021.34,445.121c.668-.289,1.391.253,2.113.4.415.072.84,0,1.255.072.84.117,1.671.677,2.475.4" transform="translate(-155.818 -75.382)"/><path class="i" d="M1019.08,446.261c.677-.289,1.4.253,2.122.388.406.081.84,0,1.246.081.849.117,1.68.677,2.475.388" transform="translate(-155.599 -75.492)"/><path class="h" d="M885.72,398.21l17.131,1.129-28.393,8.5L860,406.789Z" transform="translate(-89.91 -38.594)"/><path class="d" d="M885.72,397.39l17.131,1.12-28.393,8.5L860,405.969Z" transform="translate(-89.91 -38.515)"/><path class="i" d="M940.32,435.221c.677-.289,1.391.253,2.113.4.416.072.84,0,1.255.072.84.117,1.671.677,2.474.4" transform="translate(-147.966 -74.422)"/><path class="i" d="M939.34,435.791c.668-.289,1.391.253,2.113.388.415.081.84,0,1.255.081.84.117,1.671.677,2.474.388" transform="translate(-147.871 -74.478)"/><path class="i" d="M937.08,436.921c.677-.289,1.4.262,2.122.4.406.081.84,0,1.246.081.849.108,1.68.677,2.474.388" transform="translate(-147.652 -74.587)"/><path class="h" d="M925.05,402.88,942.19,404,913.8,412.507l-14.467-1.048Z" transform="translate(-95.127 -39.047)"/><path class="d" d="M925.05,402.06l17.141,1.12-28.393,8.5L899.33,410.63Z" transform="translate(-95.127 -38.967)"/><path class="i" d="M979.65,439.891c.677-.289,1.4.253,2.122.388.406.081.831,0,1.246.081.84.108,1.68.677,2.474.388" transform="translate(-151.778 -74.875)"/><path class="i" d="M978.67,440.451c.677-.289,1.4.262,2.122.4.406.081.831,0,1.246.081.84.108,1.68.677,2.474.388" transform="translate(-151.683 -74.929)"/><path class="i" d="M976.42,441.591c.668-.289,1.391.253,2.113.4.415.072.84,0,1.255.072.84.117,1.671.677,2.474.4" transform="translate(-151.465 -75.04)"/><ellipse class="c" cx="182.856" cy="37.64" rx="182.856" ry="37.64" transform="translate(263.737 639.399)"/><path class="j" d="M736.7,422.96c-1.951-17.14-9.672-33.5-9.672-33.5l.587-5.78s.126-2.89-.063-7.225a32.875,32.875,0,0,1,1.057-8.019c1.58-5.012-1.978-11.171-2.375-11.74s.2-11.559-3.359-16.951-27.255-15.416-27.255-15.416-1.273-2.664-3.07-5.78l.163-.316a33.956,33.956,0,0,0-5.418-7.306c-1.454-1.553-2.854-2.438-3.983-2a32.5,32.5,0,0,1-1.048-4.579c.235.063.479.126.713.172a7.369,7.369,0,0,0,2.98.072c2.2-.5,3.667-2.474,4.895-4.335,6.123-9.3,11.4-19.507,12.471-30.515a19.4,19.4,0,0,0-.316-6.737,22.734,22.734,0,0,0-2.113-4.922,39.555,39.555,0,0,0-5.96-8.787c-4.217-4.443-10.033-7.161-16.012-8.769a55.431,55.431,0,0,0-20.681-1.544c-1.806.208-3.612.506-5.418.623a56.277,56.277,0,0,1-6.872-.117L634.13,238.8l-.054-.181-1.969-.117c-.777,1.544,0,3.378.966,4.822s2.077,2.953,2,4.66-1.319,3.08-2.285,4.515-1.7,3.314-.732,4.723a2.707,2.707,0,0,0,.479.524c1.021,1.057,2.8,1.174,4.344,1.156h.271a29.413,29.413,0,0,0-5.987,17.809A29.946,29.946,0,0,0,647.5,303.248c.172.587.343,1.192.506,1.806a55.322,55.322,0,0,1,1.9,19.525l-.208.452-.126-.479S635.638,334,631.5,336.5s-8.29,10.981-8.489,13.293-6.719,37.18-6.719,37.18a85.422,85.422,0,0,0-3.269,10.765l-8.318,7.306s-17.159,1.544-22.125.388l.144.957a75.041,75.041,0,0,0-13.329-1.806,14.134,14.134,0,0,0-7.225.966l-.172.081-.135.063a28.629,28.629,0,0,0-7.586,2.131c-.289.117-.551.235-.8.352l.054-1.183-18.567-.957-9.482-1.924s-3.359-2.709-5.337-2.312-6.123-2.312-6.123-2.312a16.554,16.554,0,0,0-3.052-1.9c-.316-2.185-.515-3.513-.515-3.513s-7.378-29.278-12.905-46.491c-3.7-11.5-9.031-17.159-12.174-19.624-1.4-2.438-2.321-4.01-2.321-4.01-.605-2.113-3.928-6.872-4.777-6.99-.135-.217-.235-.325-.289-.325a1.057,1.057,0,0,0-.533.081c-1.553-7.73-2.456-17.42-.081-25.864a28.546,28.546,0,0,0,10.422-22q0-.19,0-.379v-.388a28.421,28.421,0,0,0-6.71-18.333l-.307-.343a2.4,2.4,0,0,0,.235-.19,4.841,4.841,0,0,0,1.707-4.66c-.406-1.734-1.761-3.1-2.456-4.741a30.707,30.707,0,0,1-1-3.865A11.921,11.921,0,0,0,476.416,231l.135.361a17.161,17.161,0,0,0-15.109-5.075c-4.073.65-7.866,2.547-11.957,3.134-2.935.415-5.924.144-8.877.443a23.039,23.039,0,0,0-7.875,2.276,4.516,4.516,0,0,0-1.671,1.228,6.61,6.61,0,0,0-.831,2.321c-1,3.657-4.181,6.267-6.484,9.32a21.81,21.81,0,0,0-4.371,12.047,9.429,9.429,0,0,0,.316,3.3c.2.641.506,1.246.65,1.9.452,1.987-.587,3.965-1.093,5.933a11.55,11.55,0,0,0,.641,7.532c3.567,7.983,15.28,10.647,17.718,19.028a23.311,23.311,0,0,0,5.861,1.806c.163.831.307,1.671.424,2.52a.677.677,0,0,0-.154.09c-3.161,3.079-3.946,9.031-3.946,9.031l-.379.307c-1.291,1.066-5.707,4.642-9.7,7.4-4.741,3.278-12.643,14.26-18.17,17.538s-10.078,23.48-8.886,30.822,6.123,27.932,4.145,35.446,2.962,41.8,2.962,41.8a50.492,50.492,0,0,1,9.681,2.872l-.1,1.5-.3,4.515s-8.95,32.366-5.527,57.282-1.58,27.481-1.58,27.481,1.048,11.045-1.58,14.9-3.161,12.327-3.161,12.327-.262,19.01.262,24.383.786,15.163-1.057,17.475-5.265,17.457-5,22.08-6.583,15.163-2.9,28.772S387.67,668.96,387.67,668.96s1.851,20.771,5.8,26.713l.578.849c-.1.343-.2.7-.307,1.093-1.49,5.418-3.531,13.971-2.113,16.039,2.1,3.089,3.161,2.565,3.161,2.565l.786,13.871s15.8,13.357,27.923,12.851,9.744-12.851,9.744-12.851l-10.322-26.767-.352-.9,11.469-21.674s3.161-9.5,3.946-12.842,5.075-15.181,5.075-15.181,10.837-25.684,11.063-28.772,1.057-19.768,3.161-23.119,7.9-22.577,7.9-22.577l.144.126a7.613,7.613,0,0,1,1.969,7.577c-1.328,4.877-.533,14.892-.533,14.892a101.31,101.31,0,0,1-1.58,12.851c-1.057,4.371-1.31,40.07.533,48.541,1.472,6.782,1.427,19.479,1.355,24.284-1.237,5.1-2.321,11.442-.307,12.192,3.432,1.291,20.816,1.03,20.816,1.03s7.369-2.574,17.384,6.421,40.819-2.565,40.819-2.565,9.482-2.574-9.22-10.015c-13.05-5.193-21.475-8.651-26.984-12.354.126-.244.262-.488.379-.75,0,0-7.64-7.225-1.319-20.03s6.06-23.634,6.06-23.634l1.057-43.158-3.161-57.291-2.447-60.127.433-.145c.415,11.054,2.574,37.369,13.871,32.267,14.224-6.421,2.1-23.119,2.1-23.119L520.17,472.8l1.905-.65-7.143-23.083a52.062,52.062,0,0,1-.271-13.609,53.919,53.919,0,0,0-.162-7.947c9.356-1.635,18.315-3.369,19.922-2.971,1.9.461,12.508.551,16.68.569-1.364,1.066-2.456,2.122-2.456,2.122l16.987,11.433s5.762-3.152,6.963-6.493a7.5,7.5,0,0,0,3.179-1.7c.181,3.946,1.228,8.218,4.877,8.317a6.321,6.321,0,0,0,2.655-.524l27.779-5.5L608.7,447.66l1.662,2.953c-.84,12.562-1.806,25.9-2.655,37.631l-.388,2.565.2.045c-1.319,18.062-2.375,31.743-2.375,31.743a16.645,16.645,0,0,1,6.927-6.963l.181,26.8s1.391,42.382,1.391,48.161.19,18.685.19,18.685,2.971,15.795,4.741,21,3.161,28.9,3.161,28.9,4.154,6.547,2.375,9.031,6.918,7.893,6.918,7.893-5.536,7.514-5.933,12.526c-.045.578.524,1.192,1.553,1.806-.325.262-.659.524-1.03.777-2.565,1.716-6.322,2.908-11.975,2.42-15.416-1.355-26.28,12.9-16.8,15.795s37.929,3.468,37.929,3.468,8.615-5.373,15.352-2.953c-.1,5.653.181,10.837.226,11.523l-.081.063c-4.028,3.612-11.74,9.825-19.272,12.363-10.837,3.657-13.239,18.5.786,20.419S666.352,752,666.352,752s10.665-7.893,18.766-9.627,15.018-5.59,13.636-10.214c-.9-2.953-3.224-10.693-4.8-15.894q-.135-.47-.271-.9c.244-.542.488-1.1.713-1.68,0,0-4.145-21.575-.786-26.966s1.58-59.341,1.58-59.341-5.734-13.673-2.763-21.954-4.741-20.039-4.741-20.039.84-23.561,3.1-36.692q.154-.84.3-1.626a73.983,73.983,0,0,0,11.018-4.253s1.978-29.675,3.161-36.412c.117-.632.28-1.653.479-2.98l.9-4.759h0l1.066-5.419h0l3.612-18.468,6.52-8.435,16.8-17.159S738.679,440.11,736.7,422.96ZM477.662,317l-.126.09a1.549,1.549,0,0,1-.045-.2A.816.816,0,0,0,477.662,317Zm165.959,21.033-.65,1.418,2.375-2.366-3.224,3.612,1.084-2.276Zm-16.039,33.143c-.623,1.653-1.291,3.441-1.987,5.3l1.273-3.8Z" transform="translate(-90.209 -54.16)"/><path class="k" d="M595.9,445.97s-2.213,14.729,4.425,14.919S611.4,449.529,611.4,449.529l-2.709-9.239Z" transform="translate(-110.6 -74.922)"/><path class="l" d="M595.9,445.97s-2.213,14.729,4.425,14.919S611.4,449.529,611.4,449.529l-2.709-9.239Z" transform="translate(-110.6 -74.922)"/><path class="m" d="M427.926,794.275c-11.812.515-27.219-12.833-27.219-12.833l-.768-13.862s-1.02.515-3.079-2.565c-1.382-2.068.605-10.638,2.059-16.03.7-2.637,1.282-4.516,1.282-4.516l25.918,6.936,1.237,3.278,10.06,26.749S439.729,793.76,427.926,794.275Z" transform="translate(-89.89 -104.403)"/><path class="m" d="M554.8,752.977s-30.027,11.55-39.736,2.565-16.942-6.421-16.942-6.421-16.942.262-20.283-1.03c-1.969-.75-.9-7.17.325-12.282.831-3.531,1.734-6.448,1.734-6.448s29.513-10.015,34.136-3.856a22.132,22.132,0,0,0,4.922,4.7c5.346,3.865,13.7,7.369,26.912,12.761C564.042,750.4,554.8,752.977,554.8,752.977Z" transform="translate(-98.429 -102.371)"/><path class="n" d="M532.541,496.35l8.209,16.427s11.812,16.689-2.05,23.1-13.6-36.954-13.6-36.954Z" transform="translate(-103.266 -80.355)"/><path class="o" d="M495.25,338.61s8.986,4.109,14.377,21.3,12.58,46.464,12.58,46.464,4.877,33.107,4.1,41.325a53.284,53.284,0,0,0,.262,13.6l6.927,23.1-13.862,4.877-21.3-81.62Z" transform="translate(-100.213 -65.067)"/><path class="f" d="M495.25,338.61s8.986,4.109,14.377,21.3,12.58,46.464,12.58,46.464,4.877,33.107,4.1,41.325a53.284,53.284,0,0,0,.262,13.6l6.927,23.1-13.862,4.877-21.3-81.62Z" transform="translate(-100.213 -65.067)"/><path class="h" d="M426.388,751.417l1.237,3.278-1.517,2.9c-5.906,2.565-20.536.515-20.536.515s-2.709-3.441-6.412-9.1c.7-2.637,1.282-4.515,1.282-4.515Z" transform="translate(-90.144 -104.405)"/><path class="h" d="M520.043,731.411c-7.487,16.96-32.935,10.665-40.007,8.543-1.165-.352-1.806-.587-1.806-.587s.045-1.382.063-3.558c.831-3.531,1.734-6.448,1.734-6.448s29.513-10.015,34.136-3.856a22.136,22.136,0,0,0,4.922,4.7,8.708,8.708,0,0,0,.957,1.21Z" transform="translate(-98.447 -102.371)"/><path class="m" d="M510.454,684.4c-6.159,12.824,1.291,20.021,1.291,20.021-7.487,16.951-32.935,10.665-40.006,8.534-1.165-.343-1.806-.578-1.806-.578s.515-17.718-1.282-26.189-1.544-44.143-.515-48.5a103.259,103.259,0,0,0,1.535-12.842s-.768-10.006.515-14.883a7.685,7.685,0,0,0-1.915-7.568l-.135-.135s-5.644,19.254-7.7,22.577-2.818,20.021-3.08,23.1-10.783,28.754-10.783,28.754-4.1,11.8-4.868,15.136-3.856,12.842-3.856,12.842l-12.372,23.877c-5.906,2.565-20.536.515-20.536.515s-2.818-3.612-6.674-9.5-5.644-26.686-5.644-26.686S406.735,692.6,403.141,679s3.079-24.13,2.827-28.754,3.079-19.759,4.877-22.071,1.535-12.065,1.02-17.457-.253-24.383-.253-24.383.515-8.471,3.079-12.318,1.544-14.892,1.544-14.892,4.868-2.565,1.535-27.463,5.418-57.237,5.418-57.237l.3-4.515.47-7.315s73.411-4.624,79.318,1.021a19.47,19.47,0,0,1,3.748,5.373,53.461,53.461,0,0,1,4.244,13.664l3.08,77.773,3.079,57.237-1.03,43.122S516.622,671.553,510.454,684.4Z" transform="translate(-89.746 -76.911)"/><path class="h" d="M496.708,538.42,489,705.255l-9.247,15.208c-1.165-.343-1.806-.578-1.806-.578s.515-17.718-1.282-26.189-1.544-44.143-.515-48.5a103.27,103.27,0,0,0,1.535-12.842s-.768-10.006.515-14.883a7.685,7.685,0,0,0-1.914-7.568l.126-.9Z" transform="translate(-98.077 -84.432)"/><path class="h" d="M407.086,736.175s20.021-7.956,23.1-5.419-23.607,6.412-23.607,6.412Z" transform="translate(-90.906 -103.025)"/><path class="h" d="M514.575,713.5c-.768.262-20.274,7.225-18.477,14.63S514.575,713.5,514.575,713.5Z" transform="translate(-100.221 -101.401)"/><path class="n" d="M449.07,291.985s6.538,15.786,3.08,23.877,37.342,21.945,37.342,21.945-11.93-30.8-.379-48.134S449.07,291.985,449.07,291.985Z" transform="translate(-95.398 -59.631)"/><path class="m" d="M707.013,795.7c-7.893,1.734-18.287,9.627-18.287,9.627s-20.021,4.236-33.694,2.312-11.352-16.752-.768-20.41c7.342-2.529,14.865-8.769,18.793-12.345,1.734-1.6,2.763-2.709,2.763-2.709l38.318-7.7s.623,2.14,1.49,5.093c1.535,5.211,3.8,12.941,4.669,15.885C721.643,790.117,714.906,793.965,707.013,795.7Z" transform="translate(-116.101 -106.341)"/><path class="m" d="M694.187,763.1s-16.174,1.734-22.911-2.113-16.364,2.312-16.364,2.312-27.725-.578-36.963-3.468,1.346-17.159,16.364-15.786c5.473.5,9.175-.7,11.677-2.42A12.3,12.3,0,0,0,651.074,734l32.511,1.924,4.515,11.523Z" transform="translate(-112.87 -103.388)"/><path class="h" d="M691.977,752.7s-37.785-6.177-42.607-11.081A12.3,12.3,0,0,0,654.454,734l32.511,1.924,4.515,11.523Z" transform="translate(-116.341 -103.388)"/><path class="m" d="M634.52,515.062l.388,56.4s1.346,42.355,1.346,48.134.19,18.667.19,18.667,2.89,15.786,4.624,20.988,3.079,28.9,3.079,28.9,4.046,6.547,2.312,9.031,6.737,7.893,6.737,7.893-5.418,7.514-5.771,12.517,43.113,12.11,43.113,12.11L673.605,556.061l-13.483-43.5Z" transform="translate(-114.852 -81.926)"/><path class="p" d="M634.52,515.062l.388,56.4s1.346,42.355,1.346,48.134.19,18.667.19,18.667,2.89,15.786,4.624,20.988,3.079,28.9,3.079,28.9,4.046,6.547,2.312,9.031,6.737,7.893,6.737,7.893-5.418,7.514-5.771,12.517,43.113,12.11,43.113,12.11L673.605,556.061l-13.483-43.5Z" transform="translate(-114.538 -58.926)"/><path class="h" d="M718.581,769.609c-12.58,29.991-42.5,6.845-42.5,6.845s0-.578-.072-1.571c1.734-1.6,2.763-2.709,2.763-2.709l38.318-7.7S717.714,766.655,718.581,769.609Z" transform="translate(-119.126 -106.341)"/><path class="m" d="M715.839,741.923c-12.327,31.608-42.932,7.893-42.932,7.893s-.966-16.364.966-23.868-2.122-30.036-2.122-30.036-2.312-20.021-4.425-24.636-1.924-13.862-1.924-14.63.768-6.936-.966-11.171-2.709-14.63-2.709-14.63,0-14.63-1.734-23.29l-5.969-29.8-10.783-61.03,3.368-.578,60.353-10.584s11.361,57.8,7.5,63.721c-.831,1.3-1.562,4.145-2.167,7.812-2.2,13.113-3.025,36.656-3.025,36.656s7.5,11.74,4.624,20.021,2.709,21.945,2.709,21.945,1.734,53.9-1.544,59.3S715.839,741.923,715.839,741.923Z" transform="translate(-115.854 -81.248)"/><path class="q" d="M712.405,326.816s-54.672,38.5-42.355,19.245c6.638-10.367,5.419-23.57,2.818-33.54a79.148,79.148,0,0,0-5.419-14.711s46.454-19.759,40.3-2.05a33.182,33.182,0,0,0-1.806,12.86A34.317,34.317,0,0,0,712.405,326.816Z" transform="translate(-118.243 -60.199)"/><path class="q" d="M605.195,428.248s-23.1-6.674-26.948-.126,1.156,20.915,8.128,23.227,22.974-7.83,22.974-7.83Z" transform="translate(-108.723 -73.463)"/><path class="r" d="M633.956,416l-9.627,8.859s-16.752,1.535-21.566.379c0,0,4.434,29.648-1.924,33.306l38.887-7.893Z" transform="translate(-111.251 -72.568)"/><path class="s" d="M633.956,416l-9.627,8.859s-16.752,1.535-21.566.379c0,0,4.434,29.648-1.924,33.306l38.887-7.893Z" transform="translate(-111.251 -70.568)"/><path class="h" d="M494.445,271.866a28.9,28.9,0,0,1-28.9,28.9c-14.829-7.125-28.9-12.923-28.9-28.9a28.9,28.9,0,1,1,57.752,0Z" transform="translate(-94.148 -55.687)"/><path class="n" d="M494.458,271.136a28.844,28.844,0,1,1-6.538-18.269A28.844,28.844,0,0,1,494.458,271.136Z" transform="translate(-94.162 -55.733)"/><path class="h" d="M510.337,469.022a65.315,65.315,0,0,1-8.95,4.642s-14.63-2.122-16.743.379-20.771,3.468-20.771,3.468-28.492-1.346-32.728-5a17.341,17.341,0,0,0-4.326-2.565l.47-7.315S500.7,458,506.607,463.649a19.468,19.468,0,0,1,3.73,5.373Z" transform="translate(-93.203 -76.914)"/><path class="o" d="M512.138,449.056c-.578,3.269-12.517,8.272-12.517,8.272s-14.63-2.113-16.743.388-20.771,3.468-20.771,3.468-28.492-1.355-32.728-5.012-13.673-5.418-13.673-5.418-4.813-34.263-2.881-41.767-2.89-28.113-4.046-35.428,3.269-27.526,8.66-30.8,13.095-14.251,17.709-17.52c3.892-2.754,8.191-6.322,9.446-7.4l.37-.307s.777-5.969,3.856-9.031S480.2,327.953,480.2,327.953s.2,1.734,2.122-1.535c.434-.732,4.163,4.651,4.813,6.927,0,0,15.4,26.957,16.364,32.511s5,23.679,5.771,28.1c.2,1.138.524,5.129.9,10.476.072,1.048.135,2.158.217,3.314.569,8.868,1.183,20.193,1.553,28.754,0,.975.081,1.915.108,2.818a95.864,95.864,0,0,1,.09,9.735Z" transform="translate(-91.356 -62.122)"/><path class="h" d="M415,387.21s10.584,12.9,14.052,12.9S415,387.21,415,387.21Z" transform="translate(-91.759 -69.777)"/><path class="h" d="M438.055,417.91s-17.33,18.865-15.018,22.333S438.055,417.91,438.055,417.91Z" transform="translate(-92.578 -72.753)"/><path class="h" d="M425.62,456.34s19.868-21.755,20.771-29.26Z" transform="translate(-92.885 -73.641)"/><path class="h" d="M453.33,458.648s22.911-12.128,24.835-21.755S453.33,458.648,453.33,458.648Z" transform="translate(-95.79 -74.415)"/><path class="h" d="M485.179,331.311,482,339l5.292,2.5,5.2,14.54s14.341,28.682,13.763,43.6,2.6,37.342,2.6,37.342l8.272-1.535-3.9-43.881a63.3,63.3,0,0,0-5.039-19.7c-6.611-15.136-18.91-43.077-19.687-43.077-1.057,0-.316.388-.316.388Z" transform="translate(-98.818 -64.116)"/><path class="t" d="M486.029,330.452l-3.179,7.7,5.3,2.5,5.193,14.54s14.341,28.682,13.763,43.6,2.6,37.342,2.6,37.342l8.281-1.535-3.91-43.881a63.052,63.052,0,0,0-5.03-19.7c-6.611-15.145-18.911-43.077-19.678-43.077-1.066,0-.325.388-.325.388Z" transform="translate(-98.907 -64.034)"/><path class="n" d="M588.124,453.124c-4.028-.307-13.691-5.193-17.529-7.225l-1.626-.9.2-14.91a26.194,26.194,0,0,1,2.944-1.49c5.129-2.24,15.65-5.283,20.924,4.515C600.153,446.251,593.227,453.467,588.124,453.124Z" transform="translate(-107.872 -73.568)"/><path class="h" d="M487.9,252.856a4.271,4.271,0,0,1-1.346.551c-3.35.732-7.161-2.149-10.033-.3-1.752,1.138-2.158,3.495-2.393,5.572q-.614,5.418-1.228,10.765a13.284,13.284,0,0,1-.795,3.712c-1.418,3.242-5.31,4.768-8.859,4.714a5.283,5.283,0,0,1-3.82-1.264c-.623-.632-.957-1.517-1.644-2.1-4.515-3.784-5.888,5.491-4.7,8.128,1.914,4.308,8.715,8.462,5.861,13.935a5.22,5.22,0,0,1-2.1,2.1A28.9,28.9,0,1,1,487.9,252.856Z" transform="translate(-94.124 -55.723)"/><path class="u" d="M456.02,273.075c.677.569,1.021,1.454,1.644,2.086a5.292,5.292,0,0,0,3.82,1.264c3.549.054,7.441-1.463,8.85-4.723a12.859,12.859,0,0,0,.8-3.7l1.228-10.765c.235-2.077.632-4.434,2.393-5.572,2.872-1.806,6.683,1.03,10.033.3a4.9,4.9,0,0,0,3.612-5.653c-.388-1.725-1.707-3.089-2.384-4.732a30.914,30.914,0,0,1-.984-3.856c-1.869-7.008-10.1-10.945-17.249-9.771-3.974.659-7.667,2.556-11.65,3.134-2.854.415-5.771.145-8.651.452a21.837,21.837,0,0,0-7.676,2.267,4.462,4.462,0,0,0-1.626,1.228,6.782,6.782,0,0,0-.813,2.312c-.966,3.612-4.073,6.276-6.322,9.32a22.206,22.206,0,0,0-4.281,12.02,9.633,9.633,0,0,0,.307,3.3c.19.632.488,1.246.632,1.9.443,1.978-.569,3.956-1.066,5.924a11.848,11.848,0,0,0,.632,7.532c3.468,7.974,14.892,10.638,17.267,19.01a18.965,18.965,0,0,0,6.719,1.806c2.33.045,4.841-.957,5.924-3.025,2.845-5.418-3.946-9.627-5.861-13.926C450.123,278.548,451.469,269.282,456.02,273.075Z" transform="translate(-93.081 -54.322)"/><path class="h" d="M707.794,295.759a33.18,33.18,0,0,0-1.806,12.86c-1.391,1.183-2.908-2.357-4.515-1.445-4.407,2.547-9.5,8.606-14.955,8.606a29.955,29.955,0,0,1-13.609-3.26,79.143,79.143,0,0,0-5.418-14.711S713.953,278.049,707.794,295.759Z" transform="translate(-118.227 -60.199)"/><path class="q" d="M715.333,280.536A30.036,30.036,0,1,1,685.3,250.5,30.036,30.036,0,0,1,715.333,280.536Z" transform="translate(-117.043 -56.527)"/><path class="v" d="M712.4,336.512s-5.653,6.159-6.421,6.665-17.159,69.537-17.448,70.341-19.516,63.134-19.516,63.134L638.21,491.8l2.574-76.238,22.577-62.872s7.45-8.471,9.753-11.55,31.057-21.566,31.057-21.566l4.913,10.124Z" transform="translate(-115.329 -63.222)"/><path class="h" d="M711.988,331.4l-35.419,25.358L676,342.837c2.312-3.079,31.057-21.556,31.057-21.556Z" transform="translate(-119.092 -63.387)"/><path class="v" d="M712.84,329.694l-35.419,25.358-.551-13.916c2.312-3.089,31.057-21.566,31.057-21.566Z" transform="translate(-119.183 -63.222)"/><path class="m" d="M670.878,336.59l1.183,6.2-7.92,8.047,6.322-14.151s-13.546,9.437-17.61,11.939-8.128,10.972-8.281,13.284-6.547,37.153-6.547,37.153-4.813,12.9-3.459,16.553-7.315,118.972-7.315,118.972a17.158,17.158,0,0,1,11.578-8.877l-3.089-68.146s3.757-45.335,3.946-45.913,8.76-26.858,8.76-26.858Z" transform="translate(-114.039 -64.871)"/><path class="h" d="M673.3,344.3l-.614,12.643s-8.57,27.047-11.451,31.472-11.65,30.8-11.65,30.8l-4.94,45.822-8.471,3.856L632,461.213l6.936-44.251s13.086-37.342,15.018-41.2l9.654-20.337Z" transform="translate(-114.519 -65.618)"/><path class="w" d="M672.435,343.45l-.605,12.643s-8.57,27.047-11.46,31.472-11.641,30.8-11.641,30.8l-4.913,45.813-8.471,3.847-4.235-7.694,6.936-44.251s13.086-37.351,15.009-41.2l9.726-20.31Z" transform="translate(-114.426 -65.536)"/><path class="q" d="M566.31,449.859l16.553,11.46s11.677-6.547,4.877-10.783a30.152,30.152,0,0,0-15.018-4.877C570.536,445.66,566.31,449.859,566.31,449.859Z" transform="translate(-107.58 -75.442)"/><path class="q" d="M579.871,426.687a2.547,2.547,0,0,0-1.2,2.176c0,3.513.4,12.815,3.341,8.615,3.612-5.139,2.953-9.753,8.471-6.421a32.512,32.512,0,0,1,8.85,8.128L597.8,428.15S586.455,422.55,579.871,426.687Z" transform="translate(-108.859 -73.456)"/><path class="h" d="M714.8,569.241c-.831,1.3-1.562,4.145-2.167,7.812-33.757,10.124-58.456-11.279-58.456-11.279a294.611,294.611,0,0,1-7.315-30.8c-.605-3.558-.47-10.458.09-18.874L707.3,505.52S718.652,563.272,714.8,569.241Z" transform="translate(-116.168 -81.244)"/><path class="m" d="M749.442,378.893c-1.535,5.012-.957,15.208-.957,15.208l-13.862,65.455s-6.737,50.437-7.893,57.174-3.079,36.385-3.079,36.385c-39.275,19.254-69.537-6.927-69.537-6.927a295.138,295.138,0,0,1-7.315-30.8c-1.933-11.433,3.757-57.237,6.448-77.584.8-6.023,1.346-9.816,1.346-9.816L664.7,390.444s12.417-31.671,17.041-40.91,23.191-29.991,23.191-29.991c2.3-1.463,5.987,3.7,8.724,8.408,2.068,3.558,3.612,6.863,3.612,6.863s23.1,10.006,26.56,15.352,2.89,16.364,3.278,16.942S750.986,373.89,749.442,378.893Z" transform="translate(-116.342 -63.195)"/><path class="h" d="M695.789,355.685s1.734,10.2-2.709,13.284c-4.29,2.98-36.223,65.771-38.209,69.691.8-6.033,1.346-9.826,1.346-9.826L666.321,391.3s12.426-31.671,17.041-40.919,23.2-29.991,23.2-29.991c2.3-1.463,5.978,3.7,8.715,8.408C711.15,337.371,702.544,353.572,695.789,355.685Z" transform="translate(-117.004 -63.277)"/><path class="m" d="M694.937,354.835s1.725,10.2-2.709,13.284S656.014,433.882,654,437.8c.8-6.024,1.346-9.816,1.346-9.816l10.105-37.541s12.417-31.671,17.041-40.91,23.191-29.991,23.191-29.991c2.3-1.463,5.987,3.7,8.724,8.408C710.3,336.512,701.683,352.722,694.937,354.835Z" transform="translate(-116.913 -63.195)"/><path class="d" d="M684.277,423.17l-10.864,56.524v.009l-1.039,5.409v.009l-2.339,12.165-9.979-2.113-4.651-.984-64.362-13.637-4.732-1-10.8-2.285,2.113-14.034.876-5.834,7.794-51.747Z" transform="translate(-60.497 -39.315)"/><path class="q" d="M681.316,511.92s-25.6,9.239-20.021,20.211,41.388-8.471,41.388-8.471Z" transform="translate(-117.502 -81.864)"/><path class="h" d="M703.8,599.1c0,.768.966,10.593,4.813,14.052S703.8,599.1,703.8,599.1Z" transform="translate(-121.845 -90.314)"/><path class="h" d="M675.24,637.68s4.615,12.706,22.9,17.908S675.24,637.68,675.24,637.68Z" transform="translate(-118.971 -94.053)"/><path class="h" d="M715.96,280.545a30.027,30.027,0,0,1-15.054,26.036,15.984,15.984,0,0,1-4.515-3.766c-1.31-1.589-2.33-3.757-1.544-5.653.632-1.526,2.3-2.492,2.709-4.073a6,6,0,0,0-.144-2.908c-.334-1.49-.65-2.98-.975-4.461-.28-1.264-.777-2.754-2.032-3.061s-2.3.741-3.287,1.517c-2.411,1.905-7.035,3.2-9.934,1.635s-2.086-6.791-2.556-9.618a1.679,1.679,0,0,0-.632-1.273,2.637,2.637,0,0,0-1.31-.09,3.77,3.77,0,0,1-3.269-2.9,24.951,24.951,0,0,1-.524-4.651,5.188,5.188,0,0,0-2.077-4.019,6.421,6.421,0,0,0-3.423-.56l-5.662.063a30.037,30.037,0,0,1,54.185,17.809Z" transform="translate(-117.691 -56.536)"/><path class="w" d="M691.357,283.306c.984-.777,2.068-1.806,3.287-1.508s1.743,1.806,2.023,3.052l.975,4.452a6.051,6.051,0,0,1,.153,2.917c-.46,1.589-2.122,2.547-2.763,4.073-.786,1.9.244,4.064,1.544,5.644a16.256,16.256,0,0,0,9.293,5.554,6.827,6.827,0,0,0,2.9.063c2.149-.5,3.612-2.474,4.768-4.326,5.969-9.3,11.108-19.5,12.156-30.5a19.564,19.564,0,0,0-.307-6.728,22.576,22.576,0,0,0-2.059-4.922,39.736,39.736,0,0,0-5.807-8.787c-4.109-4.425-9.78-7.143-15.605-8.751a52.849,52.849,0,0,0-20.148-1.58c-1.806.208-3.54.506-5.319.623a53.536,53.536,0,0,1-6.7-.108l-13.293-.795c-.759,1.544,0,3.378.9,4.822s2.023,2.944,1.951,4.66-1.291,3.07-2.231,4.515-1.653,3.314-.713,4.723,2.854,1.5,4.515,1.481l6.7-.072a6.4,6.4,0,0,1,3.4.587,5.2,5.2,0,0,1,2.077,4.019,26.563,26.563,0,0,0,.524,4.651c.461,1.5,1.707,2.917,3.269,2.9a2.439,2.439,0,0,1,1.31.1,1.662,1.662,0,0,1,.632,1.264c.47,2.827-.4,8.046,2.556,9.618S688.946,285.212,691.357,283.306Z" transform="translate(-117.163 -55.667)"/><path class="h" d="M731.325,353.461a14.72,14.72,0,0,0-15.488,9.889c-3.612,10.286-9.636,28.844-8.128,36.177,2.122,10.394,4.624,27.725,4.624,27.725s10.972,6.322,5.419,12.7-7.125,15.407-7.125,15.407-7.125,3.08-8.661,9.627-11.939,15.587-11.939,15.587l-15.587,15.6s25.792,26.189,30.994,27.526l15.975-18.676,18.865-25.024,16.364-17.159s3.847-9.031,1.924-26.189-9.437-33.5-9.437-33.5l.578-5.78S751.473,355.963,731.325,353.461Z" transform="translate(-119.183 -66.498)"/><path class="m" d="M733.026,353.461a14.72,14.72,0,0,0-15.47,9.889c-3.612,10.286-9.636,28.844-8.128,36.177,2.113,10.394,4.615,27.725,4.615,27.725s10.972,6.322,5.418,12.7-7.116,15.407-7.116,15.407-7.125,3.08-8.67,9.627-11.93,15.587-11.93,15.587l-15.6,15.6s25.792,26.189,30.994,27.526l15.975-18.676,18.82-25.024L758.3,462.833s3.856-9.031,1.924-26.189-9.428-33.5-9.428-33.5l.578-5.78S753.174,355.963,733.026,353.461Z" transform="translate(-119.362 -66.498)"/><path class="h" d="M721.28,418.34s16.364,20.012,23.3,15.587S721.28,418.34,721.28,418.34Z" transform="translate(-123.762 -72.794)"/><path class="h" d="M728.1,401.28c1.734.578,15.984,20.41,23.3,18.062S728.1,401.28,728.1,401.28Z" transform="translate(-124.475 -71.141)"/><path class="h" d="M732.58,439s.966,11.361,12.706,9.816S732.58,439,732.58,439Z" transform="translate(-124.898 -74.797)"/><path class="h" d="M620.339,301.83l-6.349,14.151,7.929-8.046Z" transform="translate(-64.023 -29.253)"/><path class="v" d="M620.339,300.98l-6.349,14.151,7.929-8.046Z" transform="translate(-64.023 -29.171)"/><path class="x" d="M591.27,486.1l-4.732-1-8.688-16.319.876-5.834Z" transform="translate(-60.279 -44.869)"/><path class="x" d="M681.987,487.65l-1.039,5.409v.009L668.631,503.12l-4.651-.984Z" transform="translate(-69.287 -47.263)"/><path class="h" d="M513.147,442.836c-2.384.4-4.7.759-6.809,1.03-11.74,1.544-39.663-12.318-39.663-12.318s-34.073-28.492-43.89-55.44,11.74-30.994,11.74-30.994c8.128-4.624,25.8,8.272,28.3,10.394s4.624,7.5,4.425,10.972,5.78,7.893,5.78,7.893,10.2,17.709,12.706,19.633,3.08,3.658,3.847,6.936,7.5,5.969,10.394,5.771,6.322.966,6.322,2.5c0,1.237,2.827,1.851,5.148,2.05C512.136,421.135,512.813,434.067,513.147,442.836Z" transform="translate(-92.542 -65.601)"/><path class="h" d="M513.2,439.688c-1.806.289-3.54.551-5.166.768-11.74,1.544-39.654-12.318-39.654-12.318s-34.073-28.492-43.89-55.44,11.74-30.994,11.74-30.994c8.128-4.624,25.792,8.272,28.293,10.394s4.624,7.5,4.434,10.972,5.771,7.893,5.771,7.893,10.2,17.709,12.706,19.633,3.079,3.657,3.856,6.936,7.5,5.96,10.394,5.771,6.322.966,6.322,2.5c0,.9,1.608,1.508,3.4,1.806.072,1.048.135,2.158.217,3.314C512.22,419.8,512.834,431.126,513.2,439.688Z" transform="translate(-92.716 -65.27)"/><path class="h" d="M572.113,428.84l-.732,17.3H570.6l-1.626-.9.2-14.91A26.189,26.189,0,0,1,572.113,428.84Z" transform="translate(-107.778 -73.812)"/><path class="o" d="M434.525,343.4s-21.557,4.046-11.74,30.994,43.89,55.449,43.89,55.449,27.914,13.853,39.663,12.318,29.639-5.581,31.951-5,17.908.578,17.908.578l.768-18.062-18.062-.966-9.238-1.924s-3.278-2.709-5.2-2.312-5.96-2.312-5.96-2.312-3.089-2.5-5.418-2.5-6.737-.578-6.737-2.113-3.468-2.709-6.322-2.5-9.672-2.5-10.467-5.816-1.346-5-3.847-6.927-12.706-19.642-12.706-19.642-5.969-4.425-5.78-7.884S465.3,355.92,462.8,353.8,442.6,338.789,434.525,343.4Z" transform="translate(-92.694 -65.436)"/><path class="h" d="M496.761,412.15s-8.281,8.281-6.168,9.816Z" transform="translate(-99.583 -72.194)"/><path class="h" d="M506.36,419.4s-10.783,8.281-7.893,8.859S506.36,419.4,506.36,419.4Z" transform="translate(-100.395 -72.897)"/><path class="h" d="M487,433c1.544.777,24.446,14.449,33.116,14.251Z" transform="translate(-99.333 -74.215)"/><path class="h" d="M484.9,329.675s-4.046,13.284-5.59,13.284c-1.21,0-21.529-16.454-30.009-23.372l.37-.307s.768-5.969,3.847-9.031S484.9,329.675,484.9,329.675Z" transform="translate(-95.403 -62.29)"/><path class="o" d="M484.039,327.964s-4.037,13.284-5.581,13.284c-1.219,0-21.538-16.454-30.018-23.372l.37-.307s.777-5.969,3.856-9.031S484.039,327.964,484.039,327.964Z" transform="translate(-95.313 -62.125)"/><g class="y" transform="translate(334.288 178.34)"><path d="M427.49,282.54h0c2.709,6.186,10.169,9.184,14.494,14.115C439.411,290.6,431.888,287.624,427.49,282.54Z" transform="translate(-427.49 -237.973)"/><path d="M456.786,297.76c-1.075,2.068-3.612,3.07-5.924,3.025a17.286,17.286,0,0,1-5.942-1.517,11.551,11.551,0,0,1,1.535,3.269,18.876,18.876,0,0,0,6.719,1.806c2.339.054,4.85-.948,5.924-3.025,1.725-3.3-.072-6.114-2.176-8.778A5.735,5.735,0,0,1,456.786,297.76Z" transform="translate(-429.179 -238.942)"/><path d="M490.9,246.745c-.388-1.734-1.707-3.1-2.384-4.732a29.555,29.555,0,0,1-.984-3.865,11.975,11.975,0,0,0-2.772-4.958,11.525,11.525,0,0,1,.461,1.364,31.058,31.058,0,0,0,1.011,3.883c.677,1.635,2,3,2.384,4.732A4.9,4.9,0,0,1,485,248.822c-3.341.732-7.152-2.158-10.024-.3-1.761,1.129-2.167,3.486-2.4,5.563q-.605,5.419-1.228,10.774a12.916,12.916,0,0,1-.795,3.7c-1.418,3.251-5.31,4.777-8.859,4.723a5.319,5.319,0,0,1-3.811-1.264,25.188,25.188,0,0,0-1.653-2.1c-4.515-3.793-5.888,5.482-4.7,8.128a16.362,16.362,0,0,0,2.2,3.314c-.993-2.98.4-11.559,4.8-7.884a23.3,23.3,0,0,1,1.644,2.1,5.355,5.355,0,0,0,3.82,1.264c3.549.054,7.441-1.472,8.859-4.723a12.913,12.913,0,0,0,.795-3.712q.614-5.418,1.228-10.765c.235-2.077.641-4.434,2.393-5.563,2.881-1.86,6.692,1.03,10.033.289A4.895,4.895,0,0,0,490.9,246.745Z" transform="translate(-429.781 -233.19)"/></g><path class="h" d="M710.669,305.237a6.981,6.981,0,0,1-2.9-.072,16.256,16.256,0,0,1-9.284-5.545c-1.309-1.589-2.339-3.757-1.544-5.653.632-1.526,2.294-2.483,2.709-4.073a6.051,6.051,0,0,0-.153-2.917l-.975-4.452c-.28-1.264-.768-2.754-2.023-3.052s-2.3.731-3.287,1.508c-2.411,1.906-7.044,3.206-9.934,1.635s-2.086-6.791-2.556-9.618a1.688,1.688,0,0,0-.632-1.264,2.573,2.573,0,0,0-1.318-.1c-1.562,0-2.809-1.4-3.269-2.9a25.636,25.636,0,0,1-.515-4.651,5.211,5.211,0,0,0-2.086-4.019,6.493,6.493,0,0,0-3.4-.587l-6.7.072c-1.653,0-3.612-.108-4.515-1.481s-.235-3.323.714-4.723,2.149-2.79,2.231-4.515-1.039-3.215-1.951-4.66a8.357,8.357,0,0,1-1.138-2.583l-1.924-.117c-.75,1.535,0,3.368.9,4.822s2.032,2.944,1.951,4.651-1.282,3.079-2.231,4.515-1.644,3.314-.7,4.723,2.845,1.508,4.515,1.49l6.7-.081a6.485,6.485,0,0,1,3.4.6,5.185,5.185,0,0,1,2.086,4.019,24.945,24.945,0,0,0,.524,4.651c.452,1.49,1.707,2.917,3.269,2.89a2.645,2.645,0,0,1,1.309.1,1.7,1.7,0,0,1,.632,1.273c.47,2.818-.4,8.047,2.556,9.618s7.559.271,9.934-1.635c.984-.777,2.077-1.806,3.3-1.517s1.743,1.806,2.014,3.052l.984,4.461a6.042,6.042,0,0,1,.145,2.917c-.452,1.58-2.122,2.547-2.754,4.064-.786,1.9.235,4.073,1.544,5.653a16.255,16.255,0,0,0,9.347,5.545,6.98,6.98,0,0,0,2.9.072,6.808,6.808,0,0,0,3.757-2.854A5.018,5.018,0,0,1,710.669,305.237Z" transform="translate(-117.07 -55.652)"/><ellipse class="c" cx="21.827" cy="3.35" rx="21.827" ry="3.35" transform="translate(160.751 641.72)"/><ellipse class="c" cx="21.827" cy="3.35" rx="21.827" ry="3.35" transform="translate(916.284 554.609)"/><ellipse class="c" cx="63.216" cy="9.699" rx="63.216" ry="9.699" transform="translate(654.214 683.271)"/><ellipse class="c" cx="49.308" cy="7.568" rx="49.308" ry="7.568" transform="translate(845.979 644.312)"/><ellipse class="c" cx="83.616" cy="12.833" rx="83.616" ry="12.833" transform="translate(803.552 714.454)"/><ellipse class="c" cx="63.216" cy="9.699" rx="63.216" ry="9.699" transform="translate(27.309 728.876)"/><path class="d" d="M258.168,631.85s2.474,3.233-1.138,8.128-6.593,9.031-5.418,12.047c0,0,5.418-9.031,9.934-9.193S263.054,637.3,258.168,631.85Z" transform="translate(-73.227 -93.488)"/><path class="h" d="M258.186,631.85a3.61,3.61,0,0,1,.506,1.012c4.335,5.093,6.638,9.835,2.474,9.934-3.874.108-8.525,7.044-9.636,8.8a3.361,3.361,0,0,0,.126.4s5.418-9.031,9.934-9.193S263.071,637.3,258.186,631.85Z" transform="translate(-73.244 -93.488)"/><path class="z" d="M263.938,636.331c0,1.138-.135,2.059-.289,2.059s-.289-.9-.289-2.059.163-.6.316-.6S263.938,635.194,263.938,636.331Z" transform="translate(-74.39 -93.851)"/><path class="z" d="M265.531,637.836c-.993.542-1.869.9-1.942.732s.668-.686,1.671-1.237.605-.145.677,0S266.534,637.285,265.531,637.836Z" transform="translate(-74.412 -93.992)"/><path class="d" d="M243.844,631.85s-2.474,3.233,1.138,8.128,6.6,9.031,5.418,12.047c0,0-5.418-9.031-9.889-9.193S238.932,637.3,243.844,631.85Z" transform="translate(-71.961 -93.488)"/><path class="h" d="M243.842,631.85a3.983,3.983,0,0,0-.506,1.012c-4.335,5.093-6.638,9.835-2.474,9.934,3.874.108,8.525,7.044,9.645,8.8a3.458,3.458,0,0,1-.135.4s-5.418-9.031-9.889-9.193S238.93,637.3,243.842,631.85Z" transform="translate(-71.959 -93.488)"/><path class="z" d="M239.35,636.331c0,1.138.126,2.059.28,2.059s.289-.9.289-2.059-.163-.6-.316-.6S239.35,635.194,239.35,636.331Z" transform="translate(-72.063 -93.851)"/><path class="z" d="M237.535,637.836c1,.542,1.869.9,1.951.732s-.677-.686-1.68-1.237-.605-.145-.677,0S236.532,637.285,237.535,637.836Z" transform="translate(-71.829 -93.992)"/><ellipse class="c" cx="25.855" cy="3.965" rx="25.855" ry="3.965" transform="translate(151.257 575.334)"/><path class="aa" d="M263.552,649.188l-.126,1.011-.172,1.427-.072.6-.172,1.427-.081.6-.172,1.427-1.978,16.255c-.172,1.445-2.538,2.574-5.419,2.574H245.12c-2.854,0-5.22-1.129-5.418-2.574l-1.978-16.255-.172-1.427-.072-.6-.181-1.427-.072-.6-.172-1.427-.126-1.011c-.1-.822,1.183-1.508,2.8-1.508h21.033C262.369,647.68,263.652,648.366,263.552,649.188Z" transform="translate(-71.828 -95.022)"/><path class="ab" d="M209.33,614.76l-.172,1.427H183.132l-.172-1.427Z" transform="translate(-17.732 -59.582)"/><path class="ab" d="M209.112,617l-.172,1.427h-25.53L183.23,617Z" transform="translate(-17.759 -59.799)"/><path class="ab" d="M208.9,619.24l-.181,1.427H183.682l-.172-1.427Z" transform="translate(-17.786 -60.016)"/><path class="d" d="M1082.638,618s-3.089,14.377,10.647,16.075l.849-1.6S1083.487,622.461,1082.638,618Z" transform="translate(-161.73 -92.145)"/><path class="d" d="M1098.96,631.581l-3.2.677-.316.072s-8.525-6.918-8.417-22.36a38.119,38.119,0,0,0,4.073,6.439C1094.48,620.879,1098.318,626.84,1098.96,631.581Z" transform="translate(-162.185 -91.367)"/><path class="d" d="M1100.616,632.491a2,2,0,0,1-1.716.226c-8.2-1.914-5.418-28.637-5.418-28.637.452.208.9,3.612,2.836,8C1099.613,619.785,1103.252,630.558,1100.616,632.491Z" transform="translate(-162.766 -90.796)"/><path class="d" d="M1120.061,618s.533,14.377-13.2,16.075l-.858-1.625S1119.212,622.461,1120.061,618Z" transform="translate(-164.023 -92.145)"/><path class="d" d="M1115.656,610c.108,15.443-10.964,22.36-10.964,22.36l-.325-.072-3.188-.677c.632-4.741,4.516-10.7,7.848-15.172A34.748,34.748,0,0,1,1115.656,610Z" transform="translate(-163.556 -91.37)"/><path class="d" d="M1104.113,631.1a4.987,4.987,0,0,1-1.806,1.4h0a3.518,3.518,0,0,1-.677.226c-2.014.47-2.709-.984-2.6-3.459.189-4.4,2.953-12.029,5.418-17.745a22.177,22.177,0,0,1,5.147-7.432S1109.468,624.888,1104.113,631.1Z" transform="translate(-163.347 -90.797)"/><path class="d" d="M1101.64,593.7s-9.157,32.511-1.273,37.37S1103.663,596.572,1101.64,593.7Z" transform="translate(-163.167 -89.79)"/><path class="h" d="M1082.638,618s-3.089,14.377,10.647,16.075l.849-1.6S1083.487,622.461,1082.638,618Z" transform="translate(-161.73 -92.145)"/><path class="h" d="M1098.96,631.581l-3.2.677-.316.072s-8.525-6.918-8.417-22.36a38.119,38.119,0,0,0,4.073,6.439C1094.48,620.879,1098.318,626.84,1098.96,631.581Z" transform="translate(-162.185 -91.367)"/><path class="h" d="M1100.616,632.491a2,2,0,0,1-1.716.226c-8.2-1.914-5.418-28.637-5.418-28.637.452.208.9,3.612,2.836,8C1099.613,619.785,1103.252,630.558,1100.616,632.491Z" transform="translate(-162.766 -90.796)"/><path class="h" d="M1120.061,618s.533,14.377-13.2,16.075l-.858-1.625S1119.212,622.461,1120.061,618Z" transform="translate(-164.023 -92.145)"/><path class="h" d="M1115.656,610c.108,15.443-10.964,22.36-10.964,22.36l-.325-.072-3.188-.677c.632-4.741,4.516-10.7,7.848-15.172A34.748,34.748,0,0,1,1115.656,610Z" transform="translate(-163.556 -91.37)"/><path class="h" d="M1104.113,631.1a4.987,4.987,0,0,1-1.806,1.4h0a3.518,3.518,0,0,1-.677.226c-2.014.47-2.709-.984-2.6-3.459.189-4.4,2.953-12.029,5.418-17.745a22.177,22.177,0,0,1,5.147-7.432S1109.468,624.888,1104.113,631.1Z" transform="translate(-163.347 -90.797)"/><path class="h" d="M1101.64,593.7s-9.157,32.511-1.273,37.37S1103.663,596.572,1101.64,593.7Z" transform="translate(-163.167 -89.79)"/><path class="d" d="M1082.662,618s-1.806,14.377,11.921,16.075l.849-1.6S1083.51,622.461,1082.662,618Z" transform="translate(-161.754 -92.145)"/><path class="d" d="M1100.23,631.584l-3.2.677-.316.072s-9.8-6.918-9.717-22.333c0,0,2.511,2.709,5.346,6.439C1095.751,620.882,1099.589,626.843,1100.23,631.584Z" transform="translate(-162.182 -91.37)"/><path class="h" d="M1100.807,632.272l-3.2.677c-3.025-2.655-4.227-9.591-4.66-15.849C1096.327,621.57,1100.166,627.531,1100.807,632.272Z" transform="translate(-162.759 -92.058)"/><path class="d" d="M1101.934,632.491a2.023,2.023,0,0,1-1.725.226c-8.2-1.914-6.7-28.637-6.7-28.637.452.208,2.222,3.612,4.109,8C1100.932,619.785,1104.562,630.558,1101.934,632.491Z" transform="translate(-162.802 -90.796)"/><path class="d" d="M1120.2,618s1.806,14.377-11.921,16.075l-.849-1.6S1119.351,622.461,1120.2,618Z" transform="translate(-164.162 -92.145)"/><path class="d" d="M1115.793,610c.108,15.443-9.69,22.36-9.69,22.36l-.316-.072-3.2-.677c.632-4.741,4.515-10.7,7.857-15.172C1113.283,612.709,1115.793,610,1115.793,610Z" transform="translate(-163.693 -91.37)"/><path class="h" d="M1110.447,617.1c-.415,5.834-1.481,12.255-4.073,15.253a4.591,4.591,0,0,1-.587.6l-3.2-.677C1103.222,627.531,1107.069,621.57,1110.447,617.1Z" transform="translate(-163.693 -92.058)"/><path class="d" d="M1105.523,631.1a4.887,4.887,0,0,1-1.806,1.4h0a3.622,3.622,0,0,1-.668.226c-2.023.47-2.709-.984-2.61-3.459.2-4.4,2.962-12.029,5.418-17.745,1.806-4.109,3.441-7.225,3.874-7.432C1109.732,604.081,1110.879,624.888,1105.523,631.1Z" transform="translate(-163.484 -90.797)"/><path class="h" d="M1102.335,633.35a2.168,2.168,0,0,1-1.3-.415c-3.856-2.4-3.937-11.415-3.016-19.994C1101.332,620.643,1104.963,631.417,1102.335,633.35Z" transform="translate(-163.203 -91.655)"/><path class="h" d="M1105.524,631.9c-.442.966-1.038,1.472-1.806,1.4h0a2.43,2.43,0,0,1-1.093-.415,5.835,5.835,0,0,1-2.185-2.818c.2-4.4,2.962-12.029,5.418-17.746C1106.744,620.24,1107.042,628.639,1105.524,631.9Z" transform="translate(-163.484 -91.595)"/><path class="d" d="M1101.744,593.7s-7.875,32.511,0,37.37S1103.767,596.572,1101.744,593.7Z" transform="translate(-163.272 -89.79)"/><path class="ac" d="M1061.231,597.61H1028.44v5.427h5l.126.641,2,10.539h19.064l2-10.539.117-.641h4.47Z" transform="translate(-107.641 -57.92)"/><path class="h" d="M1061.231,597.61H1028.44v5.427h5l.126.641,2,10.539h19.064l2-10.539.117-.641h4.47Z" transform="translate(-107.641 -57.92)"/><path class="ac" d="M1059.1,601.14l-.551,2.881-2,10.539h-19.064l-2-10.539-.551-2.881Z" transform="translate(-108.269 -58.262)"/><path class="h" d="M1059.1,601.14l-.551,2.881h-23.074l-.551-2.881Z" transform="translate(-108.269 -58.262)"/><rect class="ac" width="32.791" height="5.428" transform="translate(922.073 539.69)"/><path class="d" d="M187.452,735.439a15.755,15.755,0,0,0-2.059,3.883c-.126.334-.253.722-.379,1.093a3.942,3.942,0,0,0-.713-.253,9.932,9.932,0,0,0-3.224-.271c0-.424.054-.9.063-1.328.135-4.759-.424-11.388-4.967-8.579-4.353,2.709-1.246,7.225,1.562,10.115.244.253.488.488.722.714-2.565,1.806-3.052,6.078-3.477,10.512s-4.19,9.284-6.692,12.038c-.253.28-.479.533-.7.767a9.167,9.167,0,0,0-7.27-1.87c-.1-.388-.217-.795-.334-1.219-2.023-7.306-6.222-19.958-11.577-22.73l.7-.9c2.276-2.971,4.841-7.4,1.057-8.525s-4.127,3.829-3.919,7.55q.054.7.108,1.328a5.535,5.535,0,0,0-3.955,1.933l-.587-.7c-3.07-3.612-8.7-9.365-10.4-5.021-1.589,4.046,3.368,9.3,6.854,12.345l.217.19c-2.339,9.491,7.875,17.231,13.375,20.617l.713.433c-7.586,8.941-12.273,25.7-12.273,25.7l21.24,3.793s14.088-12.155,12.282-23.57h.145c14.079-2.818,17.276-17.827,15.081-26.74l.253-.1a15.939,15.939,0,0,0,6.52-4.931C199.752,736.252,191.516,730.074,187.452,735.439Z" transform="translate(-61.572 -102.876)"/><path class="h" d="M187.452,735.439a15.755,15.755,0,0,0-2.059,3.883c-.126.334-.253.722-.379,1.093a3.942,3.942,0,0,0-.713-.253,9.932,9.932,0,0,0-3.224-.271c0-.424.054-.9.063-1.328.135-4.759-.424-11.388-4.967-8.579-4.353,2.709-1.246,7.225,1.562,10.115.244.253.488.488.722.714-2.565,1.806-3.052,6.078-3.477,10.512s-4.19,9.284-6.692,12.038c-.253.28-.479.533-.7.767a9.167,9.167,0,0,0-7.27-1.87c-.1-.388-.217-.795-.334-1.219-2.023-7.306-6.222-19.958-11.577-22.73l.7-.9c2.276-2.971,4.841-7.4,1.057-8.525s-4.127,3.829-3.919,7.55q.054.7.108,1.328a5.535,5.535,0,0,0-3.955,1.933l-.587-.7c-3.07-3.612-8.7-9.365-10.4-5.021-1.589,4.046,3.368,9.3,6.854,12.345l.217.19c-2.339,9.491,7.875,17.231,13.375,20.617l.713.433c-7.586,8.941-12.273,25.7-12.273,25.7l21.24,3.793s14.088-12.155,12.282-23.57h.145c14.079-2.818,17.276-17.827,15.081-26.74l.253-.1a15.939,15.939,0,0,0,6.52-4.931C199.752,736.252,191.516,730.074,187.452,735.439Z" transform="translate(-61.572 -102.876)"/><path class="d" d="M145.31,742.014l-2.483,7.225s-1.382-.975-3.125-2.511c-3.486-3.043-8.444-8.3-6.854-12.345,1.707-4.344,7.333,1.391,10.4,5.021C144.488,740.849,145.31,742.014,145.31,742.014Z" transform="translate(-61.712 -103.274)"/><path class="d" d="M152.168,737.418a34.418,34.418,0,0,1-2.42,2.854,38.114,38.114,0,0,1-.443-3.829c-.208-3.721.19-8.661,3.919-7.55S154.444,734.447,152.168,737.418Z" transform="translate(-63.332 -102.878)"/><path class="d" d="M187.235,738.627c-.072,2.393-.307,4.308-.307,4.308a31.509,31.509,0,0,1-3.1-2.772c-2.809-2.917-5.915-7.414-1.562-10.114C186.765,727.23,187.325,733.868,187.235,738.627Z" transform="translate(-66.321 -102.94)"/><path class="d" d="M202.952,742.2a15.94,15.94,0,0,1-6.52,4.931,19.5,19.5,0,0,1-2.185.795l-2.926-4.109a29.056,29.056,0,0,1,1.21-3.992,15.75,15.75,0,0,1,2.059-3.883C198.635,730.574,206.889,736.751,202.952,742.2Z" transform="translate(-67.408 -103.376)"/><path class="h" d="M144.019,740.11c1.237,1.445,2.059,2.565,2.059,2.565l-2.483,7.225s-1.382-.975-3.125-2.511a14.178,14.178,0,0,1,2.8-6.385C143.513,740.706,143.775,740.4,144.019,740.11Z" transform="translate(-62.48 -103.98)"/><path class="h" d="M152.173,738.245a34.428,34.428,0,0,1-2.42,2.854,38.124,38.124,0,0,1-.443-3.829A4.994,4.994,0,0,1,152.173,738.245Z" transform="translate(-63.337 -103.705)"/><path class="d" d="M163.51,767.248l-6.177,2.709s-1.346-.65-3.287-1.86c-6.493-3.992-19.543-14.043-10.837-25.891s16.048,9.4,18.965,19.8C163.049,765.161,163.51,767.248,163.51,767.248Z" transform="translate(-62.464 -103.845)"/><path class="h" d="M184.18,741.155a5.076,5.076,0,0,1,3.4-1.535c-.072,2.393-.307,4.308-.307,4.308a31.524,31.524,0,0,1-3.1-2.772Z" transform="translate(-66.716 -103.933)"/><path class="h" d="M196.451,747.766a19.484,19.484,0,0,1-2.185.795l-2.926-4.109a29.055,29.055,0,0,1,1.21-3.992C194.42,741.562,195.81,744.307,196.451,747.766Z" transform="translate(-67.41 -104.014)"/><path class="d" d="M178.667,774.661c-.334.072-.686.135-1.039.19-20.708,3.143-6.827-8.028-6.827-8.028s.9-.9,2.194-2.267c2.5-2.754,6.258-7.577,6.692-12.038.65-6.71,1.4-13,9.32-11.162C196.783,743.179,198.273,770.732,178.667,774.661Z" transform="translate(-64.978 -104.069)"/><rect class="ad" width="39.564" height="10.403" transform="translate(73.737 722.148)"/><rect class="ad" width="51.692" height="36.304" transform="translate(67.451 688.337)"/><rect class="h" width="39.564" height="10.403" transform="translate(73.737 722.148)"/><rect class="h" width="51.692" height="36.304" transform="translate(67.451 688.337)"/><rect class="ad" width="39.564" height="10.403" transform="translate(76.337 722.148)"/><path class="h" d="M163.648,764.51c.9,3.107,1.337,5.238,1.337,5.238l-6.177,2.709s-1.346-.65-3.287-1.86C157.94,767.535,160.668,765.223,163.648,764.51Z" transform="translate(-63.939 -106.345)"/><path class="h" d="M178.667,777.186c-.334.072-.686.135-1.039.19-20.708,3.143-6.827-8.028-6.827-8.028s.9-.9,2.194-2.267C176.861,770.177,178.459,773.663,178.667,777.186Z" transform="translate(-64.978 -106.594)"/><path class="d" d="M142.72,796.854s11.6-41.542,27.86-28.727-6.62,32.511-6.62,32.511Z" transform="translate(-62.698 -106.458)"/><circle class="h" cx="1.3" cy="1.3" r="1.3" transform="translate(84.573 643.571)"/><circle class="h" cx="1.3" cy="1.3" r="1.3" transform="translate(84.465 649.64)"/><circle class="h" cx="1.3" cy="1.3" r="1.3" transform="translate(122.187 644.763)"/><circle class="h" cx="1.3" cy="1.3" r="1.3" transform="translate(91.843 675.874)"/><circle class="h" cx="1.3" cy="1.3" r="1.3" transform="translate(119.478 654.842)"/><circle class="h" cx="1.3" cy="1.3" r="1.3" transform="translate(106.04 668.289)"/><circle class="h" cx="1.3" cy="1.3" r="1.3" transform="translate(89.017 646.172)"/><circle class="h" cx="1.3" cy="1.3" r="1.3" transform="translate(118.611 648.665)"/><circle class="h" cx="1.3" cy="1.3" r="1.3" transform="translate(114.167 658.743)"/><circle class="h" cx="1.3" cy="1.3" r="1.3" transform="translate(100.513 674.899)"/><circle class="h" cx="1.3" cy="1.3" r="1.3" transform="translate(97.695 668.505)"/><circle class="h" cx="1.3" cy="1.3" r="1.3" transform="translate(90.967 654.083)"/><rect class="h" width="39.564" height="3.802" transform="translate(76.337 722.148)"/><rect class="ad" width="51.692" height="36.304" transform="translate(70.052 688.337)"/><circle class="h" cx="1.3" cy="1.3" r="1.3" transform="translate(102.247 680.751)"/><circle class="h" cx="1.3" cy="1.3" r="1.3" transform="translate(94.444 682.377)"/><circle class="c" cx="9.446" cy="9.446" r="9.446" transform="translate(35.708 37.514)"/><circle class="c" cx="12.643" cy="12.643" r="12.643" transform="translate(931.754 331.512)"/><circle class="c" cx="9.229" cy="9.229" r="9.229" transform="translate(959.542 307.833)"/><circle class="c" cx="12.643" cy="12.643" r="12.643" transform="translate(48.766)"/><circle class="c" cx="12.643" cy="12.643" r="12.643" transform="translate(0 57.797)"/></g></g></svg>