<svg xmlns="http://www.w3.org/2000/svg" width="479" height="373" viewBox="0 0 479 373"><defs><style>.a,.b{fill:#dddde1;}.a{opacity:0.36;}.c,.h{fill:none;stroke-miterlimit:10;stroke-width:4px;}.c{stroke:#dddde1;}.d{fill:#786baf;}.e,.m{opacity:0.1;}.f{fill:#39374d;}.g{opacity:0.2;}.h{stroke:#3f3d56;}.i{fill:#251956;}.j{opacity:0.05;}.k{fill:#00e6bf;}.l{fill:#3f3d56;}.m{fill:#b4d0e7;}.n{fill:#ffc0c6;}.o{fill:#605d82;}.p{fill:#535070;}.q{fill:#2c1d69;}.r{fill:#271960;}</style></defs><path class="a" d="M768.956,319.341l4-2.443c.381-.238.756-.493,1.142-.731a37.961,37.961,0,0,1-31.721-35.505,37.051,37.051,0,0,1,3.3-17.223A38.183,38.183,0,0,1,770.237,242.5l-.2,15.58,8.656-16.958a.349.349,0,0,1,.107,0,38.072,38.072,0,0,1,39.98,36c.032.721,0,1.431,0,2.12a45.178,45.178,0,0,0,7.558-11.028c3.666-8.081,3.752-17.233,3.447-28.356-.579-22.045-1.538-44.254-2.793-66.4a37.968,37.968,0,0,1-33.956-35.765c-.054-1.161-.038-2.3,0-3.434a5.63,5.63,0,0,1,.043-.848c.075-1.1.177-2.183.348-3.254a3.067,3.067,0,0,1,.1-.53q.236-1.362.563-2.692c.086-.329.166-.662.257-.991a28.385,28.385,0,0,1,.906-2.851c.113-.313.247-.615.365-.922.273-.689.568-1.367.879-2.04.166-.355.327-.7.5-1.06.043-.09.08-.18.129-.27h0a38.375,38.375,0,0,1,44.9-19.173l-.257,20.275,8.576-16.746a37.412,37.412,0,0,1,18.224,40.736h.043c-.059.27-.145.53-.209.795-.118.5-.246.991-.386,1.484-.182.631-.386,1.251-.6,1.871-.161.461-.316.933-.493,1.388-.257.668-.536,1.32-.847,1.971-.172.382-.327.768-.536,1.145q-.734,1.463-1.608,2.862c-.2.323-.423.631-.633.954-.407.625-.82,1.245-1.265,1.849-.273.371-.568.726-.858,1.092-.418.53-.847,1.06-1.292,1.542-.316.355-.638.7-.97,1.06-.466.488-.949.959-1.447,1.425-.327.313-.659.625-1,.922-.563.493-1.152.964-1.747,1.426-.3.233-.59.477-.9.7q-1.356,1-2.8,1.871c-.182.106-.375.2-.536.3-.8.472-1.608.911-2.471,1.325-.359.175-.734.329-1.1.493-.691.307-1.388.6-2.1.874-.413.154-.836.3-1.26.44-.7.238-1.415.456-2.144.652-.429.117-.852.233-1.286.334-.783.185-1.581.339-2.385.472a.275.275,0,0,0-.155.032q.793,14.011,1.41,28.038a38.1,38.1,0,0,1,22.954-19.516,38.606,38.606,0,0,1,30.11,3.115l-6.759,18.309,13.9-13.2a37.524,37.524,0,0,1,12.328,26.1,36.6,36.6,0,0,1-.97,10.413,38.369,38.369,0,0,1-70.307,10.3c0,.949.07,1.9.1,2.851.252,9.814.568,22.024-4.379,32.93-3.35,7.392-8.748,13.4-14.081,18.775-3.468,3.5-7.064,6.889-10.752,10.169a38.143,38.143,0,0,1-13.807,11.351q-9.085,6.921-18.814,12.962l-3.94,2.512c-3.64,2.231-7.37,4.52-11.031,6.889.643-.064,1.281-.133,1.935-.159a38.262,38.262,0,0,1,37.649,24.6l-23.895,19.231,26.264-6.025a37.724,37.724,0,0,1-17.906,31.984,38.635,38.635,0,0,1-36.917,2.063c.59.731,1.185,1.457,1.774,2.183,1.174,1.447,2.342,2.883,3.484,4.308C771.47,432.826,775.8,451.309,768.1,465.4l-9.359-5c7.5-13.715-3.752-31.266-11.165-40.518-1.12-1.4-2.267-2.809-3.425-4.239-9.932-12.188-21.188-26.03-20.9-42.993C723.648,347.1,748.781,331.7,768.956,319.341Z" transform="translate(-432.569 -98.082)"/><ellipse class="b" cx="229.212" cy="11.256" rx="229.212" ry="11.256" transform="translate(0 350.488)"/><path class="c" d="M942.765,716.708c1.608-2.953-.214-6.571-2.294-9.209s-4.615-5.36-4.561-8.732c.075-4.824,5.194-7.67,9.289-10.227a45.452,45.452,0,0,0,8.335-6.706,12.217,12.217,0,0,0,2.567-3.43,14,14,0,0,0,.766-6.1q-.268-10.323-1.018-20.625" transform="translate(-531.246 -359.161)"/><path class="d" d="M974.6,644.788a7.536,7.536,0,0,0-3.752-6.164l-1.683,3.334.048-4.031a7.521,7.521,0,1,0,5.36,6.861Z" transform="translate(-542.217 -351.784)"/><path class="d" d="M950.318,736.53a7.5,7.5,0,1,1,.359-6.057l-4.7,3.822,5.167-1.2A7.5,7.5,0,0,1,950.318,736.53Z" transform="translate(-531.355 -393.455)"/><path class="d" d="M948.85,705.688a7.5,7.5,0,0,1-7.858-7.166,7.394,7.394,0,0,1,.649-3.425,7.535,7.535,0,0,1,4.824-4.17l-.037,3.1,1.7-3.377h0a7.526,7.526,0,0,1,.7,15.035Z" transform="translate(-533.601 -377.24)"/><path class="d" d="M982.921,683a7.512,7.512,0,1,1,3.323-14.054l-1.329,3.645,2.734-2.626a7.5,7.5,0,0,1,2.433,5.194,7.331,7.331,0,0,1-.193,2.069A7.5,7.5,0,0,1,982.921,683Z" transform="translate(-549.41 -366.726)"/><path class="e" d="M973.656,650.325c-1.737.193-3.425.734-5.167.842a5.623,5.623,0,0,1-4.76-1.667,23.786,23.786,0,0,1-1.394-2.444,5.36,5.36,0,0,0-1.892-1.785,7.5,7.5,0,1,0,14.065,5C974.219,650.276,973.935,650.3,973.656,650.325Z" transform="translate(-542.29 -355.346)"/><path class="e" d="M982.9,686.72A7.5,7.5,0,0,1,975.749,676a5.575,5.575,0,0,1,1.512,1.517,24.186,24.186,0,0,0,1.49,2.487,6.135,6.135,0,0,0,4.99,1.742c1.817-.086,3.564-.595,5.36-.761.247,0,.5-.043.756-.048A7.5,7.5,0,0,1,982.9,686.72Z" transform="translate(-549.394 -370.445)"/><path class="e" d="M948.85,709.542a7.5,7.5,0,0,1-7.858-7.166,7.4,7.4,0,0,1,.649-3.425,6.177,6.177,0,0,1,1.608,1.528c.584.825.949,1.774,1.608,2.535a6.948,6.948,0,0,0,5.328,1.865c1.924-.048,3.656-.5,5.51-.638a7.536,7.536,0,0,1-6.845,5.3Z" transform="translate(-533.601 -381.094)"/><path class="e" d="M950.143,740.664a7.519,7.519,0,1,1-13.716-6.164,7.8,7.8,0,0,1,1.651,1.474,29.653,29.653,0,0,0,2.015,2.68,9.362,9.362,0,0,0,6.228,2.187A32.241,32.241,0,0,0,950.143,740.664Z" transform="translate(-531.179 -397.589)"/><path class="f" d="M927.54,763.871s5.934-.182,7.724-1.458,9.112-2.8,9.578-.75,8.925,10.184,2.219,10.216-15.576-1.072-17.361-2.144S927.54,763.871,927.54,763.871Z" transform="translate(-527.363 -409.728)"/><path class="g" d="M947.179,773.927c-6.7.054-15.576-1.072-17.361-2.144-1.356-.825-1.9-3.8-2.08-5.172h-.2s.375,4.786,2.144,5.9,10.656,2.187,17.361,2.144c1.935,0,2.6-.707,2.567-1.726C949.361,773.53,948.621,773.916,947.179,773.927Z" transform="translate(-527.363 -412.488)"/><path class="h" d="M289.816,604.918c-3.891-7.2.536-16.026,5.6-22.448s11.256-13.1,11.122-21.285c-.193-11.76-12.671-18.7-22.641-24.935a110.572,110.572,0,0,1-20.331-16.343,29.692,29.692,0,0,1-6.25-8.367c-2.058-4.6-2-9.825-1.871-14.863q.643-25.192,2.487-50.288" transform="translate(-185.612 -263.907)"/><path class="d" d="M224.742,429.559a18.337,18.337,0,0,1,9.155-15.008l4.106,8.12-.123-9.83a18.342,18.342,0,1,1-13.137,16.734Z" transform="translate(-171.383 -245.863)"/><path class="d" d="M284.026,653.137a18.331,18.331,0,0,0,34.62-7.5,18.1,18.1,0,0,0-1.2-7.44,18.342,18.342,0,0,0-34.3.2l11.454,9.316L282,644.775A18.133,18.133,0,0,0,284.026,653.137Z" transform="translate(-203.277 -346.744)"/><path class="d" d="M287.554,578.084a18.342,18.342,0,0,0,5.816-35.977l.1,7.552-4.127-8.217h-.048a18.343,18.343,0,1,0-1.71,36.646Z" transform="translate(-197.348 -306.729)"/><path class="d" d="M204.46,522.813a18.342,18.342,0,1,0-8.1-34.3l3.216,8.882-6.641-6.416a18.256,18.256,0,0,0-5.95,12.66,17.888,17.888,0,0,0,.466,5.049,18.337,18.337,0,0,0,17.013,14.129Z" transform="translate(-153.861 -280.717)"/><path class="e" d="M227.546,443.128c4.234.466,8.351,1.78,12.6,2.042s8.914-.75,11.6-4.052c1.447-1.78,2.171-4.031,3.393-5.971a13.014,13.014,0,0,1,4.62-4.347,18.342,18.342,0,1,1-34.3,12.173C226.163,443,226.86,443.053,227.546,443.128Z" transform="translate(-171.721 -254.604)"/><path class="e" d="M204.9,531.907a18.353,18.353,0,0,0,17.447-26.157,13.568,13.568,0,0,0-3.688,3.688c-1.308,1.972-2.1,4.25-3.634,6.062-2.857,3.355-7.735,4.454-12.162,4.256s-8.7-1.463-13.105-1.865c-.611-.054-1.233-.1-1.849-.113A18.337,18.337,0,0,0,204.9,531.907Z" transform="translate(-154.303 -289.86)"/><path class="e" d="M288.235,587.469a18.337,18.337,0,0,0,17.592-25.819,14.832,14.832,0,0,0-3.875,3.752c-1.426,2.01-2.315,4.326-3.982,6.18-3.093,3.446-8.292,4.663-12.982,4.551-4.54-.1-8.914-1.211-13.427-1.56A18.353,18.353,0,0,0,288.235,587.469Z" transform="translate(-198.07 -316.154)"/><path class="e" d="M285.78,663.3a18.331,18.331,0,0,0,34.62-7.5,18.094,18.094,0,0,0-1.2-7.44,18.362,18.362,0,0,0-4.02,3.586c-1.742,2.144-2.894,4.535-4.91,6.518-3.752,3.677-9.8,5.2-15.19,5.36a78.649,78.649,0,0,1-9.305-.52Z" transform="translate(-205.136 -356.935)"/><path class="i" d="M314.757,591.567,244,606.039l-1.608-.161-62.176-6.271V520.814l76.112-12.864,55.208,6.432.016.348.005.172Z" transform="translate(-91.331 -239.846)"/><path class="e" d="M368.58,597.436l-70.752,14.472-1.608-.161V530.972L365.38,520.6Z" transform="translate(-148.312 -245.715)"/><path class="j" d="M311.562,514.9l-.021.016L242.4,525.1l-62.176-4.288,76.112-12.864,55.208,6.432.016.348Z" transform="translate(-91.265 -238.819)"/><path class="k" d="M459.757,597.567,389,612.039l-1.608-.161-62.176-6.271V526.814l76.112-12.864,55.208,6.432.016.348.005.172Z" transform="translate(-164.813 -242.63)"/><path class="e" d="M513.58,603.436l-70.752,14.472-1.608-.161V536.972l69.16-10.372Z" transform="translate(-220.91 -248.499)"/><path class="j" d="M456.562,520.9l-.022.016L387.4,531.1l-62.176-4.288,76.112-12.864,55.208,6.432.016.348Z" transform="translate(-164.695 -241.641)"/><path class="k" d="M368.757,453.567,298,468.039l-1.608-.161-62.176-6.271V382.814l76.112-12.864,55.208,6.432.016.348.005.172Z" transform="translate(-118.697 -174.596)"/><path class="e" d="M422.58,459.436l-70.752,14.472-1.608-.161V392.972L419.38,382.6Z" transform="translate(-175.348 -180.494)"/><path class="j" d="M365.562,376.9l-.021.016L296.4,387.1l-62.176-4.288,76.112-12.864,55.208,6.432.016.348Z" transform="translate(-118.612 -173.923)"/><path class="l" d="M499.436,494.331l-36.925,7.558-.841-.086-32.45-3.275V457.406l39.723-6.716,28.816,3.361.011.182v.086Z" transform="translate(-214.825 -212.187)"/><path class="e" d="M527.527,497.4,490.6,504.956l-.842-.086V462.714l36.1-5.414Z" transform="translate(-243.894 -215.266)"/><path class="j" d="M497.769,454.319l-.011.011-36.089,5.317-32.45-2.241,39.723-6.716,28.816,3.361.011.182Z" transform="translate(-214.766 -211.829)"/><path class="l" d="M314.436,345.331l-36.925,7.552-.842-.08-32.45-3.275V308.406l39.723-6.716,28.816,3.361.011.182v.086Z" transform="translate(-122.232 -142.02)"/><path class="e" d="M342.527,348.4,305.6,355.951l-.842-.08V313.714l36.1-5.414Z" transform="translate(-151.766 -145.11)"/><path class="j" d="M312.77,305.319l-.011.011-36.089,5.317-32.45-2.241,39.723-6.716,28.816,3.361.011.182Z" transform="translate(-122.199 -141.78)"/><path class="i" d="M435.436,342.331l-36.925,7.552-.842-.08-32.45-3.275V305.406l39.723-6.716,28.816,3.361.011.182v.086Z" transform="translate(-182.793 -140.607)"/><path class="e" d="M463.527,345.4,426.6,352.951l-.841-.08V310.714l36.1-5.414Z" transform="translate(-212.023 -143.697)"/><path class="j" d="M433.769,302.319l-.011.011-36.089,5.317-32.45-2.241,39.723-6.716,28.816,3.361.011.182Z" transform="translate(-182.743 -140.37)"/><path class="l" d="M471.436,265.331l-36.925,7.552-.841-.08-32.45-3.275V228.406l39.723-6.716,28.816,3.361.011.182v.086Z" transform="translate(-200.811 -104.346)"/><path class="m" d="M499.527,268.4,462.6,275.951l-.841-.08V233.714l36.1-5.414Z" transform="translate(-229.95 -107.442)"/><path class="j" d="M469.769,225.319l-.011.011-36.089,5.317-32.45-2.241,39.723-6.716,28.816,3.361.011.182Z" transform="translate(-200.756 -104.17)"/><path class="n" d="M700.485,235.008c-.391,3.484-3.05,6.293-4.036,9.648-1.479,5.065,1.072,10.506,4.588,14.472a32.037,32.037,0,0,0,22.308,10.581,9.6,9.6,0,0,0,3.688-.4,8.009,8.009,0,0,0,2.8-1.919,17.925,17.925,0,0,0,4.62-10.029,53.636,53.636,0,0,0,.129-11.208,6.345,6.345,0,0,0-.418-2.262,5.748,5.748,0,0,0-1.453-1.785,33.767,33.767,0,0,0-6.244-4.54,7.013,7.013,0,0,1-2.616-2,6.545,6.545,0,0,1-.809-2.4l-.692-3.516a6.892,6.892,0,0,0-1.013-2.852c-1.217-1.64-3.548-1.865-5.591-1.946l-7.5-.295c-2.332-.091-5.4-.761-7.676-.3-2.144.423-1.42,2.385-1.035,4.165A30.116,30.116,0,0,1,700.485,235.008Z" transform="translate(-409.509 -157.412)"/><path class="e" d="M700.485,235.008c-.391,3.484-3.05,6.293-4.036,9.648-1.479,5.065,1.072,10.506,4.588,14.472a32.037,32.037,0,0,0,22.308,10.581,9.6,9.6,0,0,0,3.688-.4,8.009,8.009,0,0,0,2.8-1.919,17.925,17.925,0,0,0,4.62-10.029,53.636,53.636,0,0,0,.129-11.208,6.345,6.345,0,0,0-.418-2.262,5.748,5.748,0,0,0-1.453-1.785,33.767,33.767,0,0,0-6.244-4.54,7.013,7.013,0,0,1-2.616-2,6.545,6.545,0,0,1-.809-2.4l-.692-3.516a6.892,6.892,0,0,0-1.013-2.852c-1.217-1.64-3.548-1.865-5.591-1.946l-7.5-.295c-2.332-.091-5.4-.761-7.676-.3-2.144.423-1.42,2.385-1.035,4.165A30.116,30.116,0,0,1,700.485,235.008Z" transform="translate(-409.509 -157.412)"/><path class="o" d="M759.554,522.268l-3.184,34.9c-.831,9.155-1.678,18.347-3.307,27.384-.536,3.114-1.222,6.212-2,9.284-2.176,8.528-5.333,16.863-6.352,25.6-.032.252-.059.536-.086.766a22.95,22.95,0,0,1-1.072,5.682c-.536,1.335-1.292,2.551-1.844,3.87a25.364,25.364,0,0,0-1.378,8.41,36.256,36.256,0,0,0-12.484-4.288c-2.144-.316-4.476-.536-5.9-2.144-1.608-1.747-1.42-4.422-1.152-6.77q1.265-10.935,2.519-21.858a56.968,56.968,0,0,1,1.608-9.284c.289-1.013.638-2.01.992-3.007.488-1.372.981-2.744,1.351-4.154a50.021,50.021,0,0,0,1.061-6.877c.863-7.333,1.9-14.649,2.814-21.976l.048-.386a224.735,224.735,0,0,0,2.107-33.452c-.043-1.656-.113-3.312-.22-4.974-.15-2.407-.37-3.682,1.608-5.189a37.5,37.5,0,0,1,7.622-3.913c1.356-.59,16.289-5.9,16.616-4.728a29.1,29.1,0,0,1,1.072,7.622A84.826,84.826,0,0,1,759.554,522.268Z" transform="translate(-421.785 -291.105)"/><path class="e" d="M757.6,629.937c-.536,3.114-1.222,6.212-2,9.284-2.176,8.528-5.333,16.863-6.352,25.6-.032.252-.059.536-.086.766-6.657-9.509-12.264-19.736-18.76-29.346.488-1.372.981-2.744,1.351-4.154a50.038,50.038,0,0,0,1.115-6.92c.863-7.333,1.9-14.649,2.814-21.976l.048-.386a22.768,22.768,0,0,0,1.608,4.508c4.363,8.865,14.729,13.346,19.8,21.831Q757.388,629.546,757.6,629.937Z" transform="translate(-426.136 -336.485)"/><path class="o" d="M680.344,470.633a164.876,164.876,0,0,0,2.492,21.178l2.342,14.472c1.281,7.933,2.621,16.021,6.373,23.123,2.809,5.317,6.85,9.852,10.511,14.617,8.994,11.717,15.753,24.994,24.281,37.054,2.482,3.505,6.025,7.3,10.254,6.566,2.776-.477,4.792-2.793,6.968-4.572,2.573-2.1,5.671-3.639,7.7-6.277s2.423-7.011-.322-8.887a14.816,14.816,0,0,0-3.141-1.286c-4.25-1.608-7.006-5.767-8.753-9.97s-2.814-8.71-5.146-12.617c-5.071-8.485-15.442-12.966-19.805-21.837-2.444-4.963-2.68-10.72-2.862-16.225l-.477-14.1a10.269,10.269,0,0,1,.536-4.556c1.667-3.752,6.705-4.106,10.79-4.583a36.852,36.852,0,0,0,13.223-4.17c2.353-1.27,4.647-2.889,5.9-5.247,1.147-2.144,1.3-4.669,1.437-7.1l1.415-25.562a16.119,16.119,0,0,0-.536-6.534c-1.946-5.178-8.485-6.872-14.011-6.625-10.281.461-19.768,4.883-29.48,7.874a75.347,75.347,0,0,1-7.306,1.9c-2.144.434-4.824.257-6.882.954-3.688,1.244-3.6,9.316-4.117,12.66A106.284,106.284,0,0,0,680.344,470.633Z" transform="translate(-403.15 -255.127)"/><path class="p" d="M780.948,714.015a6.552,6.552,0,0,1,1.437,3.521,120.143,120.143,0,0,1,2.037,21.285,3.527,3.527,0,0,0,.381,1.93,2.461,2.461,0,0,0,1,.8c2.621,1.249,5.66-.493,7.847-2.407,4.047-3.543,7.472-8.3,7.7-13.679a31.5,31.5,0,0,1,.145-4.149,17.263,17.263,0,0,1,2.578-5.558,47.189,47.189,0,0,0,4.288-9.552c.4-1.254.665-2.83-.322-3.7a3.445,3.445,0,0,0-1.163-.606l-11.846-4.4c-1.029-.381-3.581,6.175-3.983,6.893a5.426,5.426,0,0,1-3.966,3.152c-1.989.407-4.443-.182-6.341.831C777.528,710.092,779.131,712.188,780.948,714.015Z" transform="translate(-450.371 -380.417)"/><path class="p" d="M736.984,734.1a3.608,3.608,0,0,0-.9-1.142,4.036,4.036,0,0,0-1.817-.616c-2.251-.386-4.92-.638-6.48,1.04-1.458,1.57-1.206,4.127-2.423,5.9a18.336,18.336,0,0,0-1.244,1.608,6.035,6.035,0,0,0-.536,2.884c-.064,2.728-.129,5.467.064,8.19.155,2.283.536,4.679,1.967,6.469,2.294,2.873,6.432,3.286,10.1,3.468l2.975.155a5.894,5.894,0,0,0,2.433-.225,3.993,3.993,0,0,0,2.1-2.31c1.549-3.849-.9-7.992-2.412-11.851C739.07,743.225,739.38,738.3,736.984,734.1Z" transform="translate(-422.429 -396.457)"/><path class="l" d="M693.937,189.531a2.429,2.429,0,0,1,.166-1.147c.434-.766,1.571-.536,2.428-.343,3.446.868,7.081.08,10.634.284s7.552,1.978,8.265,5.462a25.843,25.843,0,0,0,6.555-6.732,8.078,8.078,0,0,0,1.71-4.931c-.193-2.551-2.332-4.46-4.288-6.078l-5.9-4.824a8.958,8.958,0,0,0-2.648-1.683,13.174,13.174,0,0,0-4.288-.241c-4.288,0-8.887-1.956-12.709,0a13.565,13.565,0,0,0-3.961,3.6l-5.269,6.239a3.327,3.327,0,0,0-.847,1.431,6.3,6.3,0,0,0,.38,2.278c.247,1.394-.354,2.884.107,4.224.766,2.219,3.468,2.535,5.119,3.811.611.472,1.576,2.085,2.31,2.064C693,192.919,693.9,190.561,693.937,189.531Z" transform="translate(-403.448 -130.722)"/><circle class="n" cx="16.884" cy="16.884" r="16.884" transform="translate(282.654 43.442)"/><path class="q" d="M691.634,263.829a8.179,8.179,0,0,0-7.938-5.478,2.386,2.386,0,0,1-1.469-.188,2.034,2.034,0,0,1-.606-.75,29.884,29.884,0,0,1-2.46-5.821c-.268-.9-.638-1.951-1.544-2.182a2.072,2.072,0,0,0-1.962.858,18.747,18.747,0,0,1-1.4,1.763c-2.144,1.9-5.9.166-8.142,1.908-.37.284-.675.649-1.072.911a4.877,4.877,0,0,1-1.238.536,118.666,118.666,0,0,0-12.8,5c1.5,9.026,3.034,18.224,6.55,26.666,1.672,4.02,3.564,7.96,4.9,12.1,2.969,9.182,3.1,19.007,3.136,28.66,0,6.6,0,13.346-2.144,19.6a18.977,18.977,0,0,0-1.206,4.288,4.46,4.46,0,0,0,1.512,4.009,5.1,5.1,0,0,0,2.332.82c3.7.536,7.434-.439,11.079-1.286a298.217,298.217,0,0,1,29.684-4.824l16.67-2.144a9.751,9.751,0,0,0,3.452-.9c3.05-1.667,3.339-6.255,1.442-9.171-.906-1.4-2.187-2.546-2.953-4.025s-.825-3.559.488-4.583c2.68-2.09,1.876-5.966,2-9.353q.536-14.215-.145-28.408a55.59,55.59,0,0,1-.1-5.9,52.02,52.02,0,0,1,1.838-9.841l5.065-19.939a10.4,10.4,0,0,0-6.255-4.02c-2.4-.6-4.9-.777-7.263-1.512-4.824-1.5-9.155-5.306-14.209-4.953a2.6,2.6,0,0,0-1.1.268c-1.136.649-.959,2.289-1.029,3.6-.161,2.9-2.294,5.317-4.642,7.016s-5.038,2.932-7.2,4.867A3.216,3.216,0,0,0,691.634,263.829Z" transform="translate(-388.973 -167.808)"/><path class="n" d="M594.232,309.411a19.825,19.825,0,0,1-3.548,1.828,11.794,11.794,0,0,0-3.4,1.651,5.388,5.388,0,0,0-1.185,1.463,6.5,6.5,0,0,0,5.993,9.686,13.065,13.065,0,0,0,4.433-1.324l11.91-5.183c2.015-.874,4.191-1.892,5.146-3.875a.933.933,0,0,0,.118-.616,1.012,1.012,0,0,0-.493-.536,26.676,26.676,0,0,1-6.931-6.539c-.488-.665-1.072-2.23-1.78-2.632C601.971,301.933,596.252,308.1,594.232,309.411Z" transform="translate(-354.004 -194.521)"/><path class="n" d="M814.916,307l4.39,5.017c.943,1.072,1.887,2.144,2.744,3.3a38.414,38.414,0,0,1,5.028,9.471,16.561,16.561,0,0,1,1.415,7.831,19.3,19.3,0,0,1-1.1,3.982,49.251,49.251,0,0,1-2.986,7.182,40.868,40.868,0,0,1-3.339,5.022,117.432,117.432,0,0,1-11.133,12.73c-1.5,1.485-2.144,3.891-2.782,5.9-1.206,3.7-4.074,6.593-6.845,9.326a18.857,18.857,0,0,1-2.943,2.53,9.541,9.541,0,0,1-5.36,1.522,5.9,5.9,0,0,1-2.406-.5c-1.9-.9-2.862-3.093-3.061-5.183a11.1,11.1,0,0,1,.922-5.553c2.519-5.58,8.989-8,13.561-12.071a44.271,44.271,0,0,0,6.759-8.351,28.977,28.977,0,0,0,3.414-5.987c1.018-2.728.622-5.955,1.517-8.721.375-1.174,1.072-2.23,1.453-3.393a4.018,4.018,0,0,0-.2-3.543,5.119,5.119,0,0,0-1.989-1.458c-2.921-1.479-6.191-3.387-6.748-6.62a7.086,7.086,0,0,1,1.308-5.055,20.905,20.905,0,0,1,3.682-3.859C811.485,309.375,813.635,308.1,814.916,307Z" transform="translate(-454.728 -196.573)"/><path class="n" d="M579.176,324.068a8.123,8.123,0,0,0-3.307-3.94,6.089,6.089,0,0,0-4.824,0,18.292,18.292,0,0,0-4.224,2.551l-3.784,2.793a9.312,9.312,0,0,0-2.246,2.074,8.635,8.635,0,0,0-1.169,3.216,23.359,23.359,0,0,0-.595,7.938c.6,4.288,3.173,8,6,11.256,1.769,2.026,3.956,4.074,6.646,4.165a3.049,3.049,0,0,0,2.937-1.479,3.662,3.662,0,0,0,.263-1.319c.289-4.76-1.415-9.407-3.4-13.743a8.5,8.5,0,0,1-1.072-3.693,1,1,0,0,1,.161-.622,1.041,1.041,0,0,1,.643-.316c2.718-.536,7.4,1.576,9.305-1.442C581.749,329.514,580.055,325.843,579.176,324.068Z" transform="translate(-340.7 -202.339)"/><path class="l" d="M692.287,179.621a2.5,2.5,0,0,1,.172-1.147c.434-.772,1.57-.536,2.428-.343,3.447.868,7.081.08,10.634.284s7.547,1.978,8.265,5.462a26.012,26.012,0,0,0,6.555-6.732,8.1,8.1,0,0,0,1.71-4.937c-.193-2.551-2.337-4.46-4.288-6.073l-5.9-4.824a8.929,8.929,0,0,0-2.642-1.683,13.183,13.183,0,0,0-4.288-.241c-4.288,0-8.887-1.956-12.709,0a13.564,13.564,0,0,0-3.961,3.6l-5.274,6.239a3.339,3.339,0,0,0-.841,1.431,6.3,6.3,0,0,0,.381,2.278c.247,1.394-.354,2.884.107,4.218.767,2.224,3.468,2.541,5.119,3.816.611.472,1.576,2.085,2.31,2.064C691.338,183.009,692.238,180.651,692.287,179.621Z" transform="translate(-402.63 -126.124)"/><path class="i" d="M626.367,279.352A7,7,0,0,0,624.6,281c-.616.938-.745,2.144-1.276,3.109-1.136,2.112-3.8,2.868-5.457,4.6a1.711,1.711,0,0,0-.536.9,1.988,1.988,0,0,0,.445,1.3l8.008,12.585c2.68.236,5.221-1.437,7.89-1.211a7.957,7.957,0,0,0,2.969.129,8.633,8.633,0,0,0,1.9-1.163c1.608-1.008,3.709-1.126,5.044-2.45s1.447-3.27,1.431-5.076a20.032,20.032,0,0,0-.477-4.663c-1.179-4.824-4.872-8.544-7.188-12.821-1.131-2.085-1.742-3.3-4.127-1.871S628.623,277.7,626.367,279.352Z" transform="translate(-369.929 -180.728)"/><path class="i" d="M803.7,268.659a18.8,18.8,0,0,1,4.031,3.527c1.217,1.57,1.908,3.5,3.082,5.108a55.8,55.8,0,0,0,3.966,4.2,32.032,32.032,0,0,1,4.577,7.456A111.8,111.8,0,0,1,809,300.637a3.317,3.317,0,0,1-1.576,1.029,2.525,2.525,0,0,1-2.219-.906c-.579-.6-.986-1.351-1.538-1.978a7.906,7.906,0,0,0-4.894-2.364,33.613,33.613,0,0,0-5.548-.08,2.143,2.143,0,0,1-1.185-.2,1.957,1.957,0,0,1-.643-.74c-2.144-3.688-1.474-8.319-.708-12.532l1.753-9.648a21.675,21.675,0,0,1,1.463-5.36c.665-1.42,2.144-3.832,3.977-3.4S802.151,267.544,803.7,268.659Z" transform="translate(-455.85 -176.36)"/><path class="r" d="M344.436,268.331l-36.925,7.552-.842-.08-32.45-3.275V231.406l39.723-6.716,28.816,3.361.011.182v.086Z" transform="translate(-137.247 -105.759)"/><path class="e" d="M372.527,271.4,335.6,278.951l-.842-.08V236.714l36.1-5.414Z" transform="translate(-166.706 -108.855)"/><path class="j" d="M342.769,228.319l-.011.011-36.089,5.317-32.45-2.24,39.723-6.716,28.816,3.361.011.182Z" transform="translate(-137.21 -105.581)"/><path class="l" d="M380.436,192.331l-36.925,7.558-.842-.086-32.45-3.275V155.406l39.723-6.716,28.816,3.361.011.182v.086Z" transform="translate(-155.265 -69.969)"/><path class="m" d="M408.527,195.4,371.6,202.956l-.842-.086V160.714l36.1-5.414Z" transform="translate(-184.634 -73.07)"/><path class="j" d="M378.769,152.319l-.011.011-36.089,5.317-32.45-2.24,39.723-6.716,28.816,3.361.011.182Z" transform="translate(-155.223 -69.851)"/></svg>