<svg xmlns="http://www.w3.org/2000/svg" xmlns:xlink="http://www.w3.org/1999/xlink" width="288" height="244.901" viewBox="0 0 288 244.901"><defs><style>.a{fill:#e8fdfa;}.b,.e{fill:none;stroke-miterlimit:10;}.b{stroke:#535461;stroke-width:2px;}.c,.n{fill:#3f2a93;}.d{fill:#f9ce43;}.e{stroke:#333;stroke-width:3px;}.f{fill:#8d7116;opacity:0.28;}.g{opacity:0.5;}.h{fill:url(#a);}.i{fill:#535461;}.j{fill:#fff;}.k{fill:#e6e6e6;}.l{fill:#76e2dc;opacity:0.96;}.m,.n{opacity:0.6;}.o{fill:url(#b);}.p{fill:url(#c);}.q{fill:#fda57d;}.r{fill:#edeef9;}.s{fill:#7be3dd;}.t{fill:#333;}.u,.v{opacity:0.1;}</style><linearGradient id="a" x1="0.141" y1="1.022" x2="0.929" y2="-0.011" gradientUnits="objectBoundingBox"><stop offset="0" stop-color="gray" stop-opacity="0.251"/><stop offset="0.54" stop-color="gray" stop-opacity="0.122"/><stop offset="1" stop-color="gray" stop-opacity="0.102"/></linearGradient><linearGradient id="b" x1="5.25" y1="1" x2="5.25" y2="0.001" xlink:href="#a"/><linearGradient id="c" x1="2.739" y1="1" x2="2.739" y2="0" xlink:href="#a"/></defs><g transform="translate(0 0.007)"><path class="a" d="M310.5,661.375c3.6.245,7.4,1.539,10.674-.027.845-.4,1.611-.984,2.487-1.309,2.014-.745,4.226-.021,6.255.675,15.88,5.448,33.521-3.074,50.088-.675,3.414.494,24.664,2.46,27.917,1.309,2.379-.839,26.29-.4,28.646-1.309,3.852-1.481,14.284,1.731,18.675,5.089a37.139,37.139,0,0,0,5.431,3.432,13.939,13.939,0,0,1,6.018,18.063l-.07.157c-1.672,3.777-3.066,8.006-6.342,10.4-3.089,2.263-7.144,2.356-10.926,2.366l-23.216.057a29.4,29.4,0,0,1-7.184-.588,28.9,28.9,0,0,1-5.995-2.541l-10.388-5.34c-4.183-2.154-8.769-4.371-13.346-3.38-4.676,1.012-8.046,5.086-12.121,7.655a20.77,20.77,0,0,1-21.185.391c-3.092-1.8-5.778-4.422-9.151-5.552-5.571-1.869-11.49.718-17.221,1.957-11.154,2.411-24.292-.887-32.838-8.863C285.7,673.071,298.62,660.569,310.5,661.375Z" transform="translate(-225.986 -465.666)"/><path class="a" d="M310.5,661.375c3.6.245,7.4,1.539,10.674-.027.845-.4,1.611-.984,2.487-1.309,2.014-.745,4.226-.021,6.255.675,15.88,5.448,33.521-3.074,50.088-.675,3.414.494,24.664,2.46,27.917,1.309,2.379-.839,26.29-.4,28.646-1.309,3.852-1.481,14.284,1.731,18.675,5.089a37.139,37.139,0,0,0,5.431,3.432,13.939,13.939,0,0,1,6.018,18.063l-.07.157c-1.672,3.777-3.066,8.006-6.342,10.4-3.089,2.263-7.144,2.356-10.926,2.366l-23.216.057a29.4,29.4,0,0,1-7.184-.588,28.9,28.9,0,0,1-5.995-2.541l-10.388-5.34c-4.183-2.154-8.769-4.371-13.346-3.38-4.676,1.012-8.046,5.086-12.121,7.655a20.77,20.77,0,0,1-21.185.391c-3.092-1.8-5.778-4.422-9.151-5.552-5.571-1.869-11.49.718-17.221,1.957-11.154,2.411-24.292-.887-32.838-8.863C285.7,673.071,298.62,660.569,310.5,661.375Z" transform="translate(-292.529 -454.722)"/><path class="b" d="M201.58,498.5s-8.508-28.872,1.6-50.144a45.6,45.6,0,0,0,3.689-28.623,76.733,76.733,0,0,0-4.051-13.445" transform="translate(-161.022 -309.229)"/><path class="c" d="M204.37,344.84c0,3.54-6.41,13.8-6.41,13.8s-6.41-10.265-6.41-13.8a6.41,6.41,0,0,1,12.82,0Z" transform="translate(-156.295 -260.807)"/><path class="c" d="M240.464,403.491c-1.923,2.972-12.884,8.1-12.884,8.1s.2-12.1,2.122-15.073a6.41,6.41,0,0,1,10.762,6.968Z" transform="translate(-181.93 -299.94)"/><path class="c" d="M233.279,512.709c-3.16,1.593-15.2.494-15.2.494s6.281-10.347,9.441-11.94a6.41,6.41,0,1,1,5.773,11.446Z" transform="translate(-175.071 -375.823)"/><path class="c" d="M213.257,600.572c-2.847,2.1-14.907,3.057-14.907,3.057s4.443-11.259,7.287-13.363a6.41,6.41,0,1,1,7.623,10.306Z" transform="translate(-161.107 -438.565)"/><path class="c" d="M176.834,430.868c2.54,2.467,14.369,5.021,14.369,5.021s-2.9-11.75-5.436-14.217a6.41,6.41,0,1,0-8.932,9.2Z" transform="translate(-144.504 -318.569)"/><path class="c" d="M150.477,529.85c3.16,1.593,15.2.494,15.2.494S159.394,520,156.235,518.4a6.41,6.41,0,0,0-5.758,11.446Z" transform="translate(-124.861 -388.05)"/><path class="c" d="M143.48,632.622c2.847,2.1,14.907,3.057,14.907,3.057s-4.443-11.259-7.287-13.363a6.41,6.41,0,1,0-7.623,10.306Z" transform="translate(-120.434 -461.303)"/><path class="c" d="M204.37,344.84c0,3.54-6.41,13.8-6.41,13.8s-6.41-10.265-6.41-13.8a6.41,6.41,0,0,1,12.82,0Z" transform="translate(-156.295 -260.807)"/><path class="c" d="M240.464,403.491c-1.923,2.972-12.884,8.1-12.884,8.1s.2-12.1,2.122-15.073a6.41,6.41,0,0,1,10.762,6.968Z" transform="translate(-181.93 -299.94)"/><path class="c" d="M233.279,512.709c-3.16,1.593-15.2.494-15.2.494s6.281-10.347,9.441-11.94a6.41,6.41,0,1,1,5.773,11.446Z" transform="translate(-175.071 -375.823)"/><path class="c" d="M213.257,600.572c-2.847,2.1-14.907,3.057-14.907,3.057s4.443-11.259,7.287-13.363a6.41,6.41,0,1,1,7.623,10.306Z" transform="translate(-161.107 -438.565)"/><path class="c" d="M176.834,430.868c2.54,2.467,14.369,5.021,14.369,5.021s-2.9-11.75-5.436-14.217a6.41,6.41,0,1,0-8.932,9.2Z" transform="translate(-144.504 -318.569)"/><path class="c" d="M150.477,529.85c3.16,1.593,15.2.494,15.2.494S159.394,520,156.235,518.4a6.41,6.41,0,0,0-5.758,11.446Z" transform="translate(-124.861 -388.05)"/><path class="c" d="M143.48,632.622c2.847,2.1,14.907,3.057,14.907,3.057s-4.443-11.259-7.287-13.363a6.41,6.41,0,1,0-7.623,10.306Z" transform="translate(-120.434 -461.303)"/><path class="d" d="M721.325,251.84c-1.081-8.476,2.306-17.2.292-25.5-1.549-6.41-6.138-11.761-7.646-18.183-2.215-9.517,2.853-19.291,9.321-26.6,4.448-5.036,10.031-9.607,16.686-10.522a22.5,22.5,0,0,1,12.127,1.993A30.768,30.768,0,0,1,768.648,191.2c.877,2.6,1.383,5.322,2.461,7.845,1.856,4.346,5.261,7.854,7.38,12.08a22.921,22.921,0,0,1,.777,18.522c-2.452,6.12-7.6,11.241-8.359,17.791-.552,4.72,1.219,9.891-1.082,14.05-1.736,3.139-5.311,4.723-8.7,5.91-7.874,2.747-18.882,7.19-26.773,2.961A25.086,25.086,0,0,1,721.325,251.84Z" transform="translate(-526.465 -141.745)"/><path class="e" d="M816,406.959s11.592-4.676,13.053-7.307,3.508-18.122,3.508-18.122" transform="translate(-598.883 -291.398)"/><line class="e" y1="100.838" transform="translate(217.044 86.083)"/><path class="f" d="M721.325,251.84c-1.081-8.476,2.306-17.2.292-25.5-1.549-6.41-6.138-11.761-7.646-18.183-2.215-9.517,2.853-19.291,9.321-26.6,4.448-5.036,10.031-9.607,16.686-10.522a22.5,22.5,0,0,1,12.127,1.993A30.768,30.768,0,0,1,768.648,191.2c.877,2.6,1.383,5.322,2.461,7.845,1.856,4.346,5.261,7.854,7.38,12.08a22.921,22.921,0,0,1,.777,18.522c-2.452,6.12-7.6,11.241-8.359,17.791-.552,4.72,1.219,9.891-1.082,14.05-1.736,3.139-5.311,4.723-8.7,5.91-7.874,2.747-18.882,7.19-26.773,2.961A25.086,25.086,0,0,1,721.325,251.84Z" transform="translate(-526.465 -141.745)"/><g class="g" transform="translate(102.2 8.01)"><path class="h" d="M523.328,98.65l-97.184.237a3.993,3.993,0,0,0-3.984,4l.441,181.757a3.993,3.993,0,0,0,4,3.984l97.185-.237a3.992,3.992,0,0,0,3.984-4l-.438-181.757a3.993,3.993,0,0,0-4.007-3.984Z" transform="translate(-422.16 -98.65)"/></g><rect class="i" width="118.917" height="205.638" rx="13.64" transform="translate(94.731 0.283) rotate(-0.14)"/><path class="j" d="M533.444,295.676a3.9,3.9,0,0,1-3.876,3.921l-89.439.218a3.9,3.9,0,0,1-3.9-3.9l-.061-26.4-.342-142.362a3.9,3.9,0,0,1,3.876-3.921l18.706-.044a8.315,8.315,0,0,0,8.184,7.081l35.343-.085a8.318,8.318,0,0,0,8.181-7.122l19-.047a3.9,3.9,0,0,1,3.9,3.9l.365,142.6Z" transform="translate(-329.632 -109.022)"/><path class="k" d="M534.272,647a3.887,3.887,0,0,1-3.876,3.9l-89.439.216a3.887,3.887,0,0,1-3.9-3.876L437,621h97.208Z" transform="translate(-330.461 -461.329)"/><rect class="j" width="22.804" height="1.426" rx="0.713" transform="translate(142.479 13.522) rotate(-0.86)"/><ellipse class="j" cx="0.856" cy="0.856" rx="0.856" ry="0.856" transform="translate(169.218 12.83) rotate(-0.86)"/><path class="l" d="M836.325,251.84c-1.081-8.476,2.306-17.2.292-25.5-1.549-6.41-6.138-11.761-7.646-18.183-2.216-9.517,2.853-19.291,9.321-26.6,4.449-5.036,10.031-9.607,16.686-10.522a22.5,22.5,0,0,1,12.127,1.993A30.768,30.768,0,0,1,883.648,191.2c.877,2.6,1.383,5.323,2.461,7.845,1.856,4.346,5.261,7.854,7.38,12.08a22.922,22.922,0,0,1,.769,18.534c-2.452,6.12-7.6,11.241-8.359,17.791-.552,4.72,1.219,9.891-1.081,14.05-1.736,3.139-5.311,4.723-8.7,5.91-7.865,2.736-18.873,7.179-26.764,2.949A25.085,25.085,0,0,1,836.325,251.84Z" transform="translate(-607.852 -133.888)"/><path class="e" d="M931,406.959s11.592-4.676,13.053-7.307,3.507-18.122,3.507-18.122" transform="translate(-680.434 -291.398)"/><line class="e" y1="100.838" transform="translate(250.455 86.083)"/><path class="b" d="M278.8,664.42s-3.718-12.624.7-21.921a19.937,19.937,0,0,0,1.613-12.507,33.53,33.53,0,0,0-1.771-5.872" transform="translate(-217.177 -463.593)"/><path class="c" d="M280.02,597.276c0,1.546-2.8,6.033-2.8,6.033s-2.8-4.486-2.8-6.033a2.8,2.8,0,0,1,5.6,0Z" transform="translate(-215.115 -442.422)"/><path class="c" d="M295.8,622.909c-.842,1.3-5.63,3.542-5.63,3.542s.088-5.287.927-6.588a2.8,2.8,0,1,1,4.7,3.046Z" transform="translate(-226.275 -459.521)"/><path class="c" d="M292.63,670.643c-1.383.7-6.65.216-6.65.216s2.745-4.522,4.127-5.217a2.8,2.8,0,0,1,2.523,5Z" transform="translate(-223.308 -492.68)"/><path class="c" d="M283.9,709.02c-1.245.921-6.515,1.336-6.515,1.336s1.941-4.919,3.186-5.846a2.8,2.8,0,0,1,3.332,4.5Z" transform="translate(-217.214 -520.079)"/><path class="c" d="M267.942,634.883c1.111,1.079,6.278,2.195,6.278,2.195s-1.265-5.135-2.376-6.214a2.8,2.8,0,1,0-3.9,4.019Z" transform="translate(-209.924 -467.667)"/><path class="c" d="M256.271,678.013c1.383.7,6.649.216,6.649.216s-2.745-4.522-4.127-5.217a2.8,2.8,0,1,0-2.522,5Z" transform="translate(-201.166 -497.908)"/><path class="c" d="M253.4,723.029c1.245.921,6.515,1.336,6.515,1.336s-1.941-4.919-3.186-5.846a2.8,2.8,0,0,0-3.332,4.5Z" transform="translate(-199.418 -530.017)"/><path class="c" d="M280.02,597.276c0,1.546-2.8,6.033-2.8,6.033s-2.8-4.486-2.8-6.033a2.8,2.8,0,0,1,5.6,0Z" transform="translate(-215.115 -442.422)"/><path class="c" d="M295.8,622.909c-.842,1.3-5.63,3.542-5.63,3.542s.088-5.287.927-6.588a2.8,2.8,0,1,1,4.7,3.046Z" transform="translate(-226.275 -459.521)"/><path class="c" d="M292.63,670.643c-1.383.7-6.65.216-6.65.216s2.745-4.522,4.127-5.217a2.8,2.8,0,0,1,2.523,5Z" transform="translate(-223.308 -492.68)"/><path class="c" d="M283.9,709.02c-1.245.921-6.515,1.336-6.515,1.336s1.941-4.919,3.186-5.846a2.8,2.8,0,0,1,3.332,4.5Z" transform="translate(-217.214 -520.079)"/><path class="c" d="M267.942,634.883c1.111,1.079,6.278,2.195,6.278,2.195s-1.265-5.135-2.376-6.214a2.8,2.8,0,1,0-3.9,4.019Z" transform="translate(-209.924 -467.667)"/><path class="c" d="M256.271,678.013c1.383.7,6.649.216,6.649.216s-2.745-4.522-4.127-5.217a2.8,2.8,0,1,0-2.522,5Z" transform="translate(-201.166 -497.908)"/><path class="c" d="M253.4,723.029c1.245.921,6.515,1.336,6.515,1.336s-1.941-4.919-3.186-5.846a2.8,2.8,0,0,0-3.332,4.5Z" transform="translate(-199.418 -530.017)"/><path class="b" d="M982.677,616.71s-4.606-15.637.877-27.147a24.7,24.7,0,0,0,2-15.491,41.549,41.549,0,0,0-2.2-7.272" transform="translate(-715.725 -422.963)"/><path class="c" d="M984.2,533.476c0,1.917-3.469,7.474-3.469,7.474s-3.469-5.553-3.469-7.474a3.471,3.471,0,0,1,6.942,0Z" transform="translate(-713.173 -396.694)"/><path class="c" d="M1003.724,565.221c-1.04,1.608-6.974,4.384-6.974,4.384s.108-6.55,1.148-8.161a3.47,3.47,0,1,1,5.825,3.773Z" transform="translate(-726.966 -417.869)"/><path class="c" d="M999.817,624.358c-1.71.877-8.237.266-8.237.266s3.4-5.6,5.112-6.465a3.47,3.47,0,0,1,3.125,6.2Z" transform="translate(-723.307 -458.951)"/><path class="c" d="M988.983,671.932c-1.541,1.14-8.073,1.654-8.073,1.654s2.406-6.094,3.946-7.234a3.47,3.47,0,1,1,4.127,5.579Z" transform="translate(-715.756 -492.924)"/><path class="c" d="M969.486,580.257c1.374,1.336,7.781,2.718,7.781,2.718s-1.57-6.363-2.944-7.7a3.469,3.469,0,0,0-4.837,4.969Z" transform="translate(-706.989 -428.164)"/><path class="c" d="M954.769,633.5c1.71.877,8.236.266,8.236.266s-3.4-5.6-5.112-6.465a3.47,3.47,0,0,0-3.124,6.2Z" transform="translate(-695.905 -465.435)"/><path class="c" d="M951.224,689.282c1.54,1.14,8.073,1.654,8.073,1.654s-2.406-6.094-3.946-7.234a3.47,3.47,0,1,0-4.127,5.58Z" transform="translate(-693.751 -505.232)"/><path class="c" d="M984.2,533.476c0,1.917-3.469,7.474-3.469,7.474s-3.469-5.553-3.469-7.474a3.471,3.471,0,0,1,6.942,0Z" transform="translate(-713.173 -396.694)"/><path class="c" d="M1003.724,565.221c-1.04,1.608-6.974,4.384-6.974,4.384s.108-6.55,1.148-8.161a3.47,3.47,0,1,1,5.825,3.773Z" transform="translate(-726.966 -417.869)"/><path class="c" d="M999.817,624.358c-1.71.877-8.237.266-8.237.266s3.4-5.6,5.112-6.465a3.47,3.47,0,0,1,3.125,6.2Z" transform="translate(-723.307 -458.951)"/><path class="c" d="M988.983,671.932c-1.541,1.14-8.073,1.654-8.073,1.654s2.406-6.094,3.946-7.234a3.47,3.47,0,1,1,4.127,5.579Z" transform="translate(-715.756 -492.924)"/><path class="c" d="M969.486,580.257c1.374,1.336,7.781,2.718,7.781,2.718s-1.57-6.363-2.944-7.7a3.469,3.469,0,0,0-4.837,4.969Z" transform="translate(-706.989 -428.164)"/><path class="c" d="M954.769,633.5c1.71.877,8.236.266,8.236.266s-3.4-5.6-5.112-6.465a3.47,3.47,0,0,0-3.124,6.2Z" transform="translate(-695.905 -465.435)"/><path class="c" d="M951.224,689.282c1.54,1.14,8.073,1.654,8.073,1.654s-2.406-6.094-3.946-7.234a3.47,3.47,0,1,0-4.127,5.58Z" transform="translate(-693.751 -505.232)"/><g class="m" transform="translate(111.212 37.556)"><rect class="c" width="18.706" height="18.706" rx="9.353"/><rect class="c" width="18.706" height="18.706" rx="9.353" transform="translate(23.09)"/><rect class="c" width="18.706" height="18.706" rx="9.353" transform="translate(46.181)"/><rect class="c" width="18.706" height="18.706" rx="9.353" transform="translate(69.271)"/></g><rect class="c" width="18.706" height="18.706" rx="9.353" transform="translate(111.232 65.447)"/><rect class="n" width="18.706" height="18.706" rx="9.353" transform="translate(134.253 65.447)"/><rect class="n" width="18.706" height="18.706" rx="9.353" transform="translate(157.273 65.447)"/><rect class="n" width="18.706" height="18.706" rx="9.353" transform="translate(180.294 65.447)"/><g class="m" transform="translate(111.02 93.338)"><rect class="c" width="18.706" height="18.706" rx="9.353"/><rect class="c" width="18.706" height="18.706" rx="9.353" transform="translate(23.09)"/><rect class="c" width="18.706" height="18.706" rx="9.353" transform="translate(46.181)"/><rect class="c" width="18.706" height="18.706" rx="9.353" transform="translate(69.271)"/></g><g class="m" transform="translate(110.927 121.229)"><rect class="c" width="18.706" height="18.706" rx="9.353"/><rect class="c" width="18.706" height="18.706" rx="9.353" transform="translate(23.09)"/><rect class="c" width="18.706" height="18.706" rx="9.353" transform="translate(46.181)"/><rect class="c" width="18.706" height="18.706" rx="9.353" transform="translate(69.271)"/></g><path class="o" d="M468.746,321.678v1.689l-7.126-4.5.751-.938.348.2,5.515-8.082v-4.7l2.1.187v-.751c5.553-6.378,6.112.751,4.969,2.815a12.525,12.525,0,0,1-3.247,3.563c-1.169.982-3.215,8.406-3.709,10.268Z" transform="translate(-347.768 -235.099)"/><path class="p" d="M300.417,305.708h0s5.439,10.642,3.75,21.284c-.567,3.577-.33,5.764.237,7.1a13.048,13.048,0,0,1-1.169,4.156c-2.064,4.314-2.064,8.815.561,14.068l.751,27.182s.938,12.752,0,15.38.374,15.2.374,15.2h-.187v6.939l14.053.377s3.294-1.564,3.879-2.733l7.062,2.172s7.772-1.339,3.215-3.192c-3.393-1.38-4.235-3.353-4.446-4.264L339.6,377.437s-2.063-27.182-9.566-36.573l-.76-5.53h.105l1.593-32.289.132.018h-.038a35.8,35.8,0,0,0,12.381-.19,19.294,19.294,0,0,0,3.586-1l.213-.085h.044a10.854,10.854,0,0,0,2.438-1.391l4.676-7.164-7.126-4.91-2.438,3.478a91.959,91.959,0,0,1-11.832-3.315,17.923,17.923,0,0,0-6.138-1.318l-4.58-.158-2.283-1.371.713-1.844c.07-.032.14-.064.21-.1L321,283.3a10.94,10.94,0,0,0,7.982-13.249h.149c-.064-3.8-1.228-4.171-1.228-4.171,0-3.864-3.376-6.69-7.222-7.015a19.124,19.124,0,0,0-5.931.52,6.9,6.9,0,0,0-5.261,6c-5.024,1.382-3.341,4.013-3.42,5.021-.386,4.91,1.169,7.813,2.894,9.505a9.06,9.06,0,0,0,2.534,1.859l-1.1,2.2h-.322l-.894,2.631h-.044l-.976.631A18.323,18.323,0,0,0,300.417,305.708Zm15,104.366v-8.438l3.563-24.943V363.936l6.381,13.308-6.869,28.866-.36-.1-1.581,5.682a3.733,3.733,0,0,1-1.131-1.619Z" transform="translate(-233.361 -205.354)"/><path class="q" d="M468.116,314.193v4.5l-5.366,7.862,5.366,3.493s2.385-9.189,3.671-10.271a12.062,12.062,0,0,0,3.119-3.423c1.1-1.982.549-8.83-4.773-2.7v.722Z" transform="translate(-348.567 -241.459)"/><path class="q" d="M334.734,345.945l2.125-4.25a.787.787,0,0,1,.664-.436l8.07-.412a.786.786,0,0,1,.775,1.07l-2.081,5.381a.786.786,0,0,1-.8.5l-8.111-.722a.786.786,0,0,1-.637-1.131Z" transform="translate(-257.798 -262.495)"/><path class="r" d="M192.761,253.4l-1.371,4.019,14.076-.506-5.407-3.244Z" transform="translate(-115.229 -171.787)"/><path class="r" d="M318.47,265.09l.719-.9,6.126,3.6v1.622Z" transform="translate(-205.268 -179.444)"/><path class="s" d="M311.97,502.32a13.39,13.39,0,0,1-.95,8.248c-1.982,4.145-1.982,8.476.541,13.515l.722,26.13s.9,12.255,0,14.778.354,14.6.354,14.6h10.093V571.48l3.423-23.968V535.255l6.138,12.8-7.015,29.556,9.189,3.785L346,548.232s-2-26.13-9.207-35.138l-1.356-9.824Z" transform="translate(-240.064 -377.351)"/><path class="t" d="M319.4,773.357V766.69h10.271s.722,2.7,5.407,3.244-2.163,3.785-2.163,3.785Z" transform="translate(-246.995 -564.786)"/><path class="t" d="M357.36,759.73l1.789-6.43,9.9,2.756s-.032,2.8,4.337,4.574-3.1,3.066-3.1,3.066Z" transform="translate(-273.894 -555.309)"/><path class="u" d="M341.178,505.12l-23.468-.95a13.126,13.126,0,0,1,.178,4.256,2.815,2.815,0,0,0,3.376,1.836l20.533-.631Z" transform="translate(-245.803 -378.352)"/><path class="c" d="M312.9,360.68l-.935.634a17.607,17.607,0,0,0-7.445,17.753h0s5.226,10.23,3.6,20.46,3.6,8.652,3.6,8.652l20.635-.634,1.531-31.026s12.434,1.768,18.022-2.557l4.5-6.883-6.848-4.726-2.338,3.344a88.034,88.034,0,0,1-11.37-3.186,17.217,17.217,0,0,0-5.91-1.265Z" transform="translate(-236.276 -276.663)"/><path class="u" d="M334.3,531.47s-1.263,6.307,5.948,16.759" transform="translate(-257.487 -397.753)"/><path class="u" d="M406,407.962s8.649-2.882,12.434-2.882,3.154,1.634,3.154,1.634S415.561,409.4,406,407.962Z" transform="translate(-308.358 -308.053)"/><path class="u" d="M363.489,342.1l-3.443.412c-.108,0-.207.149-.266.362.757,1.365,1.7,2.178,2.733,2.178a2.124,2.124,0,0,0,1.043-.292l.263-1.593C363.907,342.635,363.732,342.068,363.489,342.1Z" transform="translate(-275.597 -263.375)"/><ellipse class="q" cx="10.511" cy="10.511" rx="10.511" ry="10.511" transform="translate(74.992 60.367)"/><path class="u" d="M344.5,277.259h0l-.538.485a1.818,1.818,0,0,0,.529,3.019h0s-4.709,4.709-5.363,5.583.108,3.174.108,3.174,2.081,3.832-8.868,2.955c0,0-7.225-1.532-6.459-11.276.076-.976-1.532-3.507,3.285-4.817h0a6.629,6.629,0,0,1,5.077-5.758,18.372,18.372,0,0,1,5.7-.5A7.155,7.155,0,0,1,344.5,277.259Z" transform="translate(-250.053 -212.319)"/><path class="c" d="M344.283,276.255h0s1.117.345,1.169,4.007l-1.587-.108s-3.671,9.821-3.285,8.541c1.423-4.709-1.423-3.832-2.081-2.955s.108,3.174.108,3.174,2.081,3.832-8.868,2.955c0,0-7.225-1.532-6.459-11.276.076-.976-1.532-3.507,3.285-4.817h0a6.629,6.629,0,0,1,5.068-5.761,18.376,18.376,0,0,1,5.7-.5C341.039,269.827,344.283,272.549,344.283,276.255Z" transform="translate(-249.608 -211.886)"/><g class="m" transform="translate(111.218 165.532)"><rect class="c" width="18.706" height="18.706" rx="9.353"/><rect class="c" width="18.706" height="18.706" rx="9.353" transform="translate(23.09)"/><rect class="c" width="18.706" height="18.706" rx="9.353" transform="translate(46.181)"/><rect class="c" width="18.706" height="18.706" rx="9.353" transform="translate(69.271)"/></g><g class="v" transform="translate(111.218 165.532)"><rect width="18.706" height="18.706" rx="9.353"/><rect width="18.706" height="18.706" rx="9.353" transform="translate(23.09)"/><rect width="18.706" height="18.706" rx="9.353" transform="translate(46.181)"/><rect width="18.706" height="18.706" rx="9.353" transform="translate(69.271)"/></g></g></svg>