<svg xmlns="http://www.w3.org/2000/svg" xmlns:xlink="http://www.w3.org/1999/xlink" width="319.215" height="187.714" viewBox="0 0 319.215 187.714"><defs><style>.a,.m,.n{opacity:0.5;}.a{fill:url(#a);}.b,.c{fill:#e8fdfa;}.c,.d,.e,.f{opacity:0.6;}.d,.f,.v{fill:none;}.d{stroke:#cfcfcf;}.d,.e,.f,.v{stroke-miterlimit:10;}.e{fill:#fce9ee;}.e,.f{stroke:#e6e6e6;}.g{fill:url(#b);}.h{fill:#fff;}.i{fill:#eee;}.j{fill:#ff5252;}.k{fill:#ff0;}.l{fill:#69f0ae;}.m,.u{fill:#3f2a93;}.n{fill:url(#c);}.o{fill:#fdb797;}.p{opacity:0.05;}.q{fill:#f9ce43;}.r{fill:#0d134d;}.ac,.s,.v{opacity:0.1;}.t{fill:#7be3dd;}.v{stroke:#000;}.w{fill:#f4f4f4;}.x{fill:url(#d);}.y{fill:#72351c;}.z{fill:#333;}.aa{fill:#4d8af0;}.ab{fill:#f55f44;}.ad{fill:#f0e4e4;}</style><linearGradient id="a" x1="0.5" y1="1" x2="0.5" gradientUnits="objectBoundingBox"><stop offset="0" stop-color="gray" stop-opacity="0.251"/><stop offset="0.54" stop-color="gray" stop-opacity="0.122"/><stop offset="1" stop-color="gray" stop-opacity="0.102"/></linearGradient><linearGradient id="b" x1="0.5" y1="1" x2="0.5" y2="0" xlink:href="#a"/><linearGradient id="c" x1="0.5" y1="1" x2="0.5" y2="0" xlink:href="#a"/><linearGradient id="d" x1="0.5" y1="1.001" x2="0.5" y2="-0.002" xlink:href="#a"/></defs><g transform="translate(0.061)"><path class="a" d="M430.448,567.722c-.586-2.123-2.509-3.722-3.926-5.519a13.417,13.417,0,0,1-1.045-15.167c1.362-2.275,3.5-4.628,2.724-7.113-.518-1.671-2.237-2.816-3.926-3.713a42.636,42.636,0,0,0-21.3-4.811c-9.173.329-18.315,3.546-27.31,1.952-8.761-1.558-16.183-5.414-25.349-5.872-6.847-.341-13.619.042-20.48-.616a345.594,345.594,0,0,0-51.048-1.07,345.559,345.559,0,0,0-51.045,1.07c-6.844.658-13.619.275-20.48.616-9.193.454-16.6,4.317-25.363,5.872-9,1.6-18.138-1.623-27.31-1.952a42.636,42.636,0,0,0-21.3,4.811c-1.7.9-3.4,2.042-3.926,3.713-.77,2.482,1.362,4.835,2.724,7.113a13.416,13.416,0,0,1-1.038,15.167c-1.416,1.794-3.34,3.4-3.926,5.519-1.178,4.269,3.548,8.031,8.172,9.726,12.615,4.631,27.957,2.392,39.5,8.841,5.172,2.894,9.7,7.54,15.826,7.714,4.144.117,7.913-1.9,11.532-3.684a118.582,118.582,0,0,1,16.925-6.748c5.107-1.6,10.517-2.876,15.907-2.347,8.229.8,43.8,15.891,59.84,6.972,10.984-6.114,19.55-6.165,27.8-6.975,5.39-.529,10.8.75,15.907,2.347a118.542,118.542,0,0,1,16.925,6.748c3.616,1.779,7.388,3.8,11.532,3.683,6.129-.173,10.654-4.82,15.826-7.714,11.532-6.452,26.871-4.21,39.5-8.841C426.9,575.744,431.63,571.995,430.448,567.722Z" transform="translate(-126.203 -406.294)"/><path class="b" d="M432.837,568.546c-.58-2.093-2.489-3.683-3.892-5.459a13.25,13.25,0,0,1-1.024-15c1.366-2.252,3.469-4.577,2.7-7.032-.515-1.653-2.219-2.786-3.892-3.671a42.369,42.369,0,0,0-21.126-4.76c-9.095.323-18.159,3.507-27.083,1.928-8.692-1.537-16.046-5.358-25.151-5.809-6.79-.335-13.519.042-20.306-.6a343.592,343.592,0,0,0-50.622-1.058,343.6,343.6,0,0,0-50.622,1.059c-6.787.652-13.516.272-20.306.6-9.1.448-16.459,4.269-25.151,5.809-8.921,1.579-17.988-1.605-27.083-1.928a42.37,42.37,0,0,0-21.126,4.76c-1.673.9-3.376,2.018-3.892,3.671-.765,2.455,1.366,4.784,2.7,7.032a13.25,13.25,0,0,1-1.024,15c-1.407,1.776-3.312,3.358-3.892,5.459-1.2,4.222,3.489,7.941,8.067,9.6,12.512,4.577,27.725,2.362,39.158,8.742,5.121,2.861,9.617,7.459,15.7,7.63,4.1.116,7.852-1.884,11.437-3.645a117.779,117.779,0,0,1,16.786-6.676c5.07-1.581,10.43-2.846,15.776-2.323,8.193.8,43.46,15.717,59.348,6.9,10.894-6.045,19.388-6.1,27.568-6.9,5.346-.523,10.71.741,15.776,2.323a117.781,117.781,0,0,1,16.786,6.676c3.588,1.758,7.326,3.758,11.437,3.645,6.077-.171,10.566-4.766,15.7-7.63,11.437-6.38,26.649-4.165,39.158-8.742C429.321,576.487,434.008,572.767,432.837,568.546Z" transform="translate(-129.859 -407.204)"/><path class="c" d="M133.135,363.034a4.106,4.106,0,0,1,2.3-.427c1.293.26,2.2,1.677,2.585,3.133s.372,2.99.618,4.485a5.348,5.348,0,0,0,1.991,3.755c1.158.715,2.526.434,3.811.26a20.826,20.826,0,0,1,5.075-.054c1.417.159,3.082.712,3.5,2.287.341,1.286-.336,2.6-.776,3.839a10.21,10.21,0,0,0,.054,7.316c.964,2.254,2.919,3.935,3.736,6.314a3.569,3.569,0,0,1,.2,1.9,3.662,3.662,0,0,1-.584,1.226c-.641.954-1.406,1.794-1.991,2.8a16.158,16.158,0,0,0-1.691,7.208,60.764,60.764,0,0,0,.036,7.424c-1.587-.6-3.34-.066-4.977-.457-3.482-.831-5.657-5.6-9.2-5.887-1.678-.138-3.482.777-4.979-.111a4.212,4.212,0,0,1-1.592-2.093,8.5,8.5,0,0,1-.409-4.993,11.676,11.676,0,0,0,.675-3.471,4.974,4.974,0,0,0-1.218-2.658c-1.724-2.117-4.227-3.411-5.465-5.944a7.629,7.629,0,0,1,.7-7.621,19.239,19.239,0,0,0,1.254-1.576,7.433,7.433,0,0,0,.856-3.379c.171-2.843-.258-5.854.545-8.617C128.9,365.2,131.1,363.872,133.135,363.034Z" transform="translate(-124.115 -294.856)"/><path class="d" d="M159.14,364.42s7.06,45.347,16.228,50.755" transform="translate(-150.084 -296.159)"/><path class="d" d="M191.766,406.4s-7.562,1.2-15.116,10.18" transform="translate(-163.067 -325.823)"/><path class="d" d="M139.022,444.964s-5.819-6.578-14.912-5.462" transform="translate(-124.11 -348.707)"/><path class="d" d="M206.262,467.64s-10.62,1.043-14.552,5.758" transform="translate(-174.234 -368.266)"/><path class="d" d="M165.065,501.2a15.6,15.6,0,0,0-11.435,2.855" transform="translate(-145.998 -391.429)"/><path class="c" d="M898.183,243.228a6.525,6.525,0,0,0-3.684-.685c-2.068.419-3.526,2.691-4.136,5.02s-.6,4.814-.99,7.205-1.334,4.87-3.19,6.018-4.048.694-6.109.419a33.384,33.384,0,0,0-8.128-.1c-2.272.254-4.938,1.142-5.6,3.665-.546,2.063.538,4.162,1.262,6.15a16.351,16.351,0,0,1-.088,11.729c-1.575,3.677-4.68,6.309-5.988,10.121a5.732,5.732,0,0,0-.315,3.05,5.873,5.873,0,0,0,.938,1.967c1.034,1.531,2.254,2.879,3.19,4.485,1.952,3.349,2.482,7.522,2.709,11.553a97.4,97.4,0,0,1-.057,11.9c2.544-.969,5.357-.1,7.978-.73,5.581-1.331,9.066-8.97,14.751-9.436,2.689-.218,5.581,1.244,7.981-.179a6.761,6.761,0,0,0,2.554-3.367,13.627,13.627,0,0,0,.618-7.983c-.422-1.851-1.241-3.66-1.081-5.564a7.939,7.939,0,0,1,1.952-4.258c2.764-3.393,6.776-5.468,8.761-9.525a12.232,12.232,0,0,0-1.114-12.216,31.238,31.238,0,0,1-2.011-2.526,11.719,11.719,0,0,1-1.373-5.415c-.272-4.559.4-9.382-.876-13.81C904.969,246.685,901.44,244.553,898.183,243.228Z" transform="translate(-597.479 -211.752)"/><path class="e" d="M929.623,245.4s-11.316,72.686-26.013,81.353" transform="translate(-628.987 -213.787)"/><path class="f" d="M882.44,312.69s12.12,1.925,24.229,16.321" transform="translate(-613.29 -260.934)"/><path class="f" d="M967.92,374.5s9.33-10.551,23.9-8.757" transform="translate(-676.671 -297.564)"/><path class="f" d="M861.85,410.85s17.021,1.671,23.324,9.233" transform="translate(-598.023 -328.916)"/><path class="f" d="M942.17,464.641a24.935,24.935,0,0,1,18.329,4.574" transform="translate(-657.578 -366.02)"/><path class="g" d="M74.91,0V148.056H262.839V0Z" transform="translate(-55.557)"/><rect class="h" width="183.152" height="138.659" transform="translate(22.14 6.718)"/><rect class="i" width="183.152" height="10.201" transform="translate(22.14 0.123)"/><ellipse class="j" cx="2.138" cy="2.473" rx="2.138" ry="2.473" transform="translate(26.972 2.595)"/><ellipse class="k" cx="2.138" cy="2.473" rx="2.138" ry="2.473" transform="translate(32.853 2.595)"/><ellipse class="l" cx="2.138" cy="2.473" rx="2.138" ry="2.473" transform="translate(38.735 2.595)"/><rect class="m" width="68.251" height="3.289" transform="translate(29.159 26.663)"/><rect class="m" width="68.251" height="3.289" transform="translate(29.159 34.221)"/><rect class="m" width="68.251" height="3.289" transform="translate(29.159 40.993)"/><rect class="m" width="44.725" height="3.289" transform="translate(71.815 47.765)"/><rect class="m" width="35.935" height="3.289" transform="translate(29.159 54.537)"/><rect class="m" width="27.662" height="3.289" transform="translate(64.799 61.308)"/><rect class="m" width="80.401" height="53.518" transform="translate(153.439 51.722)"/><rect class="i" width="80.401" height="53.518" transform="translate(167.226 57.013)"/><path class="n" d="M926.718,361.4a1.554,1.554,0,0,0,.259-.864v-.024c0-.006.016-.063.023-.093v-.039a.857.857,0,0,0,0-.087v-.036a.738.738,0,0,0,0-.108c-.152-1.2-6.3-8.987-7.834-18.492a18.812,18.812,0,0,0-.757-3.029,4.817,4.817,0,0,0-.083-1.465c-.258-1.217-.775-2.452-.517-3.666a3.254,3.254,0,0,1,.142-.463,18.921,18.921,0,0,0,.887-1.7,4.383,4.383,0,0,0,.259-.6c.944-2.876-1.978-5.845-1.44-8.847.233-1.3,1.1-2.437,1.08-3.761a3.892,3.892,0,0,0-2.484-3.253c-1.251-.562-2.629-.723-3.857-1.351-2.691-1.378-4.165-4.706-6.621-6.557-3.12-2.347-7.192-1.929-10.933-1.322a.777.777,0,0,0-.574.49h-.037c-.028.1-.062.188-.1.281a8.314,8.314,0,0,1-2.249,2.508,9.721,9.721,0,0,0-2.815,2.966c-.1.188-.176.368-.245.541-1.4,2.879.282,4.123,2.327,4.814a8.568,8.568,0,0,0-.093,1.247c0,4.186,3.027,7.6,6.758,7.6a6.064,6.064,0,0,0,.881-.066l.217.164h.049a4.646,4.646,0,0,1,1.551,2.162l-2.166,1.914s.088.263.217.682l-8.516,4.538c-3.227.173-8.449-11.58-8.449-11.58s-.775-6.739-3.534-7.95c-.832-.365-1.164.4-1.22,1.641-1.233,1.495.838,9.89.838,9.89l6.605,13.481c.616,1.381.776,2.245,3.687,2.766,2.4.425,9.863-2.643,12.461-3.755l.122,1.2a8.009,8.009,0,0,0-.393,2.861c0,2.2.851,5.409,5,7.962,0,0,4.287,6.407,3.811,12.455,0,0,.207.251.538.58-.047,1.7-.259,3.806-1,4.625a.5.5,0,0,0-.116.425.461.461,0,0,0,.181.464l-5.411,10.958c-.2.3-.406.6-.615.9a30.719,30.719,0,0,1-3.333,4.111,16.99,16.99,0,0,0-2.027,2.326,7.707,7.707,0,0,0-.7,4.12,24.78,24.78,0,0,1,.481,5.9l-.7,14.175a41.866,41.866,0,0,1-.97,4.679H895.2a12.429,12.429,0,0,1-6.758,4.485c-4.147.855-3.994,3.289-2.766,3.63s16.129-.347,16.129-.347a5.269,5.269,0,0,0,.409-2.431c4.757-.529,11.346-1.426,11.346-1.426s.9-2.508-.408-3.6a3.582,3.582,0,0,1-1.05-1.725c-.078-.383-.163-.819-.245-1.277-.021-.224-.021-.362-.021-.362h-.044a14.467,14.467,0,0,1-.308-3.519c.385-1.988,1.383-13.481-1.076-16.764a4.775,4.775,0,0,1-.468-4.61c2.95-2.233,7.076-7.038,9.462-9.944.135.128.259.257.375.386l.078.087s8.12-4.649,8.154-12.856a14.254,14.254,0,0,0-1.287-6.042ZM900.708,419.3a5.594,5.594,0,0,1,.028-.9l-.258-.033a7.422,7.422,0,0,1,1.339-3.77,35.38,35.38,0,0,0,2.958-9.472l1.492,6.527s.15,1.351.191,2.78h-.026A13.1,13.1,0,0,1,900.708,419.3Z" transform="translate(-608.851 -251.976)"/><path class="o" d="M912.218,362.817a16.606,16.606,0,0,0-5.688,4.051s-9.925,4.556-12.7,4.051-2.919-1.351-3.5-2.691l-6.277-13.155s-2.626-10.973,0-9.792,3.361,7.773,3.361,7.773,4.964,11.478,8.027,11.31l8.312-4.58s1.9-3.208,2.774-3.038S912.218,362.817,912.218,362.817Z" transform="translate(-613.619 -283.295)"/><g class="p" transform="translate(269.265 61.898)"><path d="M912.218,362.817a16.606,16.606,0,0,0-5.688,4.051s-9.925,4.556-12.7,4.051-2.919-1.351-3.5-2.691l-6.277-13.155s-2.626-10.973,0-9.792,3.361,7.773,3.361,7.773,4.964,11.478,8.027,11.31l8.312-4.58s1.9-3.208,2.774-3.038S912.218,362.817,912.218,362.817Z" transform="translate(-882.884 -345.193)"/></g><path class="q" d="M964.821,382.3l-2.911,2.643s1.455,4.4,1.091,5.947,5.822-2.422,5.822-2.422l-2.546-6.607Z" transform="translate(-672.215 -308.855)"/><g class="p" transform="translate(289.695 73.004)"><path d="M964.821,382.3l-2.911,2.643s1.455,4.4,1.091,5.947,5.822-2.422,5.822-2.422l-2.546-6.607Z" transform="translate(-961.91 -381.86)"/></g><path class="o" d="M953.73,361.629s6.494,2.449,3.5,6.751l9.341-5.232s-3.94.338-6.422-6.578Z" transform="translate(-666.15 -291.33)"/><path class="o" d="M978.127,520.85,970.1,537.56l5.4,24.3s.584,5.4-.292,5.908h6.13s-1.181-4.784-.876-6.413c.365-1.94,1.313-13.155-1.034-16.372s1.169-7.427,1.169-7.427l7.006-12.829Z" transform="translate(-678.287 -403.168)"/><g class="p" transform="translate(291.813 117.682)"><path d="M978.127,520.85,970.1,537.56l5.4,24.3s.584,5.4-.292,5.908h6.13s-1.094-4.81-.876-6.413,1.313-13.155-1.034-16.372,1.169-7.427,1.169-7.427l7.006-12.829Z" transform="translate(-970.1 -520.85)"/></g><path class="r" d="M965.01,667.12a12.208,12.208,0,0,1-6.1,4.99c-3.878,1.2-3.562,3.546-2.376,3.773s15.253-1.743,15.253-1.743.856-2.448-.388-3.519a4.958,4.958,0,0,1-1.251-3.289Z" transform="translate(-667.64 -505.706)"/><g class="s" transform="translate(299.24 108.88)"><path d="M999.869,498.26s.347,5.489-.917,6.931a.484.484,0,0,0-.119.379.449.449,0,0,0,.2.333l3.759,2.317,3.361-7.427Z" transform="translate(-998.83 -498.26)"/></g><path class="t" d="M999.869,497.7s.347,5.489-.917,6.93a.484.484,0,0,0-.119.379.449.449,0,0,0,.2.333l3.759,2.317,3.361-7.427Z" transform="translate(-699.59 -388.993)"/><path class="o" d="M961.161,533.83s-2.169,1.674-6.722,8.566a29.884,29.884,0,0,1-3.167,4.015,16.039,16.039,0,0,0-1.926,2.272,7.654,7.654,0,0,0-.667,4.024,24.884,24.884,0,0,1,.458,5.764l-.664,13.846s-.877,6.246-2.043,6.921l5.985,1.2s-.437-4.389,1.313-6.577a34.236,34.236,0,0,0,3.066-17.219,6.664,6.664,0,0,1,3.5-6.246c3.94-2.194,11.97-12.829,11.97-12.829Z" transform="translate(-660.737 -412.268)"/><path class="r" d="M922.319,677.8a11.869,11.869,0,0,1-6.422,4.389c-3.94.843-3.8,3.208-2.627,3.546S928.6,685.4,928.6,685.4s1.034-2.362-.145-3.546-.877-3.375-.877-3.375Z" transform="translate(-635.615 -513.193)"/><g class="s" transform="translate(299.92 106.289)"><path d="M1005.615,493.619s-1.781,6.918-4.038,8.933a.362.362,0,0,0-.113.317.328.328,0,0,0,.188.266c1.866.786,7.864,3.435,9.948,5.845l.073.084s12.479-7.343,5.765-19.835Z" transform="translate(-1001.461 -489.23)"/></g><path class="t" d="M1005.615,493.059s-1.781,6.919-4.038,8.934a.362.362,0,0,0-.113.318.328.328,0,0,0,.188.266c1.866.786,7.864,3.435,9.948,5.845l.073.084s12.479-7.343,5.765-19.835Z" transform="translate(-701.541 -382.554)"/><g class="s" transform="translate(290.817 72.094)"><path d="M969.259,380.745a10.829,10.829,0,0,1-3.009,1.662l1,10.324s-2.345,6.069,4.361,10.309c0,0,4.072,6.258,3.619,12.166,0,0,2.184,2.709,3.645,2.036s.145.338.437.17.874,1.354,5.4.015,7.756-4.871,7.6-6.054-5.964-8.8-7.4-18.085-10.036-15.9-10.036-15.9a8.773,8.773,0,0,1-.776.425A32.661,32.661,0,0,0,969.259,380.745Z" transform="translate(-966.25 -377.39)"/></g><g class="s" transform="translate(299.921 106.116)"><path d="M1001.467,534a.333.333,0,0,0,.189.338c1.608.679,6.282,2.739,8.878,4.838C1008.287,537.076,1003.507,534.9,1001.467,534Z" transform="translate(-1001.466 -520.447)"/><path d="M1045.279,488.67l-.258.1c5.737,11.6-5.067,18.6-6.011,19.186a5.148,5.148,0,0,1,.445.463l.073.084S1051.993,501.161,1045.279,488.67Z" transform="translate(-1029.304 -488.67)"/></g><path class="u" d="M984.642,416.324c-4.524,1.351-5.109-.167-5.4,0s1.034-.843-.437-.167-3.648-2.027-3.648-2.027c.021-.3.031-.577.031-.867.015-5.645-3.692-11.287-3.692-11.287-6.722-4.219-4.379-10.3-4.379-10.3l-.274-2.768-.752-7.552a10.819,10.819,0,0,0,3-1.668,32.847,32.847,0,0,1,4.837-2.942,8.652,8.652,0,0,0,.775-.428s8.612,6.578,10.082,15.867,7.3,16.881,7.443,18.062S989.166,414.972,984.642,416.324Z" transform="translate(-675.314 -304.558)"/><g class="s" transform="translate(287.725 65.35)"><path d="M960.712,357.12l-6.422,5.065a10.421,10.421,0,0,1,2.5,1.444c2.187-.356,3.526-2.168,4.429-4.4C960.872,358.579,961.027,358,960.712,357.12Z" transform="translate(-954.29 -357.12)"/></g><ellipse class="o" cx="6.422" cy="7.427" rx="6.422" ry="7.427" transform="translate(282.764 56.742)"/><g class="s" transform="translate(290.789 76.442)"><path d="M985.7,426.255c-4.524,1.351-5.108-.167-5.4,0s1.034-.843-.437-.167-3.648-2.027-3.648-2.027c.021-.3.031-.577.031-.867.018-5.636-3.681-11.287-3.681-11.287-6.722-4.219-4.379-10.3-4.379-10.3l-.271-2.772-.711-7.149a6.472,6.472,0,0,1-1.063.44l.739,7.555.277,2.769s-2.327,6.078,4.38,10.3c0,0,3.7,5.651,3.681,11.286a8,8,0,0,1-.031.867s2.19,2.691,3.648,2.027.145.338.437.168.876,1.351,5.4,0a14.926,14.926,0,0,0,5.654-3.2A14.922,14.922,0,0,1,985.7,426.255Z" transform="translate(-966.14 -391.69)"/></g><path class="o" d="M910.808,367.737a16.6,16.6,0,0,0-5.688,4.051s-9.925,4.557-12.7,4.051-2.919-1.351-3.5-2.691l-6.277-13.155s-2.627-10.973,0-9.792S886,357.975,886,357.975s4.964,11.478,8.027,11.31l8.314-4.586s1.9-3.208,2.774-3.038S910.808,367.737,910.808,367.737Z" transform="translate(-612.574 -286.694)"/><g class="s" transform="translate(289.333 75.034)"><path d="M964.482,388.378s-3.027-.32-3.9,4.069,6.722,7.089,6.722,7.089l4.087-6.578Z" transform="translate(-960.508 -388.373)"/></g><path class="q" d="M965.052,388.378s-3.027-.32-3.9,4.069,6.722,7.089,6.722,7.089l4.087-6.578Z" transform="translate(-671.598 -313.338)"/><g class="s" transform="translate(290.786 71.728)"><path d="M967.562,391a7.24,7.24,0,0,1-1.432.64l.026.254A14.654,14.654,0,0,0,967.562,391Z" transform="translate(-966.13 -386.611)"/><path d="M1003.762,410.248c-.145-1.2-5.985-8.778-7.443-18.061s-10.083-15.867-10.083-15.867-.284.182-.776.427a33.482,33.482,0,0,0-3.821,2.227q1.228-.747,2.507-1.381a8.64,8.64,0,0,0,.776-.428s8.611,6.578,10.083,15.867,7.3,16.88,7.443,18.062c.093.744-1.151,2.428-3.216,3.911C1002.069,413.376,1003.873,411.139,1003.762,410.248Z" transform="translate(-977.63 -376.32)"/></g><path class="v" d="M983.16,388.62a9.92,9.92,0,0,1,4.485,6.318" transform="translate(-687.971 -313.571)"/><g class="s" transform="translate(280.165 51.696)"><path d="M930.84,323.936a2.17,2.17,0,0,1,1.572,1c.214.454.176,1.025.385,1.495.538,1.172,2.115.768,3.1,1.456,1.81,1.262.628,5.2,2.43,6.464.339.239.739.335,1.088.553,1.523.963,1.308,3.51,1.034,5.492s.052,4.694,1.771,4.975c.946.152,2.009-.571,2.8.036.416.317.605.9.954,1.319a1.571,1.571,0,0,0,1.866.445c.584-.281,1.006-.924,1.613-1.13.977-.332,2.068.583,3.009.161s1.156-1.994.913-3.181a8.862,8.862,0,0,1-.481-3.588c.215-.987.913-1.74,1.218-2.691.895-2.807-1.88-5.708-1.368-8.641.222-1.271,1.05-2.392,1.034-3.674a3.767,3.767,0,0,0-2.363-3.178c-1.192-.55-2.5-.706-3.666-1.318-2.557-1.345-3.955-4.6-6.293-6.4A8.149,8.149,0,0,0,938,311.989a10.28,10.28,0,0,0-9.033,2.84c-.23.215-.466.418-.7.616a9.343,9.343,0,0,0-2.676,2.894C923.374,322.806,928.47,323.317,930.84,323.936Z" transform="translate(-925.046 -311.822)"/></g><path class="u" d="M931.541,322.534a2.171,2.171,0,0,1,1.572,1c.215.454.176,1.025.385,1.495.538,1.172,2.115.768,3.1,1.456,1.81,1.262.629,5.2,2.43,6.464.339.239.74.335,1.089.553,1.523.963,1.308,3.51,1.034,5.492s.052,4.694,1.771,4.975c.946.152,2.009-.571,2.805.036.416.317.6.9.954,1.318a1.571,1.571,0,0,0,1.866.446c.584-.281,1.006-.924,1.614-1.13.977-.332,2.068.583,3.009.161s1.156-1.994.913-3.181a8.855,8.855,0,0,1-.481-3.588c.215-.987.913-1.74,1.218-2.691.894-2.807-1.88-5.707-1.368-8.64.223-1.271,1.05-2.392,1.034-3.675a3.767,3.767,0,0,0-2.363-3.178c-1.192-.55-2.5-.706-3.666-1.319-2.557-1.345-3.955-4.6-6.293-6.4a8.046,8.046,0,0,0-3.128-1.465,10.262,10.262,0,0,0-9.374,2.775c-.227.212-.463.416-.7.6a9.342,9.342,0,0,0-2.676,2.894C924.075,321.4,929.173,321.918,931.541,322.534Z" transform="translate(-645.401 -259.161)"/><path class="u" d="M617.883,473.225H572.9v-9.8C583.89,457.481,600.8,454.144,617.883,473.225Z" transform="translate(-414.693 -361.987)"/><g class="s" transform="translate(193.613 96.79)"><path d="M721,471.823v1.4H664.9v-.3S692.505,441.841,721,471.823Z" transform="translate(-664.9 -458.778)"/></g><path class="u" d="M723,471.823v1.4H666.9v-.3S694.505,441.841,723,471.823Z" transform="translate(-472.571 -361.988)"/><ellipse class="u" cx="4.136" cy="4.784" rx="4.136" ry="4.784" transform="translate(158.454 61.372)"/><path class="w" d="M732.893,347.71c-.473,0-1,0-1.36.033a1.455,1.455,0,0,0-.47.111l-2.433,1.01c1.965.057,4.015.039,6.029.021l11.292-.1c1.153,0,2.363-.024,3.322-.1.644-.054,1.117-.132,1.711-.191,2.138-.221,5.253-.179,8.038-.167a37.8,37.8,0,0,0,7.125-.395H760.17c-.644,0-1.321,0-1.89-.036-.665-.045-1.07-.129-1.655-.188-.967-.1-2.3-.108-3.542-.114C746.272,347.558,739.545,347.743,732.893,347.71Z" transform="translate(-517.561 -285.225)"/><path class="w" d="M768.375,367.31h-.295a.32.32,0,0,0-.1.024l-.517.218h1.305l2.446-.021c.259,0,.517,0,.719-.021a3.456,3.456,0,0,0,.37-.042c.463-.048,1.138-.039,1.743-.036a8.212,8.212,0,0,0,1.551-.087h-1.7a3.06,3.06,0,0,1-.359-.042c-.21-.021-.5-.024-.776-.024C771.284,367.28,769.826,367.319,768.375,367.31Z" transform="translate(-550.034 -298.869)"/><path class="w" d="M701.375,395.31h-.295a.317.317,0,0,0-.1.024l-.517.218h1.306l2.446-.021c.259,0,.517,0,.719-.021a3.471,3.471,0,0,0,.37-.042c.463-.048,1.137-.039,1.742-.036a8.242,8.242,0,0,0,1.551-.087h-1.7a3.07,3.07,0,0,1-.359-.042c-.21-.021-.5-.024-.776-.024C704.283,395.28,702.825,395.319,701.375,395.31Z" transform="translate(-505.677 -318.255)"/><path class="u" d="M660.653,422.786h-1.944s-.608-24.588,1.944-32.176h.486S659.438,418.43,660.653,422.786Z" transform="translate(-478.977 -314.569)"/><path class="u" d="M643.1,357.407s-1.58,5.059-.851,7.307c0,0,1.094-4.637,2.368-5.34s2.611,5.34,2.611,5.34a13.439,13.439,0,0,0-.607-6.877,11.5,11.5,0,0,1,4.01,4.918s.243-2.093-2.916-6.464a11.763,11.763,0,0,1,4.617,2.81s.608-1.546-3.159-4.075c0,0,.486-1.827,3.4-.984,0,0,0-2.392-4.617-1.967,0,0,0-1.546,3.038-1.265,0,0,0-1.967-3.524-1.265A5.98,5.98,0,0,1,648.683,348a2.214,2.214,0,0,0-1.7.562s.121-2.529-1.7-3.513l-.243,3.513s-2.043-2.784-1.58-2.248a7.031,7.031,0,0,1,.365,2.67,3.4,3.4,0,0,0-4.617.141s3.159.281,3.645,1.546c0,0-2.673-.562-3.281-.141,0,0,2.068.843,1.944,1.405,0,0-3.645,0-4.136,1.546,0,0,3.767.562,4.009.984,0,0-4.374,3.653-4.617,4.637,0,0,4.5-3.091,5.225-3.091s-3.281,4.485-3.038,5.621C638.967,361.623,642.259,357.126,643.1,357.407Z" transform="translate(-462.155 -283.272)"/><path class="u" d="M758.092,437.512h1.484s.465-18.785-1.484-24.582h-.372S759.023,434.179,758.092,437.512Z" transform="translate(-544.869 -330.117)"/><path class="u" d="M742.356,387.562s1.207,3.866.649,5.582c0,0-.835-3.543-1.81-4.078s-2,4.078-2,4.078a10.292,10.292,0,0,1,.465-5.259,8.917,8.917,0,0,0-3.064,3.758s-.186-1.612,2.229-4.939a8.959,8.959,0,0,0-3.526,2.147s-.465-1.181,2.415-3.112c0,0-.372-1.4-2.6-.75,0,0,0-1.824,3.526-1.495,0,0,0-1.181-2.327-.966,0,0,0-1.495,2.691-.966a4.554,4.554,0,0,0-.928-1.181,1.692,1.692,0,0,1,1.293.431,3.1,3.1,0,0,1,1.293-2.691l.186,2.691s1.551-2.126,1.208-1.716a5.379,5.379,0,0,0-.279,2.039,2.6,2.6,0,0,1,3.526.108s-2.415.215-2.784,1.181c0,0,2.042-.431,2.505-.108,0,0-1.577.643-1.484,1.073,0,0,2.784,0,3.157,1.181,0,0-2.878.431-3.064.75,0,0,3.343,2.793,3.526,3.543,0,0-3.433-2.362-3.992-2.362s2.505,3.435,2.327,4.293C745.513,390.782,743.008,387.352,742.356,387.562Z" transform="translate(-527.812 -306.196)"/><path class="u" d="M827.23,447.174h.92s.287-11.633-.92-15.224H827S827.8,445.12,827.23,447.174Z" transform="translate(-591.037 -343.421)"/><path class="u" d="M817.475,416.224s.747,2.392.4,3.456c0,0-.517-2.194-1.122-2.526s-1.235,2.526-1.235,2.526a6.4,6.4,0,0,1,.287-3.259,5.52,5.52,0,0,0-1.9,2.326s-.114-1,1.381-3.059a5.618,5.618,0,0,0-2.185,1.331s-.287-.733,1.495-1.928c0,0-.23-.864-1.611-.466,0,0,0-1.13,2.185-.93,0,0,0-.732-1.437-.6,0,0,0-.93,1.667-.6a2.819,2.819,0,0,0-.574-.732,1.047,1.047,0,0,1,.8.266,1.911,1.911,0,0,1,.8-1.662l.114,1.662s.967-1.315.747-1.064a3.323,3.323,0,0,0-.173,1.262,1.6,1.6,0,0,1,2.184.066s-1.494.132-1.724.732c0,0,1.264-.266,1.551-.066,0,0-.977.4-.92.664,0,0,1.724,0,1.954.733a7.636,7.636,0,0,0-1.9.466s2.068,1.728,2.185,2.195a15.633,15.633,0,0,0-2.471-1.462c-.344,0,1.551,2.129,1.437,2.658C819.43,418.218,817.876,416.09,817.475,416.224Z" transform="translate(-580.329 -328.582)"/><path class="x" d="M682.863,427.282h0l-.194-1.2a.7.7,0,0,0-.176-.469l-.9-.508h0a1.221,1.221,0,0,1-.16-.3l.016-.027a.663.663,0,0,0,.1-.242.5.5,0,0,0,0-.069h.013a.341.341,0,0,0,.37-.3v-.027a.352.352,0,0,1-.3.3,1.111,1.111,0,0,0,.406-.879v-.045a.386.386,0,0,0,.153-.257v-.027a.381.381,0,0,1-.158.239,1.193,1.193,0,0,0-.057-.3H682a.362.362,0,0,0,.334-.386v-.027a.358.358,0,0,1-.331.359h-.041v-.018a.611.611,0,0,0,.383-.511v-.027a.42.42,0,0,1-.067.206.376.376,0,0,0-.284-.4.338.338,0,0,0-.373.288l-.059-.039a.349.349,0,0,1,.3-.281h-.023a.341.341,0,0,0-.318.26.849.849,0,0,0-1.153.383c-.07.06-.16.146-.158.221a.713.713,0,0,0-.08.114,1.671,1.671,0,0,0-.1.8.923.923,0,0,1-.238.733.277.277,0,0,0,.243,0,.922.922,0,0,0,.215-.147.52.52,0,0,0,.153-.17v-.015a.726.726,0,0,0,.137.084c.018.179.023.386-.047.454h0l.013-.033a.762.762,0,0,1-.582.191.728.728,0,0,0-.6.448l-.282,1.361h0v.024h0v.024h0a.1.1,0,0,0,.067.075l.088.027a2.423,2.423,0,0,1-.059.691,6.794,6.794,0,0,0-.1,1.017c.021.17.057,1.058.075,1.48q-.047.216-.075.437l-.416,2.888s-.31,2.311-.295,3.011l-.054.4s-.846,1.226-.6,1.4.631.248,1-.4a1.078,1.078,0,0,1,.233-.4.428.428,0,0,0,.116-.338l-.026-.3.044.018h.026a11.386,11.386,0,0,0,.37-2.691s.776-3.175,1.357-3.674v-.021l.054-.03.124,3.077-.127,3.39-.028.2s-.845,1.226-.6,1.4.631.248,1-.4a1.075,1.075,0,0,1,.233-.4.428.428,0,0,0,.116-.338l-.039-.448a10.011,10.011,0,0,0,.364-3.169l.258-2.027a2.474,2.474,0,0,0,.225-1.2,12.884,12.884,0,0,0,.258-2.428l.052-.957a.6.6,0,0,1,.116,0h.041v-.018a.084.084,0,0,0,.018-.027h.016v-.024h0Zm-.724,1.943q-.035-.1-.078-.2h-.021V429a.156.156,0,0,1,0-.024v-.024a.89.89,0,0,0,.031-.1.419.419,0,0,0,.049-.206A2.261,2.261,0,0,1,682.139,429.225Zm-.078-.819-.052-.64.016-.051.07.813Zm-2.451.087a.247.247,0,0,0-.047.173v.021a.838.838,0,0,0,.023.191l-.08.4v-.765a1.737,1.737,0,0,0,.14-.257.475.475,0,0,1-.036.236Z" transform="translate(-491.086 -336.754)"/><path class="y" d="M686.381,425.792a1.612,1.612,0,0,0-.1.768.889.889,0,0,1-.23.706.267.267,0,0,0,.235,0,.884.884,0,0,0,.207-.141.505.505,0,0,0,.148-.164.731.731,0,0,0,.034-.326,3.974,3.974,0,0,1,.044-.583c.016-.12.114-.446,0-.508S686.43,425.7,686.381,425.792Z" transform="translate(-497.485 -339.18)"/><path class="z" d="M678.717,468.749l-.08.6s-.814,1.2-.574,1.348.608.239.959-.389a1.045,1.045,0,0,1,.222-.389h0a.412.412,0,0,0,.111-.326l-.08-.912Z" transform="translate(-492.041 -369.044)"/><path class="z" d="M688.2,469.539l-.08.6s-.814,1.2-.574,1.348.607.239.959-.389a1.04,1.04,0,0,1,.222-.389h0a.412.412,0,0,0,.111-.326l-.08-.912Z" transform="translate(-498.338 -369.591)"/><path class="aa" d="M681.843,445.131a2.271,2.271,0,0,0-.517,1.432l-.4,2.784a28.294,28.294,0,0,0-.277,3.008l.677.269a11.012,11.012,0,0,0,.357-2.586s.814-3.355,1.386-3.588l.121,2.963-.129,3.334.579.134a10.437,10.437,0,0,0,.4-3.247l.3-2.392a4.1,4.1,0,0,0-.134-2.392Z" transform="translate(-493.343 -352.459)"/><g class="s" transform="translate(188.013 92.406)"><path d="M684.825,450.231v-.051c-.571.236-1.386,3.588-1.386,3.588a10.769,10.769,0,0,1-.349,2.559l.072.03a11,11,0,0,0,.357-2.586S684.261,450.724,684.825,450.231Z" transform="translate(-683.09 -448.601)"/><path d="M692.676,444.9H692.6a4.057,4.057,0,0,1,.129,2.371l-.3,2.392a10.211,10.211,0,0,1-.4,3.229l.075.018a10.44,10.44,0,0,0,.4-3.247l.3-2.392A4.02,4.02,0,0,0,692.676,444.9Z" transform="translate(-689.719 -444.9)"/></g><path class="ab" d="M683.28,438.227a.1.1,0,0,0,.067.1,1.28,1.28,0,0,1,.517.3c.284.257-.3-.514-.3-.514l-.2.051-.08.084Z" transform="translate(-495.655 -347.904)"/><path class="ac" d="M683.28,438.227a.1.1,0,0,0,.067.1,1.28,1.28,0,0,1,.517.3c.284.257-.3-.514-.3-.514l-.2.051-.08.084Z" transform="translate(-495.655 -347.904)"/><path class="ab" d="M694.1,439.57a1.678,1.678,0,0,1,.807-.368.082.082,0,0,0,.075-.087h0A.614.614,0,0,0,694.1,439.57Z" transform="translate(-502.806 -348.558)"/><path class="ac" d="M694.981,439.113a.619.619,0,0,0-.881.454s.5-.442.845-.371" transform="translate(-502.806 -348.558)"/><ellipse class="y" cx="0.882" cy="1.02" rx="0.882" ry="1.02" transform="translate(189.286 85.82)"/><path class="o" d="M687.981,428.307s.124.6,0,.721-.375.35-.186.526.863.475,1.088.329.481-.1.419-.4-.553-.236-.561-1.722Z" transform="translate(-498.446 -340.717)"/><path class="ac" d="M683.443,437.9a4.314,4.314,0,0,1-.054.969,6.552,6.552,0,0,0-.1.978c.026.215.08,1.638.08,1.638s-.1,1.247.427,1.133-.08-1.423-.08-1.423l.026-1.7a1.737,1.737,0,0,0,.259-.762C684.04,438.322,683.443,437.9,683.443,437.9Z" transform="translate(-495.652 -347.699)"/><path class="o" d="M683.412,437.9a4.3,4.3,0,0,1-.054.969,6.512,6.512,0,0,0-.1.978c.026.215.08,1.638.08,1.638s-.1,1.247.426,1.133-.08-1.423-.08-1.423l.026-1.7a1.738,1.738,0,0,0,.259-.762C684.007,438.322,683.412,437.9,683.412,437.9Z" transform="translate(-495.632 -347.699)"/><path class="ac" d="M693.973,438.21l-.072,1.331a12.244,12.244,0,0,1-.24,2.338s.054,1.31-.473,1.277.088-1.432.088-1.432a6.763,6.763,0,0,0,.137-1.916l-.137-1.6Z" transform="translate(-502.036 -347.91)"/><path class="o" d="M694,438.21l-.072,1.331a12.251,12.251,0,0,1-.241,2.338s.054,1.31-.473,1.277.088-1.432.088-1.432a6.757,6.757,0,0,0,.137-1.916l-.137-1.6Z" transform="translate(-502.056 -347.91)"/><path class="ac" d="M685.01,432.582s.427.227.659-.448l.866.49a.676.676,0,0,1,.168.455l.186,1.154a.606.606,0,0,0-.83.434l.054.649h0a.8.8,0,0,1-.029.484.123.123,0,0,0,0,.087.358.358,0,0,1-.039.282.265.265,0,0,1-.219.131,4.543,4.543,0,0,0-.7.063c-.186.063-.75-.122-.936,0s-.579-.093-.579-.093l.106-.526s-.072-.257.018-.35a2.566,2.566,0,0,0-.044-1.124s-.32-.35-.517-.3l.259-1.33a.7.7,0,0,1,.579-.434.735.735,0,0,0,.561-.185S684.385,432.51,685.01,432.582Z" transform="translate(-495.047 -343.634)"/><path class="ac" d="M685.054,432.474c.116.036.427.075.613-.467l.866.49a.675.675,0,0,1,.168.454l.186,1.154a.606.606,0,0,0-.83.433l.054.649.036.129a.416.416,0,0,1-.044.329.132.132,0,0,0-.018.12.357.357,0,0,1-.039.282.264.264,0,0,1-.219.131,4.551,4.551,0,0,0-.7.063c-.186.063-.75-.123-.936,0s-.579-.093-.579-.093l.106-.526s-.072-.257.018-.35a2.566,2.566,0,0,0-.044-1.124s-.32-.35-.517-.3l.259-1.331a.7.7,0,0,1,.579-.433.736.736,0,0,0,.561-.185s-.209.442.341.538Z" transform="translate(-495.048 -343.551)"/><path class="ab" d="M685.047,432.53c.116.036.427.075.613-.467l.866.491a.675.675,0,0,1,.168.454l.186,1.154a.606.606,0,0,0-.83.434l.054.649h0a.8.8,0,0,1-.029.484.124.124,0,0,0,0,.087.358.358,0,0,1-.039.282.266.266,0,0,1-.219.131,4.543,4.543,0,0,0-.7.063c-.186.063-.75-.122-.936,0s-.579-.093-.579-.093l.106-.526s-.073-.257.018-.35a2.562,2.562,0,0,0-.044-1.124s-.32-.35-.517-.3l.259-1.33a.7.7,0,0,1,.579-.434.735.735,0,0,0,.561-.185s-.209.443.341.538Z" transform="translate(-495.041 -343.586)"/><path class="ac" d="M689.527,427.94l-.758.547c.019.1.034.2.044.3a.645.645,0,0,0,.271.06.733.733,0,0,0,.491-.257A3.94,3.94,0,0,1,689.527,427.94Z" transform="translate(-499.278 -340.858)"/><ellipse class="o" cx="0.732" cy="0.846" rx="0.732" ry="0.846" transform="translate(189.048 86.215)"/><ellipse class="y" cx="0.321" cy="0.371" rx="0.321" ry="0.371" transform="translate(190.835 85.643)"/><path class="y" d="M693.421,425.014a.344.344,0,0,1-.321-.344v.027a.324.324,0,1,0,.641,0v-.027A.344.344,0,0,1,693.421,425.014Z" transform="translate(-502.184 -338.601)"/><path class="y" d="M692.873,426.047a.368.368,0,0,1-.259-.407v.024a.371.371,0,0,0,.257.432.327.327,0,0,0,.373-.3v-.027A.323.323,0,0,1,692.873,426.047Z" transform="translate(-501.859 -339.272)"/><path class="y" d="M691.913,429.047a.367.367,0,0,1-.258-.407v.024a.371.371,0,0,0,.257.432.327.327,0,0,0,.374-.3v-.027A.323.323,0,0,1,691.913,429.047Z" transform="translate(-501.221 -341.349)"/><path class="y" d="M693.421,424.347A.345.345,0,0,1,693.1,424v.027a.324.324,0,1,0,.641,0V424A.344.344,0,0,1,693.421,424.347Z" transform="translate(-502.184 -338.137)"/><path class="y" d="M692.491,423.628a.352.352,0,0,1,.3-.368h-.023a.375.375,0,0,0,0,.741h.023A.353.353,0,0,1,692.491,423.628Z" transform="translate(-501.805 -337.621)"/><path class="ac" d="M693.821,436.19a1.537,1.537,0,0,1,0,.556s-.044.484.026.568" transform="translate(-502.761 -346.567)"/><path class="ac" d="M685.441,436.57a1.54,1.54,0,0,1,0,.556s-.044.484.026.568" transform="translate(-497.192 -346.83)"/><path class="ac" d="M685.41,443.168a.277.277,0,0,0,.215,0,.389.389,0,0,1,.258,0" transform="translate(-497.104 -351.398)"/><path class="ac" d="M685.83,440.465a1.623,1.623,0,0,0,.739-.135s.91.257,1.169.072" transform="translate(-497.129 -349.447)"/><rect class="o" width="0.561" height="0.401" rx="0.2" transform="translate(187.603 95.597)"/><path class="ad" d="M683.28,455.965l.3-.015.258.048h-.09Z" transform="translate(-495.673 -360.263)"/><path class="ad" d="M691.1,450.39h.3l.259.03h-.091Z" transform="translate(-500.87 -356.414)"/><path class="ad" d="M691.1,450.63h.3l.259.03h-.091Z" transform="translate(-500.87 -356.58)"/><path class="ad" d="M691.1,450.88h.3l.259.03h-.091Z" transform="translate(-500.87 -356.753)"/><path class="ad" d="M691.1,451.12h.3l.259.03h-.091Z" transform="translate(-500.87 -356.919)"/><path class="ad" d="M683.28,456.93h.3l.258.036h-.09Z" transform="translate(-495.673 -360.941)"/><path class="ad" d="M683.28,456.81h.3l.258.036h-.09Z" transform="translate(-495.673 -360.858)"/><path class="ad" d="M683.28,456.69h.3l.258.036h-.09Z" transform="translate(-495.673 -360.775)"/><path class="ad" d="M683.28,456.57h.3l.258.036h-.09Z" transform="translate(-495.673 -360.692)"/><path class="ad" d="M683.28,455.785l.3-.015.258.048h-.09Z" transform="translate(-495.673 -360.138)"/><path class="ad" d="M683.28,455.575l.3-.015.258.048h-.09Z" transform="translate(-495.673 -359.993)"/><path class="ac" d="M690.382,425.2a2.343,2.343,0,0,0,.1.933,1.268,1.268,0,0,1-.039.9.234.234,0,0,0,.228-.066.992.992,0,0,0,.165-.224.637.637,0,0,0,.1-.233,1.06,1.06,0,0,0-.052-.395,5.821,5.821,0,0,1-.109-.7c-.016-.144,0-.556-.14-.6S690.408,425.084,690.382,425.2Z" transform="translate(-500.385 -338.678)"/><path class="y" d="M690.452,425.173a2.343,2.343,0,0,0,.1.933,1.267,1.267,0,0,1-.039.9.234.234,0,0,0,.228-.066,1,1,0,0,0,.165-.224.638.638,0,0,0,.1-.233,1.057,1.057,0,0,0-.052-.395,5.787,5.787,0,0,1-.109-.7c-.016-.143,0-.556-.14-.6S690.478,425.051,690.452,425.173Z" transform="translate(-500.431 -338.657)"/><path class="ac" d="M688.062,424.943a2.228,2.228,0,0,1,.127.269.428.428,0,0,0,.362.167.181.181,0,0,1,.106.027c.057.042.06.138.1.2a.188.188,0,0,0,.3,0,.634.634,0,0,0,.116-.368,2.688,2.688,0,0,0,0-.445.741.741,0,0,0-.163-.454.643.643,0,0,0-.287-.143.742.742,0,0,0-.442-.039.759.759,0,0,0-.2.117q-.132.1-.258.2c-.1.078-.277.233-.1.317C687.829,424.853,687.969,424.826,688.062,424.943Z" transform="translate(-498.4 -338.22)"/><path class="y" d="M688.132,424.9a2.221,2.221,0,0,1,.127.269.429.429,0,0,0,.362.167.182.182,0,0,1,.106.027c.057.042.06.138.1.2a.189.189,0,0,0,.3,0,.636.636,0,0,0,.116-.368,2.672,2.672,0,0,0,0-.445.739.739,0,0,0-.163-.454.642.642,0,0,0-.287-.144.741.741,0,0,0-.442-.039.764.764,0,0,0-.2.116q-.132.1-.258.2c-.1.078-.277.233-.1.317C687.9,424.813,688.047,424.789,688.132,424.9Z" transform="translate(-498.447 -338.193)"/><path class="ad" d="M691.17,450.39h.3l.259.03h-.085Z" transform="translate(-500.917 -356.414)"/><path class="ad" d="M691.17,450.63h.3l.259.03h-.085Z" transform="translate(-500.917 -356.58)"/><path class="ad" d="M691.17,450.88h.3l.259.03h-.085Z" transform="translate(-500.917 -356.753)"/><path class="ad" d="M691.17,451.12h.3l.259.03h-.085Z" transform="translate(-500.917 -356.919)"/><path class="ad" d="M690.67,464.39h.3l.258.03h-.091Z" transform="translate(-500.584 -366.107)"/><path class="ad" d="M690.67,464.64h.3l.258.03h-.091Z" transform="translate(-500.584 -366.28)"/><path class="ad" d="M690.67,464.88h.3l.258.03h-.091Z" transform="translate(-500.584 -366.446)"/><path class="ad" d="M690.67,465.12h.3l.258.03h-.091Z" transform="translate(-500.584 -366.612)"/></g></svg>