<svg xmlns="http://www.w3.org/2000/svg" xmlns:xlink="http://www.w3.org/1999/xlink" width="731.752" height="416.707" viewBox="0 0 731.752 416.707"><defs><style>.a,.d,.f,.g,.k,.o{opacity:0.1;}.b{fill:#3f3d56;}.c,.g{fill:#3f2a93;}.e,.f{fill:#76e2dc;}.h,.o{fill:none;stroke-miterlimit:10;}.h{stroke:#3f3d56;stroke-width:4px;}.i{fill:#00e6bf;}.j{fill:#fff;}.k{fill:#707070;}.l{fill:url(#a);}.m{fill:#be6f72;}.n{fill:#ff6f61;}.o{stroke:#000;}.p{fill:url(#b);}.q{fill:#2f2e41;}.r{fill:#fbbebe;}.s{fill:#e8e8f0;}.t{fill:#f86d70;}</style><linearGradient id="a" x1="0.5" y1="1" x2="0.5" gradientUnits="objectBoundingBox"><stop offset="0" stop-color="gray" stop-opacity="0.251"/><stop offset="0.54" stop-color="gray" stop-opacity="0.122"/><stop offset="1" stop-color="gray" stop-opacity="0.102"/></linearGradient><linearGradient id="b" x1="0.5" y1="1" x2="0.5" y2="-0.001" xlink:href="#a"/></defs><g class="a" transform="translate(281.173 28.983)"><ellipse class="b" cx="8.246" cy="10.796" rx="8.246" ry="10.796" transform="translate(31.078 222.867)"/><path class="b" d="M534.8,454.387a13.041,13.041,0,0,0,1.724-6.6c0-5.963-3.7-10.8-8.253-10.8S520,441.838,520,447.8a13.043,13.043,0,0,0,1.724,6.6,13.484,13.484,0,0,0,0,13.195,13.484,13.484,0,0,0,0,13.195,13,13,0,0,0-1.724,6.6c0,5.956,3.7,10.8,8.246,10.8s8.253-4.84,8.253-10.8a13,13,0,0,0-1.725-6.6,13.485,13.485,0,0,0,0-13.195,13.484,13.484,0,0,0,0-13.195Z" transform="translate(-488.951 -266.917)"/><ellipse class="b" cx="8.246" cy="10.796" rx="8.246" ry="10.796" transform="translate(31.078 156.893)"/><ellipse class="b" cx="8.246" cy="10.796" rx="8.246" ry="10.796" transform="translate(31.078 143.699)"/><path class="c" d="M485.606,266.461a38.485,38.485,0,0,1-3.072-4.521l21.665-3.558-23.433.174a39.576,39.576,0,0,1-.725-31.3l31.44,16.31L482.5,222.247a39.512,39.512,0,1,1,65.213,44.2,39.523,39.523,0,0,1,4.507,7.2L524.081,288.3l29.991-10.064a39.511,39.511,0,0,1-6.369,37.1,39.5,39.5,0,1,1-62.1,0,39.5,39.5,0,0,1,0-48.852Z" transform="translate(-477.149 -202.271)"/><path class="d" d="M556.158,324.349a39.323,39.323,0,0,1-8.456,24.426,39.5,39.5,0,1,1-62.1,0C480.309,342.05,556.158,319.914,556.158,324.349Z" transform="translate(-477.149 -235.733)"/></g><g class="a" transform="translate(379.098 65.091)"><ellipse class="b" cx="6.166" cy="8.065" rx="6.166" ry="8.065" transform="translate(23.223 166.406)"/><path class="b" d="M666.8,440.319a9.732,9.732,0,0,0,1.283-4.927c0-4.456-2.761-8.072-6.159-8.072s-6.166,3.623-6.166,8.072a9.661,9.661,0,0,0,1.29,4.927,10.072,10.072,0,0,0,0,9.862,10.072,10.072,0,0,0,0,9.862,9.661,9.661,0,0,0-1.29,4.927c0,4.456,2.761,8.072,6.166,8.072s6.159-3.623,6.159-8.072a9.732,9.732,0,0,0-1.283-4.927,10.145,10.145,0,0,0,0-9.862A10.145,10.145,0,0,0,666.8,440.319Z" transform="translate(-632.544 -300.361)"/><ellipse class="b" cx="6.166" cy="8.065" rx="6.166" ry="8.065" transform="translate(23.223 117.105)"/><ellipse class="b" cx="6.166" cy="8.065" rx="6.166" ry="8.065" transform="translate(23.223 107.243)"/><path class="c" d="M630.038,299.931a28.28,28.28,0,0,1-2.3-3.376l16.194-2.659-17.513.13a29.592,29.592,0,0,1-.565-23.4l23.5,12.195-21.672-15.941a29.527,29.527,0,1,1,48.757,33.041,29.864,29.864,0,0,1,3.369,5.384L658.8,316.227l22.411-7.521a29.534,29.534,0,0,1-4.761,27.723,29.52,29.52,0,1,1-46.373,0,29.519,29.519,0,0,1,0-36.5Z" transform="translate(-623.72 -252.103)"/><path class="d" d="M682.765,343.135a29.4,29.4,0,0,1-6.318,18.252,29.52,29.52,0,1,1-46.373,0C626.1,356.366,682.765,339.824,682.765,343.135Z" transform="translate(-623.726 -277.055)"/></g><g class="a" transform="translate(650.266)"><ellipse class="b" cx="8.246" cy="10.796" rx="8.246" ry="10.796" transform="translate(31.634 222.866)"/><path class="b" d="M1080.915,414.387a13.033,13.033,0,0,1-1.724-6.6c0-5.963,3.7-10.8,8.253-10.8s8.246,4.833,8.246,10.8a13.045,13.045,0,0,1-1.724,6.6,13.486,13.486,0,0,1,0,13.195,13.486,13.486,0,0,1,0,13.195,13,13,0,0,1,1.724,6.6c0,5.956-3.7,10.8-8.246,10.8s-8.253-4.84-8.253-10.8a13,13,0,0,1,1.725-6.6,13.483,13.483,0,0,1,0-13.195A13.483,13.483,0,0,1,1080.915,414.387Z" transform="translate(-1047.563 -226.917)"/><ellipse class="b" cx="8.246" cy="10.796" rx="8.246" ry="10.796" transform="translate(31.634 156.893)"/><ellipse class="b" cx="8.246" cy="10.796" rx="8.246" ry="10.796" transform="translate(31.634 143.698)"/><path class="c" d="M1106.289,226.461a38.46,38.46,0,0,0,3.072-4.521l-21.665-3.558,23.433.174a39.577,39.577,0,0,0,.724-31.3l-31.439,16.31,28.983-21.317a39.512,39.512,0,1,0-65.213,44.2,39.5,39.5,0,0,0-4.507,7.2l28.135,14.651-29.99-10.064a39.511,39.511,0,0,0,6.369,37.1,39.5,39.5,0,1,0,62.1,0,39.5,39.5,0,0,0,0-48.851Z" transform="translate(-1035.541 -162.271)"/><path class="d" d="M1035.81,284.349a39.324,39.324,0,0,0,8.456,24.426,39.5,39.5,0,1,0,62.1,0C1111.659,302.05,1035.81,279.914,1035.81,284.349Z" transform="translate(-1035.615 -195.733)"/></g><g class="a" transform="translate(580.862 60.743)"><ellipse class="e" cx="6.166" cy="8.065" rx="6.166" ry="8.065" transform="translate(23.515 166.406)"/><path class="e" d="M973.513,434.319a9.73,9.73,0,0,1-1.283-4.927c0-4.456,2.761-8.072,6.159-8.072s6.166,3.623,6.166,8.072a9.658,9.658,0,0,1-1.29,4.927,10.072,10.072,0,0,1,0,9.862,10.072,10.072,0,0,1,0,9.861,9.659,9.659,0,0,1,1.29,4.927c0,4.456-2.76,8.072-6.166,8.072s-6.159-3.623-6.159-8.072a9.73,9.73,0,0,1,1.283-4.927,10.144,10.144,0,0,1,0-9.861A10.144,10.144,0,0,1,973.513,434.319Z" transform="translate(-948.7 -294.361)"/><ellipse class="e" cx="6.166" cy="8.065" rx="6.166" ry="8.065" transform="translate(23.515 117.105)"/><ellipse class="e" cx="6.166" cy="8.065" rx="6.166" ry="8.065" transform="translate(23.515 107.243)"/><path class="e" d="M992.509,293.931a28.271,28.271,0,0,0,2.3-3.377l-16.195-2.659,17.513.13a29.592,29.592,0,0,0,.565-23.4l-23.5,12.195,21.672-15.941a29.527,29.527,0,1,0-48.757,33.041,29.856,29.856,0,0,0-3.369,5.384l21.013,10.919-22.368-7.514a29.534,29.534,0,0,0,4.76,27.723,29.52,29.52,0,1,0,46.373,0,29.52,29.52,0,0,0,0-36.5Z" transform="translate(-939.757 -246.103)"/><path class="f" d="M939.794,337.135a29.4,29.4,0,0,0,6.318,18.252,29.519,29.519,0,1,0,46.373,0C996.457,350.366,939.794,333.824,939.794,337.135Z" transform="translate(-939.763 -271.055)"/></g><g class="a" transform="translate(5.296 0.121)"><ellipse class="e" cx="8.246" cy="10.796" rx="8.246" ry="10.796" transform="translate(31.085 222.745)"/><path class="e" d="M116.977,414.387a13.043,13.043,0,0,0,1.724-6.6c0-5.963-3.7-10.8-8.246-10.8s-8.246,4.833-8.246,10.8a13.043,13.043,0,0,0,1.717,6.6,13.528,13.528,0,0,0,0,13.195,13.528,13.528,0,0,0,0,13.195,12.991,12.991,0,0,0-1.717,6.6c0,5.956,3.688,10.8,8.246,10.8s8.268-4.826,8.268-10.782a13,13,0,0,0-1.725-6.6,13.485,13.485,0,0,0,0-13.195,13.485,13.485,0,0,0,0-13.195Z" transform="translate(-71.124 -227.038)"/><ellipse class="e" cx="8.246" cy="10.796" rx="8.246" ry="10.796" transform="translate(31.085 156.772)"/><ellipse class="e" cx="8.246" cy="10.796" rx="8.246" ry="10.796" transform="translate(31.085 143.577)"/><path class="e" d="M67.78,226.507a39.36,39.36,0,0,1-3.072-4.521l21.672-3.558-23.455.21a39.577,39.577,0,0,1-.725-31.3l31.447,16.31L64.664,182.329a39.5,39.5,0,1,1,65.213,44.2,39.516,39.516,0,0,1,4.507,7.2l-28.143,14.615,30-10.064a39.555,39.555,0,0,1-6.376,37.1,39.5,39.5,0,1,1-62.1,0,39.5,39.5,0,0,1,0-48.851Z" transform="translate(-59.309 -162.439)"/><path class="f" d="M138.318,284.349a39.323,39.323,0,0,1-8.456,24.426,39.5,39.5,0,1,1-62.1,0C62.469,302.05,138.318,279.914,138.318,284.349Z" transform="translate(-59.309 -195.854)"/></g><g class="a" transform="translate(94.834 60.743)"><ellipse class="e" cx="6.166" cy="8.065" rx="6.166" ry="8.065" transform="translate(23.223 166.406)"/><path class="e" d="M225.973,434.319a9.732,9.732,0,0,0,1.282-4.927c0-4.456-2.753-8.072-6.159-8.072s-6.166,3.623-6.166,8.072a9.731,9.731,0,0,0,1.29,4.927,10.072,10.072,0,0,0,0,9.862,10.071,10.071,0,0,0,0,9.861,9.731,9.731,0,0,0-1.29,4.927c0,4.456,2.761,8.072,6.166,8.072s6.159-3.623,6.159-8.072a9.732,9.732,0,0,0-1.282-4.927,10.144,10.144,0,0,0,0-9.861A10.145,10.145,0,0,0,225.973,434.319Z" transform="translate(-191.707 -294.361)"/><ellipse class="e" cx="6.166" cy="8.065" rx="6.166" ry="8.065" transform="translate(23.223 117.105)"/><ellipse class="e" cx="6.166" cy="8.065" rx="6.166" ry="8.065" transform="translate(23.223 107.244)"/><path class="e" d="M189.2,293.931a29.132,29.132,0,0,1-2.3-3.377l16.195-2.659-17.513.13a29.592,29.592,0,0,1-.565-23.4l23.5,12.195-21.672-15.941A29.527,29.527,0,1,1,235.6,293.923a29.077,29.077,0,0,1,3.369,5.384l-21.013,10.919,22.411-7.521a29.533,29.533,0,0,1-4.76,27.723,29.52,29.52,0,1,1-46.373,0,29.519,29.519,0,0,1,0-36.5Z" transform="translate(-182.88 -246.103)"/><path class="f" d="M241.924,337.135a29.4,29.4,0,0,1-6.318,18.252,29.519,29.519,0,1,1-46.373,0C185.248,350.366,241.924,333.824,241.924,337.135Z" transform="translate(-182.886 -271.055)"/></g><ellipse class="g" cx="365.876" cy="6.42" rx="365.876" ry="6.42" transform="translate(0 351.154)"/><ellipse class="g" cx="365.876" cy="6.42" rx="365.876" ry="6.42" transform="translate(0 403.867)"/><ellipse class="g" cx="365.876" cy="6.42" rx="365.876" ry="6.42" transform="translate(0 241.141)"/><ellipse class="g" cx="365.876" cy="6.42" rx="365.876" ry="6.42" transform="translate(0 296.144)"/><path class="g" d="M845.689,266.291a13.259,13.259,0,0,0-7.681.841,11.34,11.34,0,0,1-9.231,0,12.955,12.955,0,0,0-10.869.21,6.694,6.694,0,0,1-3.123.783c-4.405,0-8.065-4.434-8.826-10.282a8.6,8.6,0,0,0,2.174-2.369c2.58-4.159,6.572-6.833,11.064-6.833s8.434,2.638,11.014,6.753a8.463,8.463,0,0,0,7.311,4.014h.116C841.182,259.371,844.218,262.182,845.689,266.291Z" transform="translate(-304.834 -186.059)"/><path class="g" d="M859.1,241.7l-7.115,4.507,4.347-7.854a7.029,7.029,0,0,0-4.3-1.529h-.116a8.219,8.219,0,0,1-1.449-.109l-2.449,1.529,1.036-1.884a8.541,8.541,0,0,1-4.224-3.2l-4.348,2.739,2.725-4.956a12.627,12.627,0,0,0-9.666-4.884c-4.492,0-8.485,2.666-11.072,6.826a8.267,8.267,0,0,1-7.311,3.942h-.239c-4.956,0-8.97,5.616-8.97,12.543s4.014,12.55,8.97,12.55a6.8,6.8,0,0,0,3.123-.782,12.941,12.941,0,0,1,10.869-.217,11.267,11.267,0,0,0,9.231,0,12.985,12.985,0,0,1,10.767.21,6.737,6.737,0,0,0,3.086.768c4.956,0,8.971-5.623,8.971-12.55A15.894,15.894,0,0,0,859.1,241.7Z" transform="translate(-305.762 -179.84)"/><path class="g" d="M432.7,262.894a9.3,9.3,0,0,0-5.384.587,7.911,7.911,0,0,1-6.456,0,9.043,9.043,0,0,0-7.6.152,4.8,4.8,0,0,1-2.174.543c-3.079,0-5.645-3.1-6.181-7.2a6.033,6.033,0,0,0,1.543-1.659,8.658,8.658,0,0,1,15.455-.058,5.934,5.934,0,0,0,5.123,2.811h.08C429.536,258.061,431.659,260.032,432.7,262.894Z" transform="translate(-170.013 -186.582)"/><path class="g" d="M442.073,245.7l-4.978,3.159,3.022-5.5a4.891,4.891,0,0,0-3.007-1.072h-.087a5.433,5.433,0,0,1-1.029-.08l-1.688,1.072.725-1.319a6.014,6.014,0,0,1-2.956-2.239l-3.021,1.913,1.913-3.463a8.847,8.847,0,0,0-6.768-3.427,9.268,9.268,0,0,0-7.746,4.782,5.8,5.8,0,0,1-5.123,2.761h-.167c-3.471,0-6.282,3.927-6.282,8.782s2.812,8.782,6.282,8.782a4.711,4.711,0,0,0,2.174-.551,9.058,9.058,0,0,1,7.594-.145,7.782,7.782,0,0,0,6.463.043,9.087,9.087,0,0,1,7.536.145,4.7,4.7,0,0,0,2.174.536c3.463,0,6.275-3.934,6.275-8.782A11.108,11.108,0,0,0,442.073,245.7Z" transform="translate(-170.301 -182.23)"/><path class="g" d="M321.59,341.3a9.29,9.29,0,0,1,5.377.587,7.928,7.928,0,0,0,6.463,0,9.071,9.071,0,0,1,7.6.145,4.689,4.689,0,0,0,2.174.551c3.079,0,5.645-3.108,6.173-7.2a5.9,5.9,0,0,1-1.536-1.659,8.667,8.667,0,0,0-15.463-.051,5.934,5.934,0,0,1-5.116,2.811h-.08C324.742,336.5,322.612,338.464,321.59,341.3Z" transform="translate(-142.153 -208.177)"/><path class="g" d="M308.142,324.138l4.985,3.159-3.029-5.492a4.92,4.92,0,0,1,3.014-1.08h.08a6.163,6.163,0,0,0,1.036-.072l1.688,1.065-.725-1.311a6.008,6.008,0,0,0,2.949-2.239l3.022,1.913-1.884-3.471a8.84,8.84,0,0,1,6.768-3.42,9.278,9.278,0,0,1,7.746,4.782,5.8,5.8,0,0,0,5.116,2.761h.174c3.463,0,6.275,3.934,6.275,8.782s-2.811,8.782-6.275,8.782a4.7,4.7,0,0,1-2.174-.543,9.042,9.042,0,0,0-7.6-.152,7.871,7.871,0,0,1-3.246.725,7.971,7.971,0,0,1-3.217-.681,9.072,9.072,0,0,0-7.528.145,4.7,4.7,0,0,1-2.174.536c-3.471,0-6.282-3.927-6.282-8.782A11.19,11.19,0,0,1,308.142,324.138Z" transform="translate(-137.439 -203.837)"/><path class="h" d="M713.219,623.564c1.891-3.507-.254-7.8-2.717-10.919s-5.478-6.376-5.413-10.354c.095-5.717,6.167-9.1,11.014-12.13a53.858,53.858,0,0,0,9.891-7.97,14.588,14.588,0,0,0,3.036-4.072c1.007-2.232.978-4.782.913-7.246q-.312-12.238-1.21-24.462" transform="translate(-270.252 -268.069)"/><path class="c" d="M743.673,542.616a8.919,8.919,0,0,0-4.456-7.311l-2,3.949.065-4.782a8.92,8.92,0,1,0,6.391,8.144Z" transform="translate(-276.829 -264.681)"/><path class="c" d="M722.085,624.258a8.92,8.92,0,0,1-16.839-3.623,8.694,8.694,0,0,1,.58-3.623,8.927,8.927,0,0,1,16.666.094l-5.572,4.536,6.13-1.449A8.871,8.871,0,0,1,722.085,624.258Z" transform="translate(-269.951 -285.951)"/><path class="c" d="M718.86,598.491a8.92,8.92,0,0,1-2.826-17.5l-.051,3.674,2.022-4h0a8.922,8.922,0,0,1,.833,17.825Z" transform="translate(-271.381 -277.501)"/><path class="c" d="M748.734,578.6a8.92,8.92,0,1,1,3.942-16.665l-1.572,4.348,3.21-3.174a8.92,8.92,0,0,1-5.608,15.484Z" transform="translate(-281.337 -272.026)"/><path class="d" d="M742.465,546.852c-2.058.225-4.058.862-6.13.993s-4.347-.369-5.637-1.971a28.591,28.591,0,0,1-1.652-2.9,6.347,6.347,0,0,0-2.246-2.116,8.92,8.92,0,1,0,16.665,5.927C743.139,546.794,742.8,546.816,742.465,546.852Z" transform="translate(-276.812 -266.541)"/><path class="d" d="M748.749,580.544a8.92,8.92,0,0,1-8.485-12.724,6.6,6.6,0,0,1,1.79,1.8,30.264,30.264,0,0,0,1.768,2.949c1.391,1.63,3.768,2.174,5.92,2.065s4.232-.725,6.376-.906c.3,0,.594-.043.9-.051A8.92,8.92,0,0,1,748.749,580.544Z" transform="translate(-281.343 -273.966)"/><path class="d" d="M718.861,600.5A8.92,8.92,0,0,1,710.3,587.94a7.247,7.247,0,0,1,1.891,1.811,29.888,29.888,0,0,0,1.935,3.007c1.5,1.674,4.036,2.268,6.311,2.174s4.348-.587,6.521-.724A8.934,8.934,0,0,1,718.861,600.5Z" transform="translate(-271.364 -279.507)"/><path class="d" d="M722.085,626.416a8.92,8.92,0,0,1-16.839-3.623,8.694,8.694,0,0,1,.58-3.623,8.91,8.91,0,0,1,1.957,1.746c.848,1.029,1.405,2.174,2.391,3.166,1.819,1.79,4.768,2.529,7.384,2.594A37.533,37.533,0,0,0,722.085,626.416Z" transform="translate(-269.904 -288.109)"/><path class="h" d="M103.219,551.564c1.891-3.507-.254-7.8-2.717-10.919s-5.478-6.391-5.413-10.354c.094-5.717,6.166-9.1,11.014-12.13a53.83,53.83,0,0,0,9.891-7.97,14.586,14.586,0,0,0,3.036-4.072c1.007-2.232.978-4.782.913-7.246q-.319-12.238-1.21-24.462" transform="translate(-63.867 -248.239)"/><path class="c" d="M133.673,470.616a8.92,8.92,0,0,0-4.456-7.311l-2,3.949.065-4.782a8.92,8.92,0,1,0,6.391,8.144Z" transform="translate(-69.583 -244.851)"/><path class="c" d="M112.085,552.258a8.92,8.92,0,0,1-16.839-3.623,8.7,8.7,0,0,1,.58-3.623,8.927,8.927,0,0,1,16.665.094l-5.572,4.536,6.13-1.449a8.868,8.868,0,0,1-.964,4.065Z" transform="translate(-63.907 -266.121)"/><path class="c" d="M108.86,526.491a8.92,8.92,0,0,1-2.826-17.5l-.051,3.674,2.022-4h0a8.922,8.922,0,0,1,.833,17.825Z" transform="translate(-65.088 -257.671)"/><path class="c" d="M138.735,506.6a8.92,8.92,0,1,1,3.942-16.665l-1.572,4.348,3.21-3.174a8.92,8.92,0,0,1-5.608,15.484Z" transform="translate(-73.305 -252.196)"/><path class="d" d="M132.465,474.852c-2.058.225-4.058.862-6.13.993s-4.347-.37-5.637-1.971a28.6,28.6,0,0,1-1.652-2.9,6.346,6.346,0,0,0-2.246-2.116,8.92,8.92,0,1,0,16.665,5.927C133.139,474.794,132.8,474.816,132.465,474.852Z" transform="translate(-69.578 -246.711)"/><path class="d" d="M138.749,508.544a8.919,8.919,0,0,1-8.485-12.724,6.6,6.6,0,0,1,1.79,1.8,30.233,30.233,0,0,0,1.768,2.949c1.391,1.63,3.768,2.174,5.92,2.065s4.232-.725,6.376-.906c.3,0,.594-.044.9-.051A8.919,8.919,0,0,1,138.749,508.544Z" transform="translate(-73.319 -254.136)"/><path class="d" d="M108.861,528.5A8.92,8.92,0,0,1,100.3,515.94a7.246,7.246,0,0,1,1.891,1.812,29.878,29.878,0,0,0,1.935,3.007c1.5,1.674,4.036,2.268,6.311,2.174s4.348-.587,6.521-.725A8.934,8.934,0,0,1,108.861,528.5Z" transform="translate(-65.089 -259.678)"/><path class="d" d="M112.085,554.416a8.92,8.92,0,0,1-16.839-3.623,8.7,8.7,0,0,1,.58-3.623,8.915,8.915,0,0,1,1.956,1.746c.848,1.029,1.406,2.174,2.391,3.166,1.819,1.79,4.768,2.529,7.383,2.594a37.47,37.47,0,0,0,4.529-.261Z" transform="translate(-63.907 -268.279)"/><path class="h" d="M506.155,469.2c-1.891-3.5.254-7.789,2.724-10.912s5.471-6.376,5.405-10.354c-.087-5.724-6.159-9.1-11.014-12.13a53.612,53.612,0,0,1-9.883-7.97,14.332,14.332,0,0,1-3.043-4.065c-1-2.239-.971-4.782-.913-7.246q.326-12.238,1.21-24.462" transform="translate(-198.175 -225.559)"/><path class="c" d="M478.386,388.256a8.913,8.913,0,0,1,4.449-7.311l2,3.949-.058-4.782a9.144,9.144,0,0,1,2.935-.355,8.92,8.92,0,1,1-9.325,8.5Z" transform="translate(-194.261 -222.168)"/><path class="c" d="M499.965,469.87a8.92,8.92,0,1,0-.427-7.181l5.572,4.536-6.13-1.449a8.87,8.87,0,0,0,.985,4.094Z" transform="translate(-201.135 -243.41)"/><path class="c" d="M503.188,444.131a8.92,8.92,0,0,0,2.833-17.5l.043,3.674-2.022-4h0a8.92,8.92,0,0,0-9.347,8.47,8.805,8.805,0,0,0,.384,3.043A8.912,8.912,0,0,0,503.188,444.131Z" transform="translate(-199.703 -234.988)"/><path class="c" d="M473.3,424.224a8.92,8.92,0,1,0-3.949-16.665l1.58,4.347-3.246-3.108a8.847,8.847,0,0,0-2.9,6.159,8.632,8.632,0,0,0,.225,2.456,8.913,8.913,0,0,0,8.289,6.811Z" transform="translate(-189.724 -229.507)"/><path class="d" d="M479.67,392.492c2.058.225,4.058.862,6.123.993s4.348-.37,5.645-1.971a28.587,28.587,0,0,0,1.645-2.9,6.369,6.369,0,0,1,2.253-2.116,8.92,8.92,0,1,1-16.665,5.92C479,392.427,479.329,392.456,479.67,392.492Z" transform="translate(-194.353 -224.027)"/><path class="d" d="M473.4,426.164a8.927,8.927,0,0,0,8.485-12.724,6.632,6.632,0,0,0-1.8,1.8,30.248,30.248,0,0,1-1.768,2.949c-1.384,1.63-3.761,2.174-5.913,2.065s-4.231-.725-6.376-.906c-.3,0-.6-.043-.9-.051A8.912,8.912,0,0,0,473.4,426.164Z" transform="translate(-189.834 -231.447)"/><path class="d" d="M503.341,446.137A8.912,8.912,0,0,0,511.9,433.58a7.122,7.122,0,0,0-1.884,1.812,29.893,29.893,0,0,1-1.935,3.007c-1.507,1.674-4.036,2.268-6.318,2.174s-4.348-.587-6.521-.725A8.913,8.913,0,0,0,503.341,446.137Z" transform="translate(-199.874 -236.994)"/><path class="d" d="M500.34,472.056a8.92,8.92,0,0,0,16.267-7.246,8.566,8.566,0,0,0-1.956,1.746c-.848,1.029-1.449,2.174-2.391,3.166-1.826,1.79-4.768,2.529-7.391,2.594A39.089,39.089,0,0,1,500.34,472.056Z" transform="translate(-201.556 -245.595)"/><circle class="i" cx="63.226" cy="63.226" r="63.226" transform="translate(454.868 109.616)"/><path class="j" d="M850.274,406.941c-2.521-2.522-8.586-6.326-11.593-7.746-3.471-1.667-4.746-1.638-7.2.138-2.043,1.449-3.369,2.848-5.717,2.333s-7-4.021-11.5-8.507-7.993-9.108-8.492-11.492.877-3.681,2.34-5.724c1.768-2.456,1.819-3.732.138-7.2-1.449-3.007-5.21-9.057-7.753-11.593s-3.094-1.978-4.485-1.449a25.942,25.942,0,0,0-4.109,2.174c-2.521,1.688-3.934,3.094-4.927,5.21s-2.116,6.043,3.659,16.325a91.068,91.068,0,0,0,16.013,21.353h0A91.212,91.212,0,0,0,828.073,416.8c10.275,5.8,14.209,4.645,16.325,3.659s3.522-2.384,5.2-4.927a25.59,25.59,0,0,0,2.174-4.108C852.252,410.035,852.817,409.47,850.274,406.941Z" transform="translate(-299.786 -215.42)"/><path class="k" d="M793.931,300.86a62.219,62.219,0,1,0,41.255,15.67A62.22,62.22,0,0,0,793.931,300.86Zm0,116.115a53.926,53.926,0,1,1,53.926-53.926A53.926,53.926,0,0,1,793.931,416.975Z" transform="translate(-275.792 -190.203)"/><circle class="i" cx="72.429" cy="72.429" r="72.429" transform="translate(294.809 210.425)"/><path class="j" d="M627.342,522.382l-21.687,22.063a.391.391,0,0,0,0,.565l15.216,16.18a2.618,2.618,0,1,1-3.7,3.7l-15.137-16.122a.413.413,0,0,0-.58,0l-3.688,3.724a16.209,16.209,0,0,1-11.593,4.876,16.563,16.563,0,0,1-11.8-5.014l-3.543-3.623a.413.413,0,0,0-.58,0l-15.1,16.086a2.618,2.618,0,1,1-3.7-3.7l15.158-16.144a.435.435,0,0,0,0-.565l-21.687-22.064a.4.4,0,0,0-.681.283v44.149a6.463,6.463,0,0,0,6.442,6.442H621.6a6.463,6.463,0,0,0,6.442-6.442V522.664a.4.4,0,0,0-.7-.283Z" transform="translate(-218.898 -261.409)"/><path class="j" d="M587.089,549.49A10.971,10.971,0,0,0,595,546.229l31.585-32.15a6.3,6.3,0,0,0-3.985-1.449H551.635a6.26,6.26,0,0,0-3.985,1.449l31.592,32.15A10.928,10.928,0,0,0,587.089,549.49Z" transform="translate(-219.84 -258.766)"/><path class="d" d="M573.265,452.69a72.458,72.458,0,1,0,72.422,72.434A72.458,72.458,0,0,0,573.265,452.69Zm0,135.222a62.8,62.8,0,1,1,62.8-62.8A62.8,62.8,0,0,1,573.265,587.912Z" transform="translate(-206.848 -242.257)"/><path class="i" d="M72.429,0a72.576,72.576,0,0,1,67.8,46.885A72.442,72.442,0,1,1,72.429,0Z" transform="translate(139.434 156.335)"/><path class="j" d="M353.875,430.16,325,496.778l2.7,2.7,26.186-11.55,26.187,11.55,2.7-2.7Z" transform="translate(-143.949 -236.052)"/><path class="k" d="M337.295,378a72.416,72.416,0,1,0,.012,0Zm0,135.222a51.725,51.725,0,1,1,.007.029Z" transform="translate(-125.427 -221.687)"/><path class="l" d="M827.783,591.922q-.985-2.406-2.021-4.8a14.243,14.243,0,0,0-2.471-4.268,4.517,4.517,0,0,0-1.449-1.087,6.184,6.184,0,0,0-1.891-.377,15.116,15.116,0,0,0-2.971-.08c-.384-.116-.819-.268-1.246-.442a10.347,10.347,0,0,0,7.71-9.6v-.442a10.326,10.326,0,0,0-10.282-10.369,10.145,10.145,0,0,0-5.4,1.543,9.687,9.687,0,0,0-10.869,5.239,11.978,11.978,0,0,0-3.7,8.912v.457c.188,5.63,3.826,10.144,8.42,10.6a4.828,4.828,0,0,0-1.333.891c-1.406,1.355-1.637,3.507-1.789,5.463l-.109,1.449-2.435.87a.449.449,0,0,0-.109.79l2.326,1.659v.413a1.81,1.81,0,0,0,.044.471,3.326,3.326,0,0,0-.9,1.283,5.93,5.93,0,0,0-.21,2.348l.087,2.021a15.873,15.873,0,0,0,.616,4.5c.3.9,1.623,3.065,2.572,3.08-.877,3.985-1.109,12.39-1.109,12.39-.109.109.2.21.725.3.521,4,2.224,15.216,5.246,20.151a42.472,42.472,0,0,1,1.138,4.9s.862,10.659,2,13.825c.971,2.7,1.739,9.347,1.949,11.275a1.108,1.108,0,0,0-.8.826c-.572,1.725-4.282,4.347-4.282,4.347a17.948,17.948,0,0,0-3.2,2.051c-1.167,1.051-1.123,2,4.058,1.406,10-1.152,11.709-4.347,11.709-4.347s-.159-.536-.4-1.232a13.37,13.37,0,0,0-1.312-3.094c-.145-.138-.29.094-.464.456a62.05,62.05,0,0,1-.681-13.992s.283-4.9-1.145-8.354a15.815,15.815,0,0,1,0-5.471c.572-2.3-2.283-13.542-2.283-13.542l-1.637-8.275a2.376,2.376,0,0,1,.457.964l.043.167.044.239a.446.446,0,0,0,.116.225c1.116,4.637,4.173,17.484,4.173,19.368,0,2.3,2.855,8.065,2.855,8.065s1.137,9.507,3.137,13.245c1.522,2.848,1.558,7.021,1.485,8.862h0s-.341,2.37-.913,2.942a6.994,6.994,0,0,0-1.079,1.877l-.065.138s-.855,1.732-.283,2.022a14.032,14.032,0,0,0,6.854.862s1.145-1.449,1.145-2.014a9.043,9.043,0,0,0-.13-1.029c-.21-1.362-.6-3.507-.609-3.529.239-.927-.725-3.507-.725-3.507l-.29-8.065a37.234,37.234,0,0,0-2-16.137s-1.449-5.181-1.138-6.623-.572-16.709-.572-16.709l-.087-.217a16.5,16.5,0,0,1,.087-3.239c.283-3.456-.855-10.659-1.145-10.941a9.5,9.5,0,0,1-.406-2.384c.065-.6.261-2.362.529-4.551a81.83,81.83,0,0,0,8.42-.724,1.052,1.052,0,0,0,.725-.29,1.015,1.015,0,0,0,.167-.587C831.015,600.153,829.428,595.936,827.783,591.922Zm-5.746,9.137c.3-2.065.616-4.065.935-5.55l.044.13a40.336,40.336,0,0,1,1.377,4.565A15.515,15.515,0,0,1,822.037,601.058Z" transform="translate(-300.424 -271.939)"/><path class="m" d="M802.37,648.465s1.71,15.383,5.413,21.361a41.516,41.516,0,0,1,1.138,4.84s.855,10.536,1.993,13.666,1.993,11.68,1.993,11.68,3.985,4.551,5.413.855a60.008,60.008,0,0,1-.855-14.81s.283-4.84-1.137-8.26a15.451,15.451,0,0,1,0-5.405c.565-2.282-2.283-13.383-2.283-13.383L811.768,647.9Z" transform="translate(-302.256 -296.021)"/><path class="n" d="M820.92,723.289s-1.71,3.13-11.673,4.268c-5.174.587-5.21-.348-4.043-1.391a18.036,18.036,0,0,1,3.188-2.029s3.7-2.558,4.268-4.268,2.565-.282,2.565-.282c2.848,4.268,3.42-1.145,3.985-.573a12.858,12.858,0,0,1,1.311,3.05C820.761,722.753,820.92,723.289,820.92,723.289Z" transform="translate(-303.016 -315.596)"/><path class="d" d="M820.92,724.465s-1.71,3.13-11.673,4.268c-5.174.587-5.21-.348-4.043-1.391.812.514,2.449.725,5.746-.6,4.746-1.942,8.188-3.065,9.572-3.5C820.761,723.928,820.92,724.465,820.92,724.465Z" transform="translate(-303.016 -316.771)"/><path class="d" d="M820.286,686.057s.283-4.84-1.138-8.26a15.445,15.445,0,0,1,0-5.405c.565-2.283-2.283-13.383-2.283-13.383L814.591,647.9l-1.971.116,2.253,10.992s2.848,11.1,2.282,13.383a15.458,15.458,0,0,0,0,5.405c1.449,3.42,1.138,8.26,1.138,8.26a60.006,60.006,0,0,0,.855,14.81,2.492,2.492,0,0,1-.826,1.174,1.861,1.861,0,0,0,2.819-1.174A60,60,0,0,1,820.286,686.057Z" transform="translate(-305.256 -296.021)"/><path class="b" d="M813.063,562.42a10.146,10.146,0,0,0-5.377,1.529,9.673,9.673,0,0,0-10.869,5.181,11.8,11.8,0,0,0-3.688,8.811c0,6.058,4.079,10.963,9.108,10.963,3.623,0,6.8-2.58,8.253-6.311a10,10,0,0,0,2.565.333,10.253,10.253,0,0,0,0-20.506Z" transform="translate(-299.975 -272.479)"/><path class="m" d="M827.894,650.65l.855,2.275s.855,15.093.566,16.52,1.145,6.521,1.145,6.521a36.455,36.455,0,0,1,1.992,15.941l.283,7.971s1.138,3.13.572,3.7-4.862-.507-4.862-.507.573-5.978-1.449-9.681-3.13-13.1-3.13-13.1-2.847-5.7-2.847-7.97-4.558-20.788-4.558-20.788Z" transform="translate(-307.015 -296.779)"/><path class="b" d="M801.572,643.446s.29-10.253,1.449-13.383a21.269,21.269,0,0,0,1.268-4.543s17.238,3.116,18.665,1.978c0,0,.283,3.985.573,4.268a40.943,40.943,0,0,1,1.137,10.825c-.311,3.42,0,3.413,0,3.413s-11.68,1.71-11.963,0-1.138-1.7-1.138-1.7S801.007,643.983,801.572,643.446Z" transform="translate(-302.39 -289.857)"/><g class="a" transform="translate(499.183 337.641)"><path d="M810.978,650.037s-7.2-.2-9.376-.587v.587c-.565.565,9.97.855,9.97.855a.724.724,0,0,1,.391.159C811.579,650.037,810.978,650.037,810.978,650.037Z" transform="translate(-801.58 -634.089)"/><path d="M827.7,632.518c-.29-.282-.572-4.268-.572-4.268a1.226,1.226,0,0,1-.485.174,14.414,14.414,0,0,0,.485,3.239,45.245,45.245,0,0,1,1.137,10.825c-.312,3.42,0,3.413,0,3.413s-9.238,1.355-11.477.449a3.443,3.443,0,0,0,.087.406c.283,1.71,11.963,0,11.963,0s-.29,0,0-3.413A42.327,42.327,0,0,0,827.7,632.518Z" transform="translate(-805.769 -628.25)"/><path d="M810.978,650.037s-7.2-.2-9.376-.587v.587c-.565.565,9.97.855,9.97.855a.724.724,0,0,1,.391.159C811.579,650.037,810.978,650.037,810.978,650.037Z" transform="translate(-801.58 -634.089)"/><path d="M827.7,632.518c-.29-.282-.572-4.268-.572-4.268a1.226,1.226,0,0,1-.485.174,14.414,14.414,0,0,0,.485,3.239,45.245,45.245,0,0,1,1.137,10.825c-.312,3.42,0,3.413,0,3.413s-9.238,1.355-11.477.449a3.443,3.443,0,0,0,.087.406c.283,1.71,11.963,0,11.963,0s-.29,0,0-3.413A42.327,42.327,0,0,0,827.7,632.518Z" transform="translate(-805.769 -628.25)"/></g><path class="m" d="M816.57,586.067a3.774,3.774,0,0,0,1.087,1.406,2.436,2.436,0,0,0,1.022.442c-.638.37-1.333.645-1.971,1.014a35.031,35.031,0,0,0-2.9,2.174,5.9,5.9,0,0,1-3.326,1.29,4.072,4.072,0,0,0,.464-4.05,3.79,3.79,0,0,1-.507-1.406,2.526,2.526,0,0,1,1.4-1.884c.543-.37,1.1-.724,1.667-1.08.442-.275,1.108-.855,1.666-.833s.623.514.725,1.021A8.015,8.015,0,0,0,816.57,586.067Z" transform="translate(-304.515 -278.186)"/><path class="d" d="M816.57,586.067a3.774,3.774,0,0,0,1.087,1.406,2.436,2.436,0,0,0,1.022.442c-.638.37-1.333.645-1.971,1.014a35.031,35.031,0,0,0-2.9,2.174,5.9,5.9,0,0,1-3.326,1.29,4.072,4.072,0,0,0,.464-4.05,3.79,3.79,0,0,1-.507-1.406,2.526,2.526,0,0,1,1.4-1.884c.543-.37,1.1-.724,1.667-1.08.442-.275,1.108-.855,1.666-.833s.623.514.725,1.021A8.015,8.015,0,0,0,816.57,586.067Z" transform="translate(-304.515 -278.186)"/><circle class="m" cx="6.55" cy="6.55" r="6.55" transform="translate(511.407 311.584)"/><path class="n" d="M837.776,727.065c0,.573-1.138,1.992-1.138,1.992a14.1,14.1,0,0,1-6.833-.855c-.572-.282.283-1.992.283-1.992l.065-.138a6.9,6.9,0,0,1,1.079-1.855c.565-.565.906-2.9.906-2.9,1.768-2.9,4.905,1.253,4.905,1.253s.4,2.174.609,3.492A9.941,9.941,0,0,1,837.776,727.065Z" transform="translate(-310.892 -315.959)"/><path class="d" d="M837.776,729.255c0,.572-1.138,1.992-1.138,1.992a14.1,14.1,0,0,1-6.833-.855c-.572-.282.283-1.992.283-1.992l.065-.138a13.767,13.767,0,0,0,6.2,1.275l1.3-1.3C837.725,728.726,837.776,729.11,837.776,729.255Z" transform="translate(-310.892 -318.148)"/><circle class="m" cx="6.405" cy="6.405" r="6.405" transform="translate(499.503 298.057)"/><path class="m" d="M802.111,599.489c-1.406,1.34-1.638,3.464-1.783,5.4l-.217,2.833a14.331,14.331,0,0,0-.051,2.3c0,.471.116.949.16,1.449s.058,1.13.065,1.7v4.188a4.938,4.938,0,0,0,.464,2.514,1.71,1.71,0,0,0,2.174.783,2.479,2.479,0,0,0,.9-1.391,21.623,21.623,0,0,0,1.449-5.3c.058-.63.065-1.261.123-1.891s.167-1.29.261-1.927c.406-2.666.587-5.362.768-8.05.051-.8.768-3.935-.275-4.282-.507-.167-1.558.355-2.043.529A5.751,5.751,0,0,0,802.111,599.489Z" transform="translate(-300.966 -282.216)"/><path class="d" d="M802.111,599.489c-1.406,1.34-1.638,3.464-1.783,5.4l-.217,2.833a14.331,14.331,0,0,0-.051,2.3c0,.471.116.949.16,1.449s.058,1.13.065,1.7v4.188a4.938,4.938,0,0,0,.464,2.514,1.71,1.71,0,0,0,2.174.783,2.479,2.479,0,0,0,.9-1.391,21.623,21.623,0,0,0,1.449-5.3c.058-.63.065-1.261.123-1.891s.167-1.29.261-1.927c.406-2.666.587-5.362.768-8.05.051-.8.768-3.935-.275-4.282-.507-.167-1.558.355-2.043.529A5.751,5.751,0,0,0,802.111,599.489Z" transform="translate(-300.966 -282.216)"/><path class="n" d="M816.614,588.16s-4.84,3.7-7.688,4.558c0,0-1.688,1.927-1.978,2.391s-.87,5.579-1.449,6.724-1.993,3.7,0,6.26a10.851,10.851,0,0,1,.282,3.42c-.282.855-1.319,3.985-.377,4.13s3.8,2.13,6.355,1.565,12.108,2.174,12.108,2.174,1.58-14.673,2.724-17.267l-2.565-.855s-7.115-4.268-2.848-10.818C821.172,590.443,817.172,589.588,816.614,588.16Z" transform="translate(-303.306 -279.568)"/><path class="b" d="M796.771,611.129l5.883,4.166a.435.435,0,0,0,.515,0l1.594-1.2a.449.449,0,0,0,0-.681l-4.529-4.021a.434.434,0,0,0-.442-.087l-2.906,1.043a.442.442,0,0,0-.116.775Z" transform="translate(-299.908 -285.386)"/><path class="m" d="M799.289,624.888a15.769,15.769,0,0,1-.616-4.442l-.087-2.007a5.792,5.792,0,0,1,.21-2.319,3.791,3.791,0,0,1,2.442-2.138,8.434,8.434,0,0,1,3.326-.239.857.857,0,0,1,.427.116.8.8,0,0,1,.232.391,2.623,2.623,0,0,1,.13,2.094,2.173,2.173,0,0,1-.667.688c-.79.565-1.71.942-2.456,1.558a.892.892,0,0,0-.333.42.978.978,0,0,0,0,.456,7.3,7.3,0,0,0,.377,1.167,1.154,1.154,0,0,0,.326.493c.138.116.319.159.464.268.312.254.964.587.928.986-.109,1.449-.978,3.072-1.319,4.507C802.021,629.692,799.709,626.113,799.289,624.888Z" transform="translate(-300.487 -286.596)"/><g class="a" transform="translate(506.478 322.12)"><path d="M812.14,628.224h-.16a4.877,4.877,0,0,0,1.862,0h.181A6.521,6.521,0,0,0,812.14,628.224Z" transform="translate(-811.98 -612.703)"/><path d="M831.767,606.83c-1.022,2.3-2.529,14.738-2.8,17.209,1,.261,1.659.449,1.659.449s1.565-14.637,2.71-17.23Z" transform="translate(-816.659 -606.83)"/></g><path class="m" d="M823.872,598.641a2.174,2.174,0,0,0,.935,1.413,12.537,12.537,0,0,1,1.659,1.681,11.9,11.9,0,0,1,1.645,3.3,40.35,40.35,0,0,1,1.37,4.507c-3.623,1.681-7.739,1.6-11.593,2.71a9.256,9.256,0,0,0-4.348,2.572,5.992,5.992,0,0,0-1.6,4.717.493.493,0,0,0,.594.485,4.348,4.348,0,0,0,2.659-.913,12.654,12.654,0,0,0,2.036-2,3.276,3.276,0,0,1,1.449-1.073,23.715,23.715,0,0,1,6.521-.638,82.149,82.149,0,0,0,9.717-.768.783.783,0,0,0,.87-.869c.319-4.275-1.268-8.449-2.9-12.412q-.978-2.384-2.014-4.746a14.06,14.06,0,0,0-2.464-4.217,4.346,4.346,0,0,0-1.449-1.072,6.121,6.121,0,0,0-1.942-.362,13.761,13.761,0,0,0-3.181-.058,6.789,6.789,0,0,0-.3,1.645,14.255,14.255,0,0,0,1.754,5.558C823.394,598.366,823.706,598.38,823.872,598.641Z" transform="translate(-305.893 -280.303)"/><path class="o" d="M812.134,606.67a5.31,5.31,0,0,0-.725,2.768,3.738,3.738,0,0,0,.181,1.13,3.668,3.668,0,0,0,2.312,2.174" transform="translate(-304.52 -284.666)"/><path class="b" d="M812.515,572.953a3.322,3.322,0,0,0-1.051.167c-.949-1.449-3.181-2.449-5.8-2.449-3.464,0-6.268,1.789-6.268,3.992s2.8,3.985,6.268,3.985a8.818,8.818,0,0,0,3.761-.8,3.413,3.413,0,1,0,3.072-4.9Z" transform="translate(-301.297 -274.751)"/><path class="d" d="M812.792,579.971a3.406,3.406,0,0,1-3.073-1.935,8.819,8.819,0,0,1-3.76.8c-3.456,0-6.26-1.783-6.26-3.985a2.386,2.386,0,0,1,0-.4,2.7,2.7,0,0,0-.319,1.254c0,2.174,2.8,3.985,6.268,3.985a8.821,8.821,0,0,0,3.76-.8,3.413,3.413,0,0,0,6.427-.848,3.4,3.4,0,0,1-3.043,1.927Z" transform="translate(-301.287 -275.792)"/><path class="d" d="M796.813,570.811a9.673,9.673,0,0,1,10.869-5.181,10.246,10.246,0,0,1,15.593,7.869v-.855a10.245,10.245,0,0,0-15.629-8.695,9.673,9.673,0,0,0-10.869,5.181,11.794,11.794,0,0,0-3.688,8.811v.855A11.593,11.593,0,0,1,796.813,570.811Z" transform="translate(-299.962 -272.479)"/><path class="h" d="M885.3,547.677c1.891-3.5-.253-7.8-2.725-10.92s-5.47-6.369-5.405-10.354c.087-5.717,6.159-9.093,11.014-12.129a53.537,53.537,0,0,0,9.883-7.97,14.453,14.453,0,0,0,3.043-4.065c1-2.239.971-4.782.913-7.246q-.319-12.245-1.21-24.462" transform="translate(-327.758 -247.171)"/><path class="c" d="M915.743,466.7a8.9,8.9,0,0,0-4.449-7.3l-2,3.949.058-4.782a8.75,8.75,0,0,0-2.935-.355,8.92,8.92,0,1,0,9.325,8.492Z" transform="translate(-334.24 -243.774)"/><path class="c" d="M894.165,548.319a8.919,8.919,0,1,1,.428-7.188l-5.572,4.536,6.13-1.449A8.871,8.871,0,0,1,894.165,548.319Z" transform="translate(-327.366 -265.015)"/><path class="c" d="M890.937,522.574a8.92,8.92,0,0,1-2.833-17.5l-.044,3.674,2.022-3.992h0a8.922,8.922,0,1,1,.833,17.825Z" transform="translate(-328.792 -256.595)"/><path class="c" d="M920.807,502.694a8.92,8.92,0,1,1,3.949-16.665l-1.58,4.347,3.246-3.116a8.869,8.869,0,0,1,2.9,6.159,8.608,8.608,0,0,1-.224,2.456A8.92,8.92,0,0,1,920.807,502.694Z" transform="translate(-338.755 -251.119)"/><path class="d" d="M914.544,470.932c-2.058.232-4.065.869-6.13,1s-4.348-.37-5.645-1.978a27.658,27.658,0,0,1-1.645-2.9,6.41,6.41,0,0,0-2.246-2.116,8.92,8.92,0,1,0,16.665,5.92C915.21,470.874,914.877,470.9,914.544,470.932Z" transform="translate(-334.223 -245.631)"/><path class="d" d="M920.821,504.634a8.927,8.927,0,0,1-8.485-12.724,6.6,6.6,0,0,1,1.8,1.79,28.518,28.518,0,0,0,1.768,2.949c1.384,1.638,3.761,2.174,5.913,2.072s4.232-.725,6.376-.906c.3,0,.6-.051.9-.058A8.919,8.919,0,0,1,920.821,504.634Z" transform="translate(-338.753 -253.059)"/><path class="d" d="M890.937,524.572A8.912,8.912,0,0,1,882.38,512a7.353,7.353,0,0,1,1.884,1.812c.724.978,1.123,2.109,1.935,3.007,1.507,1.681,4.036,2.268,6.318,2.217s4.348-.594,6.521-.761A8.919,8.919,0,0,1,890.937,524.572Z" transform="translate(-328.769 -258.592)"/><path class="d" d="M894.184,550.506a8.927,8.927,0,0,1-16.267-7.246,8.749,8.749,0,0,1,1.956,1.746c.855,1.036,1.413,2.174,2.391,3.174,1.826,1.79,4.768,2.522,7.391,2.594a39.058,39.058,0,0,0,4.529-.268Z" transform="translate(-327.326 -267.202)"/><path class="h" d="M1044.3,699.676c1.891-3.5-.253-7.8-2.724-10.919s-5.47-6.369-5.405-10.355c.087-5.717,6.159-9.093,11.014-12.129a53.545,53.545,0,0,0,9.884-7.97,14.433,14.433,0,0,0,3.043-4.065c1-2.239.971-4.782.913-7.246q-.311-12.245-1.21-24.462" transform="translate(-385.448 -289.034)"/><path class="c" d="M1074.757,618.7a8.9,8.9,0,0,0-4.449-7.3l-2,3.949.058-4.782a8.748,8.748,0,0,0-2.9-.355,8.92,8.92,0,1,0,9.325,8.492Z" transform="translate(-391.175 -285.638)"/><path class="c" d="M1053.164,700.319a8.919,8.919,0,1,1,.428-7.188l-5.572,4.536,6.13-1.449A8.865,8.865,0,0,1,1053.164,700.319Z" transform="translate(-385.487 -306.879)"/><path class="c" d="M1049.937,674.574a8.92,8.92,0,0,1-2.833-17.5l-.044,3.674,2.022-3.992h0a8.922,8.922,0,1,1,.833,17.825Z" transform="translate(-386.665 -298.458)"/><path class="c" d="M1079.807,654.694a8.92,8.92,0,1,1,3.949-16.665l-1.579,4.347,3.246-3.116a8.869,8.869,0,0,1,2.9,6.159,8.617,8.617,0,0,1-.225,2.456A8.92,8.92,0,0,1,1079.807,654.694Z" transform="translate(-394.885 -292.982)"/><path class="d" d="M1073.544,622.932c-2.058.232-4.065.87-6.13,1s-4.348-.37-5.645-1.978a27.63,27.63,0,0,1-1.645-2.9,6.409,6.409,0,0,0-2.246-2.116,8.919,8.919,0,1,0,16.665,5.92C1074.211,622.875,1073.877,622.9,1073.544,622.932Z" transform="translate(-391.158 -287.495)"/><path class="d" d="M1079.821,656.634a8.927,8.927,0,0,1-8.485-12.724,6.607,6.607,0,0,1,1.8,1.79,28.655,28.655,0,0,0,1.768,2.949c1.384,1.637,3.761,2.174,5.913,2.072s4.232-.725,6.376-.906c.3,0,.6-.051.9-.058A8.919,8.919,0,0,1,1079.821,656.634Z" transform="translate(-394.899 -294.922)"/><path class="d" d="M1049.937,676.572A8.913,8.913,0,0,1,1041.38,664a7.357,7.357,0,0,1,1.884,1.812c.725.978,1.123,2.109,1.935,3.007,1.507,1.681,4.036,2.268,6.318,2.217s4.347-.594,6.521-.761A8.92,8.92,0,0,1,1049.937,676.572Z" transform="translate(-386.665 -300.456)"/><path class="d" d="M1053.184,702.506a8.927,8.927,0,0,1-16.267-7.246,8.733,8.733,0,0,1,1.956,1.746c.855,1.036,1.449,2.174,2.391,3.174,1.826,1.789,4.768,2.521,7.391,2.594A39.129,39.129,0,0,0,1053.184,702.506Z" transform="translate(-385.507 -309.065)"/><path class="p" d="M493.073,580.176a7.108,7.108,0,0,0-2.833-5.739,8.332,8.332,0,0,0-6.963-8.173,8.318,8.318,0,0,0-5.543-6.2h0a7.085,7.085,0,0,0-1.029-.239h-1.225A8.159,8.159,0,0,0,467.6,566.8c-2.543-.587-4.869.174-5.3,1.782a2.175,2.175,0,0,0,.072,1.29,5.607,5.607,0,0,0,3.739,3.029l.246.073.37.094h.08a6.408,6.408,0,0,0-.609,2.746,6.334,6.334,0,0,0,3.413,5.652l-.167.1a2.262,2.262,0,0,0-.551.768,11.486,11.486,0,0,0-1.065,2.565c-.181.768-.21,1.565-.435,2.326-.42,1.4-1.493,2.579-1.616,4.036-.058.652.051,1.449-.413,1.87a2.249,2.249,0,0,1-.37.261,2.994,2.994,0,0,0-.8.848,2.815,2.815,0,0,1-.565.812c-.42.311-1.109.282-1.311.768s.326,1.058.2,1.587-.572.63-.9.927a3.223,3.223,0,0,0-.775,1.449,4.752,4.752,0,0,1-3.913-1,7.323,7.323,0,0,1,.406,1.449,6.344,6.344,0,0,0-2.109-1.058,6.66,6.66,0,0,1-2.246-1.666l1.2-.167-5.311-8.108-1.572-.326,1.406,2.7a.862.862,0,0,0-.478.572,2.454,2.454,0,0,0-.051.92,16.464,16.464,0,0,0,.362,2.174l.406,1.9c.036.174.08.355.13.529a4.988,4.988,0,0,0-1.572.174,13.693,13.693,0,0,0-3.268-.775,1.817,1.817,0,0,0-.724,0,1.878,1.878,0,0,0-.688.558,22.29,22.29,0,0,0-2.427,3.42c-2.9,4.971-6.673,9.311-10.246,13.8-2.464,1-4.949,1.949-7.434,2.9l-5.347,2.043a8.106,8.106,0,0,1-3.319.725c-.507,0-1.138-.109-1.449.326a3.047,3.047,0,0,0-.326.725l-.551.058h0a6.33,6.33,0,0,0-1.282-2.362.811.811,0,0,0-.6.464c-.13.239-.21.5-.362.724-.283.42-.783.623-1.138.978s-.58.906-.971,1.268a3.838,3.838,0,0,1-1.819.725,11.487,11.487,0,0,0-2.848,1.08,4.59,4.59,0,0,1-1.051.486,3.948,3.948,0,0,1-1.239.043l-2.826-.21a2.231,2.231,0,0,0-.761.036,1.449,1.449,0,0,0-.9,1.449,2.281,2.281,0,0,0,.9,1.558,5.744,5.744,0,0,0,1.609.833,47.212,47.212,0,0,0,7.536,2.232v.572a12.862,12.862,0,0,0,5.8,1.377.9.9,0,0,0,.435-.08.957.957,0,0,0,.362-.565,23.307,23.307,0,0,0,1.13-5.55h0a2.9,2.9,0,0,0,1.022-.261c.971-.268,1.942.4,2.949.507,1.239.138,2.384-.587,3.558-1.029l.507-.167a5.566,5.566,0,0,1-1.174,1.123c-.486.348-1.029.609-1.5.971a10.322,10.322,0,0,1-1.275.986,8.026,8.026,0,0,1-.978.377,6.446,6.446,0,0,0-1.4.725,2.833,2.833,0,0,0-.949.927,1.391,1.391,0,0,0-.08,1.3,1.376,1.376,0,0,0,.935.652,3.833,3.833,0,0,0,1.152,0c1.536-.116,3.065-.253,4.594-.391a12.237,12.237,0,0,0,1.92-.275c.333-.08.667-.188,1-.283a8.933,8.933,0,0,1,1.746-.261,1.455,1.455,0,0,1,.507.051c.355.116.609.478.971.551a1.448,1.448,0,0,0,.725-.094,16.167,16.167,0,0,1,3.4-.362,1.4,1.4,0,0,0,1.319-.587c.232-.464-.188-1.21-.377-1.826a5.6,5.6,0,0,1-.159-1.2,7.53,7.53,0,0,0-.841-2.855,7.478,7.478,0,0,1-.63-1.3,32.935,32.935,0,0,0,6.253-3.174,11.181,11.181,0,0,1,3.565-1.717,9.694,9.694,0,0,1,4.478.522A101.943,101.943,0,0,1,455.2,623.2c1.6.659,3.2,1.355,4.847,1.855a7.557,7.557,0,0,0,1.725,1.674,7.969,7.969,0,0,0,3.731,1.022,48.893,48.893,0,0,0,5.253.2,8.861,8.861,0,0,0,3.913-.725,4.027,4.027,0,0,0,.819-.543,3.246,3.246,0,0,0,2.58-.949,6.254,6.254,0,0,0,1.964-3.1c.428-1.652.1-3.623,1.116-4.942.268-.362.623-.652.891-1.014A2.856,2.856,0,0,0,482.5,615a.33.33,0,0,1,.043-.065,6.138,6.138,0,0,0,.435-1.667,9.53,9.53,0,0,1,.471-1.319,40.75,40.75,0,0,0,1.348-3.905,22.822,22.822,0,0,0,.623-2.681c.109-.725.174-1.449.232-2.174a13.5,13.5,0,0,1,.659-3.355,27.3,27.3,0,0,0,1.522-8.029v-.159a5.384,5.384,0,0,0,4.768-5.478,5.717,5.717,0,0,0-.5-2.34A7.247,7.247,0,0,0,493.073,580.176Zm-25.926,31.5c.08.283.174.558.268.833-.427-.413-.84-.841-1.268-1.261.167.058.341.109.5.174a2.687,2.687,0,0,1,.478.254Zm-2.051-1.391c-2.507-2.174-5.405-3.862-7.97-5.97,1.4.688,2.761,1.492,4.108,2.26q2.4,1.37,4.862,2.63a3.983,3.983,0,0,1-1.022,1.08Zm1.065-5.478.123-.123v.862l-.674-.232a6.061,6.061,0,0,0,.529-.507Zm-22.049,5.869a20.753,20.753,0,0,0,2.666-3.8c.993,1.732,2.608,2.985,3.978,4.442C448.548,611.029,446.331,610.79,444.113,610.674Z" transform="translate(-169.03 -271.766)"/><path class="q" d="M415.35,438.25l1.58.319,5.384,7.963-2.369.319Z" transform="translate(-138.248 -120.441)"/><path class="r" d="M414.49,645.43a31.011,31.011,0,0,0,1.58,4.108,39.113,39.113,0,0,0,5.253-1.5,16.6,16.6,0,0,0-1.094-1.449,5.411,5.411,0,0,0-1.485-1.138,4.091,4.091,0,0,0-1.8,0C416.128,645.43,415.309,645.445,414.49,645.43Z" transform="translate(-172.65 -295.319)"/><path class="q" d="M413.606,646.685a3.276,3.276,0,0,1-1.8-2.044,6.58,6.58,0,0,0-1.369-2.442.783.783,0,0,0-.609.457c-.13.232-.21.493-.355.724-.29.413-.8.616-1.159.964s-.58.891-.971,1.246a3.857,3.857,0,0,1-1.833.725,11.891,11.891,0,0,0-2.9,1.065,4.992,4.992,0,0,1-1.065.478,4.222,4.222,0,0,1-1.246,0l-2.855-.2a2.237,2.237,0,0,0-.725,0,1.384,1.384,0,0,0-.906,1.449,2.174,2.174,0,0,0,.906,1.536,6.013,6.013,0,0,0,1.623.826A47.756,47.756,0,0,0,406,653.641v.565a13.244,13.244,0,0,0,5.833,1.355.981.981,0,0,0,.435-.072.956.956,0,0,0,.362-.565,22.6,22.6,0,0,0,1.2-6.2,4.937,4.937,0,0,0-.123-1.6c-.159-.514.377-.3-.116-.5" transform="translate(-166.717 -294.452)"/><path class="q" d="M474.569,632.682c-8.463.507-16.825-1.971-25.3-2.232a12.357,12.357,0,0,0-3.145.2,15.837,15.837,0,0,0-3.116,1.21c-4.543,2.116-9.246,3.869-13.941,5.615l-5.4,2.007a8.172,8.172,0,0,1-3.34.724c-.514,0-1.145-.109-1.449.319-.877,1.3-.464,3.21.116,4.673.188.471.507.986,1.014,1.036a2.948,2.948,0,0,0,1.029-.261c.978-.261,1.956.4,2.971.507,1.246.13,2.406-.58,3.587-1.014,1.956-.725,4.087-.725,6.144-1.043a27.526,27.526,0,0,0,9.623-3.992,11.237,11.237,0,0,1,3.587-1.7,9.929,9.929,0,0,1,4.514.514,103.669,103.669,0,0,1,10.354,3.522,48.2,48.2,0,0,0,5.405,1.978,19.563,19.563,0,0,0,12.122-.725c1.355-.536,2.826-1.449,2.9-2.942.051-.833-.6-1.565-1.029-2.282-.275-.457-.558-.913-.855-1.355C478.91,635.341,477.142,632.53,474.569,632.682Z" transform="translate(-175.586 -291.208)"/><path class="d" d="M474.569,632.682c-8.463.507-16.825-1.971-25.3-2.232a12.357,12.357,0,0,0-3.145.2,15.837,15.837,0,0,0-3.116,1.21c-4.543,2.116-9.246,3.869-13.941,5.615l-5.4,2.007a8.172,8.172,0,0,1-3.34.724c-.514,0-1.145-.109-1.449.319-.877,1.3-.464,3.21.116,4.673.188.471.507.986,1.014,1.036a2.948,2.948,0,0,0,1.029-.261c.978-.261,1.956.4,2.971.507,1.246.13,2.406-.58,3.587-1.014,1.956-.725,4.087-.725,6.144-1.043a27.526,27.526,0,0,0,9.623-3.992,11.237,11.237,0,0,1,3.587-1.7,9.929,9.929,0,0,1,4.514.514,103.669,103.669,0,0,1,10.354,3.522,48.2,48.2,0,0,0,5.405,1.978,19.563,19.563,0,0,0,12.122-.725c1.355-.536,2.826-1.449,2.9-2.942.051-.833-.6-1.565-1.029-2.282-.275-.457-.558-.913-.855-1.355C478.91,635.341,477.142,632.53,474.569,632.682Z" transform="translate(-175.586 -291.208)"/><path class="r" d="M436.92,644.661q1.985.674,4.007,1.246c.725-1.239,2.174-2.1,2.485-3.521a.333.333,0,0,0,0-.188.348.348,0,0,0-.152-.138,7.6,7.6,0,0,0-3.145-.92c-.87-.051-1.268.855-1.659,1.493C438.3,642.914,437.275,644.8,436.92,644.661Z" transform="translate(-180.107 -294.159)"/><path class="q" d="M434.506,644.016a2.9,2.9,0,0,1-1.949-1.283c-.181-.326-.384-.768-.761-.724s-.5.434-.58.775a21.737,21.737,0,0,1-1.094,3.761,7.057,7.057,0,0,1-2.34,3.079c-.493.341-1.036.594-1.522.957a10.45,10.45,0,0,1-1.283.971,7.6,7.6,0,0,1-.985.362,6.844,6.844,0,0,0-1.406.725,2.791,2.791,0,0,0-.964.92,1.326,1.326,0,0,0-.072,1.283,1.37,1.37,0,0,0,.935.638,3.938,3.938,0,0,0,1.167,0c1.543-.109,3.087-.246,4.63-.384a13.351,13.351,0,0,0,1.935-.268l1.007-.275a8.026,8.026,0,0,1,1.761-.261,1.378,1.378,0,0,1,.514.051c.355.116.609.471.978.544a1.634,1.634,0,0,0,.725-.094,15.989,15.989,0,0,1,3.427-.355,1.447,1.447,0,0,0,1.333-.58c.29-.565-.188-1.2-.384-1.8a5.794,5.794,0,0,1-.159-1.181,7.2,7.2,0,0,0-.848-2.812c-.391-.724-.927-1.521-.652-2.289a2.173,2.173,0,0,0,.261-.79C438.071,643.734,435.216,644.175,434.506,644.016Z" transform="translate(-175.279 -294.398)"/><path class="r" d="M475.71,611.972a6.608,6.608,0,0,1-3.376-3.348c-.138-.319-.254-.66-.391-.978a7.437,7.437,0,0,0-2.014-2.8.993.993,0,0,0-.725-.312.79.79,0,0,0-.543.587,2.237,2.237,0,0,0-.058.906,16.136,16.136,0,0,0,.362,2.116l.413,1.869a4.1,4.1,0,0,0,.254.834,2.9,2.9,0,0,0,.688.819c.377.348.761.681,1.145,1.015a3.936,3.936,0,0,0,.725.5,4.2,4.2,0,0,0,1.282.377,10.913,10.913,0,0,1,4.811,1.855v-1.391a1.841,1.841,0,0,0-.362-1.007A6.427,6.427,0,0,0,475.71,611.972Z" transform="translate(-190.741 -284.077)"/><path class="d" d="M475.71,611.972a6.608,6.608,0,0,1-3.376-3.348c-.138-.319-.254-.66-.391-.978a7.437,7.437,0,0,0-2.014-2.8.993.993,0,0,0-.725-.312.79.79,0,0,0-.543.587,2.237,2.237,0,0,0-.058.906,16.136,16.136,0,0,0,.362,2.116l.413,1.869a4.1,4.1,0,0,0,.254.834,2.9,2.9,0,0,0,.688.819c.377.348.761.681,1.145,1.015a3.936,3.936,0,0,0,.725.5,4.2,4.2,0,0,0,1.282.377,10.913,10.913,0,0,1,4.811,1.855v-1.391a1.841,1.841,0,0,0-.362-1.007A6.427,6.427,0,0,0,475.71,611.972Z" transform="translate(-190.741 -284.077)"/><ellipse class="q" cx="2.058" cy="2.072" rx="2.058" ry="2.072" transform="translate(298.55 309.447)"/><path class="q" d="M495.028,590.457a2.225,2.225,0,0,0-1.623.232,2.257,2.257,0,0,0-.558.761,11.051,11.051,0,0,0-1.073,2.522c-.181.725-.21,1.543-.442,2.289-.42,1.377-1.5,2.543-1.623,3.978-.058.645.051,1.4-.42,1.833a2.671,2.671,0,0,1-.369.268,2.789,2.789,0,0,0-.812.833,2.728,2.728,0,0,1-.572.79c-.42.312-1.116.282-1.319.725s.326,1.043.2,1.565-.58.623-.906.913a3.167,3.167,0,0,0-.783,1.449,4.833,4.833,0,0,1-3.942-.978,12.552,12.552,0,0,1,.616,4.507,1.84,1.84,0,0,1-.362,1.391,25.076,25.076,0,0,1,4.833.841,3.336,3.336,0,0,0,2.109,0,3.517,3.517,0,0,0,.971-.768,6.19,6.19,0,0,0,1.993-3.072,18.033,18.033,0,0,0,.036-2.08,11.727,11.727,0,0,1,.529-2.529,30.076,30.076,0,0,0,.92-5.2c.094-1.087,1.036-1.956,1.529-2.9a14.192,14.192,0,0,0,1.949-5.8C495.941,591.362,495.709,590.529,495.028,590.457Z" transform="translate(-194.979 -280.184)"/><path class="d" d="M495.028,590.457a2.225,2.225,0,0,0-1.623.232,2.257,2.257,0,0,0-.558.761,11.051,11.051,0,0,0-1.073,2.522c-.181.725-.21,1.543-.442,2.289-.42,1.377-1.5,2.543-1.623,3.978-.058.645.051,1.4-.42,1.833a2.671,2.671,0,0,1-.369.268,2.789,2.789,0,0,0-.812.833,2.728,2.728,0,0,1-.572.79c-.42.312-1.116.282-1.319.725s.326,1.043.2,1.565-.58.623-.906.913a3.167,3.167,0,0,0-.783,1.449,4.833,4.833,0,0,1-3.942-.978,12.552,12.552,0,0,1,.616,4.507,1.84,1.84,0,0,1-.362,1.391,25.076,25.076,0,0,1,4.833.841,3.336,3.336,0,0,0,2.109,0,3.517,3.517,0,0,0,.971-.768,6.19,6.19,0,0,0,1.993-3.072,18.033,18.033,0,0,0,.036-2.08,11.727,11.727,0,0,1,.529-2.529,30.076,30.076,0,0,0,.92-5.2c.094-1.087,1.036-1.956,1.529-2.9a14.192,14.192,0,0,0,1.949-5.8C495.941,591.362,495.709,590.529,495.028,590.457Z" transform="translate(-194.979 -280.184)"/><path class="q" d="M481.717,629.374c-1.761-.841-3.051-2.4-4.478-3.739-2.717-2.558-6.043-4.348-8.905-6.76a62.707,62.707,0,0,0-5.674-4.768,14.179,14.179,0,0,0-6.079-2.123,1.62,1.62,0,0,0-.725,0,1.667,1.667,0,0,0-.688.543,21.9,21.9,0,0,0-2.456,3.37c-3.623,6.159-8.775,11.332-13.043,17.057a1.083,1.083,0,0,0-.21.406,1.007,1.007,0,0,0,.159.63l.869,1.7c.486.957,1.268,2.065,2.311,1.877a2.53,2.53,0,0,0,1.21-.775l3.9-3.732,4.087-3.906c2.391-2.283,4.826-4.623,6.391-7.55,1.217,2.116,3.384,3.5,4.862,5.434.565.725,1.029,1.543,1.536,2.326.8,1.246,1.725,2.42,2.637,3.623l4.688,5.978a8.971,8.971,0,0,0,2.174,2.174,8.3,8.3,0,0,0,3.761,1.007,49.684,49.684,0,0,0,5.3.189,9.129,9.129,0,0,0,3.949-.725,3.579,3.579,0,0,0,2.138-3.181,4.666,4.666,0,0,0-.674-1.978A16.149,16.149,0,0,0,481.717,629.374Z" transform="translate(-182.249 -286.118)"/><ellipse class="s" cx="1.587" cy="1.594" rx="1.587" ry="1.594" transform="translate(300.183 311.36)"/><path class="r" d="M502.644,590.638a3.051,3.051,0,0,1,.174,2.29,9.29,9.29,0,0,1-1.022,2.108,10.03,10.03,0,0,1-1.326,1.884,13.647,13.647,0,0,0,6.971-2,10.123,10.123,0,0,0,4.4-3.833,2.028,2.028,0,0,1-1.623-.3,5.8,5.8,0,0,1-1.239-1.152l-1.224-1.377a5.5,5.5,0,0,1-.725-.993,2.739,2.739,0,0,1-.326-1.6,9.311,9.311,0,0,1-1.623,1.348c-.877.573-1.841.986-2.724,1.551-.3.2-1,.521-.819.927S502.4,590.2,502.644,590.638Z" transform="translate(-201.417 -278.879)"/><path class="d" d="M502.644,590.638a3.051,3.051,0,0,1,.174,2.29,9.29,9.29,0,0,1-1.022,2.108,10.03,10.03,0,0,1-1.326,1.884,13.647,13.647,0,0,0,6.971-2,10.123,10.123,0,0,0,4.4-3.833,2.028,2.028,0,0,1-1.623-.3,5.8,5.8,0,0,1-1.239-1.152l-1.224-1.377a5.5,5.5,0,0,1-.725-.993,2.739,2.739,0,0,1-.326-1.6,9.311,9.311,0,0,1-1.623,1.348c-.877.573-1.841.986-2.724,1.551-.3.2-1,.521-.819.927S502.4,590.2,502.644,590.638Z" transform="translate(-201.417 -278.879)"/><path class="s" d="M499.844,592.763a2.065,2.065,0,0,0,0,2.391c.072.087.333.631.442.638a.4.4,0,0,0,.275-.145,18.179,18.179,0,0,0,1.551-1.848,3.448,3.448,0,0,1,1.971-1.29,4.261,4.261,0,0,1,2.717.848,2.579,2.579,0,0,1,.935.724,2.531,2.531,0,0,1,.3,1.036,49.957,49.957,0,0,1,.275,6.587A25.966,25.966,0,0,1,508,606.45c-.159.8-.391,1.594-.5,2.413a15.361,15.361,0,0,0-.1,2.174v3.029a7.938,7.938,0,0,0,.116,1.659c.145.66.457,1.275.667,1.92a12.547,12.547,0,0,1,.442,2.268l.413,3.13a3.956,3.956,0,0,1-.369,2.9c-.268.355-.623.645-.9,1-1.022,1.333-.725,3.239-1.123,4.869a6.071,6.071,0,0,1-1.985,3.043,3.282,3.282,0,0,1-2.616.935c-1.275-.239-2.036-1.565-2.384-2.819a11.265,11.265,0,0,0-1.224-3.674,9.744,9.744,0,0,0-2.42-2.022,4.181,4.181,0,0,1-1.891-2.456c-.08-.457,0-.927-.08-1.391a3.282,3.282,0,0,0-2.022-2.659c-.652-.254-1.449-.348-1.826-.942a4.4,4.4,0,0,0,1.906-2.558,13.146,13.146,0,0,0,.464-3.232l.217-3.623a12.1,12.1,0,0,1,.862-4.7c.319-.652.725-1.268,1.051-1.913a20.774,20.774,0,0,0,1.123-2.8c.522-1.493,1.043-2.986,1.507-4.493a8.463,8.463,0,0,1,.826-2.094C498.547,593.726,499.112,592.907,499.844,592.763Z" transform="translate(-198.242 -280.765)"/><path class="q" d="M492.321,616.163h.964l.2-1.449a3.019,3.019,0,0,1,.2-.848,5.066,5.066,0,0,1,.558-.811c.942-1.341.877-3.116,1.109-4.746a24.154,24.154,0,0,1,2.116-6.2l1.87-4.166a5.749,5.749,0,0,0,.406-1.065,6.385,6.385,0,0,0,.116-1.232c0-.645.2-2.993.225-3.623,0-.239-.529-.109-.638-.319-.232-.464-.551.79-.993,1.065a2.435,2.435,0,0,0-.862,1.261c-.406,1.043-.652,2.174-1.029,3.21a6.559,6.559,0,0,1-1.746,2.841c-.384.333-.826.6-1.188.964-1.16,1.145-1.275,2.963-1.312,4.6C492.292,606.642,492.1,616.163,492.321,616.163Z" transform="translate(-198.554 -280.515)"/><path class="q" d="M508.159,590.433a3.289,3.289,0,0,0-1.717,2.355,11.914,11.914,0,0,1-.869,2.9c-1.174,2.044-4.166,2.638-5,4.848a8.911,8.911,0,0,0-.333,2.282c-.145,1.587-.667,3.116-.826,4.7a20.924,20.924,0,0,0,.087,3.688l1.051,12.477a16.668,16.668,0,0,1-.312,5.492,5.292,5.292,0,0,0,3.145-.522c.978-.449,1.877-1.065,2.826-1.587a29.151,29.151,0,0,0,4.847-2.724,2.962,2.962,0,0,0,.652-.725,6.27,6.27,0,0,0,.435-1.638,8.818,8.818,0,0,1,.471-1.29,38.022,38.022,0,0,0,1.362-3.855,22.153,22.153,0,0,0,.623-2.637c.116-.725.181-1.449.239-2.174a12.744,12.744,0,0,1,.667-3.3,26.561,26.561,0,0,0,1.529-7.912,4.131,4.131,0,0,0-.08-1.159,6.193,6.193,0,0,0-.638-1.326c-.435-.819-.724-1.717-1.1-2.551a12.542,12.542,0,0,0-4.282-4.5C510.094,590.7,509.108,590.092,508.159,590.433Z" transform="translate(-201.26 -280.167)"/><path class="r" d="M476.978,616.971a7.563,7.563,0,0,1-1.993-1.514c-.261-.3-.478-.645-.725-.949a4.934,4.934,0,0,0-2.507-1.449,12.23,12.23,0,0,0-2.9-.283,5.263,5.263,0,0,0-1.935.232,1.971,1.971,0,0,0-1.282,1.377,2.282,2.282,0,0,0,.978,2.029,4.611,4.611,0,0,0,1.949.942,15.612,15.612,0,0,0,1.761.21c3.464.362,6.557,2.246,9.593,3.963q4,2.275,8.159,4.232a16.934,16.934,0,0,0,.138-2.5c0-.623-.051-1.58-.638-1.949a12.788,12.788,0,0,0-2.594-.775,40.869,40.869,0,0,1-5.224-2.116A26.033,26.033,0,0,1,476.978,616.971Z" transform="translate(-190.157 -286.345)"/><ellipse class="r" cx="6.173" cy="6.21" rx="6.173" ry="6.21" transform="translate(294.494 298.629)"/><path class="q" d="M508.144,599.881a9.892,9.892,0,0,0-1.2,2.239c-.725,1.565-1.956,2.9-2.558,4.558s-.609,3.79-1.848,5.144a1.8,1.8,0,0,0-.543.783,3.745,3.745,0,0,1-.058.565c-.181.493-.986.514-1.138,1.022-.044.145,0,.3-.072.449-.123.326-.558.377-.841.572-.6.406-.478,1.348-.906,1.935a1.631,1.631,0,0,1-1.543.543,5.437,5.437,0,0,1-1.6-.6,1.543,1.543,0,0,0-.58-.181,1.2,1.2,0,0,0-.667.232,4.108,4.108,0,0,0-1.667,3.514,11.48,11.48,0,0,0,.956,3.935,1.578,1.578,0,0,0,.312.587,1.384,1.384,0,0,0,1.536.116,7.25,7.25,0,0,1,1.5-.674c.957-.174,1.891.486,2.862.428a3.978,3.978,0,0,0,1.927-.848,10.65,10.65,0,0,0,2.594-2.174c.42-.558.724-1.188,1.1-1.782a22.888,22.888,0,0,1,1.558-2.08l3.565-4.347a10,10,0,0,0,.957-1.319,9.3,9.3,0,0,0,.724-1.993,15.249,15.249,0,0,0,.725-3.543,13.625,13.625,0,0,0-.261-2.971,10.5,10.5,0,0,0-.725-2.833C511.485,599.519,509.6,598.185,508.144,599.881Z" transform="translate(-199.197 -282.58)"/><path class="t" d="M519.236,581.342a6.956,6.956,0,0,0-2.855-5.652,8.267,8.267,0,0,0-7.021-8.05,8.021,8.021,0,0,0-15.8.427c-2.565-.58-4.913.174-5.34,1.753s1.384,3.623,4.087,4.348a7.614,7.614,0,0,0,2.623.261,8.029,8.029,0,0,0,5.521,3.442,8.238,8.238,0,0,0,6.029,6.217,6.918,6.918,0,0,0,1.862,2.572v.6a5.224,5.224,0,0,0,10.448,0,5.58,5.58,0,0,0-.5-2.311A6.986,6.986,0,0,0,519.236,581.342Z" transform="translate(-197.964 -272.142)"/><path class="d" d="M489.953,570.153c.427-1.58,2.775-2.333,5.34-1.753a8.159,8.159,0,0,1,7.97-6.869h.529a7.854,7.854,0,0,0-2.275-.341,8.159,8.159,0,0,0-7.97,6.869c-2.565-.58-4.913.174-5.34,1.754s1.384,3.623,4.087,4.347a7.961,7.961,0,0,0,1.551.268C491.257,573.653,489.525,571.769,489.953,570.153Z" transform="translate(-197.448 -272.14)"/><path class="d" d="M512.683,592.7a5.417,5.417,0,0,1,0-.594,6.764,6.764,0,0,1-1.862-2.572,8.217,8.217,0,0,1-6.029-6.224,8.006,8.006,0,0,1-5.528-3.435,6.937,6.937,0,0,1-1.543-.044A8.05,8.05,0,0,0,503.046,583a8.239,8.239,0,0,0,6.029,6.217,6.923,6.923,0,0,0,1.862,2.572v.6a5.319,5.319,0,0,0,5.2,5.406A5.405,5.405,0,0,1,512.683,592.7Z" transform="translate(-200.734 -277.274)"/><ellipse class="r" cx="0.949" cy="1.268" rx="0.949" ry="1.268" transform="translate(300.978 305.658) rotate(-37.22)"/></svg>