<svg xmlns="http://www.w3.org/2000/svg" xmlns:xlink="http://www.w3.org/1999/xlink" width="285.179" height="235.068" viewBox="0 0 285.179 235.068"><defs><style>.a{opacity:0.9;}.b{fill:#00e6bf;}.b,.d,.j,.o{opacity:0.1;}.c{fill:#3f3d56;}.e{fill:#fbbebe;}.f{fill:#65617d;}.ad,.g{fill:#3f2a93;}.h{fill:#b2b1bb;}.i,.n{opacity:0.2;}.j{fill:#ccc;}.k{fill:#464353;}.l{fill:#333f4f;}.m{fill:#2d394a;stroke:#40868e;}.ac,.m{stroke-miterlimit:10;}.p{fill:url(#a);}.q{fill:#a1616a;}.r{fill:#ff748e;}.s{fill:#5e5a6b;}.t{fill:#8a4c6b;}.u{fill:#7be3dd;}.v{fill:#9f9eff;}.w{fill:url(#b);}.x{fill:#514e7f;}.y{opacity:0.15;}.z{fill:#ffc1c7;}.aa{fill:#ff6584;}.ab{fill:#f9ce43;}.ac{fill:none;stroke:#000;stroke-width:0.75px;stroke-dasharray:12;opacity:0.3;}.ad{opacity:0.5;}</style><linearGradient id="a" x1="2.196" y1="1" x2="2.196" gradientUnits="objectBoundingBox"><stop offset="0" stop-color="gray" stop-opacity="0.251"/><stop offset="0.54" stop-color="gray" stop-opacity="0.122"/><stop offset="1" stop-color="gray" stop-opacity="0.102"/></linearGradient><linearGradient id="b" x1="0.5" x2="0.5" y2="0" xlink:href="#a"/></defs><g class="a" transform="translate(202.973 46.275)"><path class="b" d="M901.03,255.756v.027a.035.035,0,0,0,0,.013,1.172,1.172,0,0,1-.029.193c-.082.524-.18,1.05-.3,1.576a30.443,30.443,0,0,1-4.637,10.374c-.086.124-.173.249-.262.371-.169.242-.34.479-.515.717-.122.162-.244.324-.37.486a34.646,34.646,0,0,1-2.784,3.19c-.542.546-1.11,1.074-1.672,1.578l-.249.222q-.459.4-.932.777c-.135.109-.273.222-.411.322l-.24.187-.171.127c-.153.118-.309.222-.466.344l-.111.078c-.371.264-.744.519-1.123.766a27.578,27.578,0,0,1-2.506,1.443q-.6.3-1.2.571-.732.326-1.476.6c-.133.051-.269.1-.4.147-.38.131-.763.253-1.145.364l-.2.058-.1.027h0l-.235.064a30.174,30.174,0,0,1-3.472.724l-.191.029-.1.016c-1.485.222-2.966.333-4.44.406a55.787,55.787,0,0,1-6.094,0l-.555-.038h-.1c-.384-.029-.768-.064-1.15-.1-.222-.022-.444-.047-.666-.076-.338-.04-.666-.087-1.008-.135h-.016l-.322-.051c-.291-.047-.577-.1-.863-.153l-.293-.053-.444-.091-.086-.018q-1.394-.3-2.735-.728l-.2-.069q-.972-.324-1.909-.721-.695-.3-1.365-.637-.959-.486-1.869-1.046-1.272-.779-2.464-1.678c-1.046-.779-2.051-1.618-3.028-2.489l-.2-.182-.369-.333a59.875,59.875,0,0,1-12.46-15.841q-.506-.946-.981-1.922c-.1-.2-.193-.4-.289-.6a.471.471,0,0,1-.022-.049l-.146-.311c-.4-.861-.777-1.743-1.132-2.635l-.16-.4-.249-.653-.1-.273q-.46-1.243-.857-2.52c-.044-.146-.091-.293-.135-.444q-.211-.693-.4-1.394c-.118-.431-.222-.868-.335-1.31-.018-.069-.033-.138-.049-.209a26.61,26.61,0,0,1-.366-11.905c.06-.28.127-.559.2-.837.107-.415.222-.83.369-1.245.031-.1.064-.2.1-.293l.04-.107a.252.252,0,0,1,.024-.075.162.162,0,0,0,.016-.044c.077-.2.155-.408.24-.615s.173-.411.264-.615h0l.014-.029c0-.027.024-.051.036-.078.073-.16.148-.32.222-.475l.08-.16.022-.08c.042-.082.086-.167.131-.246a20,20,0,0,1,2.149-3.261,18.427,18.427,0,0,1,1.465-1.609,15.852,15.852,0,0,1,2.573-2.06q.222-.133.426-.26a10.642,10.642,0,0,1,3.856-1.4,13.3,13.3,0,0,1,5.026.422l.162.04c.271.064.542.133.81.2.939.238,1.885.484,2.839.695.888.2,1.776.366,2.693.484a18.953,18.953,0,0,0,2.786.155c.138,0,.28,0,.42-.013a15.151,15.151,0,0,0,4.995-1.1,9.617,9.617,0,0,0,3.25-2.147,7.282,7.282,0,0,0,.5-.577h0a6.683,6.683,0,0,0,.706-1.11c.062-.118.122-.238.18-.355h0c.022-.04.044-.084.067-.127h0l.34-.666h0c.013-.025.024-.049.038-.071.164-.317.328-.63.5-.937a17.966,17.966,0,0,1,2.4-3.539h0a10.06,10.06,0,0,1,3.565-2.56c.222-.1.444-.186.69-.271a10.025,10.025,0,0,1,3.214-.575h.384a11.218,11.218,0,0,1,3.2.566h0a16.573,16.573,0,0,1,4.4,2.278,29.663,29.663,0,0,1,5.507,5.059c.129.151.257.306.384.462a38.355,38.355,0,0,1,3.683,5.432,70.487,70.487,0,0,1,6.833,19.133l.073.324c.036.16.071.32.1.477.071.329.142.666.209.983.051.242.1.486.151.728h0c.035.175.071.349.1.526.022.109.044.222.064.331a53,53,0,0,1,.806,5.494.934.934,0,0,0,.015.206A30.188,30.188,0,0,1,901.03,255.756Z" transform="translate(-827.355 -205.899)"/><path class="c" d="M1048.6,492.582c-.244-.064-.666.222-1.208.69-.262.222-.553.5-.868.8l-.149.144-.066.062c-.418.4-.875.846-1.359,1.294-.3.28-.613.561-.934.839a4.612,4.612,0,0,0-.781,2.748,30.158,30.158,0,0,1-3.472.724l-.191.029-.1.016c-.068-.413-.119-.684-.119-.684s-2-1.667-1.417-3.749c.335-1.194,3.614-3.43,6.351-5.121.335-.2.666-.4.975-.59l.2-.122c.127-.075.247-.149.367-.222l.91-.533c.63-.364,1.087-.619,1.25-.71l.067-.038S1049.226,492.746,1048.6,492.582Z" transform="translate(-991.108 -424.69)"/><path class="d" d="M1048.6,492.582c-.244-.064-.666.222-1.208.69-.262.222-.553.5-.868.8l-.149.144-.066.062c-.418.4-.875.846-1.359,1.294-.3.28-.613.561-.934.839a4.612,4.612,0,0,0-.781,2.748,30.158,30.158,0,0,1-3.472.724l-.191.029-.1.016c-.068-.413-.119-.684-.119-.684s-2-1.667-1.417-3.749c.335-1.194,3.614-3.43,6.351-5.121.335-.2.666-.4.975-.59l.2-.122c.127-.075.247-.149.367-.222l.91-.533c.63-.364,1.087-.619,1.25-.71l.067-.038S1049.226,492.746,1048.6,492.582Z" transform="translate(-991.108 -424.69)"/><path class="c" d="M1008.3,455.057s-.408.419-1.043,1.083c-.266.278-.575.6-.908.952l-.031.033-.173.18c-.4.417-.821.868-1.259,1.332-2.269,2.429-4.835,5.272-4.835,5.725a1.471,1.471,0,0,1-.109.493l-.191.029-.1.016c-1.485.222-2.965.333-4.44.406a55.751,55.751,0,0,1-6.094,0l-.555-.038h-.1c-.384-.029-.768-.064-1.15-.1-.222-.022-.444-.047-.666-.075.262-.364.535-.746.806-1.137.544-.781,1.083-1.59,1.532-2.322.026-.042.051-.084.077-.124.269-.444.5-.864.682-1.225a3.275,3.275,0,0,0,.362-1.026,5.591,5.591,0,0,1,.4-1.272c.979-2.486,3.538-7.548,4.968-10.343l.129-.249.124-.24c.46-.888.755-1.456.755-1.456l3.5-.943.222-.06.772-.209.3-.08,1.654-.444h.02l.06-.018,1.745-.468.579-.158.666-.175,1.687,2.875.493,7.179Z" transform="translate(-951.288 -389.664)"/><path class="d" d="M926.3,465.56c-.684-.888-1.081-1.432-1.081-1.432s.97-.235,2.235-.593c.646-.184,1.37-.4,2.08-.63.444-.149.888-.3,1.312-.462.222-.08.424-.164.622-.246.919-.386,1.609-.779,1.749-1.13a.731.731,0,0,0-.035-.419,11.4,11.4,0,0,0-.817-1.852c-.117-.222-.246-.464-.384-.715-.444-.81-.974-1.738-1.554-2.717-.486-.817-1.008-1.672-1.536-2.528-.466-.753-.939-1.51-1.4-2.242-.013-.022-.029-.044-.042-.069-2.115-3.343-4.016-6.216-4.094-6.324h0l-1.248,2.995-.053.049L920,449.066l-.049.047c-.639.566-1.365,1.214-2.1,1.876-.548.491-1.11.988-1.632,1.467-.757.679-1.465,1.321-2.04,1.847a16.379,16.379,0,0,0-1.379,1.332,14.4,14.4,0,0,0-.888,2.4c.977.87,1.982,1.709,3.028,2.491.8.595,1.616,1.156,2.464,1.676q.912.56,1.869,1.046.666.335,1.365.637.934.4,1.909.721l.2.069a27.2,27.2,0,0,0,2.735.728l.087.018.444.091Z" transform="translate(-893.14 -390.489)"/><path class="c" d="M942.621,444.509l-.2.306c-.08.126-.184.289-.311.482s-.3.475-.491.766l-.137.222c-.324.5-.7,1.09-1.11,1.74-.051.078-.1.155-.153.238s-.1.164-.157.246c-2.664,4.173-6.6,10.358-7.592,12.143a4.529,4.529,0,0,0-.222.42c-.127.318-.7.666-1.485,1.015-.176.08-.364.158-.557.238-.431.171-.9.337-1.381.5-.7.235-1.421.444-2.078.642-1.39.4-2.495.666-2.495.666s.382.517,1.037,1.379l-.444-.091-.086-.018q-1.394-.3-2.735-.728l-.2-.069q-.972-.324-1.909-.721-.7-.3-1.365-.637-.959-.486-1.869-1.046-1.272-.779-2.464-1.678c-1.046-.779-2.051-1.618-3.028-2.488l-.2-.182a15.2,15.2,0,0,1,.837-2.22,19.514,19.514,0,0,1,1.6-1.532c.588-.54,1.3-1.179,2.04-1.847l1.631-1.463,1.929-1.723.049-.044,2-1.776.053-.049,1.25-3h.253l4.544.071h.715l1.425.022,1.7.024,1.974.031,7.736.12h.251l1.468.022Z" transform="translate(-892.416 -390.489)"/><path class="e" d="M1008.427,278.4l-.75,6.822s-7.685,3.061-7.872,3-5.124-4.5-4.311-7.437a26.467,26.467,0,0,0,.679-5.181c.084-1.667.071-2.941.071-2.941s11.184-4,10.183-1.25a5.27,5.27,0,0,0,.157,3.312A15.5,15.5,0,0,0,1008.427,278.4Z" transform="translate(-958.099 -255.309)"/><path class="d" d="M1009.258,274.644a2.8,2.8,0,0,1-.207.222,7.492,7.492,0,0,1-10.211.648c.084-1.654.071-2.941.071-2.941s11.184-4,10.183-1.25A5.343,5.343,0,0,0,1009.258,274.644Z" transform="translate(-960.772 -255.239)"/><path class="e" d="M1001.539,240.108a7.45,7.45,0,1,1-2.181-5.316A7.495,7.495,0,0,1,1001.539,240.108Z" transform="translate(-951.21 -225.87)"/><path class="d" d="M989.638,315.309S986.7,308.8,985.7,308.8s-2.562,33.665-2.562,33.665l15.317.242.626-17.677-3.126-15.668S993.138,315.549,989.638,315.309Z" transform="translate(-948.557 -285.147)"/><path class="d" d="M989.638,317.559s-2.935-6.509-3.936-6.509-2.562,33.667-2.562,33.667l17.371.262-1.436-17.7-3.126-15.666S993.138,317.8,989.638,317.559Z" transform="translate(-948.557 -286.897)"/><path class="f" d="M989.638,316.437s-2.935-6.507-3.936-6.507-2.562,33.665-2.562,33.665l17.371.262-1.436-17.706-3.126-15.668S993.138,316.679,989.638,316.437Z" transform="translate(-948.557 -286.026)"/><path class="d" d="M932.331,298.666a1.211,1.211,0,0,0-1.274-.517c-.75.251-1.312-.444-2.062.249s-3.749,1.625-4.311,1.312-2.562,1.063-3,1.876-1.876,3-1.876,3-1.248,1.5-1.061,2.311a2.117,2.117,0,0,1-1.188,2.124c-.743.375-2.249,4.125-2.249,4.125s.4,5.013-1.283,5.887-.444,4.686-.444,4.686l7.969-1.889,2.255-5.119s-.875,15-1.938,16.37a5.445,5.445,0,0,0-1.185,2.251s4.122.875,5,1.623,3.188-.186,3.188-.186l2.249-19.933a37.644,37.644,0,0,0,.812-5.685C931.931,309.211,932.331,298.666,932.331,298.666Z" transform="translate(-894.099 -276.806)"/><path class="g" d="M931.32,298.666a1.215,1.215,0,0,0-1.276-.517c-.75.251-1.312-.444-2.062.249s-3.747,1.625-4.311,1.312-2.562,1.063-3,1.876-1.874,3-1.874,3-1.25,1.5-1.063,2.311a2.119,2.119,0,0,1-1.186,2.124c-.742.375-2.251,4.125-2.251,4.125s.4,5.013-1.283,5.887a1.758,1.758,0,0,0-.779,1.314,3.927,3.927,0,0,0,4.018,4.611l4.293-1.776,2.249-6.471s-.875,15-1.935,16.37a5.483,5.483,0,0,0-1.186,2.246s4.125.875,5,1.623,3.186-.186,3.186-.186l2.249-19.932a37.638,37.638,0,0,0,.813-5.685C930.921,309.206,931.32,298.666,931.32,298.666Z" transform="translate(-893.337 -276.806)"/><path class="d" d="M936.42,349.61a2.865,2.865,0,0,0,2.813,1.876C941.3,351.3,936.42,349.61,936.42,349.61Z" transform="translate(-912.209 -316.897)"/><path class="d" d="M945.43,335.54a2.7,2.7,0,0,1,1.873,1.436C947.8,338.162,945.43,335.54,945.43,335.54Z" transform="translate(-919.219 -305.951)"/><path class="d" d="M960.229,326c0,.251.875,4.624,0,6.438a9.064,9.064,0,0,0-.75,3.936Z" transform="translate(-930.144 -298.528)"/><path class="d" d="M1028.821,292.126s.49-.575.99-.513a6.666,6.666,0,0,1,1.439.626c.625.251,2.122.311,2.122.5a4.826,4.826,0,0,0,2.189,1.123c.875.186,3.623,2.062,4.311,5.687s1.874,4.686,1.874,4.686l-6.622,3.248s5.124,21.744,5.748,23.309.688,10.809.688,10.809-4.062,1.811-5.124,2.375-.626-5.374-2.813-8.811-4.686-8.436-4.686-8.436l-3.812-10.684s-2.442-14.245-.375-16.871S1029,293.065,1028.821,292.126Z" transform="translate(-980.284 -271.772)"/><path class="g" d="M1042.631,341.487v.129l-.242.109-.171.075-1.7.768c-.93.424-1.958.888-2.606,1.216-.162.078-.3.149-.406.206a.235.235,0,0,1-.253,0c-.333-.222-.484-1.35-.719-2.819-.1-.608-.209-1.274-.355-1.956-.022-.107-.046-.222-.071-.32a15.711,15.711,0,0,0-.635-2.136,8.953,8.953,0,0,0-.779-1.581c-.288-.444-.579-.928-.87-1.416-.782-1.314-1.554-2.715-2.2-3.916-.044-.087-.089-.169-.133-.251-.164-.306-.32-.6-.46-.868-.291-.555-.535-1.026-.71-1.367l-.282-.557a.5.5,0,0,0-.029-.058l-.344-.963-.666-1.86-.775-2.173-.366-1.023-.264-.744-.084-.235-1.314-3.687s-.093-.535-.222-1.416a80.809,80.809,0,0,1-.979-10.722,20,20,0,0,1,.155-2.693c.016-.1.029-.193.047-.286s.036-.2.055-.3a3.594,3.594,0,0,1,.571-1.45c2.06-2.624,4.258-6.109,4.071-7.046l.042-.047a2.053,2.053,0,0,1,.3-.262,1.183,1.183,0,0,1,.444-.2.748.748,0,0,1,.2,0h0a6.6,6.6,0,0,1,1.436.626c.624.251,2.125.311,2.125.5a4.838,4.838,0,0,0,2.186,1.125c.875.189,3.625,2.06,4.312,5.685.666,3.492,1.789,4.6,1.871,4.684h0l-.246.12-3.758,1.845-.806.393-1.814.888s.475,2.013,1.152,4.859a.61.61,0,0,0,.029.118c.02.084.04.171.062.258.5,2.087,1.092,4.573,1.685,7.026l.053.222.173.71c.053.222.108.444.162.666l.087.353c.164.679.329,1.35.488,2,.238.961.464,1.874.666,2.708.577,2.3,1.024,3.985,1.183,4.38a19.152,19.152,0,0,1,.484,4C1042.589,337.571,1042.627,340.81,1042.631,341.487Z" transform="translate(-981.121 -271.788)"/><path class="d" d="M1065.849,353.853c-.184.031-.42.058-.693.084-2,.182-5.929.222-5.929.222s-2.937-5.812-5.437-5.623c0,0,2.311-2.624,3.25-2.311.156.051.253-.064.3-.289.249-1.11-.615-4.962-.615-4.962l-1.187-5.186,6.882,1.687a18.424,18.424,0,0,1,2.562,1.125s.062,2.686.562,3.31a11.78,11.78,0,0,1,1,4.375c-.062.75.686,4.249-.062,5.186S1067.411,353.6,1065.849,353.853Z" transform="translate(-1003.524 -306.145)"/><path class="g" d="M1066.978,353.853c-.186.031-.419.058-.692.084-2,.182-5.932.222-5.932.222s-2.937-5.812-5.434-5.623c0,0,2.311-2.624,3.248-2.311.158.051.255-.064.3-.289.251-1.11-.615-4.962-.615-4.962l-1.186-5.186,6.882,1.687a18.549,18.549,0,0,1,2.562,1.125s.062,2.686.561,3.31a11.765,11.765,0,0,1,1,4.375c-.062.75.688,4.249-.062,5.186S1068.539,353.6,1066.978,353.853Z" transform="translate(-1004.403 -306.145)"/><path class="d" d="M1077.43,355.8s5.75.626,5.994,2.062S1077.43,355.8,1077.43,355.8Z" transform="translate(-1021.916 -321.713)"/><path class="d" d="M1007.218,240.127a7.449,7.449,0,0,1-2.049,5.146.11.11,0,0,1-.018-.035,3.212,3.212,0,0,1-.417-1.49,12.322,12.322,0,0,1,.5-1.818,4.729,4.729,0,0,0-.362-2.34c-.185-.555-.542-1.228-1.124-1.159a1.53,1.53,0,0,1-.344.04c-.311-.049-.373-.444-.406-.764a3.461,3.461,0,0,0-2.826-2.964.872.872,0,0,0-.495.033c-.222.1-.333.331-.528.466-.635.444-1.443-.4-2.22-.337-.666.056-1.054.726-1.332,1.332s-.608,1.281-1.25,1.421a.38.38,0,0,1-.3-.033c-.2-.147-.062-.444.042-.681a1.369,1.369,0,0,0-.235-1.49,7.494,7.494,0,0,1,13.353,4.68Z" transform="translate(-956.89 -225.888)"/><path class="h" d="M921.694,453.615q-.959-.486-1.869-1.046-1.273-.779-2.464-1.678l-.766-6.216-.024-.2-1.454-11.828-.087-.7,2.415-.073,1.709-.051.115,1.006.972,8.336.024.2Z" transform="translate(-895.567 -380.857)"/><path class="d" d="M919.825,452.728q-1.273-.779-2.464-1.678l-.766-6.216-.024-.2L915.117,432.8l-.087-.7,2.415-.073-.1.386.06.486,1.21,9.881.024.2Z" transform="translate(-895.567 -381.021)"/><path class="h" d="M987.5,432.92l-.131,1.059-.2,1.605-.444,3.536-.031.244-.031.251-1.212,9.69-.375,3.012-.124.988-.013.115-.488,3.936-.555-.038h-.1c-.384-.029-.768-.064-1.15-.1-.222-.022-.444-.047-.666-.076-.337-.04-.666-.086-1.008-.135h-.016l-.322-.051.3-2.193v-.076l1.421-10.624.6-4.5.034-.249.033-.249.473-3.534.2-1.483.116-.875.144-.011Z" transform="translate(-946.605 -381.713)"/><path class="i" d="M985.4,434.324l-.062.531-.182,1.538-.417,3.536-.029.246-.038.262-.826,7-.888,7.455v.087l-.222,1.86-.142,1.212c-.222-.022-.444-.047-.666-.075-.337-.04-.666-.087-1.008-.135H980.9l-.322-.051.315-2.191v-.075l1.421-10.625.6-4.5.033-.249.033-.249.473-3.534.2-1.483.115-.875.144-.011Z" transform="translate(-946.566 -382.553)"/><path class="f" d="M1064.048,452.628l.1.646q-.6.3-1.2.571-.733.326-1.476.6l-.371-2.926-.244-1.907-.42-3.292-.4-3.179-.069-.531-.983-7.716-.173-1.354-.053-.444-.051-.4-.118-.924h.08l1.689-.184.542-.056.169,1.13.24,1.607,1.585,10.589.337,2.253.315,2.107.493,3.3Z" transform="translate(-1007.25 -380.632)"/><path class="j" d="M1064.048,452.628l.1.646q-.6.3-1.2.571-.733.326-1.476.6l-.371-2.926-.244-1.907-.42-3.292-.4-3.179-.069-.531-.983-7.716-.173-1.354-.053-.444-.051-.4-.118-.924h.08l1.689-.184.542-.056.169,1.13.24,1.607,1.585,10.589.337,2.253.315,2.107.493,3.3Z" transform="translate(-1007.25 -380.632)"/><path class="h" d="M1070.344,453.266q-.6.3-1.2.57l-.253-2.207-.169-1.478-.238-2.067-.04-.353-.269-2.353-1.254-10.964-.2-1.756-.064-.577-.1-.506.542-.055.168,1.13.24,1.607,1.585,10.589.337,2.253.315,2.107.493,3.3.018.115Z" transform="translate(-1013.451 -380.624)"/><path class="f" d="M1097.724,430.991l-.013.85-.266,17.506c-.135.109-.273.222-.411.322v.129l-.242.109-.171.076c-.153.118-.308.222-.466.344l-.111.078c-.371.264-.743.52-1.123.766v-.535l.222-15.1.013-.928.04-2.722.018-1.21,1.683.211Z" transform="translate(-1035.524 -379.97)"/><path class="j" d="M1097.724,430.991l-.013.85-.266,17.506c-.135.109-.273.222-.411.322v.129l-.242.109-.171.076c-.153.118-.308.222-.466.344l-.111.078c-.371.264-.743.52-1.123.766v-.535l.222-15.1.013-.928.04-2.722.018-1.21,1.683.211Z" transform="translate(-1035.524 -379.97)"/><path class="h" d="M1104.282,431.7l-.013.85L1104,450.055c-.135.109-.273.222-.41.322v.129l-.242.109v-.051l.04-6.882.066-11.124v-.968Z" transform="translate(-1042.082 -380.679)"/><path class="f" d="M916.7,421.009a.035.035,0,0,0,0,.013,1.171,1.171,0,0,1-.029.193c-.082.524-.18,1.05-.3,1.576l-11.155.2-.81.016-1.694.031-.713.013h-.249l-4.913.091H896.3l-1.776.033h-.038l-1.363.027-2.2.04h-.246l-6.881.127-2,.036-1.678.031-1.463.027h-.8l-1.11.02-5.055-.222-.249-.011-4.7-.2-1.869-.082-2.284-.1-13.814-.6q-.506-.946-.981-1.922c-.1-.2-.193-.4-.289-.6l14.061-.222h0l8.658-.133h0l1.636-.024h.251l4.44-.069,1.521.084h.026l.764.042.249.013,3.032.169h0l7.372.406.255.013,3.445.191,1.041.058h.022l6.882.38.253.015h.056Z" transform="translate(-843.028 -371.117)"/><path class="h" d="M916.691,421.048a.031.031,0,0,1,0,.013,1.146,1.146,0,0,1-.029.193c-.082.524-.18,1.05-.3,1.576l-11.155.2-.808.016-1.7.031-.713.013h-.249l-4.913.091h-.542l-1.776.033h-.038l-1.363.027-2.2.04h-.247l-6.882.127-2,.035-1.678.031-1.463.027h-.8l-1.11.02-5.057-.222h-.249l-4.7-.2-1.871-.08-2.284-.1-13.814-.6q-.506-.946-.981-1.922c-.1-.2-.193-.4-.289-.6l14.061-.222h0l8.658-.133h0l1.636-.024h.251l4.44-.069,1.521.084h.029l.763.042.249.016,3.032.166h0l7.372.406.253.013,3.445.191,1.041.058h.022l6.881.38.253.016h.055Z" transform="translate(-843.02 -371.156)"/><path class="d" d="M916.675,421.1a.027.027,0,0,1,0,.013l-15.186.038h-.249l-6.919.018h-4.455L878.9,421.2h-.948l-6.049.016h-.249l-6.316.016-17.584-.759c-.1-.2-.193-.4-.288-.6l14.061-.222h0l8.658-.133h0l1.636-.024h.251l4.44-.069,1.521.084h.029l.764.042.249.016,3.032.167h0l7.372.406.253.013,3.446.191,1.041.058h.022l6.882.38.253.016h.056Z" transform="translate(-843.005 -371.21)"/><path class="d" d="M1092.91,381.14c.375.124,2.562.686,3,2S1092.91,381.14,1092.91,381.14Z" transform="translate(-1033.959 -341.428)"/><path class="e" d="M984,388.224a24.041,24.041,0,0,1-4.624.968c-1.438,0-7.059-.031-7.059-.031s-14.685-4.906-10.278,1.811,11.37,2.968,11.37,2.968.564.124,1.25.282,13.965.031,14.4-.5S984,388.224,984,388.224Z" transform="translate(-931.499 -346.324)"/><path class="d" d="M1065.166,389.5c-2,.182-5.929.222-5.929.222s-2.937-5.812-5.436-5.623c0,0,2.311-2.624,3.25-2.311.156.051.253-.064.3-.289,2.442.748,7.1,2.577,7.57,5.785C1065.042,388.153,1065.119,388.881,1065.166,389.5Z" transform="translate(-1003.532 -341.708)"/><path class="k" d="M1066.286,389.5c-2,.182-5.932.222-5.932.222s-2.937-5.812-5.434-5.623c0,0,2.311-2.624,3.248-2.311.158.051.255-.064.3-.289,2.442.748,7.1,2.577,7.572,5.785C1066.164,388.153,1066.242,388.881,1066.286,389.5Z" transform="translate(-1004.403 -341.708)"/><path class="d" d="M1065.166,389.5c-2,.184-5.929.222-5.929.222s-2.937-5.812-5.436-5.623c0,0,2.311-2.624,3.25-2.313.156.053.253-.062.3-.286,2.442.748,7.1,2.577,7.57,5.785C1065.042,388.155,1065.119,388.884,1065.166,389.5Z" transform="translate(-1003.532 -341.708)"/><path class="d" d="M1027.05,489.9s5.623-1.376,6.5-.626S1027.05,489.9,1027.05,489.9Z" transform="translate(-982.72 -425.384)"/><path class="d" d="M954.43,517.08s2.375,1.374,2.624,2.5S954.43,517.08,954.43,517.08Z" transform="translate(-926.221 -447.191)"/><path class="l" d="M909.16,307v24.623c0,.424.222.484.6.688a8.248,8.248,0,0,0,8.021-.027c.38-.2.613-.266.613-.7V307.153A12.909,12.909,0,0,1,909.16,307Z" transform="translate(-891 -283.746)"/><ellipse class="m" cx="4.615" cy="0.981" rx="4.615" ry="0.981" transform="translate(18.16 22.253)"/><g class="n" transform="translate(18.475 33.372)"><circle cx="0.104" cy="0.104" r="0.104"/><circle cx="0.104" cy="0.104" r="0.104" transform="translate(0.526 0.147)"/><circle cx="0.104" cy="0.104" r="0.104" transform="translate(1.174 0.353)"/><circle cx="0.104" cy="0.104" r="0.104" transform="translate(2.34 0.604)"/><circle cx="0.104" cy="0.104" r="0.104" transform="translate(3.567 0.753)"/><circle cx="0.104" cy="0.104" r="0.104" transform="translate(4.839 0.812)"/><circle cx="0.104" cy="0.104" r="0.104" transform="translate(6.664 0.562)"/><circle cx="0.104" cy="0.104" r="0.104" transform="translate(6.06 0.708)"/><circle cx="0.104" cy="0.104" r="0.104" transform="translate(7.794 0.353)"/><circle cx="0.104" cy="0.104" r="0.104" transform="translate(7.25 0.457)"/><circle cx="0.104" cy="0.104" r="0.104" transform="translate(8.391 0.147)"/><circle cx="0.104" cy="0.104" r="0.104" transform="translate(1.769 0.502)"/><circle cx="0.104" cy="0.104" r="0.104" transform="translate(2.972 0.708)"/><circle cx="0.104" cy="0.104" r="0.104" transform="translate(4.276 0.812)"/><circle cx="0.104" cy="0.104" r="0.104" transform="translate(5.461 0.812)"/></g><g class="n" transform="translate(18.475 33.88)"><circle cx="0.104" cy="0.104" r="0.104"/><circle cx="0.104" cy="0.104" r="0.104" transform="translate(0.526 0.149)"/><circle cx="0.104" cy="0.104" r="0.104" transform="translate(1.174 0.355)"/><circle cx="0.104" cy="0.104" r="0.104" transform="translate(2.34 0.606)"/><circle cx="0.104" cy="0.104" r="0.104" transform="translate(3.567 0.755)"/><circle cx="0.104" cy="0.104" r="0.104" transform="translate(4.839 0.812)"/><circle cx="0.104" cy="0.104" r="0.104" transform="translate(6.664 0.562)"/><circle cx="0.104" cy="0.104" r="0.104" transform="translate(6.06 0.71)"/><circle cx="0.104" cy="0.104" r="0.104" transform="translate(7.794 0.355)"/><circle cx="0.104" cy="0.104" r="0.104" transform="translate(7.25 0.46)"/><circle cx="0.104" cy="0.104" r="0.104" transform="translate(8.391 0.149)"/><circle cx="0.104" cy="0.104" r="0.104" transform="translate(1.769 0.502)"/><circle cx="0.104" cy="0.104" r="0.104" transform="translate(2.972 0.71)"/><circle cx="0.104" cy="0.104" r="0.104" transform="translate(4.276 0.812)"/><circle cx="0.104" cy="0.104" r="0.104" transform="translate(5.461 0.812)"/></g><g class="n" transform="translate(18.475 34.391)"><circle cx="0.104" cy="0.104" r="0.104"/><circle cx="0.104" cy="0.104" r="0.104" transform="translate(0.526 0.147)"/><circle cx="0.104" cy="0.104" r="0.104" transform="translate(1.174 0.355)"/><circle cx="0.104" cy="0.104" r="0.104" transform="translate(2.34 0.606)"/><circle cx="0.104" cy="0.104" r="0.104" transform="translate(3.567 0.755)"/><circle cx="0.104" cy="0.104" r="0.104" transform="translate(4.839 0.812)"/><circle cx="0.104" cy="0.104" r="0.104" transform="translate(6.664 0.562)"/><circle cx="0.104" cy="0.104" r="0.104" transform="translate(6.06 0.708)"/><circle cx="0.104" cy="0.104" r="0.104" transform="translate(7.794 0.355)"/><circle cx="0.104" cy="0.104" r="0.104" transform="translate(7.25 0.457)"/><circle cx="0.104" cy="0.104" r="0.104" transform="translate(8.391 0.147)"/><circle cx="0.104" cy="0.104" r="0.104" transform="translate(1.769 0.502)"/><circle cx="0.104" cy="0.104" r="0.104" transform="translate(2.972 0.708)"/><circle cx="0.104" cy="0.104" r="0.104" transform="translate(4.276 0.812)"/><circle cx="0.104" cy="0.104" r="0.104" transform="translate(5.461 0.812)"/></g><g class="n" transform="translate(18.475 34.902)"><circle cx="0.104" cy="0.104" r="0.104"/><circle cx="0.104" cy="0.104" r="0.104" transform="translate(0.526 0.147)"/><circle cx="0.104" cy="0.104" r="0.104" transform="translate(1.174 0.353)"/><circle cx="0.104" cy="0.104" r="0.104" transform="translate(2.34 0.604)"/><circle cx="0.104" cy="0.104" r="0.104" transform="translate(3.567 0.753)"/><circle cx="0.104" cy="0.104" r="0.104" transform="translate(4.839 0.81)"/><circle cx="0.104" cy="0.104" r="0.104" transform="translate(6.664 0.559)"/><circle cx="0.104" cy="0.104" r="0.104" transform="translate(6.06 0.708)"/><circle cx="0.104" cy="0.104" r="0.104" transform="translate(7.794 0.353)"/><circle cx="0.104" cy="0.104" r="0.104" transform="translate(7.25 0.457)"/><circle cx="0.104" cy="0.104" r="0.104" transform="translate(8.391 0.147)"/><circle cx="0.104" cy="0.104" r="0.104" transform="translate(1.769 0.499)"/><circle cx="0.104" cy="0.104" r="0.104" transform="translate(2.972 0.708)"/><circle cx="0.104" cy="0.104" r="0.104" transform="translate(4.276 0.81)"/><circle cx="0.104" cy="0.104" r="0.104" transform="translate(5.461 0.81)"/></g><g class="n" transform="translate(18.475 35.41)"><circle cx="0.104" cy="0.104" r="0.104"/><circle cx="0.104" cy="0.104" r="0.104" transform="translate(0.526 0.147)"/><circle cx="0.104" cy="0.104" r="0.104" transform="translate(1.174 0.355)"/><circle cx="0.104" cy="0.104" r="0.104" transform="translate(2.34 0.606)"/><circle cx="0.104" cy="0.104" r="0.104" transform="translate(3.567 0.755)"/><circle cx="0.104" cy="0.104" r="0.104" transform="translate(4.839 0.812)"/><circle cx="0.104" cy="0.104" r="0.104" transform="translate(6.664 0.562)"/><circle cx="0.104" cy="0.104" r="0.104" transform="translate(6.06 0.708)"/><circle cx="0.104" cy="0.104" r="0.104" transform="translate(7.794 0.355)"/><circle cx="0.104" cy="0.104" r="0.104" transform="translate(7.25 0.457)"/><circle cx="0.104" cy="0.104" r="0.104" transform="translate(8.391 0.147)"/><circle cx="0.104" cy="0.104" r="0.104" transform="translate(1.769 0.502)"/><circle cx="0.104" cy="0.104" r="0.104" transform="translate(2.972 0.708)"/><circle cx="0.104" cy="0.104" r="0.104" transform="translate(4.276 0.812)"/><circle cx="0.104" cy="0.104" r="0.104" transform="translate(5.461 0.812)"/></g><g class="n" transform="translate(18.475 35.921)"><circle cx="0.104" cy="0.104" r="0.104"/><circle cx="0.104" cy="0.104" r="0.104" transform="translate(0.526 0.147)"/><circle cx="0.104" cy="0.104" r="0.104" transform="translate(1.174 0.353)"/><circle cx="0.104" cy="0.104" r="0.104" transform="translate(2.34 0.604)"/><circle cx="0.104" cy="0.104" r="0.104" transform="translate(3.567 0.753)"/><circle cx="0.104" cy="0.104" r="0.104" transform="translate(4.839 0.812)"/><circle cx="0.104" cy="0.104" r="0.104" transform="translate(6.664 0.559)"/><circle cx="0.104" cy="0.104" r="0.104" transform="translate(6.06 0.708)"/><circle cx="0.104" cy="0.104" r="0.104" transform="translate(7.794 0.353)"/><circle cx="0.104" cy="0.104" r="0.104" transform="translate(7.25 0.457)"/><circle cx="0.104" cy="0.104" r="0.104" transform="translate(8.391 0.147)"/><circle cx="0.104" cy="0.104" r="0.104" transform="translate(1.769 0.502)"/><circle cx="0.104" cy="0.104" r="0.104" transform="translate(2.972 0.708)"/><circle cx="0.104" cy="0.104" r="0.104" transform="translate(4.276 0.812)"/><circle cx="0.104" cy="0.104" r="0.104" transform="translate(5.461 0.812)"/></g><g class="n" transform="translate(18.475 36.429)"><circle cx="0.104" cy="0.104" r="0.104"/><circle cx="0.104" cy="0.104" r="0.104" transform="translate(0.526 0.147)"/><circle cx="0.104" cy="0.104" r="0.104" transform="translate(1.174 0.355)"/><circle cx="0.104" cy="0.104" r="0.104" transform="translate(2.34 0.606)"/><circle cx="0.104" cy="0.104" r="0.104" transform="translate(3.567 0.755)"/><circle cx="0.104" cy="0.104" r="0.104" transform="translate(4.839 0.812)"/><circle cx="0.104" cy="0.104" r="0.104" transform="translate(6.664 0.562)"/><circle cx="0.104" cy="0.104" r="0.104" transform="translate(6.06 0.708)"/><circle cx="0.104" cy="0.104" r="0.104" transform="translate(7.794 0.355)"/><circle cx="0.104" cy="0.104" r="0.104" transform="translate(7.25 0.457)"/><circle cx="0.104" cy="0.104" r="0.104" transform="translate(8.391 0.147)"/><circle cx="0.104" cy="0.104" r="0.104" transform="translate(1.769 0.502)"/><circle cx="0.104" cy="0.104" r="0.104" transform="translate(2.972 0.708)"/><circle cx="0.104" cy="0.104" r="0.104" transform="translate(4.276 0.812)"/><circle cx="0.104" cy="0.104" r="0.104" transform="translate(5.461 0.812)"/></g><g class="n" transform="translate(18.475 36.939)"><circle cx="0.104" cy="0.104" r="0.104"/><circle cx="0.104" cy="0.104" r="0.104" transform="translate(0.526 0.147)"/><circle cx="0.104" cy="0.104" r="0.104" transform="translate(1.174 0.353)"/><circle cx="0.104" cy="0.104" r="0.104" transform="translate(2.34 0.604)"/><circle cx="0.104" cy="0.104" r="0.104" transform="translate(3.567 0.753)"/><circle cx="0.104" cy="0.104" r="0.104" transform="translate(4.839 0.812)"/><circle cx="0.104" cy="0.104" r="0.104" transform="translate(6.664 0.562)"/><circle cx="0.104" cy="0.104" r="0.104" transform="translate(6.06 0.708)"/><circle cx="0.104" cy="0.104" r="0.104" transform="translate(7.794 0.353)"/><circle cx="0.104" cy="0.104" r="0.104" transform="translate(7.25 0.457)"/><circle cx="0.104" cy="0.104" r="0.104" transform="translate(8.391 0.147)"/><circle cx="0.104" cy="0.104" r="0.104" transform="translate(1.769 0.502)"/><circle cx="0.104" cy="0.104" r="0.104" transform="translate(2.972 0.708)"/><circle cx="0.104" cy="0.104" r="0.104" transform="translate(4.276 0.812)"/><circle cx="0.104" cy="0.104" r="0.104" transform="translate(5.461 0.812)"/></g><g class="n" transform="translate(18.475 37.448)"><circle cx="0.104" cy="0.104" r="0.104"/><circle cx="0.104" cy="0.104" r="0.104" transform="translate(0.526 0.149)"/><circle cx="0.104" cy="0.104" r="0.104" transform="translate(1.174 0.355)"/><circle cx="0.104" cy="0.104" r="0.104" transform="translate(2.34 0.606)"/><circle cx="0.104" cy="0.104" r="0.104" transform="translate(3.567 0.755)"/><circle cx="0.104" cy="0.104" r="0.104" transform="translate(4.839 0.812)"/><circle cx="0.104" cy="0.104" r="0.104" transform="translate(6.664 0.562)"/><circle cx="0.104" cy="0.104" r="0.104" transform="translate(6.06 0.71)"/><circle cx="0.104" cy="0.104" r="0.104" transform="translate(7.794 0.355)"/><circle cx="0.104" cy="0.104" r="0.104" transform="translate(7.25 0.46)"/><circle cx="0.104" cy="0.104" r="0.104" transform="translate(8.391 0.149)"/><circle cx="0.104" cy="0.104" r="0.104" transform="translate(1.769 0.502)"/><circle cx="0.104" cy="0.104" r="0.104" transform="translate(2.972 0.71)"/><circle cx="0.104" cy="0.104" r="0.104" transform="translate(4.276 0.812)"/><circle cx="0.104" cy="0.104" r="0.104" transform="translate(5.461 0.812)"/></g><g class="n" transform="translate(18.475 37.958)"><circle cx="0.104" cy="0.104" r="0.104"/><circle cx="0.104" cy="0.104" r="0.104" transform="translate(0.526 0.147)"/><circle cx="0.104" cy="0.104" r="0.104" transform="translate(1.174 0.353)"/><circle cx="0.104" cy="0.104" r="0.104" transform="translate(2.34 0.604)"/><circle cx="0.104" cy="0.104" r="0.104" transform="translate(3.567 0.753)"/><circle cx="0.104" cy="0.104" r="0.104" transform="translate(4.839 0.812)"/><circle cx="0.104" cy="0.104" r="0.104" transform="translate(6.664 0.562)"/><circle cx="0.104" cy="0.104" r="0.104" transform="translate(6.06 0.708)"/><circle cx="0.104" cy="0.104" r="0.104" transform="translate(7.794 0.353)"/><circle cx="0.104" cy="0.104" r="0.104" transform="translate(7.25 0.457)"/><circle cx="0.104" cy="0.104" r="0.104" transform="translate(8.391 0.147)"/><circle cx="0.104" cy="0.104" r="0.104" transform="translate(1.769 0.502)"/><circle cx="0.104" cy="0.104" r="0.104" transform="translate(2.972 0.708)"/><circle cx="0.104" cy="0.104" r="0.104" transform="translate(4.276 0.812)"/><circle cx="0.104" cy="0.104" r="0.104" transform="translate(5.461 0.812)"/></g><g class="n" transform="translate(18.475 38.467)"><circle cx="0.104" cy="0.104" r="0.104"/><circle cx="0.104" cy="0.104" r="0.104" transform="translate(0.526 0.149)"/><circle cx="0.104" cy="0.104" r="0.104" transform="translate(1.174 0.355)"/><circle cx="0.104" cy="0.104" r="0.104" transform="translate(2.34 0.606)"/><circle cx="0.104" cy="0.104" r="0.104" transform="translate(3.567 0.755)"/><circle cx="0.104" cy="0.104" r="0.104" transform="translate(4.839 0.812)"/><circle cx="0.104" cy="0.104" r="0.104" transform="translate(6.664 0.562)"/><circle cx="0.104" cy="0.104" r="0.104" transform="translate(6.06 0.71)"/><circle cx="0.104" cy="0.104" r="0.104" transform="translate(7.794 0.355)"/><circle cx="0.104" cy="0.104" r="0.104" transform="translate(7.25 0.46)"/><circle cx="0.104" cy="0.104" r="0.104" transform="translate(8.391 0.149)"/><circle cx="0.104" cy="0.104" r="0.104" transform="translate(1.769 0.502)"/><circle cx="0.104" cy="0.104" r="0.104" transform="translate(2.972 0.71)"/><circle cx="0.104" cy="0.104" r="0.104" transform="translate(4.276 0.812)"/><circle cx="0.104" cy="0.104" r="0.104" transform="translate(5.461 0.812)"/></g><g class="n" transform="translate(18.475 38.977)"><circle cx="0.104" cy="0.104" r="0.104"/><circle cx="0.104" cy="0.104" r="0.104" transform="translate(0.526 0.147)"/><circle cx="0.104" cy="0.104" r="0.104" transform="translate(1.174 0.355)"/><circle cx="0.104" cy="0.104" r="0.104" transform="translate(2.34 0.606)"/><circle cx="0.104" cy="0.104" r="0.104" transform="translate(3.567 0.755)"/><circle cx="0.104" cy="0.104" r="0.104" transform="translate(4.839 0.812)"/><circle cx="0.104" cy="0.104" r="0.104" transform="translate(6.664 0.562)"/><circle cx="0.104" cy="0.104" r="0.104" transform="translate(6.06 0.708)"/><circle cx="0.104" cy="0.104" r="0.104" transform="translate(7.794 0.355)"/><circle cx="0.104" cy="0.104" r="0.104" transform="translate(7.25 0.457)"/><circle cx="0.104" cy="0.104" r="0.104" transform="translate(8.391 0.147)"/><circle cx="0.104" cy="0.104" r="0.104" transform="translate(1.769 0.502)"/><circle cx="0.104" cy="0.104" r="0.104" transform="translate(2.972 0.708)"/><circle cx="0.104" cy="0.104" r="0.104" transform="translate(4.276 0.812)"/><circle cx="0.104" cy="0.104" r="0.104" transform="translate(5.461 0.812)"/></g><g class="n" transform="translate(18.475 39.488)"><circle cx="0.104" cy="0.104" r="0.104"/><circle cx="0.104" cy="0.104" r="0.104" transform="translate(0.526 0.147)"/><circle cx="0.104" cy="0.104" r="0.104" transform="translate(1.174 0.353)"/><circle cx="0.104" cy="0.104" r="0.104" transform="translate(2.34 0.604)"/><circle cx="0.104" cy="0.104" r="0.104" transform="translate(3.567 0.753)"/><circle cx="0.104" cy="0.104" r="0.104" transform="translate(4.839 0.81)"/><circle cx="0.104" cy="0.104" r="0.104" transform="translate(6.664 0.559)"/><circle cx="0.104" cy="0.104" r="0.104" transform="translate(6.06 0.708)"/><circle cx="0.104" cy="0.104" r="0.104" transform="translate(7.794 0.353)"/><circle cx="0.104" cy="0.104" r="0.104" transform="translate(7.25 0.457)"/><circle cx="0.104" cy="0.104" r="0.104" transform="translate(8.391 0.147)"/><circle cx="0.104" cy="0.104" r="0.104" transform="translate(1.769 0.499)"/><circle cx="0.104" cy="0.104" r="0.104" transform="translate(2.972 0.708)"/><circle cx="0.104" cy="0.104" r="0.104" transform="translate(4.276 0.81)"/><circle cx="0.104" cy="0.104" r="0.104" transform="translate(5.461 0.81)"/></g><g class="n" transform="translate(18.475 39.996)"><circle cx="0.104" cy="0.104" r="0.104"/><circle cx="0.104" cy="0.104" r="0.104" transform="translate(0.526 0.147)"/><circle cx="0.104" cy="0.104" r="0.104" transform="translate(1.174 0.355)"/><circle cx="0.104" cy="0.104" r="0.104" transform="translate(2.34 0.606)"/><circle cx="0.104" cy="0.104" r="0.104" transform="translate(3.567 0.755)"/><circle cx="0.104" cy="0.104" r="0.104" transform="translate(4.839 0.812)"/><circle cx="0.104" cy="0.104" r="0.104" transform="translate(6.664 0.562)"/><circle cx="0.104" cy="0.104" r="0.104" transform="translate(6.06 0.708)"/><circle cx="0.104" cy="0.104" r="0.104" transform="translate(7.794 0.355)"/><circle cx="0.104" cy="0.104" r="0.104" transform="translate(7.25 0.457)"/><circle cx="0.104" cy="0.104" r="0.104" transform="translate(8.391 0.147)"/><circle cx="0.104" cy="0.104" r="0.104" transform="translate(1.769 0.502)"/><circle cx="0.104" cy="0.104" r="0.104" transform="translate(2.972 0.708)"/><circle cx="0.104" cy="0.104" r="0.104" transform="translate(4.276 0.812)"/><circle cx="0.104" cy="0.104" r="0.104" transform="translate(5.461 0.812)"/></g><g class="n" transform="translate(18.475 40.507)"><circle cx="0.104" cy="0.104" r="0.104"/><circle cx="0.104" cy="0.104" r="0.104" transform="translate(0.526 0.147)"/><circle cx="0.104" cy="0.104" r="0.104" transform="translate(1.174 0.353)"/><circle cx="0.104" cy="0.104" r="0.104" transform="translate(2.34 0.604)"/><circle cx="0.104" cy="0.104" r="0.104" transform="translate(3.567 0.753)"/><circle cx="0.104" cy="0.104" r="0.104" transform="translate(4.839 0.812)"/><circle cx="0.104" cy="0.104" r="0.104" transform="translate(6.664 0.559)"/><circle cx="0.104" cy="0.104" r="0.104" transform="translate(6.06 0.708)"/><circle cx="0.104" cy="0.104" r="0.104" transform="translate(7.794 0.353)"/><circle cx="0.104" cy="0.104" r="0.104" transform="translate(7.25 0.457)"/><circle cx="0.104" cy="0.104" r="0.104" transform="translate(8.391 0.147)"/><circle cx="0.104" cy="0.104" r="0.104" transform="translate(1.769 0.502)"/><circle cx="0.104" cy="0.104" r="0.104" transform="translate(2.972 0.708)"/><circle cx="0.104" cy="0.104" r="0.104" transform="translate(4.276 0.812)"/><circle cx="0.104" cy="0.104" r="0.104" transform="translate(5.461 0.812)"/></g><g class="n" transform="translate(18.475 41.015)"><circle cx="0.104" cy="0.104" r="0.104"/><circle cx="0.104" cy="0.104" r="0.104" transform="translate(0.526 0.147)"/><circle cx="0.104" cy="0.104" r="0.104" transform="translate(1.174 0.355)"/><circle cx="0.104" cy="0.104" r="0.104" transform="translate(2.34 0.606)"/><circle cx="0.104" cy="0.104" r="0.104" transform="translate(3.567 0.755)"/><circle cx="0.104" cy="0.104" r="0.104" transform="translate(4.839 0.812)"/><circle cx="0.104" cy="0.104" r="0.104" transform="translate(6.664 0.562)"/><circle cx="0.104" cy="0.104" r="0.104" transform="translate(6.06 0.708)"/><circle cx="0.104" cy="0.104" r="0.104" transform="translate(7.794 0.355)"/><circle cx="0.104" cy="0.104" r="0.104" transform="translate(7.25 0.457)"/><circle cx="0.104" cy="0.104" r="0.104" transform="translate(8.391 0.147)"/><circle cx="0.104" cy="0.104" r="0.104" transform="translate(1.769 0.502)"/><circle cx="0.104" cy="0.104" r="0.104" transform="translate(2.972 0.708)"/><circle cx="0.104" cy="0.104" r="0.104" transform="translate(4.276 0.812)"/><circle cx="0.104" cy="0.104" r="0.104" transform="translate(5.461 0.812)"/></g><g class="n" transform="translate(18.475 41.526)"><circle cx="0.104" cy="0.104" r="0.104"/><circle cx="0.104" cy="0.104" r="0.104" transform="translate(0.526 0.147)"/><circle cx="0.104" cy="0.104" r="0.104" transform="translate(1.174 0.353)"/><circle cx="0.104" cy="0.104" r="0.104" transform="translate(2.34 0.604)"/><circle cx="0.104" cy="0.104" r="0.104" transform="translate(3.567 0.753)"/><circle cx="0.104" cy="0.104" r="0.104" transform="translate(4.839 0.812)"/><circle cx="0.104" cy="0.104" r="0.104" transform="translate(6.664 0.562)"/><circle cx="0.104" cy="0.104" r="0.104" transform="translate(6.06 0.708)"/><circle cx="0.104" cy="0.104" r="0.104" transform="translate(7.794 0.353)"/><circle cx="0.104" cy="0.104" r="0.104" transform="translate(7.25 0.457)"/><circle cx="0.104" cy="0.104" r="0.104" transform="translate(8.391 0.147)"/><circle cx="0.104" cy="0.104" r="0.104" transform="translate(1.769 0.502)"/><circle cx="0.104" cy="0.104" r="0.104" transform="translate(2.972 0.708)"/><circle cx="0.104" cy="0.104" r="0.104" transform="translate(4.276 0.812)"/><circle cx="0.104" cy="0.104" r="0.104" transform="translate(5.461 0.812)"/></g><g class="n" transform="translate(18.475 42.034)"><circle cx="0.104" cy="0.104" r="0.104"/><circle cx="0.104" cy="0.104" r="0.104" transform="translate(0.526 0.149)"/><circle cx="0.104" cy="0.104" r="0.104" transform="translate(1.174 0.355)"/><circle cx="0.104" cy="0.104" r="0.104" transform="translate(2.34 0.606)"/><circle cx="0.104" cy="0.104" r="0.104" transform="translate(3.567 0.755)"/><circle cx="0.104" cy="0.104" r="0.104" transform="translate(4.839 0.812)"/><circle cx="0.104" cy="0.104" r="0.104" transform="translate(6.664 0.562)"/><circle cx="0.104" cy="0.104" r="0.104" transform="translate(6.06 0.71)"/><circle cx="0.104" cy="0.104" r="0.104" transform="translate(7.794 0.355)"/><circle cx="0.104" cy="0.104" r="0.104" transform="translate(7.25 0.46)"/><circle cx="0.104" cy="0.104" r="0.104" transform="translate(8.391 0.149)"/><circle cx="0.104" cy="0.104" r="0.104" transform="translate(1.769 0.502)"/><circle cx="0.104" cy="0.104" r="0.104" transform="translate(2.972 0.71)"/><circle cx="0.104" cy="0.104" r="0.104" transform="translate(4.276 0.812)"/><circle cx="0.104" cy="0.104" r="0.104" transform="translate(5.461 0.812)"/></g><g class="n" transform="translate(18.475 42.545)"><circle cx="0.104" cy="0.104" r="0.104"/><circle cx="0.104" cy="0.104" r="0.104" transform="translate(0.526 0.147)"/><circle cx="0.104" cy="0.104" r="0.104" transform="translate(1.174 0.353)"/><circle cx="0.104" cy="0.104" r="0.104" transform="translate(2.34 0.604)"/><circle cx="0.104" cy="0.104" r="0.104" transform="translate(3.567 0.753)"/><circle cx="0.104" cy="0.104" r="0.104" transform="translate(4.839 0.812)"/><circle cx="0.104" cy="0.104" r="0.104" transform="translate(6.664 0.562)"/><circle cx="0.104" cy="0.104" r="0.104" transform="translate(6.06 0.708)"/><circle cx="0.104" cy="0.104" r="0.104" transform="translate(7.794 0.353)"/><circle cx="0.104" cy="0.104" r="0.104" transform="translate(7.25 0.457)"/><circle cx="0.104" cy="0.104" r="0.104" transform="translate(8.391 0.147)"/><circle cx="0.104" cy="0.104" r="0.104" transform="translate(1.769 0.502)"/><circle cx="0.104" cy="0.104" r="0.104" transform="translate(2.972 0.708)"/><circle cx="0.104" cy="0.104" r="0.104" transform="translate(4.276 0.812)"/><circle cx="0.104" cy="0.104" r="0.104" transform="translate(5.461 0.812)"/></g><g class="n" transform="translate(18.475 43.053)"><circle cx="0.104" cy="0.104" r="0.104"/><circle cx="0.104" cy="0.104" r="0.104" transform="translate(0.526 0.149)"/><circle cx="0.104" cy="0.104" r="0.104" transform="translate(1.174 0.355)"/><circle cx="0.104" cy="0.104" r="0.104" transform="translate(2.34 0.606)"/><circle cx="0.104" cy="0.104" r="0.104" transform="translate(3.567 0.755)"/><circle cx="0.104" cy="0.104" r="0.104" transform="translate(4.839 0.812)"/><circle cx="0.104" cy="0.104" r="0.104" transform="translate(6.664 0.562)"/><circle cx="0.104" cy="0.104" r="0.104" transform="translate(6.06 0.71)"/><circle cx="0.104" cy="0.104" r="0.104" transform="translate(7.794 0.355)"/><circle cx="0.104" cy="0.104" r="0.104" transform="translate(7.25 0.46)"/><circle cx="0.104" cy="0.104" r="0.104" transform="translate(8.391 0.149)"/><circle cx="0.104" cy="0.104" r="0.104" transform="translate(1.769 0.502)"/><circle cx="0.104" cy="0.104" r="0.104" transform="translate(2.972 0.71)"/><circle cx="0.104" cy="0.104" r="0.104" transform="translate(4.276 0.812)"/><circle cx="0.104" cy="0.104" r="0.104" transform="translate(5.461 0.812)"/></g><g class="n" transform="translate(18.475 43.564)"><circle cx="0.104" cy="0.104" r="0.104"/><circle cx="0.104" cy="0.104" r="0.104" transform="translate(0.526 0.147)"/><circle cx="0.104" cy="0.104" r="0.104" transform="translate(1.174 0.355)"/><circle cx="0.104" cy="0.104" r="0.104" transform="translate(2.34 0.606)"/><circle cx="0.104" cy="0.104" r="0.104" transform="translate(3.567 0.755)"/><circle cx="0.104" cy="0.104" r="0.104" transform="translate(4.839 0.812)"/><circle cx="0.104" cy="0.104" r="0.104" transform="translate(6.664 0.562)"/><circle cx="0.104" cy="0.104" r="0.104" transform="translate(6.06 0.708)"/><circle cx="0.104" cy="0.104" r="0.104" transform="translate(7.794 0.355)"/><circle cx="0.104" cy="0.104" r="0.104" transform="translate(7.25 0.457)"/><circle cx="0.104" cy="0.104" r="0.104" transform="translate(8.391 0.147)"/><circle cx="0.104" cy="0.104" r="0.104" transform="translate(1.769 0.502)"/><circle cx="0.104" cy="0.104" r="0.104" transform="translate(2.972 0.708)"/><circle cx="0.104" cy="0.104" r="0.104" transform="translate(4.276 0.812)"/><circle cx="0.104" cy="0.104" r="0.104" transform="translate(5.461 0.812)"/></g><g class="n" transform="translate(18.475 44.074)"><circle cx="0.104" cy="0.104" r="0.104"/><circle cx="0.104" cy="0.104" r="0.104" transform="translate(0.526 0.147)"/><circle cx="0.104" cy="0.104" r="0.104" transform="translate(1.174 0.353)"/><circle cx="0.104" cy="0.104" r="0.104" transform="translate(2.34 0.604)"/><circle cx="0.104" cy="0.104" r="0.104" transform="translate(3.567 0.753)"/><circle cx="0.104" cy="0.104" r="0.104" transform="translate(4.839 0.81)"/><circle cx="0.104" cy="0.104" r="0.104" transform="translate(6.664 0.559)"/><circle cx="0.104" cy="0.104" r="0.104" transform="translate(6.06 0.708)"/><circle cx="0.104" cy="0.104" r="0.104" transform="translate(7.794 0.353)"/><circle cx="0.104" cy="0.104" r="0.104" transform="translate(7.25 0.457)"/><circle cx="0.104" cy="0.104" r="0.104" transform="translate(8.391 0.147)"/><circle cx="0.104" cy="0.104" r="0.104" transform="translate(1.769 0.499)"/><circle cx="0.104" cy="0.104" r="0.104" transform="translate(2.972 0.708)"/><circle cx="0.104" cy="0.104" r="0.104" transform="translate(4.276 0.81)"/><circle cx="0.104" cy="0.104" r="0.104" transform="translate(5.461 0.81)"/></g><g class="n" transform="translate(18.475 44.583)"><circle cx="0.104" cy="0.104" r="0.104"/><circle cx="0.104" cy="0.104" r="0.104" transform="translate(0.526 0.147)"/><circle cx="0.104" cy="0.104" r="0.104" transform="translate(1.174 0.355)"/><circle cx="0.104" cy="0.104" r="0.104" transform="translate(2.34 0.606)"/><circle cx="0.104" cy="0.104" r="0.104" transform="translate(3.567 0.755)"/><circle cx="0.104" cy="0.104" r="0.104" transform="translate(4.839 0.812)"/><circle cx="0.104" cy="0.104" r="0.104" transform="translate(6.664 0.562)"/><circle cx="0.104" cy="0.104" r="0.104" transform="translate(6.06 0.708)"/><circle cx="0.104" cy="0.104" r="0.104" transform="translate(7.794 0.355)"/><circle cx="0.104" cy="0.104" r="0.104" transform="translate(7.25 0.457)"/><circle cx="0.104" cy="0.104" r="0.104" transform="translate(8.391 0.147)"/><circle cx="0.104" cy="0.104" r="0.104" transform="translate(1.769 0.502)"/><circle cx="0.104" cy="0.104" r="0.104" transform="translate(2.972 0.708)"/><circle cx="0.104" cy="0.104" r="0.104" transform="translate(4.276 0.812)"/><circle cx="0.104" cy="0.104" r="0.104" transform="translate(5.461 0.812)"/></g><g class="n" transform="translate(18.475 45.093)"><circle cx="0.104" cy="0.104" r="0.104"/><circle cx="0.104" cy="0.104" r="0.104" transform="translate(0.526 0.147)"/><circle cx="0.104" cy="0.104" r="0.104" transform="translate(1.174 0.353)"/><circle cx="0.104" cy="0.104" r="0.104" transform="translate(2.34 0.604)"/><circle cx="0.104" cy="0.104" r="0.104" transform="translate(3.567 0.753)"/><circle cx="0.104" cy="0.104" r="0.104" transform="translate(4.839 0.81)"/><circle cx="0.104" cy="0.104" r="0.104" transform="translate(6.664 0.559)"/><circle cx="0.104" cy="0.104" r="0.104" transform="translate(6.06 0.708)"/><circle cx="0.104" cy="0.104" r="0.104" transform="translate(7.794 0.353)"/><circle cx="0.104" cy="0.104" r="0.104" transform="translate(7.25 0.457)"/><circle cx="0.104" cy="0.104" r="0.104" transform="translate(8.391 0.147)"/><circle cx="0.104" cy="0.104" r="0.104" transform="translate(1.769 0.502)"/><circle cx="0.104" cy="0.104" r="0.104" transform="translate(2.972 0.708)"/><circle cx="0.104" cy="0.104" r="0.104" transform="translate(4.276 0.81)"/><circle cx="0.104" cy="0.104" r="0.104" transform="translate(5.461 0.81)"/></g><path class="c" d="M984.154,249.834s3.039-1.137,4.049,1.205l.284.073.637.164c1.609-2.4,5.847,0,5.847,0l5.949,2.631-.222.371-5.963-2.08s-.788,2.442-1.822,3.03-2.715-.326-2.715-.326c-1.048-.42-1.128-2.26-1.11-3.148l-.9-.18c-.062.888-.391,2.6-2,2.793a1.9,1.9,0,0,1-2.34-1.667S983.794,250.244,984.154,249.834Z" transform="translate(-949.107 -239.056)"/><path class="k" d="M989.333,213.049c-.1.222-.24.535-.038.679a.375.375,0,0,0,.3.036c.642-.14.981-.824,1.25-1.423s.666-1.27,1.332-1.332c.77-.064,1.576.775,2.22.335.2-.133.313-.368.53-.466a.865.865,0,0,1,.493-.031,3.459,3.459,0,0,1,2.826,2.961c.033.311.1.715.406.764a1.312,1.312,0,0,0,.344-.04c.582-.067.937.6,1.123,1.159a4.761,4.761,0,0,1,.362,2.342,12.493,12.493,0,0,0-.5,1.818,3.4,3.4,0,0,0,.417,1.487c.215.473.566,1.028,1.081.961.422-.056.655-.5.859-.888s.568-.779.979-.666c.182.053.373.209.54.113a.388.388,0,0,0,.157-.271c.2-.875-.086-1.856.338-2.644a5.183,5.183,0,0,1,1.529-1.365,4.373,4.373,0,0,0,.59-6.265c-.575-.666-1.405-1.272-1.452-2.158-.036-.666.422-1.3.426-1.971a2.418,2.418,0,0,0-.888-1.694,5.823,5.823,0,0,0-5.235-1.379,4.178,4.178,0,0,1-1.465.235,4.846,4.846,0,0,1-1.567-.715,4.007,4.007,0,0,0-5,1.361c-.593.921-.824,2.124-1.707,2.77-.581.424-1.412.582-1.734,1.225a2.185,2.185,0,0,0-.08,1.272,2.978,2.978,0,0,0,.95,1.818C989.226,211.652,989.688,212.234,989.333,213.049Z" transform="translate(-952.117 -202.249)"/><g class="o" transform="translate(35.565 4.203)"><path d="M1066.81,221.7a3.3,3.3,0,0,0,.133-.519,3.1,3.1,0,0,0-.133.519Z" transform="translate(-1049.218 -221.18)"/><path d="M989.335,232.075a1.855,1.855,0,0,1,.125-.333c.359-.815-.1-1.4-.64-1.945a2.98,2.98,0,0,1-.95-1.818,4.63,4.63,0,0,1-.053-.579,1.305,1.305,0,0,0-.118.182,2.188,2.188,0,0,0-.08,1.272,2.979,2.979,0,0,0,.95,1.818A2.041,2.041,0,0,1,989.335,232.075Z" transform="translate(-987.565 -226.019)"/><path d="M1046.432,277.959c-.411-.12-.775.284-.977.666s-.444.824-.861.888c-.513.067-.865-.488-1.081-.961a3.284,3.284,0,0,1-.417-1.487.644.644,0,0,1,.018-.184,2.566,2.566,0,0,0,.151,2.546c.215.473.566,1.028,1.081.961.422-.055.654-.5.859-.888s.568-.779.979-.666c.182.053.373.209.539.113a.388.388,0,0,0,.158-.271,3.332,3.332,0,0,0,.073-.595C1046.8,278.152,1046.616,278.017,1046.432,277.959Z" transform="translate(-1030.574 -264.515)"/><path d="M1064.442,256.745a5.239,5.239,0,0,0-1.529,1.365,2.2,2.2,0,0,0-.222.846,5.31,5.31,0,0,1,1.512-1.332,4.44,4.44,0,0,0,1.576-2.664A4.441,4.441,0,0,1,1064.442,256.745Z" transform="translate(-1046.013 -247.461)"/><path d="M1005.609,244.958a5.068,5.068,0,0,0,.237-.77,4.763,4.763,0,0,0-.364-2.342c-.184-.555-.542-1.225-1.11-1.159a1.32,1.32,0,0,1-.346.04c-.309-.049-.373-.444-.4-.764A3.461,3.461,0,0,0,1000.8,237a.871.871,0,0,0-.5.031c-.222.1-.335.333-.528.466-.637.444-1.443-.4-2.22-.335-.653.053-1.055.724-1.332,1.332s-.609,1.283-1.25,1.423a.376.376,0,0,1-.3-.035.24.24,0,0,1-.1-.187,1.428,1.428,0,0,1-.113.382c-.1.222-.24.535-.038.679a.376.376,0,0,0,.3.035c.641-.14.981-.824,1.25-1.423s.666-1.27,1.332-1.332c.77-.064,1.576.775,2.22.335.2-.133.313-.368.531-.466a.863.863,0,0,1,.493-.031,3.459,3.459,0,0,1,2.826,2.961c.033.311.1.715.406.764a1.306,1.306,0,0,0,.344-.04c.582-.067.937.6,1.123,1.159A5.139,5.139,0,0,1,1005.609,244.958Z" transform="translate(-992.817 -233.473)"/></g></g><g class="a"><path class="b" d="M39.482,118.943c0,.206,0,.413.016.622a43.471,43.471,0,0,0,.781,6.74,77.469,77.469,0,0,0,7.073,19.535c.051.1.1.2.151.3.075.149.149.3.222.444q.222.457.462.906l.349.666h0c.082.16.169.32.253.482.051.1.1.2.16.3a55.4,55.4,0,0,0,2.853,4.83l.118.173a30,30,0,0,0,4.52,5.328,26.8,26.8,0,0,0,10.9,5.9c.138.04.275.075.415.113.266.069.537.135.808.2.186.044.373.087.562.124a29.476,29.476,0,0,0,3.945.571c.719.055,1.441.082,2.158.082h.311a26.314,26.314,0,0,0,2.653-.155l.127-.016a23,23,0,0,0,6.917-1.863q.526-.235,1.032-.5l.173-.089.084-.047h0a28.009,28.009,0,0,0,3.254-2.036c1.21-.868,2.351-1.809,3.454-2.777a53.157,53.157,0,0,0,4.662-4.591l.067-.073q.939-1.059,1.791-2.176v-.013q.593-.779,1.137-1.587c.018-.022.033-.047.051-.073.531-.793,1.023-1.6,1.472-2.442l.1-.193q.486-.919.888-1.869a37.628,37.628,0,0,0,2.6-11.308,67.19,67.19,0,0,0-1.752-23.722q-.42-1.589-.93-3.163c-.047-.14-.091-.282-.14-.422-.073-.222-.151-.444-.222-.677-.031-.093-.064-.189-.1-.282q-.444-1.279-.961-2.542l-.18-.444c-.189-.444-.382-.908-.584-1.359-.184-.415-.375-.832-.575-1.245-.033-.067-.064-.131-.1-.2A27.286,27.286,0,0,0,93.322,90.9q-.333-.263-.666-.513-.5-.373-1.032-.715l-.251-.16-.093-.058-.067-.04-.038-.022c-.18-.109-.364-.222-.548-.315s-.377-.2-.568-.3h-.027l-.075-.036c-.149-.075-.3-.146-.444-.222l-.155-.069-.06-.027-.251-.1a17.538,17.538,0,0,0-3.539-1.059,16.342,16.342,0,0,0-2.033-.249,13.463,13.463,0,0,0-3.092.166c-.155.027-.309.056-.462.089a9.428,9.428,0,0,0-3.585,1.554A13.2,13.2,0,0,0,73.058,92.6l-.091.142c-.151.238-.3.475-.444.713-.513.83-1.026,1.665-1.567,2.484-.5.759-1.028,1.505-1.6,2.22a18.912,18.912,0,0,1-1.865,2.029c-.1.093-.2.186-.306.277a13.868,13.868,0,0,1-4.2,2.568,7.834,7.834,0,0,1-4.335.455h0a5.791,5.791,0,0,1-1.194-.382c-.724-.32-1.432-.633-2.129-.91a15.761,15.761,0,0,0-3.891-1.11h0a8.658,8.658,0,0,0-4.1.444c-.222.078-.433.167-.653.264a9.269,9.269,0,0,0-2.624,1.756c-.091.087-.18.175-.269.264a15.014,15.014,0,0,0-3.587,7.417,33.743,33.743,0,0,0-.721,7.707Z" transform="translate(-39.474 -73.043)"/><path class="b" d="M39.5,118.943a2.222,2.222,0,0,0,.059.622,14.777,14.777,0,0,0,2.98,6.74c4.852,6.615,14.986,13.231,26.976,19.535.195.1.389.2.576.3.288.149.567.3.847.444q.847.457,1.761.906l1.329.666h0c.313.16.643.32.965.482.195.1.4.2.61.3q4.97,2.486,10.88,4.83l.449.173a134.684,134.684,0,0,0,17.239,5.328c11.464,2.764,26.027,4.762,41.581,5.9.525.04,1.05.075,1.583.113,1.016.069,2.049.135,3.082.2.711.044,1.422.087,2.142.124,4.96.279,9.987.47,15.046.571,2.743.055,5.5.082,8.23.082h1.185q5.071-.011,10.118-.155l.483-.016c9.111-.256,18.014-.884,26.383-1.863q2.007-.235,3.937-.5l.66-.089.322-.047h0c4.31-.6,8.457-1.283,12.413-2.036,4.614-.868,8.966-1.809,13.174-2.777q9.421-2.15,17.781-4.591l.254-.073q3.582-1.059,6.833-2.176v-.013q2.261-.779,4.335-1.587c.068-.022.127-.047.195-.073,2.024-.793,3.9-1.6,5.614-2.442l.389-.193q1.854-.919,3.387-1.869c5.859-3.57,8.467-7.434,9.9-11.308,2.921-7.827,1.219-15.892-6.68-23.722a46.555,46.555,0,0,0-3.548-3.163c-.178-.14-.347-.282-.533-.422-.279-.222-.576-.444-.847-.677-.119-.093-.246-.189-.372-.282q-1.693-1.279-3.666-2.542l-.686-.444c-.72-.444-1.456-.908-2.227-1.359-.7-.415-1.431-.832-2.193-1.245-.127-.067-.245-.131-.364-.2-6.52-3.51-15.071-6.922-27.23-9.495q-1.27-.263-2.54-.513-1.905-.373-3.937-.715l-.957-.16-.356-.058-.254-.04-.144-.022c-.686-.109-1.389-.222-2.091-.315s-1.439-.2-2.168-.3h-.1l-.288-.036c-.567-.075-1.143-.146-1.693-.222l-.593-.069-.229-.027-.957-.1c-4.344-.477-8.868-.831-13.5-1.059-2.563-.125-5.153-.208-7.756-.249-3.943-.064-7.9-.008-11.794.166-.593.027-1.177.056-1.761.089a106.747,106.747,0,0,0-13.674,1.554,60.71,60.71,0,0,0-12.5,3.774l-.347.142c-.576.238-1.135.475-1.693.713-1.956.83-3.912,1.665-5.978,2.484-1.913.759-3.92,1.505-6.088,2.22s-4.556,1.4-7.112,2.029q-.571.14-1.168.277a128.857,128.857,0,0,1-16.011,2.568,110.164,110.164,0,0,1-16.536.455h0c-1.567-.084-3.094-.212-4.555-.382-2.76-.32-5.461-.633-8.12-.91-4.745-.536-9.734-.909-14.843-1.11h0a122.24,122.24,0,0,0-15.655.444c-.847.078-1.651.167-2.489.264a80.278,80.278,0,0,0-10.008,1.756c-.347.087-.686.175-1.024.264-7.409,1.985-11.49,4.731-13.683,7.417a10.78,10.78,0,0,0-2.752,7.707Z" transform="translate(-9.359 68.81)"/><path class="p" d="M165.444,115.753l-.444.515c.138.04.275.075.415.113.266.069.537.135.808.2.186.044.373.087.562.124a29.476,29.476,0,0,0,3.945.571c.719.055,1.441.082,2.158.082a3.393,3.393,0,0,0,.36-.642,13.781,13.781,0,0,1,2.664-3.072c-.024.2-.04.311-.04.311v.078l-.013,3.168.127-.016a23,23,0,0,0,6.917-1.862q.526-.235,1.032-.5l.173-.089.084-.047c.153-.764.293-1.5.406-2.08l.013-.082c.016-.078.029-.155.044-.222s.024-.138.038-.2.016-.091.024-.133c.075-.4.118-.642.118-.642a3.134,3.134,0,0,1,.04-.364,3.206,3.206,0,0,1,.859-1.8,1.685,1.685,0,0,0,.413-.713h0a6.253,6.253,0,0,0,.167-2.189c-.011-.149-.024-.238-.024-.238a3.335,3.335,0,0,0,1.345-1.823,5.442,5.442,0,0,0,.242-.888c.362-1.951,1.479-6.067,1.616-6.573h0l.013-.049s.029-.071.08-.206a.245.245,0,0,1,.016-.049l.02-.051c.5-1.374,2.442-6.944,2.284-10.642a31.155,31.155,0,0,1,.257-6.458l.5-9.23v-.1l.029-.539v-.153c.073.055.14.109.193.153l.122.1.042.04v-.107c.078.064.122.107.122.107s.222-3.585.2-5.612c0-.238,0-.457-.018-.644,1.5-.508,3.774-1.347,3.914-1.776a7.326,7.326,0,0,1,1.678-1.752l.4-.333.206-.171c.289-.235.486-.388.486-.388a.443.443,0,0,1-.158-.06c.08-.036.166-.078.255-.127.222-.115.444-.258.7-.424a11.977,11.977,0,0,0,3.1-2.886,2.408,2.408,0,0,0,.531-1.7.956.956,0,0,0-.035-.142L207.5,49.14l.357-.515a.839.839,0,0,0-.076-1.052l.013-.018-.022-.016-.133-.089.024.022a.444.444,0,0,0-.577.124l-.053.078L204.07,51.92l-.522.753c-1.154-.349-2.835.633-4.16,1.632-.479.362-.915.724-1.259,1.028l-.222.2c-.1-.222-.164-.377-.164-.377-.064.7-2.542,1.754-3.119,2.136a2.111,2.111,0,0,1-.864.291c.082-2.664-1.98-5.472-1.98-5.472l-4-5.095h0l-.246-.313-.79-1.006a4.631,4.631,0,0,1-.071-.95,5.889,5.889,0,0,1,.222-1.541c.024-.08.051-.162.078-.244a5.245,5.245,0,0,1,.277-.666c.042-.082.084-.166.131-.249h.022c-.087.306-.178.615-.24.923-.018.084-.033.166-.044.251l-.013.1a3.381,3.381,0,0,0-.018.4v.058c.04.535.433,2.475.97,2.389a.315.315,0,0,0,.289-.14,1.38,1.38,0,0,0,.16-.222,1.439,1.439,0,0,0,.091-.186,2.085,2.085,0,0,0,.091-.266,5.368,5.368,0,0,0,.127-1.554,4.485,4.485,0,0,1-.08.724c.029-.562-.018-1.152-.036-1.632v-.6h0a2.881,2.881,0,0,1,.011-.309h.062v0h.064a6.661,6.661,0,0,0,1.472-.444,6.771,6.771,0,0,0,1.607-.979,1.684,1.684,0,0,0,.315-.044,1.663,1.663,0,0,0,.8-.444l.044-.049a1.123,1.123,0,0,1-.191,1.017.172.172,0,0,1-.024.031h.031a1.821,1.821,0,0,0,1.445-1.11.354.354,0,0,0,.027-.06,4.064,4.064,0,0,0,.193-1.973,13.338,13.338,0,0,1-.144-2c0-.162.029-.324.044-.486v-.058a3.145,3.145,0,0,0,0-.542.24.24,0,0,0,0-.038,2.092,2.092,0,0,0-.053-.291h.02a.475.475,0,0,0,.366-.189l.04-.033a.771.771,0,0,0,.129-.151,1.159,1.159,0,0,0,.122-.222,3.741,3.741,0,0,0,.153-.544,8.312,8.312,0,0,0,.26-2.284c-.016.222-.044.466-.08.7a3.071,3.071,0,0,0-.646-2.38,4.531,4.531,0,0,0-1.5-.955,1.128,1.128,0,0,1-.486-.346,1.433,1.433,0,0,1-.151-.608,3.961,3.961,0,0,0-2.611-2.71,5.779,5.779,0,0,0-4.919-.162,15.431,15.431,0,0,0-1.953,1.5c-.83.628-1.776,1.07-2.664,1.621a5.361,5.361,0,0,0-2.162,2.184,5.967,5.967,0,0,0-.242,3.108c.06.542.133,1.083.162,1.616v.131a8.337,8.337,0,0,1-.666,3.574,7,7,0,0,1-2.293,2.928,2.588,2.588,0,0,0-.648.562.7.7,0,0,0-.053.8.868.868,0,0,0,.18.169,1.432,1.432,0,0,1,.206.178.621.621,0,0,1,.115.2,1.176,1.176,0,0,1,.018.646.1.1,0,0,1-.011.058l-.027.111a6.317,6.317,0,0,1-1.718,2.906c.035.262.355.364.619.4h0a14.384,14.384,0,0,0,2.1.151h.3c-.033.08-.064.162-.1.249h0c-.071.189-.149.4-.222.622h0a6.791,6.791,0,0,0-.484,2.861c.258,1.487,1.028,8.282.644,9.472s.6,9.9.6,9.9.027.135.078.373c.062.293.162.741.291,1.29a.183.183,0,0,1-.029.069c-.6,1.41-1.274,2.952-1.616,3.578-.46.841-.466,3.958.273,6.811a10.049,10.049,0,0,0,1.776,3.849s.839,1.183.775,1.776a.406.406,0,0,1-.042.142,1.907,1.907,0,0,0-.015,1.192c.031.129.06.209.06.209v.222l.371,8.2a21.673,21.673,0,0,1-.178,2.568c-1.023,1.268-2.6,3.108-3.348,3.419-1.15.468-9.728,10.878-9.728,10.878s.069.124.2.329Z" transform="translate(-137.135 -24.143)"/><path class="q" d="M312.027,162.064a2.219,2.219,0,0,1-.821.311c-1.072.033-1.956-2.87-1.956-2.87s.306-.309.792-.741c1.436-1.279,4.451-3.638,5.865-2.318C317.493,157.926,313.874,161.065,312.027,162.064Z" transform="translate(-242.639 -126.773)"/><path class="q" d="M168.223,435.5a29.491,29.491,0,0,0,3.945.571c-.562-.992-4.218-2.171-4.218-2.171l-.5.577-.235.277-.36.422c.266.069.537.135.808.2C167.85,435.421,168.037,435.463,168.223,435.5Z" transform="translate(-138.582 -332.876)"/><path class="d" d="M312.027,171.551a2.219,2.219,0,0,1-.821.311c-1.072.033-1.956-2.87-1.956-2.87s.306-.309.792-.741C310.384,169.04,311.352,171.158,312.027,171.551Z" transform="translate(-242.753 -136.26)"/><path class="r" d="M287.147,169.9a2.687,2.687,0,0,0,1.452-.315c.564-.38,3-1.419,3.059-2.113,0,0,1.452,3.534,2.271,3.661,0,0-2.524,1.987-2.713,2.617s-5.106,2.175-5.106,2.175Z" transform="translate(-225.194 -135.653)"/><path class="s" d="M287.147,169.9a2.687,2.687,0,0,0,1.452-.315c.564-.38,3-1.419,3.059-2.113,0,0,1.452,3.534,2.271,3.661,0,0-2.524,1.987-2.713,2.617s-5.106,2.175-5.106,2.175Z" transform="translate(-225.194 -135.653)"/><path class="d" d="M168.46,434.755c.109.166.257.38.444.622.186.044.373.087.562.124a29.492,29.492,0,0,0,3.945.571c-.562-.992-4.218-2.171-4.218-2.171l-.5.577Z" transform="translate(-139.826 -332.876)"/><path class="t" d="M168.63,381.193s.067.124.2.326a9.443,9.443,0,0,0,.775,1.023,29.485,29.485,0,0,0,3.945.571c.719.055,1.441.082,2.158.082h.311a3.185,3.185,0,0,0,.222-.444,12.9,12.9,0,0,1,2.442-2.886c.053-.055.111-.109.164-.162,1.618-1.569,3.368-3.055,3.368-3.055l.169-10.809s-.384.513-.93,1.2c-1,1.254-2.555,3.086-3.283,3.385C177.041,370.9,168.63,381.193,168.63,381.193Z" transform="translate(-139.959 -280.94)"/><path class="d" d="M188.47,428.01a13.4,13.4,0,0,0,2.808,0C192.95,427.853,191.7,428.863,188.47,428.01Z" transform="translate(-155.394 -328.51)"/><path class="d" d="M185.06,432.91s2.209,1.261,3.061.63S187.3,434.149,185.06,432.91Z" transform="translate(-152.741 -332.195)"/><path class="t" d="M214.585,244.084a.866.866,0,0,1,.036.617,1.38,1.38,0,0,0-.093.717,3.1,3.1,0,0,0,.069.422c.035.149.069.249.069.249l.373,8.327a21.78,21.78,0,0,1-.173,2.544,6.346,6.346,0,0,1-.666,2.335c-.753,1.154-1.736,8.7-1.94,10.331l-.038.309-.013,3.006a23,23,0,0,0,6.917-1.863q.526-.235,1.032-.5l.173-.089.084-.047h0c.153-.781.293-1.516.4-2.076l.013-.082c.016-.08.031-.155.044-.222s.024-.138.038-.2.016-.091.024-.133c.044-.249.071-.391.071-.391a3.829,3.829,0,0,1,.087-.615,3.028,3.028,0,0,1,.792-1.527,1.911,1.911,0,0,0,.479-.983h0a7.274,7.274,0,0,0,.064-2.124,1.155,1.155,0,0,0,.122-.087,3.719,3.719,0,0,0,1.321-2.06,5.321,5.321,0,0,0,.133-.566c.38-2.06,1.6-6.562,1.6-6.562s.047-.122.127-.342h0c.029-.073.06-.16.093-.255a.247.247,0,0,1,.016-.049l.02-.051c.637-1.823,2.233-6.768,2.1-10.141a30.933,30.933,0,0,1,.251-6.393l.526-9.768v-.244l.049-.919-4.839-.144h-.282l-1.15-.036h-.16l-1.554-.047-.695-.02-1.252-.038h-.457l-.966-.029-2.815,1.641s-.109.273-.289.706c-.038.1-.082.206-.131.32s-.1.238-.151.368l-.4.959c-.047.113-.093.222-.142.342-.595,1.416-1.272,2.984-1.614,3.612-.424.781-.444,3.552.14,6.216a10.657,10.657,0,0,0,1.867,4.344A6.214,6.214,0,0,1,214.585,244.084Z" transform="translate(-173.372 -173.584)"/><path class="d" d="M239.34,414.43s1.725,1.361,2.442,1.356S239.34,414.43,239.34,414.43Z" transform="translate(-194.972 -318.243)"/><path class="q" d="M238.793,100.739v2.777l-1.834-.79-1.825-.788-3.974-3.911a30.222,30.222,0,0,1-4.828-3.9c-.961-1.063-1.445-2.065-.6-2.593a5.256,5.256,0,0,0,1.1-.966,17.962,17.962,0,0,0,2.193-3.237c.027-.047.053-.093.078-.14.819-1.5,1.361-2.786,1.361-2.786a17.015,17.015,0,0,1,3.787,1.776c.12.082.233.169.342.258.828.679,1.237,1.463.477,2.247a5.928,5.928,0,0,0-.544.648h0a4.819,4.819,0,0,0-.337.531c-.047.082-.089.164-.129.246a5.672,5.672,0,0,0-.506,3.368Z" transform="translate(-179.293 -71.023)"/><path class="k" d="M284.209,63.129c.1.164.222.309.317.477a2.294,2.294,0,0,1,.138,1.179,6.742,6.742,0,0,0,.122,1.878,8.675,8.675,0,0,1,.393,1.656,4.291,4.291,0,0,1-.793,2.24,1.616,1.616,0,0,0,1.154-.537,1.11,1.11,0,0,1-.222,1.037,1.788,1.788,0,0,0,1.476-1.161,4.083,4.083,0,0,0,.189-1.951,13.09,13.09,0,0,1-.142-1.974A7.607,7.607,0,0,0,286.9,64.9a4.013,4.013,0,0,0-.923-1.914l-.855-1.17a.6.6,0,0,0-.235-.222C284.08,61.246,283.982,62.734,284.209,63.129Z" transform="translate(-223.801 -53.238)"/><path class="d" d="M248.145,88.616a5.926,5.926,0,0,0-.544.648h0a4.825,4.825,0,0,0-.337.531c-.047.082-.089.164-.129.246a6.566,6.566,0,0,1-3.15-1,6.644,6.644,0,0,1-1.807-1.683c-.027-.036-.053-.073-.078-.111.027-.047.053-.093.078-.14.819-1.5,1.361-2.786,1.361-2.786a17.014,17.014,0,0,1,3.787,1.776c.12.082.233.169.342.258C248.5,87.048,248.9,87.832,248.145,88.616Z" transform="translate(-196.989 -70.961)"/><path class="q" d="M249.9,56.072a6.629,6.629,0,0,1-5.423,6.518,6.9,6.9,0,0,1-1.2.107h-.251a6.566,6.566,0,0,1-3.279-1.008A6.616,6.616,0,1,1,249.9,56.072Z" transform="translate(-187.848 -43.857)"/><path class="d" d="M261.82,131.4s3.33,1.882,2.482.3l-4.353-6.438h0l4.942,6.351s3.154,4.331,1.43,7.326a10.77,10.77,0,0,0,.042,3.07c.3.588-.084,6.857-.084,6.857s-1.177-1.094-1.809-.888-5.088.588-5.088.588Z" transform="translate(-205.074 -102.813)"/><path class="d" d="M266.4,225.037l-.062,1.163c-.4-.291-.955-.615-1.332-.493-.63.211-5.088.59-5.088.59l.2-1.447Z" transform="translate(-205.502 -175.383)"/><path class="u" d="M262.429,131.4s3.33,1.882,2.48.3l-4.353-6.438h0l4.944,6.351s3.154,4.331,1.43,7.326a10.774,10.774,0,0,0,.042,3.07c.3.588-.084,6.857-.084,6.857s-1.179-1.094-1.809-.888-5.077.586-5.077.586Z" transform="translate(-205.541 -102.813)"/><path class="d" d="M228.607,124.843a23.035,23.035,0,0,1-1.028,4.426s-.586,5.974-1.332,7.741-.422,4.2-.844,8.7a5.659,5.659,0,0,1-1.376,3.485,5.13,5.13,0,0,1-4.118,1.416c-.107,0-.209-.013-.309-.022-2.1-.222-4.122-10.347-4.122-10.347s-.966-8.622-.588-9.8-.377-7.907-.63-9.379a8.172,8.172,0,0,1,.695-3.45c.222-.573.4-.968.4-.968a10.127,10.127,0,0,1,1.894-3.448,1.725,1.725,0,0,1,1.248-.524,3.092,3.092,0,0,1,1.554.488l.053.036s7.656,7.823,8.369,9.63A4.966,4.966,0,0,1,228.607,124.843Z" transform="translate(-170.947 -93.026)"/><path class="g" d="M227.4,124.273a23.109,23.109,0,0,1-1.026,4.426s-.588,5.974-1.345,7.741-.422,4.2-.841,8.706a5.639,5.639,0,0,1-1.379,3.483,5.137,5.137,0,0,1-4.118,1.418l-.309-.024c-2.1-.209-4.122-10.347-4.122-10.347s-.966-8.622-.588-9.8-.377-7.907-.63-9.379a8.173,8.173,0,0,1,.695-3.45c.222-.573.4-.968.4-.968a10.17,10.17,0,0,1,1.894-3.448,1.738,1.738,0,0,1,1.248-.524,3.092,3.092,0,0,1,1.554.488l.056.036s7.654,7.823,8.369,9.632A4.529,4.529,0,0,1,227.4,124.273Z" transform="translate(-169.927 -92.582)"/><path class="d" d="M230.74,305.59s-1.734,1.554-2.333,1.483S230.74,305.59,230.74,305.59Z" transform="translate(-186.403 -236.223)"/><path class="d" d="M232.655,312.193a23.765,23.765,0,0,1-2.375.975C229.734,313.294,231.949,311.974,232.655,312.193Z" transform="translate(-187.856 -241.196)"/><path class="d" d="M273.16,207.543s2.713.033,3.123.888S274.044,207.2,273.16,207.543Z" transform="translate(-215.55 -166.799)"/><path class="d" d="M271.46,214.36a9.929,9.929,0,0,1,2.713.948C274.8,215.812,271.46,214.36,271.46,214.36Z" transform="translate(-214.277 -167.487)"/><path class="d" d="M250.711,191.2s-.251,8.549-1.183,9.652S250.711,191.2,250.711,191.2Z" transform="translate(-202.714 -149.859)"/><path class="d" d="M243.662,298.058s-1.732,7.548,1.751,8.012,2.413-8.58,2.413-8.58Z" transform="translate(-197.999 -229.885)"/><path class="q" d="M243.092,297.488s-1.731,7.548,1.752,8.012,2.413-8.58,2.413-8.58Z" transform="translate(-197.556 -229.456)"/><path class="d" d="M234.056,55.22a2.418,2.418,0,0,1-.246-.457c-.464-.966-1.654-.5-2.529-.031l-.468.6a3.881,3.881,0,0,0-.533.821,6.556,6.556,0,0,0-.222.737c-.12.426-.3.835-.457,1.25a14.687,14.687,0,0,0-.935,4.329,6.9,6.9,0,0,1-1.2.107h-.029v-.031c.044-.166.082-.335.115-.5h0a8.741,8.741,0,0,0,.067-2.886v-.062c-.033-.222-.073-.428-.093-.644-.08.149-.158.3-.24.444a4.778,4.778,0,0,1-2.078,2.393,4.337,4.337,0,0,1-1.263.284,7.217,7.217,0,0,0-1.578.262,1,1,0,0,0-.46.278,1.37,1.37,0,0,0-.222.69,5.642,5.642,0,0,1-.251.959,8.41,8.41,0,0,1-2.053,3.063l-.222.222a4.258,4.258,0,0,1-1.363.943,4.116,4.116,0,0,1-1.445.222c.222-.573.4-.968.4-.968a10.171,10.171,0,0,1,1.894-3.448,1.738,1.738,0,0,1,1.248-.524,18.482,18.482,0,0,0,2.255-3.383,6.624,6.624,0,1,1,11.912-4.662Z" transform="translate(-172.481 -43.735)"/><path class="k" d="M224.393,34.316a4.355,4.355,0,0,0-1.474-.943,1.11,1.11,0,0,1-.477-.349,1.485,1.485,0,0,1-.149-.6,3.9,3.9,0,0,0-2.56-2.686,5.593,5.593,0,0,0-4.822-.16A15.521,15.521,0,0,0,213,31.061c-.812.624-1.751,1.059-2.62,1.6a5.2,5.2,0,0,0-2.109,2.171c-.637,1.447-.16,3.108-.078,4.688a7.71,7.71,0,0,1-2.9,6.566,2.559,2.559,0,0,0-.637.557.7.7,0,0,0-.051.793,4.577,4.577,0,0,0,.377.344,1.12,1.12,0,0,1,.093,1,6.264,6.264,0,0,1-1.683,2.886c.033.26.349.362.606.4a14.185,14.185,0,0,0,2.056.151,3.459,3.459,0,0,0,2.886-1.161,7.845,7.845,0,0,0,2.54-4.249,1.4,1.4,0,0,1,.222-.693,1.039,1.039,0,0,1,.46-.277c.915-.315,1.953-.16,2.841-.546,1.15-.5,1.709-1.709,2.318-2.841.02.222.06.431.093.644a8.723,8.723,0,0,1-.171,3.465,7.152,7.152,0,0,0-.386,1.938c.013.484.511,3.052,1.165,2.284s.413-2.464.415-3.416a14.634,14.634,0,0,1,.963-5.212c.158-.415.335-.821.457-1.25a5.958,5.958,0,0,1,.222-.735,3.828,3.828,0,0,1,.533-.821l.468-.6c.875-.462,2.065-.935,2.528.031.18.371.273.779.733.42a1.727,1.727,0,0,0,.444-.95C225.072,36.9,225.312,35.332,224.393,34.316Z" transform="translate(-167.002 -27.996)"/><path class="d" d="M227.652,143.095a4.112,4.112,0,0,0-7.992-1.183c-.011.029-.02.058-.029.087-.968,2.9-.548,10.252-.548,10.252a44.442,44.442,0,0,0,.59,6.573c.464,1.641,1.765,6.351,1.765,7.1s1.21,3.658,1.718,3.869.768,1.849.888,2.144.5,4.127.5,4.127,4.753-.3,4.837-1.052a27,27,0,0,0-1.052-4.458,8.556,8.556,0,0,1-.944-2.735c-.107-1.221-.779-1.776-.655-2.606s-.377-1.263-.377-1.809a13.452,13.452,0,0,0-.38-2.02s-.8-.63-.666-1.387-1.134-2.271-.8-2.817a5.733,5.733,0,0,0,.422-1.894s.42-6.056.715-7.7a16.33,16.33,0,0,1,2.018-4.289S227.663,143.228,227.652,143.095Z" transform="translate(-179.141 -113.619)"/><path class="d" d="M225.662,169.239a5.137,5.137,0,0,1-4.118,1.419c-.149-.575-.371-1.279-.693-1.412-.511-.211-1.718-3.108-1.718-3.869a71.819,71.819,0,0,0-1.776-7.1,43.116,43.116,0,0,1-.588-6.573s-.422-7.348.546-10.249a.322.322,0,0,1,.029-.089,4.112,4.112,0,0,1,7.992,1.183v.209a16.256,16.256,0,0,0-2.018,4.289c-.293,1.64-.717,7.7-.717,7.7a5.712,5.712,0,0,1-.42,1.894c-.335.546.926,2.062.8,2.819a1.719,1.719,0,0,0,.666,1.387,13.474,13.474,0,0,1,.377,2.018c0,.546.506.968.38,1.809s.548,1.387.655,2.608A6.767,6.767,0,0,0,225.662,169.239Z" transform="translate(-177.341 -113.192)"/><path class="g" d="M226.546,142.525a4.112,4.112,0,0,0-7.992-1.183.375.375,0,0,1-.029.089c-.968,2.9-.546,10.249-.546,10.249a44.358,44.358,0,0,0,.588,6.573c.464,1.64,1.776,6.351,1.776,7.1s1.208,3.658,1.718,3.869.766,1.849.888,2.144.5,4.122.5,4.122,4.751-.3,4.835-1.052a26.918,26.918,0,0,0-1.052-4.453,8.6,8.6,0,0,1-.946-2.735c-.109-1.221-.779-1.765-.653-2.606s-.38-1.263-.38-1.809a13.476,13.476,0,0,0-.377-2.018s-.8-.633-.666-1.39-1.137-2.271-.8-2.817a5.652,5.652,0,0,0,.42-1.894s.422-6.056.715-7.7a16.239,16.239,0,0,1,2.02-4.289A1.068,1.068,0,0,1,226.546,142.525Z" transform="translate(-178.282 -113.176)"/><path class="d" d="M221.72,201.7c.127-.127,2.524-2.775,3.281-1.829S221.72,201.7,221.72,201.7Z" transform="translate(-181.263 -160.699)"/><path class="d" d="M222.72,211.658c.093-.1,2.4-.189,2.966-1.483S222.72,211.658,222.72,211.658Z" transform="translate(-182.041 -164.058)"/><g class="o" transform="translate(36.463 7.982)"><path d="M209.221,109.735a.618.618,0,0,1,.127.222.988.988,0,0,0-.127-.859c-.113-.129-.277-.2-.38-.342l-.02-.035a.666.666,0,0,0,.02.666C208.943,109.528,209.107,109.606,209.221,109.735Z" transform="translate(-207.629 -97.927)"/><path d="M224.5,64.844V64.13c-.044-.859-.2-1.74-.24-2.6-.049,1.052.186,2.16.24,3.23C224.5,64.787,224.494,64.815,224.5,64.844Z" transform="translate(-219.695 -61.213)"/><path d="M265.56,116.692c-.584.686-1.041-1.285-1.143-2.062a2.793,2.793,0,0,0-.02.408c.013.484.508,3.052,1.163,2.284a3.376,3.376,0,0,0,.46-2.22A2.6,2.6,0,0,1,265.56,116.692Z" transform="translate(-250.929 -102.525)"/><path d="M217.753,87.664a8.356,8.356,0,0,1,.091,1,8.7,8.7,0,0,0-.091-1.629c-.033-.222-.073-.428-.091-.644-.608,1.132-1.17,2.342-2.318,2.841-.888.384-1.927.222-2.844.546a1,1,0,0,0-.457.277,1.37,1.37,0,0,0-.222.693A7.8,7.8,0,0,1,209.28,95a3.441,3.441,0,0,1-2.886,1.159,13.834,13.834,0,0,1-2.056-.149,1.373,1.373,0,0,1-.309-.08,3.318,3.318,0,0,1-.3.311c.036.26.351.362.608.4a14.142,14.142,0,0,0,2.056.151,3.45,3.45,0,0,0,2.886-1.161,7.835,7.835,0,0,0,2.542-4.249,1.379,1.379,0,0,1,.222-.693,1.019,1.019,0,0,1,.457-.277c.917-.315,1.956-.16,2.844-.546,1.148-.5,1.709-1.709,2.318-2.841C217.68,87.236,217.72,87.451,217.753,87.664Z" transform="translate(-203.73 -80.554)"/><path d="M277.848,61.732a1.642,1.642,0,0,1-.433.95c-.459.36-.555-.049-.733-.42-.464-.966-1.656-.5-2.529-.031l-.468.6a3.858,3.858,0,0,0-.533.821,6.606,6.606,0,0,0-.222.737c-.12.426-.3.835-.457,1.25a14.616,14.616,0,0,0-.963,5.212v.258a14.683,14.683,0,0,1,.959-4.839c.16-.415.337-.821.457-1.25a6.346,6.346,0,0,1,.222-.735,3.749,3.749,0,0,1,.533-.821l.468-.6c.872-.462,2.065-.935,2.529.031.178.371.273.779.733.42a1.669,1.669,0,0,0,.433-.95A8.215,8.215,0,0,0,278.1,60.1,10.449,10.449,0,0,1,277.848,61.732Z" transform="translate(-256.464 -60.1)"/></g><path class="k" d="M325.569,142.252l.131.091a.52.52,0,0,1-.133-.724l5.845-8.487a.522.522,0,0,1,.724-.133l-.129-.089a.834.834,0,0,1,.222,1.161l-5.5,7.958a.837.837,0,0,1-1.163.222Z" transform="translate(-254.862 -108.763)"/><path class="v" d="M.386,0h.16V11.346H.386A.386.386,0,0,1,0,10.96V.386A.386.386,0,0,1,.386,0Z" transform="translate(76.824 23.94) rotate(34.56)"/><rect class="k" width="0.104" height="0.926" rx="0.052" transform="translate(76.831 25.421) rotate(34.56)"/></g><path class="w" d="M289.427,422.448l-1.776-5.652s-1.487-4.011-1.248-6.162a12.721,12.721,0,0,0-.5-4.5l1.461-7.6s.08-.828.076-1.92c0-1.82-.258-4.373-1.518-5.037-2.016-1.063-6.147-10.052-7.013-10.052s-3.649-.579-3.649-1.554a.575.575,0,0,0,0-.107v-.033a.508.508,0,0,0-.022-.078l-.013-.038-.04-.089-.013-.024a2.37,2.37,0,0,0-.4-.526c3.76-.717,7.5-1.505,11.219-2.422h-.138l.138-.033a12.615,12.615,0,0,1-1.476-.1l-.109.024a14.33,14.33,0,0,1-11.714-10.434c-1.483-5.994,1.11-12.249.995-18.425a21.16,21.16,0,0,0-3.354-11.006c-.284-.444-.586-.87-.9-1.288A8.436,8.436,0,0,0,272.676,323c-.1-.138-.2-.271-.3-.4A8.46,8.46,0,0,1,271,333.059a8.384,8.384,0,1,0-14.769-7.941c-.179-.08-.359-.16-.539-.233a8.382,8.382,0,0,1,7.357-5.49c-.167-.011-.331-.016-.5-.016a8.376,8.376,0,0,0-7.723,5.164,12.969,12.969,0,0,0-7.714-.648,8.473,8.473,0,0,0-1.4.486l.115-.091a6.241,6.241,0,0,0-1.747,1.11,20.424,20.424,0,0,0-1.971,2.462,10.4,10.4,0,0,1-2.342,2.127c.073-.035.147-.078.222-.115a11.212,11.212,0,0,1-10.418,1.356,12.78,12.78,0,0,0-2.886-1.043,4.361,4.361,0,0,0-2.284.333c.031-.024.06-.051.093-.076a5.974,5.974,0,0,0-2.4,1.8,11.751,11.751,0,0,0-2.065,4.819,15.7,15.7,0,0,0-.444,3.712,7.232,7.232,0,0,0,1.332,4.4c1.483,1.922,3.507,2.442,5.621,2.788-.062.222-.122.426-.175.644a19.091,19.091,0,0,0,13.18,23.012l.411.7.133.031c.983,1.663,2.06,3.53,3.059,5.328.053.1.1.191.158.284l-1.889.972h0a11.764,11.764,0,0,0-2.406,1.581,1.6,1.6,0,0,0-.444.628,10.785,10.785,0,0,1-2.886,4.156c-1.061.675-1.922,3.963-1.825,5.7s-.577,1.554-2.306,1.647,0,2.608,0,2.608l.044.169c-.08.138-.171.286-.271.444-.444.681-1.028,1.436-1.454,1.4-.77-.073-1.25,1.811-1.2,2.1a7.7,7.7,0,0,1-1.874,2.85c-.528.242-2.786.7-2.162,2.866l-2.739,2.788-2.22,2.127s-3.17-1.789-8.311,3.774a4.6,4.6,0,0,1,1.7.16l-.147.071c-1.354.642-3.7,1.736-5.432,2.442l-9.233.286v-6.882s-.817-1.931-1.776,0l-.242,6.953-20.068.65,3.76-4h0l.049-.053a3.292,3.292,0,0,0,.739-3.257l-15.69-49.32h0l-.109-.346a2.7,2.7,0,0,0-2.209-1.86l-21.8-2.941-.151-.02-2,.544a1.962,1.962,0,0,0-1.367,2.442c.515,1.776,1.361,4.675,2.442,8.318h-3.01l2.307,19.908,1.405,7.659q.539,2.93,1.259,5.825c1.157,4.662,3.445,14.6,3.5,20.372L128.42,439.115v3.736H236.185a.184.184,0,0,0,.018.036h52.5s-.575-1.015.666-2.464.626-7.2.626-7.2-.7-.919.155-2.948S289.427,422.448,289.427,422.448Zm-133.9-4.34-2.864.093L150,400.873C151.971,407.2,153.884,413.229,155.525,418.108Zm73.741,10.531-1.858-3.792a2.067,2.067,0,0,0,1.205-.322,7.164,7.164,0,0,0,1.92-2.9l3.223-3.829.266-.32a13.368,13.368,0,0,0,2.036,3.956c1.536,1.74,1.729,6.764,2.2,8.6s.1,1.063,0,2.127a2.776,2.776,0,0,0,.064.775A12.157,12.157,0,0,0,229.266,428.639Z" transform="translate(-108.675 -230.643)"/><path class="x" d="M93.83,754.518l18.947-20.536,75.255-2.422,13.137,26.657H93.83Z" transform="translate(-72.999 -545.973)"/><path class="i" d="M93.83,754.518l18.947-20.536,75.255-2.422,13.137,26.657H93.83Z" transform="translate(-72.999 -545.973)"/><path class="x" d="M426.668,811.289V812a1.385,1.385,0,0,1-1.385,1.385H384.831c-.766,0,0-1.529,0-1.529l-.457-10.019a1.654,1.654,0,0,1,1.248-1.678,5.349,5.349,0,0,1,3.8.344l25.058-.637a8.05,8.05,0,0,1,1.554.073,6.806,6.806,0,0,1,4.593,2.721l5.759,7.807A1.386,1.386,0,0,1,426.668,811.289Z" transform="translate(-297.803 -604.457)"/><path class="d" d="M427.083,848.7h0a1.385,1.385,0,0,1-1.385,1.385H385.247c-.766,0,0-1.529,0-1.529a12.132,12.132,0,0,1,5.55-.888l29.525-.639s3.488.08,5.528.3A1.383,1.383,0,0,1,427.083,848.7Z" transform="translate(-298.209 -641.16)"/><path class="u" d="M394.742,783.55H369.36l.7,7.718,29.4-.511Z" transform="translate(-277.225 -586.422)"/><path class="x" d="M212.01,804.334v2.679l-26.592,1.079s-6.08-.415-6.826-4.151a3.485,3.485,0,0,1,.022-1.177c.269-1.574,1.618-4.322,7.568-5.592l7.326-.752h16.334S211.95,798.531,212.01,804.334Z" transform="translate(-147.678 -601.785)"/><path class="d" d="M212.01,826.654v2.6l-26.592,1.078s-6.08-.415-6.826-4.151a3.485,3.485,0,0,1,.022-1.177,11.977,11.977,0,0,0,8.658,2.966l23.407-1.019A13.2,13.2,0,0,0,212.01,826.654Z" transform="translate(-147.678 -624.02)"/><ellipse class="d" cx="8.176" cy="1.403" rx="8.176" ry="1.403" transform="translate(35.679 197.554) rotate(-2.95)"/><path class="x" d="M188.315,598.074l-4.3,2.127-4.577-1.083-.022-7.461c.291-5.445-2.22-16.345-3.461-21.284q-.717-2.864-1.254-5.772l-1.407-7.581L171,537.32h5.452l3.206,4.591Z" transform="translate(-141.803 -405.663)"/><path class="x" d="M194.135,598.105l-4.3,2.127L187.089,584.3c.053-2.715-3.35-15.6-3.572-16.134-2.713-6.476-5.037-30.8-5.037-30.8h3.794l3.2,4.582Z" transform="translate(-147.622 -405.693)"/><path class="y" d="M194.135,598.105l-4.3,2.127L187.089,584.3c.053-2.715-3.35-15.6-3.572-16.134-2.713-6.476-5.037-30.8-5.037-30.8h3.794l3.2,4.582Z" transform="translate(-147.622 -405.693)"/><path class="x" d="M215.617,544.075l-14.651,15.439-1.718.122-2.093.151a2.36,2.36,0,0,1-2.326-1.4c-4.44-9.99-18.634-58.293-21.622-68.524a1.94,1.94,0,0,1,1.361-2.42l2-.537.149.018,21.344,2.864a3.252,3.252,0,0,1,2.664,2.233l15.624,48.822A3.25,3.25,0,0,1,215.617,544.075Z" transform="translate(-143.458 -367.034)"/><path class="d" d="M215.617,544.075l-14.651,15.439-1.718.122-2.093.151a2.36,2.36,0,0,1-2.326-1.4c-4.44-9.99-18.634-58.293-21.622-68.524a1.94,1.94,0,0,1,1.361-2.42l2-.537.149.018,21.344,2.864a3.252,3.252,0,0,1,2.664,2.233l15.624,48.822A3.25,3.25,0,0,1,215.617,544.075Z" transform="translate(-143.458 -367.034)"/><path class="x" d="M228.164,544.2l-14.6,15.393-1.718.122-21.91-70.149A6.693,6.693,0,0,1,189.32,487l21.7,2.913a2.681,2.681,0,0,1,2.2,1.842l15.71,49.093A3.374,3.374,0,0,1,228.164,544.2Z" transform="translate(-156.056 -367.122)"/><path class="u" d="M238.3,554.61a3.254,3.254,0,0,1-.59.733l-14.374,13.364-19.611-65,18.831,1.865a3.3,3.3,0,0,1,2.839,2.338l13.228,44.05A3.314,3.314,0,0,1,238.3,554.61Z" transform="translate(-167.267 -380.437)"/><path class="d" d="M304.3,561.146,288.56,512.11a3.3,3.3,0,0,1,2.839,2.338l13.228,44.05A3.314,3.314,0,0,1,304.3,561.146Z" transform="translate(-226.822 -388.355)"/><circle class="g" cx="8.336" cy="8.336" r="8.336" transform="translate(164.295 76.14)"/><path class="g" d="M698.325,333.458a8.336,8.336,0,0,1,7.84-8.322c-.166,0-.33-.016-.5-.016a8.337,8.337,0,1,0,0,16.675c.167,0,.331,0,.5-.017A8.336,8.336,0,0,1,698.325,333.458Z" transform="translate(-534.781 -250.366)"/><path class="d" d="M703.192,339.036a8.336,8.336,0,0,1,7.842-8.32c-.163,0-.33-.016-.5-.016a8.337,8.337,0,1,0,0,16.675,4.958,4.958,0,0,0,.5-.019A8.334,8.334,0,0,1,703.192,339.036Z" transform="translate(-538.447 -254.56)"/><path class="z" d="M475.743,754.581a22.6,22.6,0,0,1-2.4,1.094,18.382,18.382,0,0,1-8.456,1.441,14.525,14.525,0,0,0-8.178,1.052l-1.148-8.513s3.774-1.11,5.308-1.388a61.868,61.868,0,0,0,7.29-3.072c.666-.311,1.081-.515,1.081-.515h3.827Z" transform="translate(-352.249 -566.024)"/><path class="d" d="M519.9,754.581a22.591,22.591,0,0,1-2.4,1.094c-.26-7.581-3.168-9.832-5.184-10.48.666-.311,1.081-.515,1.081-.515h3.827Z" transform="translate(-395.537 -566.256)"/><path class="g" d="M528.616,664.437v18.647l-1,1.185-3.208,3.8a7.142,7.142,0,0,1-1.914,2.868c-1.2.87-3.925-.286-3.925-.286l-.766,1.243a6.082,6.082,0,0,1-2.533,0c-.812-.335-2.824.957-2.824.957.289-13.679-7.126-12.578-7.126-12.578,5.117-5.5,8.274-3.732,8.274-3.732l2.2-2.1,2.726-2.762c-.621-2.138,1.625-2.595,2.151-2.835a7.647,7.647,0,0,0,1.867-2.821c-.047-.286.428-2.153,1.194-2.08.426.04,1.01-.708,1.449-1.381.351-.542.608-1.034.608-1.034Z" transform="translate(-389.491 -501.849)"/><path class="aa" d="M640.09,580.576l5.638-2.886-.32,3.381,1.11,3.4s-1.019,2.63-1.145,2.917-2.551,6.282-2.551,6.282l-1.945-2.455Z" transform="translate(-491.83 -440.257)"/><path class="d" d="M601.4,567.119l-.79-10.636,5.639-2.884" transform="translate(-452.396 -416.344)"/><path class="z" d="M648.384,497.867s-1.874,2.7-4.44,6.129c-5.972,7.992-15.686,19.979-14.208,11.282.049-.284.087-.568.12-.855-.364.244-1.2.031-2.109-.4l-.062-.029a10.865,10.865,0,0,1-1.3-.75c-.047-.029-.091-.06-.135-.091-1.01-.7-1.818-1.527-1.776-2.1.717-12.485,3.623-6.531,4.44-5.146a.9.9,0,0,0,.187.26q-.053-.146-.12-.306a60.928,60.928,0,0,0-2.917-5.75v-.022l-.167-.3c-1.039-1.854-2.164-3.791-3.177-5.492l-.273-.457c-1.6-2.682-2.841-4.682-2.841-4.682a132.462,132.462,0,0,1,13.382-10.678c5.106-3.372,9.43-4.928,8.047.728a16.988,16.988,0,0,0,.191,9.324c.029.1.06.191.093.284a15.053,15.053,0,0,0,.568,1.445,16.4,16.4,0,0,0,.995,1.887A18.289,18.289,0,0,0,648.384,497.867Z" transform="translate(-474.993 -361.519)"/><path class="y" d="M637.05,488.526c-3.443,3.741-4.176,7.326-9.661,7.326a18.871,18.871,0,0,1-4.731-.6c-1.729-2.908-3.108-5.139-3.108-5.139s24.468-22.374,21.429-9.95C640.051,483.918,636.159,485.884,637.05,488.526Z" transform="translate(-475.424 -363.906)"/><path class="z" d="M607.644,410.386a18.763,18.763,0,1,1-5.5-13.352A18.847,18.847,0,0,1,607.644,410.386Z" transform="translate(-437.124 -299.119)"/><path class="d" d="M628.948,623.38s.335,5.357,3.732,4.926.813,11.383.813,11.383l-3.774,3.443-4.071,1.252a23.682,23.682,0,0,1-3.539-1.245c.049-.193,1.434-11.381,1.434-11.381l2.1-5.981Z" transform="translate(-477.937 -474.188)"/><path class="x" d="M628.963,625.1s.335,5.357,3.732,4.928.812,11.384.812,11.384l-3.774,3.443-4.067,1.243a23.937,23.937,0,0,1-3.538-1.243c.049-.191,1.434-11.383,1.434-11.383l2.1-5.978Z" transform="translate(-477.952 -475.48)"/><path class="d" d="M598.279,664.422v18.647l-1,1.185a20.811,20.811,0,0,1-1.332-9.792c.633-4.427-.628-10.092-1.086-11.928.351-.542.608-1.034.608-1.034Z" transform="translate(-457.928 -502.658)"/><path class="d" d="M644.468,606.754a10.937,10.937,0,0,1-.81,3.05c-.124.3-.251.582-.377.85-1.01-.7-1.818-1.527-1.776-2.1.717-12.485,3.623-6.531,4.44-5.146A4.416,4.416,0,0,0,644.468,606.754Z" transform="translate(-493.011 -458.072)"/><path class="d" d="M650.952,590.864a64.97,64.97,0,0,0-3.092-6.069l.167-.084,3.046,6.078A.647.647,0,0,0,650.952,590.864Z" transform="translate(-497.873 -446.237)"/><path class="d" d="M676.688,556.431s-20.759,29.847-18.647,17.411c.049-.284.087-.568.12-.855-.373.249-1.236.022-2.171-.431.142-.83.222-1.4.222-1.4l2.3-6.5s1.332-5.166,1.148-6.216l.062-.042,11.424-7.67h.011A18.289,18.289,0,0,0,676.688,556.431Z" transform="translate(-502.879 -419.233)"/><path class="g" d="M648.72,569.553l-1.627,8.411-4.884,35.49H599.84s.764-6.216.764-7.175-.859-2.391-.764-3.443.462-.289,0-2.1-.666-6.793-2.191-8.513-4.025-8.038-3.263-13.386S593.14,566.3,593.14,566.3s-1.72-2.488,0-2.584,2.393.087,2.3-1.629.764-4.97,1.816-5.641a10.726,10.726,0,0,0,2.87-4.114,1.6,1.6,0,0,1,.444-.624,12.8,12.8,0,0,1,2.613-1.671l1.674-.837v.022l3.037,6.056s-1.421.69-1.658,3.463a10.906,10.906,0,0,1-.81,3.05c-.08.191-.16.38-.242.559-.244.542-.493,1.021-.7,1.4h0c-.313.566-.537.914-.537.914s-.082.648-.206,1.554h0a52.526,52.526,0,0,1-.941,5.514c-.222.626-.666,1.7-.912,2.664a3.682,3.682,0,0,0-.162,1.523.278.278,0,0,0,.022.084c.286.888,1.72-2.93,1.72-2.93s1.052-3.252,1.532-3.252c.366,0,1.19-4.591,1.554-6.708.106-.633.171-1.043.171-1.043l2.3-6.5s.318-1.228.622-2.608a15.212,15.212,0,0,0,.526-3.61l.062-.042,11.424-7.67h.011l.176-.118h-.018c-.08,0-.311-.142-.752-1.181-.113-.264-.24-.584-.38-.979,0,0,3.654-1.467,4.957-.393a1.155,1.155,0,0,1,.222.235.936.936,0,0,1,.1.158,26.945,26.945,0,0,0,2.1,4.258,3.753,3.753,0,0,0,.3.349c1.041,1.09,3.108,2.366,2.76,2.713-.382.382,2.87,2,2.87,2a9.573,9.573,0,0,1,2.5,2,.911.911,0,0,1,.177.484c0,.957,2.775,1.53,3.636,1.53s4.975,8.9,6.982,9.95S648.72,569.553,648.72,569.553Z" transform="translate(-452.469 -401.181)"/><g class="o" transform="translate(147.503 137.414)"><path d="M631.1,592.539s-1.421.69-1.658,3.463a10.838,10.838,0,0,1-.812,3.05,19.548,19.548,0,0,1-.944,1.962h0c-.313.566-.537.915-.537.915s-.082.648-.206,1.554h0a51.257,51.257,0,0,1-.944,5.525c-.222.626-.666,1.7-.912,2.664a3.682,3.682,0,0,0-.162,1.523.283.283,0,0,0,.022.084c.286.888,1.721-2.93,1.721-2.93s1.052-3.252,1.531-3.252c.135,0,.335-.635.551-1.541.109-.726.222-1.452.3-2.06h0c.124-.91.207-1.554.207-1.554s.126-.2.322-.533c.2-1.17.346-2.053.346-2.053l2.3-6.5s.167-.648.375-1.53l-2.442-4.855-1.674.837h0Z" transform="translate(-624.889 -575.856)"/><path d="M754.621,562.726c-2-1.052-6.12-9.95-6.982-9.95S744,552.2,744,551.247s-2.677-2.489-2.677-2.489-3.252-1.625-2.87-2c.344-.346-1.718-1.623-2.759-2.713a3.965,3.965,0,0,1-.3-.349,27.24,27.24,0,0,1-2.1-4.257,1.025,1.025,0,0,0-.1-.16,1.278,1.278,0,0,0-.222-.235,3.472,3.472,0,0,0-2.633-.271,1.587,1.587,0,0,1,.528.271,1.279,1.279,0,0,1,.222.235,1.016,1.016,0,0,1,.1.16,26.933,26.933,0,0,0,2.1,4.257,3.9,3.9,0,0,0,.3.34c1.041,1.09,3.108,2.367,2.759,2.713-.382.382,2.87,2,2.87,2s2.677,1.532,2.677,2.488,2.775,1.53,3.636,1.53,4.975,8.9,6.982,9.949,1.436,6.882,1.436,6.882l-1.629,8.427-4.884,35.49h2.1l4.884-35.49,1.627-8.418S756.63,563.779,754.621,562.726Z" transform="translate(-706.931 -538.657)"/></g><path class="z" d="M417.439,763.921s-12.167-3.521-13.029,1.885,4.975,8.513,8.7,8.418,5.357-3.636,5.357-3.636Z" transform="translate(-313.974 -579.844)"/><path class="z" d="M572.956,819.1s-2.726,1.96-8.513,1.96a81.783,81.783,0,0,0-12.531,1.243s-8.609-20.279-25.875-2.919c0,0-3.108,4.018,13.009,4.44,0,0,5.692-.191,6.935,2.63h32.189l4.4-3.3Z" transform="translate(-402.709 -614.182)"/><path class="x" d="M438.458,725.543s-.813-1.911-1.776,0l-.522,14.829,1.145,3.492,1.146-3.108Z" transform="translate(-338.399 -550.457)"/><path class="d" d="M725.072,539.238a16.368,16.368,0,0,0-4.04,2.318c-.1,0-.444-.222-1.132-2.16C719.9,539.4,724.029,537.737,725.072,539.238Z" transform="translate(-552.022 -411.722)"/><path class="d" d="M690.938,547.125c-2.133,1.745-7.87,6.7-8.529,10.061-.813,4.149-3.252,3.747-3.252,3.747-3.048-6.611-5.146-8.231-6.347-8.46l11.424-7.672h.011l.175-.118H684.4c-.08,0-.311-.14-.752-1.179l4.577-1.374a1.157,1.157,0,0,1,.222.235,1.027,1.027,0,0,1,.1.158,26.926,26.926,0,0,0,2.1,4.258A3.963,3.963,0,0,0,690.938,547.125Z" transform="translate(-515.701 -413.325)"/><path class="ab" d="M690.938,545.41c-2.133,1.745-7.87,6.7-8.529,10.063-.812,4.147-3.252,3.745-3.252,3.745-3.048-6.609-5.146-8.236-6.347-8.458l11.424-7.67h.011l.175-.118H684.4c-.08,0-.311-.142-.753-1.181l4.577-1.372a1.163,1.163,0,0,1,.222.235.926.926,0,0,1,.1.158,26.923,26.923,0,0,0,2.1,4.258A3.655,3.655,0,0,0,690.938,545.41Z" transform="translate(-515.701 -412.041)"/><path class="d" d="M696.23,705.948c.142-.047,7.6-4.267,6.74-1.057S696.23,705.948,696.23,705.948Z" transform="translate(-534.086 -536.084)"/><path class="d" d="M551,732.08s3.92,6.1,5.308,5.907S551,732.08,551,732.08Z" transform="translate(-424.778 -557.224)"/><path class="d" d="M573,721.85s.24,4.735,2.3,5.068S573,721.85,573,721.85Z" transform="translate(-441.487 -549.591)"/><path class="d" d="M671,790.36s4.87,8.1,3.923,10.906Z" transform="translate(-515.257 -597.07)"/><path class="d" d="M696.44,794.67s6.589,8.658,5.448,9.375S696.44,794.67,696.44,794.67Z" transform="translate(-534.324 -600.423)"/><path class="d" d="M629.423,732.08s-.677,6.156,1.865,7.945Z" transform="translate(-483.991 -557.048)"/><path class="d" d="M728.925,608.343s-11.279,8.753-9.472,17.841,3.552,9.757,3.552,9.757.666,3.634,1.913,5.166a3.435,3.435,0,0,1,1.052,2.535s1.148-.526,1.53,2.1a8.535,8.535,0,0,0,2.391,4.5,2.958,2.958,0,0,1-1.052,3.252c-1.718,1.148-1.332,2.393-1.332,2.393l-6.984,4.065,7.779,7.7h20.09s-.575-1,.666-2.442.624-7.126.624-7.126-.695-.91.156-2.919-.731-7.748-.731-7.748l-1.776-5.6s-1.483-3.969-1.243-6.1a12.612,12.612,0,0,0-.488-4.455L741.743,619.1S741.934,606.956,728.925,608.343Z" transform="translate(-549.631 -455.373)"/><path class="g" d="M730.646,608.343s-11.288,8.753-9.47,17.841,3.539,9.757,3.539,9.757.666,3.634,1.913,5.166a3.435,3.435,0,0,1,1.052,2.535s1.148-.526,1.532,2.1a8.55,8.55,0,0,0,2.391,4.5,2.959,2.959,0,0,1-1.052,3.252c-1.718,1.148-1.332,2.393-1.332,2.393l-6.984,4.065,7.8,7.7h20.088s-.573-1,.666-2.442.622-7.126.622-7.126-.695-.91.155-2.919-.73-7.748-.73-7.748l-1.776-5.6s-1.483-3.969-1.243-6.1a12.558,12.558,0,0,0-.493-4.455L743.463,619.1S743.654,606.956,730.646,608.343Z" transform="translate(-550.922 -455.373)"/><path class="d" d="M781.55,635.974s8.036,2.726,10.187,4.067S788.58,634.731,781.55,635.974Z" transform="translate(-598.052 -484.85)"/><path class="d" d="M800.51,822.9s11.43,1.434,10.764,3.683S800.51,822.9,800.51,822.9Z" transform="translate(-612.315 -622.387)"/><path class="d" d="M790.42,833.88s8.362,2.68,6.881,4.884S790.42,833.88,790.42,833.88Z" transform="translate(-605.003 -630.929)"/><path class="d" d="M621.064,436.292c-4.562.888-9.146,1.647-13.732,2.4l-1.194.2a45.6,45.6,0,0,1-7.616.819,7.812,7.812,0,0,1-3.634-.706,4.008,4.008,0,0,1-.666-.444,3.253,3.253,0,0,1-1.318-2.506c.013-1.789,1.711-3.03,3.172-4.065,2.138-1.516,4.249-3.441,5.075-5.858a6.667,6.667,0,0,0,.322-1.4,12.17,12.17,0,0,0-1.3-5.994,13.052,13.052,0,0,0-3.81-5.567,5.235,5.235,0,0,0-2.4-.97c-2.682-.355-5.219,1.554-7.92,1.447a7.588,7.588,0,0,1-5.381-3.163c-.961-1.208-1.57-2.824-3.017-3.541a16.849,16.849,0,0,0-5.093-1.223,18.847,18.847,0,1,1,32.042,17.508c.029.1.06.191.093.284a15.078,15.078,0,0,0,.568,1.445s3.654-1.467,4.957-.393a1.166,1.166,0,0,1,.222.235.936.936,0,0,1,.1.158,26.941,26.941,0,0,0,2.1,4.258,3.718,3.718,0,0,0,.3.349c1.041,1.09,3.108,2.366,2.76,2.713-.382.382,2.87,2,2.87,2A9.643,9.643,0,0,1,621.064,436.292Z" transform="translate(-438.287 -298.411)"/><path class="g" d="M543.461,365.188c-1.7-2.193-1.516-5.292-.888-7.992a11.6,11.6,0,0,1,2.058-4.771,5.223,5.223,0,0,1,4.569-2.071,12.777,12.777,0,0,1,2.886,1.032,11.174,11.174,0,0,0,12.48-3.312,20.837,20.837,0,0,1,1.965-2.442,6.975,6.975,0,0,1,3.015-1.521c4.822-1.216,9.794,1.179,13.919,3.956a31.778,31.778,0,0,1,9.179,8.7,20.837,20.837,0,0,1,3.33,10.893c.118,6.127-2.466,12.307-.988,18.252a14.159,14.159,0,0,0,13.242,10.434c-8.307,2.038-16.756,3.434-25.194,4.826a45.151,45.151,0,0,1-7.616.819,7.806,7.806,0,0,1-3.634-.706,3.516,3.516,0,0,1-2-2.944c.013-1.792,1.714-3.03,3.172-4.065,2.535-1.8,5.033-4.171,5.4-7.257a12.142,12.142,0,0,0-1.3-5.994c-1.219-2.908-3.077-6.129-6.2-6.546-2.679-.357-5.219,1.554-7.921,1.445a7.594,7.594,0,0,1-5.381-3.163c-.961-1.208-1.569-2.824-3.015-3.541C550.962,367.452,546.25,368.781,543.461,365.188Z" transform="translate(-414.142 -262.118)"/><path class="g" d="M728.606,350.654a8.336,8.336,0,0,0,2.366-11.184c.1.129.2.262.3.4a8.337,8.337,0,1,1-13.7,9.506c-.092-.138-.184-.278-.268-.418A8.336,8.336,0,0,0,728.606,350.654Z" transform="translate(-549.35 -261.285)"/><g class="o" transform="translate(127.969 82.439)"><path d="M636.387,349.768a20.445,20.445,0,0,1,1.965-2.442,4.943,4.943,0,0,1,.4-.326,6.137,6.137,0,0,0-1.736,1.09,19.805,19.805,0,0,0-1.965,2.442,10.26,10.26,0,0,1-2.329,2.118A10.537,10.537,0,0,0,636.387,349.768Z" transform="translate(-612.595 -347)"/><path d="M584.332,424.257a45.353,45.353,0,0,1-7.616.817,7.81,7.81,0,0,1-3.634-.7,3.479,3.479,0,0,1-1.987-2.946c.013-1.789,1.712-3.028,3.172-4.065,2.535-1.8,5.03-4.171,5.4-7.257a12.149,12.149,0,0,0-1.3-5.994c-1.219-2.908-3.075-6.131-6.2-6.546-2.679-.357-5.217,1.554-7.918,1.443a7.583,7.583,0,0,1-5.381-3.161c-.964-1.208-1.572-2.824-3.017-3.541-3.587-1.776-8.3-.444-11.1-4.045-1.7-2.193-1.514-5.294-.888-7.992a11.65,11.65,0,0,1,2.056-4.773,6.228,6.228,0,0,1,1.048-1.014,5.958,5.958,0,0,0-2.386,1.776,11.5,11.5,0,0,0-2.058,4.771c-.628,2.7-.812,5.805.888,7.992,2.788,3.594,7.5,2.264,11.1,4.045,1.445.719,2.053,2.335,3.015,3.552a7.613,7.613,0,0,0,5.381,3.161c2.7.115,5.241-1.8,7.92-1.445,3.126.417,4.984,3.638,6.2,6.549a12.04,12.04,0,0,1,1.3,5.994c-.366,3.086-2.864,5.459-5.4,7.257-1.458,1.034-3.159,2.275-3.172,4.065a3.507,3.507,0,0,0,2,2.946,7.907,7.907,0,0,0,3.634.7,45.008,45.008,0,0,0,7.616-.819c8.436-1.392,16.887-2.786,25.194-4.826a12.5,12.5,0,0,1-1.47-.1C599.323,421.782,591.822,423.021,584.332,424.257Z" transform="translate(-542.063 -368.38)"/></g><ellipse class="z" cx="3.641" cy="1.989" rx="3.641" ry="1.989" transform="translate(97.372 184.201)"/><path class="ac" d="M446.908,104.941a57.392,57.392,0,0,0-12.334-2.34,19.29,19.29,0,0,0-11.965,3.063,31.764,31.764,0,0,0-4.573,4.309,148.34,148.34,0,0,1-25.453,21.52c-3.732,2.493-7.721,4.87-12.167,5.49s-9.47-.921-11.765-4.775l1.367-.7" transform="translate(-284.107 -85.167)"/><path class="u" d="M774.567,58.2H745.879a2.049,2.049,0,0,1-2.049-2.049v-4.1A2.049,2.049,0,0,1,745.879,50h28.688a2.049,2.049,0,0,1,2.049,2.049v4.1A2.049,2.049,0,0,1,774.567,58.2Zm-3.075-5.634a1.536,1.536,0,1,0,1.088.449A1.536,1.536,0,0,0,771.492,52.566Zm-4.1,0A1.536,1.536,0,1,0,768.93,54.1a1.536,1.536,0,0,0-1.536-1.536Zm7.172,15.881H745.879A2.051,2.051,0,0,1,743.83,66.4V62.3a2.049,2.049,0,0,1,2.049-2.049h28.688a2.049,2.049,0,0,1,2.049,2.049v4.1A2.051,2.051,0,0,1,774.567,68.447Zm-3.075-5.636a1.536,1.536,0,1,0,1.088.449,1.538,1.538,0,0,0-1.088-.449Zm-4.1,0a1.538,1.538,0,1,0,1.536,1.536,1.538,1.538,0,0,0-1.536-1.536Zm7.172,15.881H745.879a2.049,2.049,0,0,1-2.049-2.049v-4.1a2.049,2.049,0,0,1,2.049-2.049h28.688a2.049,2.049,0,0,1,2.049,2.049v4.093a2.049,2.049,0,0,1-2.049,2.053Zm-3.075-5.636a1.536,1.536,0,1,0,1.089.45A1.538,1.538,0,0,0,771.492,73.056Zm-4.1,0a1.538,1.538,0,1,0,1.536,1.538,1.538,1.538,0,0,0-1.536-1.538Z" transform="translate(-567.904 -44.26)"/><path class="ac" d="M903.21,111.328a8.518,8.518,0,0,1,5.388.828,7,7,0,0,1,2.961,4.884,20.8,20.8,0,0,1-.133,5.867l-1.243,10.513a10.031,10.031,0,0,0,.133,4.409,3.445,3.445,0,0,0,3.274,2.509" transform="translate(-689.654 -91.902)"/><path class="ac" d="M361.57,330.043c4.739.118,10.083,0,13.357-3.428,2.486-2.6,3.07-6.413,3.907-9.914a42.33,42.33,0,0,1,8.436-17.386,31.061,31.061,0,0,1,16.121-10.374c5.07-1.248,10.4-1.012,15.5-2.133s10.331-4.142,11.741-9.168" transform="translate(-279.394 -213.179)"/><path class="ad" d="M674.092,228.039,661.3,232.7a.251.251,0,0,0-.049.444l1.909,1.059a.484.484,0,0,1,.222.289l1.094,3.463c0,.146.266.222.291.08l.153-2.708a.979.979,0,0,1,.3-.508l7.028-5.106a.157.157,0,0,1,.14-.018.142.142,0,0,1,.044.235l-6.249,5.7a1.2,1.2,0,0,0-.286.5l-.666,2.262c0,.2.142.3.3.142l1.332-1.17a.242.242,0,0,1,.344,0l2.624,2.575a.24.24,0,0,0,.4-.091l4.154-11.481a.242.242,0,0,0-.306-.317Z" transform="translate(-507.251 -177.521)"/></svg>